<svg xmlns="http://www.w3.org/2000/svg" xmlns:xlink="http://www.w3.org/1999/xlink" width="125.072" height="125.072" viewBox="0 0 125.072 125.072">
  <defs>
    <clipPath id="clip-path">
      <rect id="Rectángulo_345802" data-name="Rectángulo 345802" width="72.356" height="82.415" fill="none"/>
    </clipPath>
  </defs>
  <g id="Grupo_1013379" data-name="Grupo 1013379" transform="translate(-1089 -2146)">
    <circle id="Elipse_4840" data-name="Elipse 4840" cx="62.5" cy="62.5" r="62.5" transform="translate(1089 2146)" fill="#304c8e"/>
    <g id="Group_43_" data-name="Group (43)" transform="translate(1182 2239)">
      <path id="Trazado_598926" data-name="Trazado 598926" d="M36.549,16.055,16.055,36.549a15.864,15.864,0,0,0,.655,1.582l21.422-21.42a15.863,15.863,0,0,0-1.582-.655Z" transform="translate(-15.17 -15.17)" fill="#4ca220"/>
      <path id="Trazado_598927" data-name="Trazado 598927" d="M18.367.8.8,18.367a16.022,16.022,0,0,0,.26,1.7L20.065,1.058A16.022,16.022,0,0,0,18.367.8Z" transform="translate(-0.754 -0.754)" fill="#4ca220"/>
      <path id="Trazado_598928" data-name="Trazado 598928" d="M299.7,283.668c0-.137-.008-.274-.01-.41l-16.454,16.453c.137,0,.273.01.41.01a16.091,16.091,0,0,0,1.678-.088l14.289-14.289a16.09,16.09,0,0,0,.088-1.678Z" transform="translate(-267.627 -267.648)" fill="#4ca220"/>
      <path id="Trazado_598929" data-name="Trazado 598929" d="M68.634,46.122q-.611-.481-1.267-.9L45.2,67.389q.42.656.9,1.267Z" transform="translate(-42.708 -42.73)" fill="#4ca220"/>
      <path id="Trazado_598930" data-name="Trazado 598930" d="M0,15.009,15.009,0c-.434.026-.863.07-1.287.131L.131,13.722C.07,14.145.026,14.575,0,15.009Z" fill="#4ca220"/>
      <path id="Trazado_598931" data-name="Trazado 598931" d="M106.76,84.058l-22.7,22.7a16.114,16.114,0,0,0,1.365,1.222l22.559-22.559A16.123,16.123,0,0,0,106.76,84.058Z" transform="translate(-79.426 -79.426)" fill="#4ca220"/>
      <path id="Trazado_598932" data-name="Trazado 598932" d="M159.927,138.548a16.093,16.093,0,0,0-.877-1.6l-22.108,22.108a15.959,15.959,0,0,0,1.6.877Z" transform="translate(-129.396 -129.396)" fill="#4ca220"/>
      <path id="Trazado_598933" data-name="Trazado 598933" d="M28.816,19.794a16.1,16.1,0,0,0-9.022,9.022Z" transform="translate(-18.704 -18.704)" fill="#4ca220"/>
      <path id="Trazado_598934" data-name="Trazado 598934" d="M382.436,392.617a16.085,16.085,0,0,0,10.18-10.18Z" transform="translate(-361.361 -361.361)" fill="#4ca220"/>
      <path id="Trazado_598935" data-name="Trazado 598935" d="M220.714,200.477l-20.237,20.237a15.962,15.962,0,0,0,2.154.537l18.619-18.619A16.154,16.154,0,0,0,220.714,200.477Z" transform="translate(-189.429 -189.429)" fill="#4ca220"/>
    </g>
    <g id="Grupo_1015792" data-name="Grupo 1015792" transform="translate(1116.806 2165.918)">
      <g id="Grupo_1015791" data-name="Grupo 1015791" clip-path="url(#clip-path)">
        <path id="Trazado_606037" data-name="Trazado 606037" d="M106.351,141.081c-.047-.1-.09-.191-.131-.282-.359-.81-.729-1.615-1.065-2.434a.541.541,0,0,1,.088-.477q1.542-1.587,3.129-3.131a.631.631,0,0,1,.555-.075c.794.326,1.564.709,2.358,1.035a.819.819,0,0,0,.629-.014,18.983,18.983,0,0,1,4.115-1.711.649.649,0,0,0,.35-.352c.332-.821.645-1.649.947-2.481a.465.465,0,0,1,.515-.34c1.435.009,2.871.016,4.305,0a.519.519,0,0,1,.562.407c.291.805.579,1.612.9,2.407a.648.648,0,0,0,.368.352,19.381,19.381,0,0,1,4.088,1.664.961.961,0,0,0,.71.032c.772-.3,1.528-.648,2.28-1a.518.518,0,0,1,.682.121c1.039,1.047,2.1,2.072,3.133,3.125a.55.55,0,0,1,.023.48c-.342.8-.724,1.585-1.062,2.388a.758.758,0,0,0,0,.581,18.342,18.342,0,0,1,1.691,4.065.88.88,0,0,0,.47.483c.8.341,1.622.647,2.443.942a.394.394,0,0,1,.319.428c-.007,1.473,0,2.947-.017,4.42a.531.531,0,0,1-.294.369c-.821.336-1.661.627-2.479.969a.8.8,0,0,0-.431.453,15.03,15.03,0,0,1-1.68,4.019.693.693,0,0,0-.034.718c.363.776.694,1.567,1.062,2.341a.421.421,0,0,1-.1.563q-1.529,1.51-3.039,3.039a.489.489,0,0,1-.646.1c-.765-.358-1.543-.687-2.307-1.047a.637.637,0,0,0-.673.017,14.551,14.551,0,0,1-3.991,1.659.763.763,0,0,0-.6.539c-.286.807-.611,1.6-.907,2.405a.4.4,0,0,1-.437.307q-2.174-.018-4.348,0a.422.422,0,0,1-.459-.341c-.3-.832-.617-1.66-.958-2.476a.744.744,0,0,0-.417-.4,17.673,17.673,0,0,1-4.117-1.7.752.752,0,0,0-.577-.024c-.819.342-1.624.717-2.428,1.092a.431.431,0,0,1-.572-.084c-.99-1.015-1.983-2.028-3-3.021a.573.573,0,0,1-.118-.785c.373-.755.717-1.525,1.045-2.3a.652.652,0,0,0-.031-.5,18.881,18.881,0,0,1-1.733-4.141.747.747,0,0,0-.393-.418c-.819-.34-1.659-.631-2.477-.975a.592.592,0,0,1-.3-.436q-.037-2.209-.007-4.419a.539.539,0,0,1,.294-.384c.836-.336,1.69-.628,2.528-.961a.649.649,0,0,0,.346-.367,17.209,17.209,0,0,1,1.759-4.174,2.531,2.531,0,0,0,.121-.269m3.458,8.348a10.2,10.2,0,1,0,10.2-10.1,10.086,10.086,0,0,0-10.2,10.1" transform="translate(-66.397 -85.752)" fill="#fff"/>
        <path id="Trazado_606038" data-name="Trazado 606038" d="M36.33,82.948c-3.274,0-6.444,0-9.614,0l-23.252.013A3.2,3.2,0,0,1,0,79.515Q0,50.376,0,21.237a3.223,3.223,0,0,1,2.261-3.365,3.7,3.7,0,0,1,1.015-.148c3.028-.007,6.057.009,9.085,0,.365,0,.447.089.437.459-.029,1.129,0,2.26.007,3.389,0,.6,0,.595-.573.594q-3.38,0-6.76,0a1.8,1.8,0,0,0-.638.045c-.147.058-.255.248-.346.4-.044.074-.008.2-.008.3V77.664c0,.785.015.836.823.841,3.057.018,6.114.011,9.171.012q8.375,0,16.75,0c.876,0,.886.012.864.869a.484.484,0,0,0,.366.542c.927.339,1.844.707,2.772,1.047a.928.928,0,0,1,.617.65c.133.43.31.846.487,1.319" transform="translate(0 -11.617)" fill="#fff"/>
        <path id="Trazado_606039" data-name="Trazado 606039" d="M193.3,28.009c0,4.862-.006,9.724.009,14.587,0,.408-.107.535-.52.532-2.267-.015-4.534-.008-6.8,0-.307,0-.425-.076-.425-.409q.017-14.544.016-29.088a3.162,3.162,0,0,1,2.369-3.322,5.849,5.849,0,0,1,3.147.048,3.192,3.192,0,0,1,2.2,3.106q0,7.272,0,14.544" transform="translate(-121.638 -6.633)" fill="#fff"/>
        <path id="Trazado_606040" data-name="Trazado 606040" d="M57.5,12.478H46.4c-1.2,0-1.2,0-1.2-1.177q0-3.131,0-6.263c0-.758.129-.9.9-.907,1.794-.012,3.588-.008,5.381-.01.714,0,.707,0,.982-.651A5.459,5.459,0,0,1,62.6,3.415a.985.985,0,0,0,1.1.722c1.721-.045,3.443-.02,5.165-.013.951,0,1.073.133,1.073,1.06q0,3.218,0,6.435c0,.734-.145.856-.9.855q-5.768-.006-11.537,0ZM56.146,4.446a1.387,1.387,0,0,0,1.425,1.436A1.336,1.336,0,0,0,59,4.553a1.489,1.489,0,0,0-1.438-1.511,1.39,1.39,0,0,0-1.415,1.4" transform="translate(-29.626 0)" fill="#fff"/>
        <path id="Trazado_606041" data-name="Trazado 606041" d="M125,22.165c0-1.426.007-2.784,0-4.142,0-.311.175-.3.389-.3q3.724,0,7.448,0c.488,0,.976.01,1.464,0a3.333,3.333,0,0,1,3.472,3.432c-.032,10.3-.017,20.6-.017,30.892,0,.5,0,1,.02,1.5.01.249-.04.346-.328.344q-1.872-.014-3.744.031c-.352.009-.426-.1-.425-.433q.008-14.738,0-29.476c0-.4.008-.8,0-1.2-.009-.551-.082-.621-.654-.642-.258-.009-.516-.006-.775-.006H125" transform="translate(-81.936 -11.616)" fill="#fff"/>
        <path id="Trazado_606042" data-name="Trazado 606042" d="M41.109,103.777v3.774c0,.93-.36,1.312-1.3,1.315q-3.744.012-7.488,0c-1.019,0-1.378-.348-1.385-1.369-.017-2.516-.014-5.032-.009-7.548,0-.882.362-1.255,1.251-1.268,1.334-.02,2.668-.009,4-.009,1.191,0,2.381-.007,3.572.006.967.01,1.351.413,1.35,1.369q0,1.865,0,3.731Zm-5.576-.545c-.308-.287-.542-.544-.813-.75a1.424,1.424,0,0,0-1.883.12,1.342,1.342,0,0,0-.047,1.866,26.971,26.971,0,0,0,1.91,1.914,1.306,1.306,0,0,0,1.923-.1q1.359-1.6,2.634-3.277a1.313,1.313,0,0,0-.227-1.879,1.412,1.412,0,0,0-1.906.178c-.359.388-.671.818-1.006,1.227-.188.23-.382.455-.586.7" transform="translate(-20.272 -64.677)" fill="#fff"/>
        <path id="Trazado_606043" data-name="Trazado 606043" d="M30.931,54.931c0-1.245-.006-2.489,0-3.734.006-.926.329-1.27,1.261-1.3.832-.027,1.665-.01,2.5-.01,1.636,0,3.273,0,4.909,0,1.174.005,1.509.362,1.506,1.515-.007,2.375,0,4.75,0,7.124a4,4,0,0,1-.054.766.891.891,0,0,1-.8.737,4.3,4.3,0,0,1-.686.038q-3.467,0-6.933,0a5.4,5.4,0,0,1-.559-.016c-.807-.085-1.111-.4-1.135-1.217-.019-.657-.009-1.316-.01-1.974s0-1.288,0-1.931Zm4.6-.5a11.218,11.218,0,0,0-.944-.79,1.363,1.363,0,0,0-1.766.2,1.293,1.293,0,0,0-.091,1.761,24.486,24.486,0,0,0,2.1,2.083,1.193,1.193,0,0,0,1.68-.1c.967-1.128,1.91-2.28,2.805-3.466a1.272,1.272,0,0,0-.326-1.789,1.4,1.4,0,0,0-1.807.14c-.385.4-.725.847-1.083,1.275-.191.228-.379.458-.567.687" transform="translate(-20.274 -32.697)" fill="#fff"/>
        <path id="Trazado_606044" data-name="Trazado 606044" d="M30.93,151.134c0-1.273-.008-2.545,0-3.817.008-.9.389-1.269,1.295-1.271q3.723-.007,7.445,0c1.037,0,1.413.369,1.419,1.391q.02,3.774.016,7.548c0,.823-.384,1.2-1.266,1.213-1.334.016-2.668,0-4,0-1.148,0-2.3.009-3.443.011a4.434,4.434,0,0,1-.515-.027.93.93,0,0,1-.929-.978c-.023-.686-.017-1.372-.02-2.058s0-1.344,0-2.016Zm4.581-.556c-.283-.258-.521-.506-.789-.715a1.378,1.378,0,0,0-1.842.087,1.307,1.307,0,0,0-.094,1.855,25.583,25.583,0,0,0,1.977,1.965,1.32,1.32,0,0,0,1.919-.167c.155-.168.3-.348.442-.525.69-.841,1.391-1.672,2.063-2.527a1.3,1.3,0,0,0,.116-1.7,1.351,1.351,0,0,0-2.2-.143c-.537.608-1.054,1.234-1.593,1.868" transform="translate(-20.273 -95.732)" fill="#fff"/>
        <path id="Trazado_606045" data-name="Trazado 606045" d="M85.573,52.336q4.346,0,8.692,0a1.45,1.45,0,0,1,1.489.8,1.378,1.378,0,0,1-1.234,1.932,5.051,5.051,0,0,1-.516.008q-8.519,0-17.038,0A3.068,3.068,0,0,1,76.2,55a1.309,1.309,0,0,1-.966-1.312,1.268,1.268,0,0,1,1.009-1.27,3.046,3.046,0,0,1,.681-.071q4.324-.007,8.649,0v0" transform="translate(-49.317 -34.306)" fill="#fff"/>
        <path id="Trazado_606046" data-name="Trazado 606046" d="M85.572,71.871H77.049c-1,0-1.464-.254-1.7-.932a1.328,1.328,0,0,1,1.017-1.763,4.808,4.808,0,0,1,.9-.072q8.372-.006,16.744,0a5.365,5.365,0,0,1,.686.04,1.329,1.329,0,0,1,1.208,1.33,1.388,1.388,0,0,1-1.169,1.342,5.409,5.409,0,0,1-.815.047q-4.175,0-8.351,0v.007" transform="translate(-49.344 -45.296)" fill="#fff"/>
        <path id="Trazado_606047" data-name="Trazado 606047" d="M85.61,101.114q4.2,0,8.394,0a5.862,5.862,0,0,1,.688.023,1.345,1.345,0,0,1,1.205,1.3,1.388,1.388,0,0,1-1.056,1.347,3.282,3.282,0,0,1-.724.079q-8.609.007-17.218,0a1.456,1.456,0,0,1-1.478-.75,1.331,1.331,0,0,1,1.023-1.971,4.815,4.815,0,0,1,.73-.033q4.219,0,8.437,0" transform="translate(-49.332 -66.281)" fill="#fff"/>
        <path id="Trazado_606048" data-name="Trazado 606048" d="M85.557,120.641q-4.069,0-8.139,0a6.078,6.078,0,0,1-1.113-.065,1.257,1.257,0,0,1-1.037-1.291,1.327,1.327,0,0,1,1.09-1.307,4.91,4.91,0,0,1,.856-.075q8.506-.009,17.011-.007c.973,0,1.5.367,1.636,1.117a1.3,1.3,0,0,1-.927,1.531,3.02,3.02,0,0,1-.807.1q-4.285.01-8.57,0" transform="translate(-49.339 -77.28)" fill="#fff"/>
        <path id="Trazado_606049" data-name="Trazado 606049" d="M193.48,114c-1.03,1.749-2,3.4-2.97,5.042-.145.246-.286.5-.45.729-.286.408-.569.423-.842.007-.454-.693-.877-1.406-1.3-2.119-.668-1.132-1.324-2.27-1.982-3.408a1.17,1.17,0,0,1-.074-.252Z" transform="translate(-121.835 -74.728)" fill="#fff"/>
        <path id="Trazado_606050" data-name="Trazado 606050" d="M80.354,148.494c1.219,0,2.438.007,3.657,0,.394,0,.607.111.639.548a1.9,1.9,0,0,0,.274.8c.294.49.159.831-.429,1.187a1.586,1.586,0,0,1-.78.2c-2.338.014-4.676.021-7.014,0a1.362,1.362,0,0,1-1.467-1.174,1.329,1.329,0,0,1,1.333-1.547c1.261-.032,2.524-.008,3.786-.008v0" transform="translate(-49.31 -97.332)" fill="#fff"/>
        <path id="Trazado_606051" data-name="Trazado 606051" d="M78.779,167.943c-.731,0-1.463.014-2.194,0A1.306,1.306,0,0,1,75.3,167.1a1.178,1.178,0,0,1,.276-1.418,1.909,1.909,0,0,1,1.068-.441c1.4-.05,2.81-.039,4.215-.011a1.386,1.386,0,0,1,1.5,1.576c-.01.084-.009.2-.062.243a3.112,3.112,0,0,1-1.416.875,18.254,18.254,0,0,1-2.106.019" transform="translate(-49.282 -108.294)" fill="#fff"/>
        <path id="Trazado_606052" data-name="Trazado 606052" d="M142.532,181.011a3.566,3.566,0,0,1-.926-.471c-1.176-1.131-2.334-2.283-3.46-3.463a1.387,1.387,0,0,1,.051-2.035,1.444,1.444,0,0,1,2.083.014c.658.638,1.3,1.3,1.926,1.961.24.254.4.268.658.008,1.445-1.471,2.905-2.926,4.362-4.386a4.758,4.758,0,0,1,.474-.436,1.458,1.458,0,0,1,1.893.065,1.433,1.433,0,0,1,.237,1.873,6.754,6.754,0,0,1-.814.938q-2.614,2.641-5.24,5.269a2.023,2.023,0,0,1-1.245.662" transform="translate(-90.281 -112.672)" fill="#fff"/>
      </g>
    </g>
  </g>
</svg>
