<svg xmlns="http://www.w3.org/2000/svg" xmlns:xlink="http://www.w3.org/1999/xlink" width="107" height="107" viewBox="0 0 107 107">
  <defs>
    <clipPath id="clip-path">
      <rect id="Rectángulo_347489" data-name="Rectángulo 347489" width="72.986" height="73" fill="none"/>
    </clipPath>
  </defs>
  <g id="Grupo_156312" data-name="Grupo 156312" transform="translate(-288.668 -4448)">
    <circle id="Elipse_5845" data-name="Elipse 5845" cx="53.5" cy="53.5" r="53.5" transform="translate(288.668 4448)" fill="#ffae7e"/>
    <g id="Grupo_1015801" data-name="Grupo 1015801" transform="translate(309.507 4461.69)">
      <g id="Grupo_1015800" data-name="Grupo 1015800" transform="translate(-4.826)" clip-path="url(#clip-path)">
        <path id="Trazado_606072" data-name="Trazado 606072" d="M61.231,25.08v3.172H72.986V73H29.461V61.262H25.092c-.3-.957-.6-1.882-.881-2.815A.567.567,0,0,0,23.754,58a28.23,28.23,0,0,1-7.736-3.221.516.516,0,0,0-.423.016q-1.193.611-2.366,1.262a.4.4,0,0,1-.566-.082q-3.7-3.719-7.414-7.415a.356.356,0,0,1-.077-.507c.437-.78.85-1.573,1.284-2.355a.462.462,0,0,0-.013-.537,26.608,26.608,0,0,1-3.219-7.73.615.615,0,0,0-.357-.353c-.845-.289-1.7-.555-2.554-.811a.359.359,0,0,1-.313-.4Q.011,30.6,0,25.339c0-.213.076-.284.275-.343.868-.258,1.732-.53,2.588-.823a.6.6,0,0,0,.352-.351,26.167,26.167,0,0,1,3.222-7.729.485.485,0,0,0-.01-.566c-.439-.806-.856-1.625-1.27-2.444a.34.34,0,0,1,.032-.28,1.959,1.959,0,0,1,.3-.326Q9.1,8.86,12.718,5.241a.316.316,0,0,1,.443-.068c.8.425,1.614.825,2.406,1.264a.553.553,0,0,0,.637-.071,25,25,0,0,1,6.87-2.916c.759-.191,1.176-.49,1.314-1.281a16.327,16.327,0,0,1,.58-1.854A.4.4,0,0,1,25.423,0q5.224.009,10.449,0a.334.334,0,0,1,.387.279c.244.834.524,1.657.762,2.492a.634.634,0,0,0,.48.475c1.645.553,3.3,1.073,4.916,1.714a21.4,21.4,0,0,1,2.648,1.428.617.617,0,0,0,.7.018c.768-.433,1.549-.843,2.336-1.239a.434.434,0,0,1,.4.057q3.757,3.736,7.5,7.489a.31.31,0,0,1,.069.439c-.417.763-.8,1.541-1.22,2.3a.644.644,0,0,0,.013.738,25.474,25.474,0,0,1,3.063,7.322.937.937,0,0,0,.742.77c.847.242,1.683.518,2.566.793M31.815,70.638h38.81V30.643H31.815Zm27.063-42.37c0-.429-.015-.809.005-1.186a.359.359,0,0,0-.311-.438c-.708-.194-1.4-.429-2.11-.627a.538.538,0,0,1-.433-.473,24.72,24.72,0,0,0-3.87-9.331.489.489,0,0,1-.032-.574c.337-.612.645-1.24,1-1.839A.528.528,0,0,0,53,13.041q-2.447-2.418-4.868-4.862a.408.408,0,0,0-.572-.091c-.656.356-1.317.706-1.989,1.03a.586.586,0,0,1-.491,0A25.021,25.021,0,0,0,35.691,5.2a.543.543,0,0,1-.472-.431c-.208-.7-.434-1.4-.628-2.111a.345.345,0,0,0-.4-.3q-3.551.013-7.1,0a.4.4,0,0,0-.457.347c-.2.682-.434,1.352-.626,2.035a.581.581,0,0,1-.524.472c-.338.055-.672.137-1,.218A24.082,24.082,0,0,0,16.3,9.052a.578.578,0,0,1-.7.042c-.641-.359-1.3-.682-1.95-1.026-.166-.088-.295-.128-.455.033q-2.531,2.542-5.077,5.07a.345.345,0,0,0-.061.482c.347.633.661,1.285,1.019,1.912a.639.639,0,0,1-.045.765A25.376,25.376,0,0,0,5.18,25.6a.456.456,0,0,1-.373.389c-.715.215-1.424.45-2.142.653-.228.064-.31.155-.309.4q.014,3.588,0,7.176a.335.335,0,0,0,.284.384c.681.2,1.352.436,2.038.617a.664.664,0,0,1,.542.591A25.065,25.065,0,0,0,9.07,45.03.475.475,0,0,1,9.1,45.6c-.362.667-.714,1.34-1.047,2.023a.451.451,0,0,0,.033.408c1.69,1.71,3.394,3.4,5.09,5.108a.335.335,0,0,0,.477.051c.665-.367,1.345-.7,2.015-1.061a.487.487,0,0,1,.572.043c.462.321.935.631,1.421.915a24.756,24.756,0,0,0,7.866,2.959.551.551,0,0,1,.494.448c.194.708.41,1.41.637,2.108.037.112.169.274.26.276.83.022,1.661.013,2.5.013V51.758c-.117-.014-.213-.027-.309-.035A21.339,21.339,0,0,1,9.737,34.208a21.05,21.05,0,0,1,5.186-17.742,21.032,21.032,0,0,1,21.1-6.312,20.515,20.515,0,0,1,8.382,4.4,21,21,0,0,1,7.173,13.359c.038.293.147.359.417.357,1.594-.009,3.189,0,4.783,0h2.1m-14.329,0A14.141,14.141,0,1,0,29.438,44.723V28.268H44.55ZM29.421,47.04c-.546-.061-1.077-.08-1.59-.183a18.478,18.478,0,0,1-6-2.324,16.147,16.147,0,0,1-5.161-5.2A16.394,16.394,0,0,1,14.14,31,15.581,15.581,0,0,1,15,25.4a15.96,15.96,0,0,1,5.187-7.477A15.954,15.954,0,0,1,33.64,14.434,16.471,16.471,0,0,1,46.727,27.348c.178.921.181.92,1.118.92H49.3a18.84,18.84,0,1,0-19.88,21.157Z" transform="translate(0 0)"/>
        <path id="Trazado_606073" data-name="Trazado 606073" d="M115.652,111.692h16.44v16.443h-16.44Zm14.1,2.364H118.022v11.728H129.75Z" transform="translate(-81.484 -78.694)"/>
        <path id="Trazado_606074" data-name="Trazado 606074" d="M115.652,175.47h16.44v16.442h-16.44Zm14.087,2.366H118.012v11.729h11.727Z" transform="translate(-81.484 -123.629)"/>
        <rect id="Rectángulo_347479" data-name="Rectángulo 347479" width="15.262" height="2.312" transform="translate(53.008 42.419)"/>
        <rect id="Rectángulo_347480" data-name="Rectángulo 347480" width="15.267" height="2.312" transform="translate(53.009 61.269)"/>
        <rect id="Rectángulo_347481" data-name="Rectángulo 347481" width="15.262" height="2.313" transform="translate(53.009 32.997)"/>
        <rect id="Rectángulo_347482" data-name="Rectángulo 347482" width="15.275" height="2.31" transform="translate(53.008 51.841)"/>
        <rect id="Rectángulo_347483" data-name="Rectángulo 347483" width="10.552" height="2.312" transform="translate(53.008 65.972)"/>
        <rect id="Rectángulo_347484" data-name="Rectángulo 347484" width="10.552" height="2.311" transform="translate(53.008 47.13)"/>
        <rect id="Rectángulo_347485" data-name="Rectángulo 347485" width="10.552" height="2.312" transform="translate(57.718 37.708)"/>
        <rect id="Rectángulo_347486" data-name="Rectángulo 347486" width="10.552" height="2.313" transform="translate(57.73 56.557)"/>
        <rect id="Rectángulo_347487" data-name="Rectángulo 347487" width="2.305" height="2.324" transform="translate(53.014 37.696)"/>
        <rect id="Rectángulo_347488" data-name="Rectángulo 347488" width="2.311" height="2.311" transform="translate(53.011 56.561)"/>
        <path id="Trazado_606075" data-name="Trazado 606075" d="M15.959,100.908a1.175,1.175,0,0,1,1.178-1.154,1.213,1.213,0,0,1,1.155,1.155,1.227,1.227,0,0,1-1.177,1.175,1.177,1.177,0,0,1-1.156-1.176" transform="translate(-11.244 -70.283)"/>
        <path id="Trazado_606076" data-name="Trazado 606076" d="M99.655,17.2a1.176,1.176,0,0,1,1.18-1.152,1.212,1.212,0,0,1,1.153,1.158,1.227,1.227,0,0,1-1.179,1.173A1.177,1.177,0,0,1,99.655,17.2" transform="translate(-70.213 -11.304)"/>
        <path id="Trazado_606077" data-name="Trazado 606077" d="M161.264,41.661a1.207,1.207,0,0,1-1.182,1.164,1.156,1.156,0,0,1-1.134-1.116,1.158,1.158,0,1,1,2.316-.048" transform="translate(-111.989 -28.539)"/>
        <path id="Trazado_606078" data-name="Trazado 606078" d="M42.907,160.147a1.149,1.149,0,1,1-1.113-1.181,1.177,1.177,0,0,1,1.113,1.181" transform="translate(-28.611 -112.001)"/>
        <path id="Trazado_606079" data-name="Trazado 606079" d="M42.913,41.721a1.15,1.15,0,1,1-1.125-1.163,1.163,1.163,0,0,1,1.125,1.163" transform="translate(-28.614 -28.575)"/>
        <path id="Trazado_606080" data-name="Trazado 606080" d="M132.14,135.879l-2.98-3.106,1.53-1.561,1.48,1.478,3.892-3.9,1.544,1.624-5.465,5.461" transform="translate(-91.001 -90.743)"/>
        <path id="Trazado_606081" data-name="Trazado 606081" d="M129.2,196.438l1.478-1.5,1.482,1.485,3.925-3.947,1.576,1.644-5.473,5.48-2.988-3.157" transform="translate(-91.027 -135.607)"/>
      </g>
    </g>
  </g>
</svg>
