<svg xmlns="http://www.w3.org/2000/svg" width="107" height="107" viewBox="0 0 107 107">
  <g id="Grupo_156312" data-name="Grupo 156312" transform="translate(-288.668 -4448)">
    <circle id="Elipse_5845" data-name="Elipse 5845" cx="53.5" cy="53.5" r="53.5" transform="translate(288.668 4448)" fill="#ffae7e"/>
    <g id="Grupo_1015805" data-name="Grupo 1015805" transform="translate(257.773 4463.69)">
      <g id="Grupo_1015806" data-name="Grupo 1015806">
        <path id="Trazado_606088" data-name="Trazado 606088" d="M196.98,22.177a27.587,27.587,0,0,0-8.271-4.213,28.124,28.124,0,0,0-20.63,1.974,27.46,27.46,0,0,0-8.314,6.285A26.84,26.84,0,0,0,153.462,38a26.1,26.1,0,0,0-.713,5.627q-.006.27-.012.542c-.025,1-.422,1.4-1.425,1.407-1.574,0-3.149-.005-4.723-.006-1.458,0-2.917.01-4.375,0-1.042-.007-1.436-.405-1.425-1.432a38.791,38.791,0,0,1,4.446-17.828,40.406,40.406,0,0,1,9.838-12.319,41.267,41.267,0,0,1,6.887-4.639,1.355,1.355,0,0,1,1.213-.2,1.153,1.153,0,0,1,.762,1.028,1.025,1.025,0,0,1-.57,1.021c-.627.358-1.267.693-1.888,1.059a38.3,38.3,0,0,0-6.6,4.961c.323.336.629.664.945.98,1.307,1.3,2.623,2.6,3.92,3.907.236.239.374.237.624.015a30.292,30.292,0,0,1,12.02-6.615,31.345,31.345,0,0,1,6.628-1.07c.075,0,.151-.015.258-.025V7.1c-.475.024-.946.039-1.416.072a36.437,36.437,0,0,0-9.781,1.989,3.1,3.1,0,0,1-.411.108,1.044,1.044,0,0,1-1.315-.767,1.078,1.078,0,0,1,.733-1.383c1.7-.5,3.4-1.028,5.131-1.435a35.991,35.991,0,0,1,12.117-.678,39.3,39.3,0,0,1,17.871,6.3c1.586,1.054,3.061,2.272,4.639,3.454l2.177-1.645c-1.308-1.01-2.53-2.022-3.821-2.937A41.956,41.956,0,0,0,188.3,3a44,44,0,0,0-7.35-.7,3.382,3.382,0,0,1-.8-.085,1.159,1.159,0,0,1-.844-1.2,1.028,1.028,0,0,1,.975-.986c.952-.038,1.91-.03,2.861.027a45.6,45.6,0,0,1,11.729,2.3,44.388,44.388,0,0,1,15.677,9.167c.226.213.37.208.613.016.659-.517,1.342-1,2.023-1.492a1.621,1.621,0,0,1,1.357-.282.735.735,0,0,1,.6.716,1.91,1.91,0,0,1-.426,1.366q-2.245,2.983-4.474,5.978c-.061.082-.118.166-.186.26.577.689,1.178,1.345,1.711,2.052a41.143,41.143,0,0,1,7.182,15.025,39.033,39.033,0,0,1,1.147,8.833c.017,1.153-.428,1.582-1.59,1.581q-4.007,0-8.014,0c-.374,0-.749.012-1.122-.007a1.138,1.138,0,0,1-1.213-1.213c-.092-1.375-.177-2.751-.3-4.123-.057-.627-.231-1.242-.3-1.867a1.041,1.041,0,0,1,.91-1.255,1.109,1.109,0,0,1,1.317.911c.216,1.2.385,2.416.554,3.628.061.433.051.876.109,1.31.014.106.167.277.256.277,2.323.007,4.645-.006,6.968-.015.011,0,.022-.011.082-.042a34.013,34.013,0,0,0-1.309-8.687,37.438,37.438,0,0,0-7.758-14.529,1.3,1.3,0,0,0-.169.155c-1.42,1.885-2.834,3.775-4.264,5.653-.173.227-.054.341.062.5a31.813,31.813,0,0,1,3.579,5.951,8.447,8.447,0,0,1,.351.857,1.116,1.116,0,0,1-.512,1.327,1.018,1.018,0,0,1-1.358-.249,4.212,4.212,0,0,1-.532-.889,32.054,32.054,0,0,0-2.861-5.032c-.075-.1-.156-.2-.265-.343-.1.108-.188.192-.26.288-1.392,1.858-2.777,3.721-4.178,5.572a.6.6,0,0,0-.042.781,20.217,20.217,0,0,1-.315,20.35,20.542,20.542,0,0,1-10.128,8.677,15.511,15.511,0,0,1-4.619,1.057,1.133,1.133,0,0,1-1.317-.958,1.173,1.173,0,0,1,1-1.3c.855-.187,1.722-.33,2.567-.556a17.737,17.737,0,0,0,6.9-3.762.5.5,0,0,0,.187-.315,24.692,24.692,0,0,0-.025-2.474,2.264,2.264,0,0,0-1.667-2.023c-1.6-.547-3.2-1.065-4.785-1.65a1.506,1.506,0,0,0-1.442.158,7.787,7.787,0,0,1-8.713-.247.644.644,0,0,0-.489-.075c-1.756.6-3.505,1.211-5.257,1.819a2.2,2.2,0,0,0-1.733,1.824,23.246,23.246,0,0,0-.025,2.706.614.614,0,0,0,.238.371,18.821,18.821,0,0,0,8.214,4.02c.4.089.817.118,1.219.206a1.132,1.132,0,0,1,1,1.289,1.116,1.116,0,0,1-1.3.937,28.137,28.137,0,0,1-3.39-.746,19.26,19.26,0,0,1-9.486-6.378,19.838,19.838,0,0,1-3.434-5.7,20.1,20.1,0,0,1,3.5-20.518,19.852,19.852,0,0,1,11.72-6.827,19.509,19.509,0,0,1,6.159-.231,19.725,19.725,0,0,1,7.414,2.4.764.764,0,0,0,1.007-.078c1.739-1.335,3.513-2.625,5.272-3.933.15-.112.291-.236.471-.384m-2.141,33.13a18.061,18.061,0,1,0-28.8,0c.02-.142.035-.253.052-.364.019-.127.034-.256.06-.382a4.547,4.547,0,0,1,3.288-3.514c1.315-.453,2.634-.892,3.95-1.341.213-.073.42-.162.648-.25-.06-.129-.092-.213-.135-.289a6.012,6.012,0,0,1-.792-2.954c-.011-3.277-.049-6.553,0-9.829a5.251,5.251,0,0,1,4.788-5.153c1.6-.13,3.223-.069,4.835-.04a4.752,4.752,0,0,1,1.506.311,5.46,5.46,0,0,1,3.554,5.06c.02,3.238,0,6.475,0,9.713,0,.142-.016.284-.028.424a6.847,6.847,0,0,1-.874,2.739c.172.075.317.15.47.2,1.437.5,2.884.962,4.31,1.485a4.415,4.415,0,0,1,3.073,3.471c.041.22.064.443.1.709M153.228,18.86c-.136.143-.266.268-.384.4-.56.641-1.145,1.263-1.669,1.932a39.117,39.117,0,0,0-6.291,11.724,29.189,29.189,0,0,0-1.375,6.092c-.147,1.306-.253,2.616-.382,3.923-.022.222.027.331.284.329q3.33-.024,6.659-.024c.3,0,.368-.091.4-.388.2-1.673.33-3.365.677-5.01A29.214,29.214,0,0,1,158,24.52c.141-.161.282-.324.372-.429l-5.147-5.231m51.744-2.652a37.087,37.087,0,0,0-23.329-9.071.534.534,0,0,0-.04.114c0,2.3,0,4.59-.014,6.885,0,.25.112.294.329.3a30.03,30.03,0,0,1,8.283,1.6,27.39,27.39,0,0,1,8.364,4.5.459.459,0,0,0,.67-.008c1.407-1.088,2.83-2.156,4.251-3.226.47-.355.948-.7,1.486-1.091m-24.3,23.3c-.072.078-.143.15-.209.227a4.861,4.861,0,0,1-2.971,1.744,15.985,15.985,0,0,1-1.811.112c-.208.008-.309.063-.307.284.015,1.457-.03,2.917.05,4.371a4.418,4.418,0,0,0,2.524,3.812,5.517,5.517,0,0,0,2.977.5,4.758,4.758,0,0,0,4.566-4.616c0-1.29.008-2.58.011-3.87,0-.149-.017-.3-.029-.475-.554,0-1.068,0-1.581,0a3.064,3.064,0,0,1-2.29-.958c-.327-.342-.6-.731-.929-1.129m27.5-22.726-.093-.106-15.3,11.536a21.231,21.231,0,0,1,3.7,3.652c.219.276.327.1.461-.08q5.116-6.819,10.235-13.638c.339-.451.668-.91,1-1.365m-27.683,16.75c0-.019,0-.037,0-.056-.645,0-1.29-.021-1.934,0a2.95,2.95,0,0,0-3.081,2.445,21.768,21.768,0,0,0-.078,3.161c0,.065.161.179.256.19a3.506,3.506,0,0,0,3.041-1.005c.462-.466.9-.953,1.348-1.435a1.118,1.118,0,0,1,1.822.072,7.833,7.833,0,0,1,.419.693c.257.446.491.906.776,1.334a.752.752,0,0,0,.485.317c.577.043,1.159.033,1.739.019a.318.318,0,0,0,.219-.221c0-.94.025-1.884-.042-2.82a2.984,2.984,0,0,0-2.539-2.682,22.235,22.235,0,0,0-2.43-.016" transform="translate(-97.045 0.001)"/>
        <path id="Trazado_606089" data-name="Trazado 606089" d="M362.464,159.548c0-1.194,0-2.34,0-3.486a1.209,1.209,0,0,1,.707-1.189,1.092,1.092,0,0,1,1.537.761,3.265,3.265,0,0,1,.061.69c0,.967.009,1.934-.008,2.9,0,.276.078.352.35.346,1.006-.022,2.012-.031,3.018-.02a1.983,1.983,0,0,1,.823.156,1.053,1.053,0,0,1,.6,1.078,1.136,1.136,0,0,1-.861,1.028,3.938,3.938,0,0,1-.842.084c-1,.01-2.009,0-3.049,0-.01.131-.026.241-.026.351,0,1.07.007,2.14,0,3.209a1.121,1.121,0,0,1-.739,1.118,1,1,0,0,1-1.2-.239,1.682,1.682,0,0,1-.355-.934c-.044-1.029-.016-2.062-.016-3.093V161.9c-.976,0-1.914,0-2.852,0a5.935,5.935,0,0,1-.887-.044,1.147,1.147,0,0,1-1.055-1.215,1.1,1.1,0,0,1,1.149-1.068c1.031-.033,2.063-.019,3.095-.024h.551" transform="translate(-246.539 -106.68)"/>
        <path id="Trazado_606090" data-name="Trazado 606090" d="M146.764,170.133q2.245,0,4.491,0a1.283,1.283,0,0,1,1.327.67,1.1,1.1,0,0,1-.736,1.605,3.155,3.155,0,0,1-.727.081q-4.277.008-8.555,0a4.51,4.51,0,0,1-.883-.076,1.13,1.13,0,0,1-.9-1.22,1.1,1.1,0,0,1,1.03-1.024c.941-.036,1.883-.026,2.825-.031.71,0,1.42,0,2.129,0Z" transform="translate(-97.037 -117.271)"/>
      </g>
    </g>
  </g>
</svg>
