<svg id="Grupo_1015771" data-name="Grupo 1015771" xmlns="http://www.w3.org/2000/svg" xmlns:xlink="http://www.w3.org/1999/xlink" width="86.74" height="82.774" viewBox="0 0 86.74 82.774">
  <defs>
    <clipPath id="clip-path">
      <rect id="Rectángulo_345776" data-name="Rectángulo 345776" width="86.74" height="82.774" fill="none"/>
    </clipPath>
  </defs>
  <g id="Grupo_1015770" data-name="Grupo 1015770" clip-path="url(#clip-path)">
    <path id="Trazado_605799" data-name="Trazado 605799" d="M41.614,81.175c-.059,1.015-.37,1.343-1.386,1.465l-.23.009c-1.355-.006-2.709-.016-4.064-.018-3.19-.007-6.38.012-9.57-.032a2.669,2.669,0,0,1-2.153-1.2,2.785,2.785,0,0,1-.588-1.773,13.5,13.5,0,0,1,.108-2.678,2.919,2.919,0,0,1,2.282-2.031,22.285,22.285,0,0,1,2.69-.055,1.186,1.186,0,0,0,.681-.168c1.055-.72,2.15-1.386,3.165-2.156a4.188,4.188,0,0,0,1.595-2.965c.149-1.27.042-2.548.1-3.82.021-.47-.168-.526-.549-.524-2.6.01-5.193.008-7.789.009-6.491,0-12.982-.014-19.472.018A6.4,6.4,0,0,1,2.11,63.767,6.019,6.019,0,0,1,.173,60.492,9.5,9.5,0,0,1,.01,58.258q0-24.55-.01-49.1a6.839,6.839,0,0,1,.544-3A6.318,6.318,0,0,1,2.332,3.945a5.532,5.532,0,0,1,2.578-1.16,7.658,7.658,0,0,1,1.248-.122c8.328,0,16.657-.017,24.985.032a6.7,6.7,0,0,0,2.935-.719A21.06,21.06,0,0,1,37.928.693,20.4,20.4,0,0,1,40.749.134,16.892,16.892,0,0,1,44.689.1c.438.059.888.009,1.334.075.645.095,1.332.067,1.94.222a24.838,24.838,0,0,1,5.75,1.975,2.884,2.884,0,0,0,1.422.311Q67.669,2.669,80.2,2.654a6.364,6.364,0,0,1,3.361.789A5.927,5.927,0,0,1,86.578,7.6a9.756,9.756,0,0,1,.162,1.694q0,24.676-.005,49.353a6.184,6.184,0,0,1-6.393,6.593q-13.736,0-27.473-.026c-.265,0-.359.044-.355.334.018,1.294-.06,2.594.031,3.882a4.252,4.252,0,0,0,1.538,3.023,35.85,35.85,0,0,0,3.162,2.167,1.248,1.248,0,0,0,.826.239c.7-.06,1.4-.053,2.091-.057a2.671,2.671,0,0,1,1.991.813,3.105,3.105,0,0,1,.88,1.868,17.781,17.781,0,0,1,.1,2.092,3,3,0,0,1-1.442,2.62,2.554,2.554,0,0,1-1.369.423q-5.06.019-10.121.015c-1.285,0-2.569.009-3.853-.012a1.336,1.336,0,0,1-1.293-1.275c.173-.865.7-1.24,1.753-1.24q5.542,0,11.083,0,1.057,0,2.115-.008a.542.542,0,0,0,.593-.518.749.749,0,0,0,.013-.594c0-.337-.016-.675-.007-1.012.011-.412-.244-.554-.591-.607a2.249,2.249,0,0,0-.338-.006l-32.712.012c-.113,0-.226,0-.339.006-.281.024-.468.132-.461.461.011.52-.007,1.041,0,1.561.006.634.041.678.669.68q6.538.017,13.076.025a3.238,3.238,0,0,1,.714.057,1.184,1.184,0,0,1,.993,1.012M15.515,10.5l0,0c-.079,0-.1.028-.031.085-.023,1.141.063,2.282-.036,3.422a.12.12,0,0,0,.08.129.094.094,0,0,0,.152.039l.164,0h5.082l.1,0,.244,0,.087,0c.173-.018.39.065.49-.147a24.882,24.882,0,0,1,1.815-3.3c.089-.132.127-.269-.115-.278a.155.155,0,0,0-.227,0h-.192c-.025-.046-.048-.045-.071,0h-.267c-.024-.046-.049-.046-.074,0l-6.023,0c-.025-.045-.05-.045-.074,0H16.35c-.024-.046-.049-.046-.073,0l-.683.016c-.045-.066-.07-.053-.078.02m-2.827-.06a.212.212,0,0,0-.208.008l-3.952.025-.007-.026-.008.026-.417,0c-.031-.058-.063-.053-.1,0-.383.178-.107.509-.177.76a.476.476,0,0,0,.007.309q0,.762,0,1.525v.016c0,.086,0,.172,0,.258l-.01.309c-.047.324-.043.569.417.563,1.439-.02,2.879-.009,4.318,0,.226,0,.335-.062.334-.31-.008-1.055,0-2.11,0-3.165,0-.141.022-.3-.2-.292m50.527.018-.067-.013.022.055a29.7,29.7,0,0,1,1.8,3.345c.121.3.29.414.6.345l.17,0,.244,0,.1,0,12.092-.008.108,0c.743.011.646.125.653-.62.008-.907,0-1.814,0-2.721,0-.142.063-.323-.164-.369a.15.15,0,0,0-.235,0l-.191,0c-.022-.046-.045-.046-.068,0l-13.733-.009c-.026-.041-.052-.042-.078,0l-1.251,0m-21,3.244c0-.225-.011-.45-.011-.675q-.006-4.939,0-9.879c0-.373-.053-.481-.468-.35a8.153,8.153,0,0,0-3.1,1.829,18.562,18.562,0,0,0-4.365,6.937c-.082.2-.077.36.177.47a25.668,25.668,0,0,0,4.075,1.426c.948.237,1.916.333,2.875.477.247.037.609.206.827-.144.053-.033.049-.064,0-.092m12.332,8.6c.066.025.093,0,.093-.067.016-.532-.045-1.059-.074-1.588-.037-.693-.1-1.384-.194-2.068a35.986,35.986,0,0,0-.75-3.928c-.058-.235-.118-.347-.393-.21a19.4,19.4,0,0,1-3,1.121,19.432,19.432,0,0,1-5.128.92c-.3.009-.378.087-.375.381.015,1.5.007,3.01.006,4.515,0,.928,0,.928.927.924h.095l.241,0h.1l7.693,0a.785.785,0,0,0,.433,0h.329m-13.3,0,.1,0h.244l.093,0h.162l.089,0c.106.032.169-.051.246-.094a.176.176,0,0,0,.035-.005.62.62,0,0,0-.005-.066c0-1.742-.012-3.485,0-5.227,0-.339-.1-.462-.43-.432A7.932,7.932,0,0,1,39.8,16.3a23.132,23.132,0,0,1-3.912-.986c-.748-.263-1.486-.551-2.22-.85-.116-.047-.308-.237-.369.1-.116.628-.271,1.248-.385,1.875-.165.913-.364,1.825-.444,2.746a18.57,18.57,0,0,0-.194,2.492c.009.19-.185.384.011.574.062.107.153.092.248.056l.249,0h.093l.246,0h.1L33.8,22.3h.1l7.353.005m-11.6-.06a4.36,4.36,0,0,0,.1-1.329c.1-.976.219-1.95.342-2.923a26.669,26.669,0,0,1,.934-4.465.492.492,0,0,0-.251-.678,21.742,21.742,0,0,1-3.121-2.372c-.375-.339-.411-.344-.722.05a20.622,20.622,0,0,0-4.045,8.462,24.7,24.7,0,0,0-.494,3.249c.045.138.145.085.235.069l.343-.007.086,0h.338l.25,0,.091,0,1.26,0h3.148l.584.006.088,0h.341l.425.011c.057.015.08-.008.074-.065m27.959.066,6-.007.1,0h.335c.159-.074.487.16.471-.216a11.949,11.949,0,0,0-.152-1.524,23.554,23.554,0,0,0-1.391-5.028,20.69,20.69,0,0,0-2.886-4.924c-.39-.492-.387-.5-.87-.075A17.9,17.9,0,0,1,56.034,12.9c-.223.121-.245.246-.194.417a31.388,31.388,0,0,1,.77,3.35,39.308,39.308,0,0,1,.565,5.318c.01.253.085.369.344.331l.087,0M37.122,65.244c-.123-.034-.251-.092-.338.065-.006.14-.015.28-.019.42-.038,1.317.077,2.635-.076,3.953a6.953,6.953,0,0,1-2.541,4.785c-.111.091-.261.156-.307.331H53.036l-.377-.3a6.948,6.948,0,0,1-2.653-4.991c-.112-1.155-.014-2.331-.014-3.5,0-.764,0-.768-.764-.769q-6.052,0-12.1,0M71.809,32.089l.011-.021-.015-.018c-.007-.293-.021-.587-.022-.88q-.01-2.5-.016-4.991l.02-.018-.027-.015a1.394,1.394,0,0,0-1.43-1.3h-.466q-26.465,0-52.93,0c-1.274,0-1.768.477-1.769,1.748q0,7.746,0,15.493c0,.422-.012.845,0,1.266a1.443,1.443,0,0,0,1.434,1.42c.226.008.452,0,.678,0l52.464,0c.212,0,.424.007.635-.006a1.478,1.478,0,0,0,1.382-1.3c.032-.306.028-.617.029-.926.007-1.477-.009-2.954.024-4.431.02-.877.394-1.243,1.265-1.373.162.2.423.035.634.206a1.659,1.659,0,0,1,.6,1.393c.01,1.561.041,3.123.009,4.684a4.259,4.259,0,0,1-1.076,3.013,4.39,4.39,0,0,1-3.422,1.268q-12.574-.019-25.147-.008-14.14,0-28.28,0a3.528,3.528,0,0,1-2.312-.9,3.891,3.891,0,0,1-1.48-3.064c.013-3.911,0-7.821,0-11.732,0-1.505.043-3.012-.021-4.515a5.392,5.392,0,0,1,.194-1.915,4,4,0,0,1,3.94-2.868c1.016,0,2.031-.009,3.046-.013.041.011.079.016.068-.048.059-.449.125-.9.176-1.347a23.062,23.062,0,0,1,.757-3.778c.134-.465.14-.448-.345-.447q-6.134.022-12.267.034a.115.115,0,0,0-.186-.008c-.208.021-.155.164-.135.291,0,.03.005.061.007.091-.005.253-.016.506-.016.759q0,18.658,0,37.315c0,.647.006,1.294.009,1.941,0,.032,0,.064,0,.1-.058.289.143.238.311.239,2.187.007,4.373.022,6.56.022q31.109,0,62.218,0a8.9,8.9,0,0,0,1.35-.028c.112.13.131,0,.174-.062.447.15.49.121.49-.311q0-19.566,0-39.133a1.532,1.532,0,0,1,.069-.57c.1-.277-.114-.644-.316-.644-1.044,0-2.088,0-3.133,0q-4.594-.016-9.188-.037c-.169,0-.36-.043-.286.239.107.408.216.816.321,1.226a21.106,21.106,0,0,1,.589,3.741c.025.363.127.432.469.44a18.448,18.448,0,0,1,3.9.164,3.634,3.634,0,0,1,2.676,2.488,6.288,6.288,0,0,1,.259,2.045q.072,2.51,0,5.019c-.021.707-.411,1.2-1.354,1.358a1.341,1.341,0,0,1-1.129-1.3M58.363,5.18l-.036.1a19.813,19.813,0,0,1,2.412,2.236,1.186,1.186,0,0,0,.961.391Q70.359,7.89,79.019,7.9a3.609,3.609,0,0,1,.837.086,1.78,1.78,0,0,1,1.429,1.289,6.176,6.176,0,0,1,.146,1.437q-.016,22.776-.01,45.551c0,.619.007,1.239-.019,1.857a1.848,1.848,0,0,1-.768,1.439,2.542,2.542,0,0,1-1.64.42l-69.913,0c-.55,0-1.1.009-1.651-.009a1.983,1.983,0,0,1-2.1-2.138c-.005-.3-.005-.591-.005-.887q0-9.308,0-18.617,0-13.974,0-27.947a3.249,3.249,0,0,1,.078-1.1A1.931,1.931,0,0,1,7.4,7.905c1.736-.017,3.472-.009,5.208-.009q6.394,0,12.788,0a.771.771,0,0,0,.66-.2,16.262,16.262,0,0,1,2.373-2.217c.084-.064.181-.143.128-.287-.056,0-.111-.008-.167-.008q-6.775,0-13.55-.008c-2.823,0-5.646-.017-8.469.014A3.536,3.536,0,0,0,2.861,7.428a5.108,5.108,0,0,0-.316,2.059q.006,23.725,0,47.451c0,.718-.006,1.435.007,2.153a3.571,3.571,0,0,0,3.61,3.59c.918.009,1.835.012,2.752.012H76.459c1.454,0,2.908.024,4.361-.017A3.169,3.169,0,0,0,83.626,61a4.4,4.4,0,0,0,.578-2.257q-.005-24.8-.006-49.6a3.764,3.764,0,0,0-4-3.957c-7.142-.02-14.285-.007-21.427-.007h-.409M44.734,8.346h0c0,1.758.006,3.516-.006,5.273,0,.274.068.359.347.347a22.446,22.446,0,0,0,2.476-.337A20.21,20.21,0,0,0,50.7,12.76c.588-.192,1.146-.472,1.723-.7.3-.117.324-.31.212-.568-.221-.506-.426-1.019-.664-1.516a21.334,21.334,0,0,0-2.309-3.847A9.263,9.263,0,0,0,45.2,2.783c-.327-.107-.476-.08-.471.332.02,1.743.009,3.487.009,5.231m6.516-4.257a21.2,21.2,0,0,1,3.528,5.989c.217.545.271.554.761.208a22.871,22.871,0,0,0,2.047-1.633c.379-.337.388-.382.016-.713a21.846,21.846,0,0,0-5.445-3.554,2.209,2.209,0,0,0-.907-.3M35.594,4.043A22.073,22.073,0,0,0,29.173,8.1c-.208.187-.1.305.05.439a23.216,23.216,0,0,0,2.35,1.859c.273.189.425.15.553-.191A21.454,21.454,0,0,1,34.945,5c.207-.282.553-.474.65-.958" transform="translate(0 0)"/>
    <path id="Trazado_605800" data-name="Trazado 605800" d="M111.645,230.522a.541.541,0,0,1-.593.518q-1.058.009-2.115.008-5.542,0-11.083,0c-1.054,0-1.58.375-1.753,1.24-.791,0-1.581-.005-2.372,0a2.169,2.169,0,0,1-1.069-.169,1.184,1.184,0,0,0-.993-1.012,3.238,3.238,0,0,0-.714-.057q-6.538-.015-13.076-.025c-.628,0-.663-.046-.669-.68-.005-.52.013-1.041,0-1.561-.007-.329.18-.437.461-.461.112-.01.226-.006.338-.006l32.712-.012a2.293,2.293,0,0,1,.338.005c.347.053.6.2.591.607-.009.337,0,.675.007,1.012-.391.19-.038.4-.013.595" transform="translate(-51.046 -150.943)" fill="#deeafa"/>
    <path id="Trazado_605801" data-name="Trazado 605801" d="M118.037,243.9l.23-.009c.016.089-.032.131-.112.134s-.134-.032-.118-.125" transform="translate(-78.039 -161.251)" fill="#9cc5fb"/>
    <path id="Trazado_605802" data-name="Trazado 605802" d="M34.995,54.829c-1.015,0-2.031.011-3.046.013a4,4,0,0,0-3.94,2.868,5.392,5.392,0,0,0-.194,1.915c.064,1.5.02,3.01.021,4.515,0,3.911.015,7.821,0,11.732a3.89,3.89,0,0,0,1.481,3.064,3.527,3.527,0,0,0,2.312.9q14.14-.008,28.28,0,12.574,0,25.147.008a4.39,4.39,0,0,0,3.422-1.268,4.259,4.259,0,0,0,1.076-3.013c.032-1.561,0-3.123-.009-4.684a1.658,1.658,0,0,0-.6-1.393c-.211-.171-.471-.005-.633-.206-.11-.151-.058-.323-.064-.487a19.527,19.527,0,0,0-.08-2.868c.942-.163,1.333-.651,1.354-1.358q.075-2.509,0-5.019A6.287,6.287,0,0,0,89.27,57.5a3.634,3.634,0,0,0-2.676-2.488,18.447,18.447,0,0,0-3.9-.164c-.342-.007-.444-.077-.469-.44a21.075,21.075,0,0,0-.589-3.741c-.1-.409-.213-.817-.321-1.226-.074-.282.118-.24.286-.239q4.594.02,9.188.037c1.044,0,2.088,0,3.133,0,.2,0,.42.367.316.644a1.532,1.532,0,0,0-.069.57q0,19.566,0,39.133c0,.432-.043.461-.49.311-.073-.021-.147-.045-.174.062a8.894,8.894,0,0,1-1.35.028q-31.109,0-62.218,0c-2.187,0-4.373-.015-6.56-.022-.168,0-.369.05-.311-.239.056-.032.053-.064,0-.1,0-.647-.009-1.294-.009-1.941q0-18.657,0-37.315c0-.253.01-.506.015-.759.059-.035.049-.065-.007-.091-.02-.127-.073-.269.135-.291a.153.153,0,0,0,.186.008q6.134-.016,12.267-.034c.485,0,.479-.019.345.447a23.062,23.062,0,0,0-.757,3.778c-.051.45-.117.9-.176,1.347l-.068.048M26.31,88.97a.448.448,0,0,1-.135-.408,6.449,6.449,0,0,0,.01-1.656c.058-1.291-.014-2.587.046-3.877s-.271-2.592.148-3.866c.026-.078-.055-.124-.11-.163a.278.278,0,0,1-.1-.263c.009-.687-.086-1.377-.063-2.057.029-.882,0-1.759-.008-2.639-.033-3.594-.013-7.189-.014-10.783,0-1.957.062-3.911.145-5.866.03-.723-.006-1.462-.012-2.193-.013-1.618-.009-3.237-.018-4.855,0-.148.08-.191.2-.228.143-.045.28-.135.259-.29-.026-.189-.211-.207-.366-.208-.84,0-1.681,0-2.521,0-.152,0-.364.087-.279.214.231.347.048.683.049,1.017q.011,18.7.005,37.4a3.419,3.419,0,0,0,.07.581c.059.341.23.355.472.206a1.016,1.016,0,0,1,.72-.074,13.014,13.014,0,0,0,1.5.017" transform="translate(-15.234 -32.529)" fill="#deeafa"/>
    <path id="Trazado_605803" data-name="Trazado 605803" d="M102.52,81.88a19.526,19.526,0,0,1,.08,2.868c.006.164-.046.336.064.487-.872.13-1.246.5-1.266,1.373-.034,1.476-.017,2.954-.024,4.431,0,.309,0,.619-.029.926a1.478,1.478,0,0,1-1.383,1.3c-.211.014-.423.006-.635.006l-52.464,0c-.226,0-.452,0-.677,0a1.443,1.443,0,0,1-1.435-1.419c-.015-.422,0-.844,0-1.266q0-7.746,0-15.493c0-1.272.5-1.749,1.769-1.749q26.465,0,52.93,0h.466a1.394,1.394,0,0,1,1.43,1.3l.006.034q.007,2.5.016,4.991c0,.293.014.587.021.88l-.024.021.029.018a1.341,1.341,0,0,0,1.129,1.3m-38.8-2.787a1.3,1.3,0,0,0-.876-1.174,1.285,1.285,0,0,0-1.455.56q-.661,1.352-1.279,2.725c-.392.867-.762,1.745-1.136,2.62-.048.112-.124.217-.224.23-.139.019-.142-.146-.193-.237a2,2,0,0,1-.1-.234c-.369-.91-.726-1.826-1.113-2.729a1.263,1.263,0,0,0-1.156-.847,1.222,1.222,0,0,0-1.211.756,7.59,7.59,0,0,0-.345.814c-.28.8-.63,1.572-.959,2.353-.033.077-.012.221-.162.2-.122-.015-.134-.132-.172-.219-.485-1.1-.962-2.2-1.453-3.3-.314-.7-.619-1.416-.979-2.1A1.171,1.171,0,0,0,49.3,78a1.189,1.189,0,0,0-.625,1.585c.211.535.449,1.059.684,1.585.989,2.216,1.975,4.432,2.976,6.643a1.44,1.44,0,0,0,1.312.965,1.318,1.318,0,0,0,1.173-.932c.039-.09.067-.185.107-.274.378-.858.657-1.757,1.08-2.6.043-.086.057-.21.176-.21s.139.132.151.219a4.369,4.369,0,0,0,.37.97c.262.666.537,1.327.816,1.986a1.252,1.252,0,0,0,1.124.832,1.294,1.294,0,0,0,1.223-.815c.164-.368.324-.737.489-1.1q1.509-3.34,3.016-6.681a2.616,2.616,0,0,0,.347-1.074m11.6,5.171c-.483-1.184-.915-2.249-1.351-3.312a1.307,1.307,0,0,0-1.22-.944,1.264,1.264,0,0,0-1.257.932q-.61,1.493-1.223,2.985c-.033.08,0,.221-.15.216-.122,0-.148-.117-.186-.2-.239-.554-.468-1.112-.715-1.663-.559-1.242-1.107-2.489-1.7-3.716a1.157,1.157,0,0,0-1.575-.59,1.1,1.1,0,0,0-.733,1.446c.406,1.248,1.042,2.4,1.541,3.613.359.87.781,1.723,1.194,2.576.422.87.74,1.789,1.24,2.622a1.227,1.227,0,0,0,1.254.49,1.4,1.4,0,0,0,.989-.945c.364-.911.736-1.82,1.094-2.734.045-.116.085-.209.217-.212.152,0,.106.136.142.216A25.971,25.971,0,0,1,73.9,87.527a2.839,2.839,0,0,0,.429.767,1.318,1.318,0,0,0,1.312.455,2.226,2.226,0,0,0,.936-1.045c1.143-2.581,2.3-5.153,3.462-7.727a2.048,2.048,0,0,0,.205-.928,1.1,1.1,0,0,0-.869-1.121,1.236,1.236,0,0,0-1.414.558c-.551,1.009-.938,2.093-1.429,3.131-.4.839-.773,1.689-1.21,2.647m16.592-.006c-.142-.325-.236-.529-.321-.735-.366-.894-.717-1.793-1.1-2.68a1.245,1.245,0,0,0-1.161-.839,1.151,1.151,0,0,0-1.162.739c-.449,1.04-.86,2.1-1.3,3.141-.037.089.02.259-.15.258-.136,0-.167-.13-.212-.233-.463-1.053-.923-2.109-1.392-3.16-.327-.731-.642-1.469-1.007-2.18a1.266,1.266,0,0,0-2.087-.263,1.368,1.368,0,0,0-.083,1.548c.5,1.13,1.008,2.256,1.518,3.382.723,1.6,1.443,3.193,2.18,4.782a1.257,1.257,0,0,0,2.293-.087q.6-1.482,1.193-2.97c.038-.1.062-.2.168-.209s.1.117.141.179a3.677,3.677,0,0,1,.205.459c.36.869.706,1.743,1.082,2.6a1.148,1.148,0,0,0,1.263.714,1.2,1.2,0,0,0,1.03-.75q.334-.728.663-1.457,1.271-2.818,2.539-5.636c.185-.41.39-.813.539-1.235a1.252,1.252,0,0,0-2.3-.988c-.538,1.171-1.064,2.347-1.6,3.522l-.95,2.1M65.673,87.7a2.092,2.092,0,0,0-.056-.64,1.269,1.269,0,0,0-1.652-.741,1.522,1.522,0,0,0-.754,1.912,1.259,1.259,0,0,0,1.52.893c.588-.117.94-.641.942-1.424m14.06-.014a1.308,1.308,0,0,0,1.307,1.452,1.251,1.251,0,0,0,1.216-1.014,1.562,1.562,0,0,0-.633-1.731c-.025-.012-.051-.024-.077-.034a1.288,1.288,0,0,0-1.813,1.328" transform="translate(-29.582 -48.487)" fill="#fe646e"/>
    <path id="Trazado_605804" data-name="Trazado 605804" d="M63.329,15.278h.409c7.142,0,14.285-.013,21.427.006a3.764,3.764,0,0,1,4,3.958q.008,24.8.006,49.6a4.4,4.4,0,0,1-.578,2.257,3.168,3.168,0,0,1-2.806,1.669c-1.453.042-2.908.017-4.362.017H13.884c-.918,0-1.835,0-2.752-.012a3.571,3.571,0,0,1-3.61-3.59c-.013-.718-.007-1.435-.007-2.153q0-23.725,0-47.451a5.106,5.106,0,0,1,.316-2.058,3.535,3.535,0,0,1,3.508-2.234c2.823-.032,5.646-.015,8.469-.014q6.775,0,13.551.008c.056,0,.112.005.167.008.053.143-.045.223-.129.287A16.264,16.264,0,0,0,31.021,17.8a.771.771,0,0,1-.66.2l-12.788,0c-1.736,0-3.472-.008-5.208.009a1.932,1.932,0,0,0-1.991,1.371,3.247,3.247,0,0,0-.078,1.1q0,13.974,0,27.947,0,9.309,0,18.617c0,.3,0,.591.005.886a1.983,1.983,0,0,0,2.1,2.138c.55.018,1.1.008,1.651.008l69.913,0a2.543,2.543,0,0,0,1.64-.421,1.847,1.847,0,0,0,.768-1.439c.026-.618.019-1.238.019-1.857q0-22.776.01-45.551a6.177,6.177,0,0,0-.146-1.437,1.78,1.78,0,0,0-1.429-1.289A3.591,3.591,0,0,0,83.985,18q-8.66-.005-17.319.007a1.185,1.185,0,0,1-.961-.39,19.812,19.812,0,0,0-2.412-2.236l.036-.1" transform="translate(-4.966 -10.098)" fill="#695d67"/>
    <path id="Trazado_605805" data-name="Trazado 605805" d="M103.158,192.552q6.052,0,12.1,0c.76,0,.764,0,.764.769,0,1.166-.1,2.342.014,3.5a6.948,6.948,0,0,0,2.653,4.991l.377.3H99.878c.047-.174.2-.239.307-.33a6.955,6.955,0,0,0,2.541-4.786c.152-1.318.037-2.636.076-3.953,0-.14.012-.28.019-.42l.338-.065" transform="translate(-66.035 -127.308)" fill="#9cc5fb"/>
    <path id="Trazado_605806" data-name="Trazado 605806" d="M172.524,42.272l-6,.007-.087,0c-.259.038-.334-.079-.344-.331a39.254,39.254,0,0,0-.565-5.318,31.3,31.3,0,0,0-.77-3.35c-.05-.171-.028-.3.195-.417a17.908,17.908,0,0,0,3.181-2.356c.483-.423.48-.417.87.075a20.689,20.689,0,0,1,2.886,4.925,23.549,23.549,0,0,1,1.391,5.028,11.932,11.932,0,0,1,.152,1.523c.016.376-.312.142-.471.216h-.335a.059.059,0,0,0-.1,0" transform="translate(-108.914 -19.969)" fill="#9cc5fb"/>
    <path id="Trazado_605807" data-name="Trazado 605807" d="M67.314,42.251l-.25,0c-.029-.041-.058-.041-.087,0h-.251c-.029-.042-.058-.037-.086,0l-.343.006-.236-.068a24.7,24.7,0,0,1,.494-3.249A20.621,20.621,0,0,1,70.6,30.483c.311-.394.347-.389.722-.05A21.769,21.769,0,0,0,74.444,32.8a.491.491,0,0,1,.251.677,26.683,26.683,0,0,0-.934,4.465c-.123.973-.246,1.947-.342,2.924a4.358,4.358,0,0,1-.1,1.328l-.074.065-.425-.011c-.029-.042-.06-.044-.09,0h-.251c-.028-.042-.058-.044-.088,0l-.584-.006c-.033-.054-.065-.053-.1,0H70.8c-.033-.054-.066-.053-.1,0h-.917c-.033-.054-.066-.053-.1,0h-.239c-.033-.054-.066-.053-.1,0H69.1c-.033-.054-.066-.053-.1,0h-.239c-.033-.054-.066-.053-.1,0l-1.26,0c-.032-.045-.062-.041-.091,0" transform="translate(-43.678 -19.956)" fill="#9cc5fb"/>
    <path id="Trazado_605808" data-name="Trazado 605808" d="M105.009,50.255c-.078.043-.14.126-.247.094l-.089,0h-.163l-.093,0h-.244a.059.059,0,0,0-.1,0l-7.353-.006c-.034-.046-.068-.044-.1,0l-.578.005a.058.058,0,0,0-.1,0l-.246,0a.053.053,0,0,0-.093,0l-.249,0-.247-.056c-.2-.19,0-.384-.011-.574a18.569,18.569,0,0,1,.194-2.492c.08-.922.279-1.834.444-2.747.114-.628.269-1.248.385-1.875.061-.333.254-.144.369-.1.734.3,1.471.588,2.22.85a23.139,23.139,0,0,0,3.912.986,7.9,7.9,0,0,0,1.988.188c.328-.029.433.093.43.433-.016,1.742-.005,3.484,0,5.227a.067.067,0,0,0-.029.071" transform="translate(-62.826 -28.036)" fill="#9cc5fb"/>
    <path id="Trazado_605809" data-name="Trazado 605809" d="M133.259,50.371l-.241,0h-.095c-.927,0-.927,0-.927-.924,0-1.505.008-3.011-.006-4.515,0-.294.079-.372.375-.381a23.463,23.463,0,0,0,8.132-2.042c.275-.137.335-.025.393.21a35.99,35.99,0,0,1,.75,3.928c.09.684.157,1.375.194,2.068.028.529.09,1.057.074,1.588l-.093.067h-.329a.525.525,0,0,0-.433,0l-7.693,0a.059.059,0,0,0-.1,0" transform="translate(-87.267 -28.069)" fill="#9cc5fb"/>
    <path id="Trazado_605810" data-name="Trazado 605810" d="M108.993,19.153c-.218.35-.579.181-.827.144-.96-.145-1.927-.24-2.875-.477a25.653,25.653,0,0,1-4.074-1.426c-.253-.111-.259-.27-.177-.47A18.562,18.562,0,0,1,105.4,9.986a8.153,8.153,0,0,1,3.1-1.829c.416-.131.469-.023.468.35-.006,3.293,0,6.586,0,9.879,0,.225.007.45.011.675l0,.092" transform="translate(-66.772 -5.358)" fill="#9cc5fb"/>
    <path id="Trazado_605811" data-name="Trazado 605811" d="M132,13.672c0-1.744.012-3.488-.008-5.231,0-.411.144-.439.471-.332a9.263,9.263,0,0,1,4.468,3.349,21.313,21.313,0,0,1,2.308,3.847c.239.5.444,1.01.665,1.516.113.258.087.45-.212.568-.577.226-1.135.505-1.722.7a20.262,20.262,0,0,1-3.156.869,22.445,22.445,0,0,1-2.476.337c-.279.012-.349-.073-.347-.347.013-1.758.006-3.515.006-5.273Z" transform="translate(-87.268 -5.326)" fill="#9cc5fb"/>
    <path id="Trazado_605812" data-name="Trazado 605812" d="M201.437,34.583l-12.092.008c-.035-.054-.069-.049-.1,0l-.243,0a.1.1,0,0,0-.17,0c-.306.068-.475-.048-.6-.345a29.723,29.723,0,0,0-1.8-3.345l.037,0,.007-.037,1.25,0c.025.038.052.039.078,0l13.733.009.035.02.035-.019.19,0a.253.253,0,0,0,.235,0c.227.046.163.227.164.369,0,.907.007,1.814,0,2.721-.007.745.09.63-.652.62q-.05-.08-.107,0" transform="translate(-123.263 -20.409)" fill="#9cc5fb"/>
    <path id="Trazado_605813" data-name="Trazado 605813" d="M53.678,30.889c.242.009.2.146.115.279a24.878,24.878,0,0,0-1.815,3.3c-.1.212-.317.129-.49.147-.027-.042-.056-.049-.087-.005l-.244,0c-.032-.054-.065-.055-.1,0H46.411c-.032-.053-.064-.051-.1,0h-.238c-.034-.053-.068-.053-.1,0l-.164,0a.121.121,0,0,0-.152-.039.12.12,0,0,1-.08-.129c.1-1.14.014-2.281.037-3.422l.031-.085,0,0,.079-.02.683-.016.037.02.037-.02h.34l6.023,0h.341l.036.019.035-.021h.192a.214.214,0,0,0,.227,0" transform="translate(-30.134 -20.418)" fill="#9cc5fb"/>
    <path id="Trazado_605814" data-name="Trazado 605814" d="M23.035,33.44q0-.763,0-1.524a.28.28,0,0,0-.007-.31c.07-.251-.206-.582.177-.76h.1l.417,0h.016l3.951-.025a.155.155,0,0,0,.209-.008c.219-.005.2.151.2.292,0,1.055-.006,2.11,0,3.165,0,.248-.108.311-.333.31-1.439-.006-2.879-.017-4.318,0-.459.006-.463-.239-.417-.562a.269.269,0,0,0,.01-.31c0-.086,0-.172,0-.258l.025-.008Z" transform="translate(-15.203 -20.374)" fill="#fe646e"/>
    <path id="Trazado_605815" data-name="Trazado 605815" d="M151.251,12.067a2.206,2.206,0,0,1,.906.3,21.844,21.844,0,0,1,5.445,3.554c.372.332.363.376-.016.714a23.038,23.038,0,0,1-2.047,1.633c-.49.345-.544.336-.761-.208a21.218,21.218,0,0,0-3.528-5.99" transform="translate(-100.001 -7.978)" fill="#9cc5fb"/>
    <path id="Trazado_605816" data-name="Trazado 605816" d="M92.295,11.933c-.1.484-.442.676-.65.958a21.454,21.454,0,0,0-2.818,5.2c-.128.341-.28.38-.553.191a23.213,23.213,0,0,1-2.35-1.859c-.148-.134-.259-.252-.05-.439a22.073,22.073,0,0,1,6.421-4.053" transform="translate(-56.7 -7.89)" fill="#9cc5fb"/>
    <path id="Trazado_605817" data-name="Trazado 605817" d="M178.511,233.7c-.025-.2-.377-.4.013-.595a.75.75,0,0,1-.013.595" transform="translate(-117.912 -154.12)" fill="#695d67"/>
    <path id="Trazado_605818" data-name="Trazado 605818" d="M158.734,65.736a.528.528,0,0,1,.434,0,.786.786,0,0,1-.434,0" transform="translate(-104.949 -43.433)" fill="#695d67"/>
    <path id="Trazado_605819" data-name="Trazado 605819" d="M23.087,39.369a.27.27,0,0,1-.01.31l.01-.31" transform="translate(-15.258 -26.029)" fill="#695d67"/>
    <path id="Trazado_605820" data-name="Trazado 605820" d="M23.044,33.148a.279.279,0,0,1,.007.31.478.478,0,0,1-.007-.31" transform="translate(-15.221 -21.916)" fill="#695d67"/>
    <path id="Trazado_605821" data-name="Trazado 605821" d="M108.9,192.476l-.338.065c.086-.157.214-.1.338-.065" transform="translate(-71.776 -127.232)" fill="#695d67"/>
    <path id="Trazado_605822" data-name="Trazado 605822" d="M230.994,169.342c.027-.107.1-.084.174-.062-.043.064-.062.192-.174.062" transform="translate(-152.724 -111.909)" fill="#695d67"/>
    <path id="Trazado_605823" data-name="Trazado 605823" d="M232.016,30.788a.254.254,0,0,1-.235,0,.15.15,0,0,1,.235,0" transform="translate(-153.245 -20.318)" fill="#695d67"/>
    <path id="Trazado_605824" data-name="Trazado 605824" d="M37.04,30.771a.155.155,0,0,1-.209.008.213.213,0,0,1,.209-.008" transform="translate(-24.351 -20.329)" fill="#695d67"/>
    <path id="Trazado_605825" data-name="Trazado 605825" d="M69.04,30.8a.214.214,0,0,1-.227,0,.155.155,0,0,1,.227,0" transform="translate(-45.496 -20.332)" fill="#695d67"/>
    <path id="Trazado_605826" data-name="Trazado 605826" d="M95.283,65.661l.247.056c-.095.036-.185.05-.247-.056" transform="translate(-62.997 -43.413)" fill="#695d67"/>
    <path id="Trazado_605827" data-name="Trazado 605827" d="M66.062,65.631l.236.068c-.09.017-.191.069-.236-.068" transform="translate(-43.678 -43.393)" fill="#695d67"/>
    <path id="Trazado_605828" data-name="Trazado 605828" d="M23.7,30.828h-.1c.033-.052.065-.057.1,0" transform="translate(-15.609 -20.355)" fill="#695d67"/>
    <path id="Trazado_605829" data-name="Trazado 605829" d="M45.817,41.712a.12.12,0,0,1,.152.039.094.094,0,0,1-.152-.039" transform="translate(-30.292 -27.571)" fill="#695d67"/>
    <path id="Trazado_605830" data-name="Trazado 605830" d="M193.5,41.789a.1.1,0,0,1,.17,0l-.17,0" transform="translate(-127.936 -27.598)" fill="#695d67"/>
    <path id="Trazado_605831" data-name="Trazado 605831" d="M23.688,49.226a.152.152,0,0,1-.186-.008.115.115,0,0,1,.186.008" transform="translate(-15.539 -32.512)" fill="#695d67"/>
    <path id="Trazado_605832" data-name="Trazado 605832" d="M87.277,65.712l.074-.065c.006.057-.017.08-.074.065" transform="translate(-57.704 -43.403)" fill="#695d67"/>
    <path id="Trazado_605833" data-name="Trazado 605833" d="M124.49,65.434a.068.068,0,0,1,.029-.071.62.62,0,0,1,.005.066.18.18,0,0,1-.035.005" transform="translate(-82.307 -43.215)" fill="#695d67"/>
    <path id="Trazado_605834" data-name="Trazado 605834" d="M231.085,30.838l-.035.019-.034-.02c.024-.045.046-.045.069,0" transform="translate(-152.739 -20.366)" fill="#695d67"/>
    <path id="Trazado_605835" data-name="Trazado 605835" d="M190.333,30.815c-.026.038-.053.037-.078,0,.027-.042.053-.04.078,0" transform="translate(-125.789 -20.353)" fill="#695d67"/>
    <path id="Trazado_605836" data-name="Trazado 605836" d="M58.319,65.718l.068-.048c.011.064-.027.058-.068.048" transform="translate(-38.558 -43.418)" fill="#9cc5fb"/>
    <path id="Trazado_605837" data-name="Trazado 605837" d="M45.639,31l-.031.085c-.067-.057-.048-.082.031-.085" transform="translate(-30.127 -20.496)" fill="#695d67"/>
    <path id="Trazado_605838" data-name="Trazado 605838" d="M67.768,65.752c.028-.04.056-.044.086,0l-.086,0" transform="translate(-44.806 -43.452)" fill="#695d67"/>
    <path id="Trazado_605839" data-name="Trazado 605839" d="M68.762,65.75q.044-.061.087,0h-.087" transform="translate(-45.463 -43.451)" fill="#695d67"/>
    <path id="Trazado_605840" data-name="Trazado 605840" d="M69.758,65.733c.029-.043.06-.048.091,0l-.091,0" transform="translate(-46.121 -43.437)" fill="#695d67"/>
    <path id="Trazado_605841" data-name="Trazado 605841" d="M73.745,65.706c.034-.053.067-.053.1,0h-.1" transform="translate(-48.757 -43.416)" fill="#695d67"/>
    <path id="Trazado_605842" data-name="Trazado 605842" d="M74.745,65.7c.034-.053.067-.053.1,0h-.1" transform="translate(-49.419 -43.415)" fill="#695d67"/>
    <path id="Trazado_605843" data-name="Trazado 605843" d="M75.745,65.7c.034-.053.067-.053.1,0h-.1" transform="translate(-50.08 -43.415)" fill="#695d67"/>
    <path id="Trazado_605844" data-name="Trazado 605844" d="M76.745,65.7c.034-.053.067-.053.1,0h-.1" transform="translate(-50.741 -43.415)" fill="#695d67"/>
    <path id="Trazado_605845" data-name="Trazado 605845" d="M79.744,65.705c.034-.052.067-.053.1,0h-.1" transform="translate(-52.724 -43.416)" fill="#695d67"/>
    <path id="Trazado_605846" data-name="Trazado 605846" d="M82.745,65.706c.033-.052.066-.053.1,0h-.1" transform="translate(-54.708 -43.416)" fill="#695d67"/>
    <path id="Trazado_605847" data-name="Trazado 605847" d="M84.759,65.743c.03-.043.059-.04.088,0l-.088,0" transform="translate(-56.039 -43.446)" fill="#695d67"/>
    <path id="Trazado_605848" data-name="Trazado 605848" d="M85.759,65.743c.03-.043.06-.042.089,0h-.089" transform="translate(-56.701 -43.446)" fill="#695d67"/>
    <path id="Trazado_605849" data-name="Trazado 605849" d="M23.115,38.561l.025.008-.025.008v-.017" transform="translate(-15.283 -25.495)" fill="#695d67"/>
    <path id="Trazado_605850" data-name="Trazado 605850" d="M230.712,41.759q.057-.076.107,0l-.107,0" transform="translate(-152.538 -27.585)" fill="#695d67"/>
    <path id="Trazado_605851" data-name="Trazado 605851" d="M96.749,65.767a.053.053,0,0,1,.093,0h-.093" transform="translate(-63.967 -43.464)" fill="#695d67"/>
    <path id="Trazado_605852" data-name="Trazado 605852" d="M97.748,65.779a.058.058,0,0,1,.1,0h-.1" transform="translate(-64.627 -43.473)" fill="#695d67"/>
    <path id="Trazado_605853" data-name="Trazado 605853" d="M99.738,65.743c.034-.045.067-.047.1,0h-.1" transform="translate(-65.943 -43.444)" fill="#695d67"/>
    <path id="Trazado_605854" data-name="Trazado 605854" d="M121.74,65.777a.058.058,0,0,1,.1,0l-.1,0" transform="translate(-80.49 -43.473)" fill="#695d67"/>
    <path id="Trazado_605855" data-name="Trazado 605855" d="M122.748,65.835l.093,0-.093,0" transform="translate(-81.156 -43.528)" fill="#695d67"/>
    <path id="Trazado_605856" data-name="Trazado 605856" d="M123.5,65.843l.089,0-.089,0" transform="translate(-81.655 -43.533)" fill="#695d67"/>
    <path id="Trazado_605857" data-name="Trazado 605857" d="M134.744,65.831h0" transform="translate(-89.088 -43.524)" fill="#695d67"/>
    <path id="Trazado_605858" data-name="Trazado 605858" d="M135.735,65.761a.059.059,0,0,1,.1,0h-.1" transform="translate(-89.743 -43.46)" fill="#695d67"/>
    <path id="Trazado_605859" data-name="Trazado 605859" d="M194.723,41.783c.033-.052.067-.057.1,0l-.1,0" transform="translate(-128.743 -27.598)" fill="#695d67"/>
    <path id="Trazado_605860" data-name="Trazado 605860" d="M160.985,65.7l.093-.067c0,.064-.027.092-.093.067" transform="translate(-106.437 -43.395)" fill="#695d67"/>
    <path id="Trazado_605861" data-name="Trazado 605861" d="M169.752,65.846l.087,0-.087,0" transform="translate(-112.233 -43.534)" fill="#695d67"/>
    <path id="Trazado_605862" data-name="Trazado 605862" d="M187.729,65.775a.059.059,0,0,1,.1,0l-.1,0" transform="translate(-124.119 -43.472)" fill="#695d67"/>
    <path id="Trazado_605863" data-name="Trazado 605863" d="M188.738,65.833h0" transform="translate(-124.786 -43.526)" fill="#695d67"/>
    <path id="Trazado_605864" data-name="Trazado 605864" d="M211.792,77.2l-.006-.034.027.015Z" transform="translate(-140.024 -51.019)" fill="#695d67"/>
    <path id="Trazado_605865" data-name="Trazado 605865" d="M186.435,30.842l-.007.037-.038.005-.022-.055.067.013" transform="translate(-123.219 -20.383)" fill="#695d67"/>
    <path id="Trazado_605866" data-name="Trazado 605866" d="M62.76,41.814c.032-.044.061-.037.087,0l-.087,0" transform="translate(-41.494 -27.626)" fill="#695d67"/>
    <path id="Trazado_605867" data-name="Trazado 605867" d="M68.109,30.825l-.035.021-.036-.019c.023-.046.047-.048.071,0" transform="translate(-44.984 -20.358)" fill="#695d67"/>
    <path id="Trazado_605868" data-name="Trazado 605868" d="M211.871,94.628l-.029-.018.024-.021.015.018Z" transform="translate(-140.062 -62.538)" fill="#695d67"/>
    <path id="Trazado_605869" data-name="Trazado 605869" d="M67.107,30.827h-.075c.025-.045.05-.045.075,0" transform="translate(-44.319 -20.359)" fill="#695d67"/>
    <path id="Trazado_605870" data-name="Trazado 605870" d="M49.113,30.816h-.074c.024-.047.049-.046.074,0" transform="translate(-32.423 -20.352)" fill="#695d67"/>
    <path id="Trazado_605871" data-name="Trazado 605871" d="M48.11,30.817l-.037.02-.037-.02c.025-.046.049-.047.074,0" transform="translate(-31.76 -20.352)" fill="#695d67"/>
    <path id="Trazado_605872" data-name="Trazado 605872" d="M23.108,168.523c.054.032.056.064,0,.1,0-.032,0-.064,0-.1" transform="translate(-15.278 -111.421)" fill="#9cc5fb"/>
    <path id="Trazado_605873" data-name="Trazado 605873" d="M61.747,41.782c.034-.053.067-.052.1,0l-.1,0" transform="translate(-40.825 -27.599)" fill="#695d67"/>
    <path id="Trazado_605874" data-name="Trazado 605874" d="M47.75,41.785c.033-.05.065-.053.1,0h-.1" transform="translate(-31.57 -27.601)" fill="#695d67"/>
    <path id="Trazado_605875" data-name="Trazado 605875" d="M45.868,30.849l-.079.02c.009-.074.034-.086.079-.02" transform="translate(-30.274 -20.368)" fill="#695d67"/>
    <path id="Trazado_605876" data-name="Trazado 605876" d="M46.749,41.78c.034-.053.067-.053.1,0h-.1" transform="translate(-30.909 -27.597)" fill="#695d67"/>
    <path id="Trazado_605877" data-name="Trazado 605877" d="M25.139,30.864h-.016l.009-.026Z" transform="translate(-16.611 -20.389)" fill="#695d67"/>
    <path id="Trazado_605878" data-name="Trazado 605878" d="M124.6,40.533l0-.092c.053.028.057.059,0,.092" transform="translate(-82.375 -26.738)" fill="#695d67"/>
    <path id="Trazado_605879" data-name="Trazado 605879" d="M23.1,50.161c.056.026.067.055.007.091,0-.03-.005-.061-.007-.091" transform="translate(-15.275 -33.165)" fill="#9cc5fb"/>
    <path id="Trazado_605880" data-name="Trazado 605880" d="M27.146,89.778a13.017,13.017,0,0,1-1.5-.016,1.014,1.014,0,0,0-.72.074c-.242.15-.413.136-.472-.205a3.394,3.394,0,0,1-.07-.581q0-18.7-.005-37.4c0-.333.183-.669-.048-1.017-.085-.127.126-.213.279-.214.84,0,1.681,0,2.521,0,.155,0,.34.019.366.208.021.156-.117.245-.259.29-.116.037-.2.08-.2.228.008,1.618,0,3.237.018,4.855.006.732.042,1.47.012,2.193-.083,1.955-.145,3.91-.145,5.866,0,3.594-.019,7.189.014,10.784.008.88.038,1.756.009,2.639-.023.68.072,1.37.063,2.057a.279.279,0,0,0,.1.264c.056.039.136.085.11.163-.419,1.274-.087,2.577-.148,3.865s.011,2.587-.046,3.877a6.449,6.449,0,0,1-.01,1.656.447.447,0,0,0,.135.408M25.859,51.016c-.151-.078-.289-.253-.473-.092-.023.02-.035.1-.022.106a.438.438,0,0,0,.5-.014" transform="translate(-16.07 -33.337)" fill="#9cc5fb"/>
    <path id="Trazado_605881" data-name="Trazado 605881" d="M71.207,87.927A2.642,2.642,0,0,1,70.859,89q-1.5,3.343-3.016,6.681c-.166.367-.326.736-.49,1.1a1.3,1.3,0,0,1-1.223.815,1.253,1.253,0,0,1-1.124-.832c-.28-.659-.554-1.32-.816-1.986a4.34,4.34,0,0,1-.37-.97c-.013-.087-.023-.219-.151-.219s-.132.124-.176.21c-.423.84-.7,1.739-1.081,2.6-.039.09-.068.184-.107.274a1.318,1.318,0,0,1-1.173.932,1.438,1.438,0,0,1-1.312-.964c-1-2.211-1.987-4.427-2.976-6.643-.234-.526-.473-1.05-.684-1.585a1.188,1.188,0,0,1,.625-1.585,1.171,1.171,0,0,1,1.61.52c.36.681.665,1.393.979,2.1.49,1.1.968,2.2,1.452,3.3.038.087.05.2.172.219.151.018.13-.126.163-.2.329-.781.679-1.555.959-2.353a7.651,7.651,0,0,1,.345-.814,1.221,1.221,0,0,1,1.21-.756,1.262,1.262,0,0,1,1.156.847c.387.9.744,1.819,1.113,2.729a1.9,1.9,0,0,0,.1.233c.052.091.054.256.193.237.1-.014.176-.118.224-.23.374-.875.744-1.752,1.136-2.62q.62-1.372,1.279-2.725a1.286,1.286,0,0,1,1.455-.56,1.3,1.3,0,0,1,.877,1.175" transform="translate(-37.066 -57.32)"/>
    <path id="Trazado_605882" data-name="Trazado 605882" d="M115.141,93.113c.437-.958.812-1.808,1.21-2.647.491-1.037.878-2.122,1.429-3.131a1.236,1.236,0,0,1,1.414-.558,1.094,1.094,0,0,1,.869,1.121,2.047,2.047,0,0,1-.205.928c-1.157,2.574-2.319,5.146-3.462,7.727a2.228,2.228,0,0,1-.936,1.045,1.318,1.318,0,0,1-1.312-.456,2.839,2.839,0,0,1-.429-.767,26.048,26.048,0,0,0-1.013-2.489c-.036-.08.01-.219-.142-.215-.132,0-.172.1-.217.212-.358.914-.73,1.823-1.094,2.734a1.4,1.4,0,0,1-.989.945,1.227,1.227,0,0,1-1.254-.491c-.5-.833-.818-1.751-1.24-2.622-.413-.852-.835-1.705-1.194-2.576-.5-1.211-1.136-2.364-1.541-3.612a1.1,1.1,0,0,1,.733-1.447,1.157,1.157,0,0,1,1.575.591c.591,1.227,1.138,2.474,1.7,3.716.247.55.476,1.109.715,1.663.038.088.064.2.186.2.147,0,.118-.137.15-.216q.616-1.491,1.223-2.985a1.263,1.263,0,0,1,1.257-.932,1.306,1.306,0,0,1,1.22.944c.436,1.064.868,2.128,1.351,3.312" transform="translate(-69.4 -57.336)"/>
    <path id="Trazado_605883" data-name="Trazado 605883" d="M164.121,93.1l.95-2.1c.531-1.174,1.058-2.351,1.6-3.522a1.252,1.252,0,0,1,2.3.988c-.149.423-.355.826-.539,1.235q-1.269,2.819-2.54,5.636-.329.73-.663,1.457a1.2,1.2,0,0,1-1.03.751,1.148,1.148,0,0,1-1.263-.714c-.376-.861-.722-1.736-1.082-2.6a3.674,3.674,0,0,0-.205-.459c-.037-.063-.03-.192-.141-.179s-.13.112-.168.209q-.587,1.489-1.193,2.97a1.257,1.257,0,0,1-2.293.087c-.737-1.589-1.457-3.186-2.18-4.782q-.765-1.688-1.519-3.382a1.369,1.369,0,0,1,.083-1.548,1.265,1.265,0,0,1,2.087.263c.365.712.681,1.449,1.007,2.18.469,1.051.929,2.106,1.392,3.159.045.1.077.233.212.233.17,0,.113-.168.15-.258.435-1.046.847-2.1,1.3-3.141a1.152,1.152,0,0,1,1.162-.739,1.246,1.246,0,0,1,1.161.839c.382.887.733,1.786,1.1,2.68.085.207.178.41.321.735" transform="translate(-101.788 -57.332)"/>
    <path id="Trazado_605884" data-name="Trazado 605884" d="M101.53,112.867c0,.784-.354,1.307-.942,1.424a1.259,1.259,0,0,1-1.52-.893,1.522,1.522,0,0,1,.753-1.912,1.269,1.269,0,0,1,1.652.741,2.093,2.093,0,0,1,.057.64" transform="translate(-65.439 -73.653)"/>
    <path id="Trazado_605885" data-name="Trazado 605885" d="M148.008,112.891a1.288,1.288,0,0,1,1.813-1.328c.026.01.051.022.077.034a1.562,1.562,0,0,1,.633,1.731,1.251,1.251,0,0,1-1.216,1.014,1.308,1.308,0,0,1-1.307-1.452" transform="translate(-97.857 -73.692)"/>
    <path id="Trazado_605886" data-name="Trazado 605886" d="M27.913,51.867a.438.438,0,0,1-.5.014c-.013-.009,0-.086.022-.106.185-.161.322.014.473.092" transform="translate(-18.124 -34.188)" fill="#deeafa"/>
  </g>
</svg>
