<svg xmlns="http://www.w3.org/2000/svg" xmlns:xlink="http://www.w3.org/1999/xlink" width="62" height="62" viewBox="0 0 62 62">
  <defs>
    <clipPath id="clip-path">
      <rect id="Rect치ngulo_375572" data-name="Rect치ngulo 375572" width="38" height="43.148" fill="none"/>
    </clipPath>
  </defs>
  <g id="Grupo_1015240" data-name="Grupo 1015240" transform="translate(-769 -12906)">
    <g id="Grupo_1014857" data-name="Grupo 1014857" transform="translate(384.001 10848)">
      <path id="Uni칩n_12" data-name="Uni칩n 12" d="M31,0A31,31,0,1,1,0,31,31,31,0,0,1,31,0Z" transform="translate(384.999 2058)" fill="#c1e29a"/>
    </g>
    <g id="Grupo_1015871" data-name="Grupo 1015871" transform="translate(781 12917.13)">
      <g id="Grupo_1015870" data-name="Grupo 1015870" clip-path="url(#clip-path)">
        <path id="Trazado_606220" data-name="Trazado 606220" d="M8.266,36V38.3H33.146v-.238q0-4.4,0-8.8a1.566,1.566,0,0,1,.084-.509.583.583,0,0,1,.651-.364.566.566,0,0,1,.5.59q0,4.978,0,9.955a.584.584,0,0,1-.6.614c-.27.011-.541.008-.811.008l-20.846,0h-.31V41.91H23.7a.71.71,0,0,1,.638.245.584.584,0,0,1-.281.925,1.378,1.378,0,0,1-.416.066q-6.105.005-12.21,0a1.731,1.731,0,0,1-.25-.015.656.656,0,0,1-.634-.731c0-.883-.007-1.765,0-2.648,0-.158-.049-.2-.2-.2q-1.314,0-2.627,0c-.541,0-.745-.206-.749-.752-.006-.864-.007-1.727,0-2.59,0-.161-.034-.211-.2-.209-.676.006-1.354.03-2.028-.012A4.893,4.893,0,0,1,.17,32.28a7.7,7.7,0,0,1-.16-2.151c.005-.167.008-.335.021-.5A.63.63,0,0,1,.679,29c.8-.013,1.61-.009,2.415-.011h.292v-.229q0-13.561,0-27.121,0-.445.012-.889A.641.641,0,0,1,4.043.012,2.042,2.042,0,0,1,4.332,0h25.6a.934.934,0,0,1,.731.231A.622.622,0,0,1,30.834.7c-.005.915,0,1.83,0,2.745,0,.038,0,.076.008.137.07,0,.138.009.206.01l2.608,0c.519,0,.729.21.729.723q0,1.3,0,2.59v.24h.2c.876,0,1.752-.007,2.627-.007a.679.679,0,0,1,.784.726c.012.154.01.309.01.463q0,16.7,0,33.4c0,.232,0,.464-.013.7a.651.651,0,0,1-.66.708,1.824,1.824,0,0,1-.231.008q-5.052,0-10.1,0a1.926,1.926,0,0,1-.439-.048.591.591,0,0,1,.062-1.168,2.617,2.617,0,0,1,.366-.019h9.755V8.425h-2.35v.246q0,8.7,0,17.4a.622.622,0,0,1-.639.685.556.556,0,0,1-.512-.405,1.583,1.583,0,0,1-.083-.529q-.006-10.361,0-20.723v-.24H30.83V5.3q0,14.876,0,29.751c0,.734-.207.951-.949.951Q19.458,36,9.035,36h-.77m21.308-1.289V1.238H4.88a.8.8,0,0,1-.1,0c-.115-.014-.166.031-.158.151.009.141.01.283.01.425q0,13.492,0,26.985c0,.126,0,.2.168.2q4.385-.011,8.771-.011c.315,0,.631,0,.946.012a.62.62,0,0,1,.629.583.6.6,0,0,1-.55.655,3.465,3.465,0,0,1-.558.029H1.4c-.043,0-.085.01-.179.022a14.01,14.01,0,0,0,.13,1.616,3.506,3.506,0,0,0,2.969,2.785,9.049,9.049,0,0,0,1.214.037q8.578.005,17.155.006a.6.6,0,0,0,.1-.017l.05-.069a1.414,1.414,0,0,1-.234-.164,5.043,5.043,0,0,1-1.2-2.126,6.04,6.04,0,0,1-.159-1.838c0-.2-.043-.253-.241-.251-1.062.009-2.125,0-3.188,0a2.346,2.346,0,0,1-.327-.018.649.649,0,0,1-.612-.651.637.637,0,0,1,.675-.6q2.125-.011,4.25,0a.645.645,0,0,1,.688.712q0,.725,0,1.45a3.564,3.564,0,0,0,3.5,3.563c1.127.007,2.254,0,3.381,0,.062,0,.125-.005.2-.009" transform="translate(0)"/>
        <path id="Trazado_606221" data-name="Trazado 606221" d="M36.246,41.441c-.078,0-.141.009-.2.009-1.127,0-2.254.006-3.381,0a3.564,3.564,0,0,1-3.5-3.563q0-.725,0-1.45a.645.645,0,0,0-.688-.712q-2.125-.014-4.25,0a.638.638,0,0,0-.675.6.649.649,0,0,0,.612.651,2.374,2.374,0,0,0,.327.018c1.063,0,2.125.006,3.188,0,.2,0,.246.056.241.251a6.045,6.045,0,0,0,.159,1.838,5.044,5.044,0,0,0,1.2,2.126,1.413,1.413,0,0,0,.234.165l-.05.069a.61.61,0,0,1-.1.017q-8.578,0-17.155-.006A9.053,9.053,0,0,1,11,41.416a3.506,3.506,0,0,1-2.969-2.785,13.975,13.975,0,0,1-.13-1.616c.093-.012.136-.022.179-.022H20.711a3.464,3.464,0,0,0,.558-.029.6.6,0,0,0,.55-.656.62.62,0,0,0-.629-.583c-.315-.013-.631-.012-.946-.012q-4.385,0-8.771.011c-.164,0-.168-.072-.168-.2q0-13.492,0-26.985c0-.142,0-.284-.01-.425-.008-.12.042-.165.158-.151a.833.833,0,0,0,.1,0H36.246ZM17.668,10.89h0c-1.3,0-2.6.01-3.9,0-.633-.007-.712.318-.752.732,0,.051,0,.1,0,.155q0,3.779,0,7.558c0,.663.2.854.85.855h7.67a2.214,2.214,0,0,0,.251-.007.627.627,0,0,0,.573-.638q0-4.011,0-8.022a.671.671,0,0,0-.082-.29.652.652,0,0,0-.659-.339c-1.314.007-2.627,0-3.941,0m6.12,20.2h0q-4.955,0-9.91,0a1.658,1.658,0,0,0-.364.029.6.6,0,0,0-.4.89.756.756,0,0,0,.761.351q9.91,0,19.82,0a1.4,1.4,0,0,0,.381-.045.659.659,0,0,0,.488-.584.644.644,0,0,0-.393-.573,1.377,1.377,0,0,0-.453-.066q-4.965-.005-9.929,0m4.641-2.553q2.645,0,5.29,0A1.8,1.8,0,0,0,34.1,28.5a.576.576,0,0,0,.317-.939.847.847,0,0,0-.716-.26q-5.261,0-10.522,0a2.334,2.334,0,0,0-.4.037.585.585,0,0,0-.49.585.573.573,0,0,0,.505.584,2.431,2.431,0,0,0,.364.03q2.635,0,5.271,0m-4.636-3.712q2.25,0,4.5,0a1.455,1.455,0,0,0,.287-.027.567.567,0,0,0,.487-.6.584.584,0,0,0-.5-.573,1.9,1.9,0,0,0-.344-.037q-4.422,0-8.844,0a1.964,1.964,0,0,0-.421.045.62.62,0,0,0-.467.589.594.594,0,0,0,.5.574,2.22,2.22,0,0,0,.365.027q2.221,0,4.441,0M29.3,19.1q2.2,0,4.4,0a1.9,1.9,0,0,0,.383-.037.578.578,0,0,0,.323-.949.808.808,0,0,0-.68-.25q-4.413,0-8.826,0a2.034,2.034,0,0,0-.383.038.6.6,0,0,0-.476.578.588.588,0,0,0,.489.585,2.5,2.5,0,0,0,.422.034q2.172,0,4.345,0m0-2.938q2.192,0,4.384,0a1.662,1.662,0,0,0,.419-.049.577.577,0,0,0,.3-.959.743.743,0,0,0-.628-.228q-4.452,0-8.9,0a1.819,1.819,0,0,0-.326.029.591.591,0,0,0-.009,1.166,2.429,2.429,0,0,0,.441.039q2.163,0,4.326,0m.03-4.176H24.851a1.847,1.847,0,0,0-.289.017.6.6,0,0,0-.512.523.592.592,0,0,0,.413.625,1.546,1.546,0,0,0,.454.07q4.4.006,8.809,0a1.371,1.371,0,0,0,.451-.086.6.6,0,0,0,.386-.588.655.655,0,0,0-.692-.56H29.333M16.791,28.535q1.487,0,2.974,0a1.683,1.683,0,0,0,.344-.036.568.568,0,0,0,.449-.593.59.59,0,0,0-.447-.562,2,2,0,0,0-.4-.044q-2.926,0-5.851,0a2.029,2.029,0,0,0-.421.043.592.592,0,0,0-.374.875.716.716,0,0,0,.716.317q1.506,0,3.013,0" transform="translate(-6.673 -6.729)" fill="#fff"/>
        <path id="Trazado_606222" data-name="Trazado 606222" d="M45.508,26.8c1.314,0,2.627,0,3.941,0a.653.653,0,0,1,.66.339.672.672,0,0,1,.082.29q.007,4.011,0,8.022a.627.627,0,0,1-.573.639,2.214,2.214,0,0,1-.251.007H41.7c-.653,0-.85-.192-.85-.855q0-3.779,0-7.558c0-.051,0-.1,0-.154.04-.414.119-.74.752-.732,1.3.015,2.6,0,3.9,0h0m3.433,1.269a.573.573,0,0,0-.079-.015q-3.313,0-6.626,0c-.16,0-.153.084-.153.2q0,3.228,0,6.455a1.259,1.259,0,0,0,.014.138h6.84Z" transform="translate(-34.513 -22.637)"/>
        <path id="Trazado_606223" data-name="Trazado 606223" d="M51.762,157.07q4.965,0,9.929,0a1.377,1.377,0,0,1,.453.066.644.644,0,0,1,.393.573.659.659,0,0,1-.488.584,1.4,1.4,0,0,1-.381.045q-9.91,0-19.82,0a.756.756,0,0,1-.761-.351.6.6,0,0,1,.4-.89,1.658,1.658,0,0,1,.364-.029q4.955,0,9.91,0Z" transform="translate(-34.648 -132.711)"/>
        <path id="Trazado_606224" data-name="Trazado 606224" d="M106.826,133.866q-2.635,0-5.271,0a2.428,2.428,0,0,1-.364-.03.573.573,0,0,1-.505-.584.585.585,0,0,1,.49-.585,2.335,2.335,0,0,1,.4-.037q5.261,0,10.522,0a.847.847,0,0,1,.715.26.577.577,0,0,1-.317.939,1.8,1.8,0,0,1-.382.037q-2.645,0-5.29,0" transform="translate(-85.07 -112.06)"/>
        <path id="Trazado_606225" data-name="Trazado 606225" d="M81.475,109.934q-2.221,0-4.441,0a2.223,2.223,0,0,1-.365-.027.594.594,0,0,1-.5-.574.62.62,0,0,1,.467-.589,1.956,1.956,0,0,1,.421-.045q4.422,0,8.844,0a1.893,1.893,0,0,1,.344.037.584.584,0,0,1,.5.573.567.567,0,0,1-.487.6,1.456,1.456,0,0,1-.287.028q-2.25,0-4.5,0" transform="translate(-64.356 -91.839)"/>
        <path id="Trazado_606226" data-name="Trazado 606226" d="M117.288,73.036q-2.173,0-4.345,0a2.511,2.511,0,0,1-.422-.034.588.588,0,0,1-.488-.585.6.6,0,0,1,.476-.578,2.046,2.046,0,0,1,.383-.038q4.413,0,8.826,0a.808.808,0,0,1,.68.25.578.578,0,0,1-.323.949,1.9,1.9,0,0,1-.383.037q-2.2,0-4.4,0" transform="translate(-94.658 -60.664)"/>
        <path id="Trazado_606227" data-name="Trazado 606227" d="M117.286,54.091q-2.163,0-4.326,0a2.444,2.444,0,0,1-.441-.039.591.591,0,0,1,.009-1.166,1.819,1.819,0,0,1,.326-.029q4.452,0,8.9,0a.743.743,0,0,1,.628.228.577.577,0,0,1-.3.959,1.648,1.648,0,0,1-.419.049q-2.192.005-4.384,0" transform="translate(-94.657 -44.656)"/>
        <path id="Trazado_606228" data-name="Trazado 606228" d="M117.321,33.9q2.27,0,4.54,0a.655.655,0,0,1,.692.56.6.6,0,0,1-.386.588,1.371,1.371,0,0,1-.451.086q-4.4.007-8.809,0a1.54,1.54,0,0,1-.454-.07.592.592,0,0,1-.413-.624.6.6,0,0,1,.512-.523,1.845,1.845,0,0,1,.288-.017h4.482" transform="translate(-94.662 -28.646)"/>
        <path id="Trazado_606229" data-name="Trazado 606229" d="M44.493,133.865q-1.506,0-3.013,0a.716.716,0,0,1-.716-.317.592.592,0,0,1,.374-.875,2.019,2.019,0,0,1,.421-.043q2.925,0,5.851,0a2,2,0,0,1,.4.044.59.59,0,0,1,.447.562.568.568,0,0,1-.449.593,1.7,1.7,0,0,1-.344.036c-.991,0-1.983,0-2.974,0" transform="translate(-34.375 -112.058)"/>
        <path id="Trazado_606230" data-name="Trazado 606230" d="M55.672,34.909v6.77h-6.84a1.259,1.259,0,0,1-.014-.138q0-3.227,0-6.455c0-.112-.007-.2.153-.2q3.313.007,6.626,0a.574.574,0,0,1,.079.015" transform="translate(-41.244 -29.479)" fill="#fff"/>
      </g>
    </g>
  </g>
</svg>
