<svg xmlns="http://www.w3.org/2000/svg" xmlns:xlink="http://www.w3.org/1999/xlink" width="62" height="62" viewBox="0 0 62 62">
  <defs>
    <clipPath id="clip-path">
      <rect id="Rect치ngulo_375570" data-name="Rect치ngulo 375570" width="45.09" height="45.658" fill="none"/>
    </clipPath>
  </defs>
  <g id="Grupo_1015238" data-name="Grupo 1015238" transform="translate(-273 -12906)">
    <g id="Grupo_1014856" data-name="Grupo 1014856" transform="translate(-111.999 10848)">
      <path id="Uni칩n_12" data-name="Uni칩n 12" d="M31,0A31,31,0,1,1,0,31,31,31,0,0,1,31,0Z" transform="translate(384.999 2058)" fill="#c1e29a"/>
    </g>
    <g id="Grupo_1015867" data-name="Grupo 1015867" transform="translate(278.529 12913.333)">
      <g id="Grupo_1015866" data-name="Grupo 1015866" clip-path="url(#clip-path)">
        <path id="Trazado_606188" data-name="Trazado 606188" d="M45.09,25.88q0,7.8,0,15.6a4.1,4.1,0,0,1-.642,2.447,3.718,3.718,0,0,1-2.877,1.678c-.488.037-.98.047-1.47.047q-13.576,0-27.152,0a4.616,4.616,0,0,1-2.133-.378A3.8,3.8,0,0,1,8.6,41.732c-.034-1.833-.025-3.668.007-5.5a.586.586,0,0,0-.4-.641,14.232,14.232,0,0,1-6.914-7.066A14.627,14.627,0,0,1,.145,24.538a13.1,13.1,0,0,1-.1-3,15.557,15.557,0,0,1,.348-2.111A14.119,14.119,0,0,1,5.15,11.6a13.336,13.336,0,0,1,3.342-2.1.286.286,0,0,0,.118-.222c0-1.738-.013-3.476-.016-5.214a3.934,3.934,0,0,1,1.129-2.89A3.606,3.606,0,0,1,12.135.056c.449-.026.9-.045,1.348-.045q10.6,0,21.2-.01a1.842,1.842,0,0,1,1.431.585c1.045,1.075,2.117,2.124,3.177,3.184q2.478,2.481,4.955,4.964c.178.179.34.372.521.548a1.054,1.054,0,0,1,.32.81c0,.218,0,.436,0,.654q0,7.567,0,15.134ZM10.124,8.817c.424-.1.816-.209,1.216-.279.736-.129,1.472-.276,2.215-.338a12.815,12.815,0,0,1,4.093.339,15.436,15.436,0,0,1,2.76.926,14.4,14.4,0,0,1,5.2,4,13.945,13.945,0,0,1,2.679,5.051,14.808,14.808,0,0,1,.562,3.043,14.413,14.413,0,0,1-.091,3.119,14.064,14.064,0,0,1-1.564,4.7c-.221.408-.219.409.109.736q3.231,3.232,6.462,6.463a3.775,3.775,0,0,1-1.877,6.435,3.943,3.943,0,0,1-1.992-.139,4.175,4.175,0,0,1-1.6-1.07q-1.9-1.9-3.8-3.8-1.439-1.436-2.875-2.862A14.314,14.314,0,0,1,10.14,36.392a.345.345,0,0,0-.025.078q.005,1.6.012,3.19c0,.791-.007,1.582.015,2.372a2.1,2.1,0,0,0,1.607,2,6.484,6.484,0,0,0,1.436.131q13.924.014,27.847,0A3.2,3.2,0,0,0,42.075,44a2.064,2.064,0,0,0,1.465-1.749,9.6,9.6,0,0,0,.039-1.264q0-12.619,0-25.237c0-1.636,0-3.272,0-4.908,0-.138-.024-.2-.181-.18a2.426,2.426,0,0,1-.347,0c-2.065,0-4.13-.019-6.2,0a2.351,2.351,0,0,1-2.388-2.291c-.01-.5-.008-1.009-.008-1.513q0-2.6,0-5.195c0-.128-.041-.168-.164-.163-.163.007-.327,0-.49,0q-9.231,0-18.462,0c-1.029,0-2.059-.026-3.085.035A2.1,2.1,0,0,0,10.267,3a4.2,4.2,0,0,0-.142,1.287c-.015,1.384,0,2.768,0,4.151,0,.114,0,.228,0,.376m4.35,26.732A12.937,12.937,0,1,0,1.526,22.788,12.935,12.935,0,0,0,14.475,35.549M22.909,34.3a1.094,1.094,0,0,0,.074.09c.357.346.718.688,1.071,1.039q1.355,1.348,2.7,2.7c.86.865,1.71,1.739,2.571,2.6a2.346,2.346,0,0,0,3.252.161,2.287,2.287,0,0,0,.132-3.261c-.3-.321-.634-.618-.947-.931q-2.7-2.716-5.4-5.435c-.069-.069-.146-.129-.219-.193A14.566,14.566,0,0,1,22.909,34.3M36.028,2.7a.1.1,0,0,0-.009.031c0,1.934,0,3.869.011,5.8a.7.7,0,0,0,.194.4.8.8,0,0,0,.637.219c.259,0,.517-.019.776-.02q2.145,0,4.29,0h.535L36.028,2.7" transform="translate(0 0)"/>
        <path id="Trazado_606189" data-name="Trazado 606189" d="M61.667,16.416c0-.149,0-.262,0-.376,0-1.384-.014-2.768,0-4.152A4.211,4.211,0,0,1,61.81,10.6,2.1,2.1,0,0,1,63.8,9.131C64.83,9.07,65.861,9.1,66.89,9.1q9.231,0,18.462,0c.164,0,.327.008.49,0,.124-.006.165.034.164.163q-.006,2.6,0,5.195c0,.5,0,1.009.008,1.513A2.351,2.351,0,0,0,88.4,18.259c2.065-.015,4.13,0,6.2,0a2.4,2.4,0,0,0,.347,0c.157-.023.181.042.181.18,0,1.636,0,3.272,0,4.908q0,12.618,0,25.237a9.574,9.574,0,0,1-.039,1.264A2.064,2.064,0,0,1,93.618,51.6a3.191,3.191,0,0,1-1.042.162q-13.924.01-27.847,0a6.486,6.486,0,0,1-1.436-.131,2.1,2.1,0,0,1-1.607-2c-.023-.79-.012-1.581-.015-2.372q-.007-1.6-.012-3.19a.351.351,0,0,1,.025-.078,14.314,14.314,0,0,0,11.484-1.252Q74.6,44.164,76.042,45.6q1.9,1.9,3.8,3.8a4.177,4.177,0,0,0,1.6,1.07,3.943,3.943,0,0,0,1.992.139,3.774,3.774,0,0,0,1.877-6.435q-3.233-3.229-6.462-6.463c-.327-.328-.329-.328-.109-.736a14.062,14.062,0,0,0,1.564-4.7,14.413,14.413,0,0,0,.091-3.119,14.8,14.8,0,0,0-.562-3.044,13.951,13.951,0,0,0-2.679-5.051,14.4,14.4,0,0,0-5.2-4,15.423,15.423,0,0,0-2.76-.926A12.809,12.809,0,0,0,65.1,15.8c-.743.062-1.479.209-2.215.338-.4.07-.792.18-1.216.279m12.2-4.227h-8.2c-.075,0-.15,0-.225,0a.777.777,0,0,0-.727.729.744.744,0,0,0,.669.736,2.078,2.078,0,0,0,.326.021c1.186,0,2.372-.006,3.557-.006H81.042c.415,0,.832.013,1.246-.012a.685.685,0,0,0,.63-.835.725.725,0,0,0-.813-.636h-8.24m11.763,10.63q2.525,0,5.049,0c.252,0,.5-.005.755-.029a.788.788,0,0,0,.645-.694.7.7,0,0,0-.553-.734,5.308,5.308,0,0,0-.873-.053q-5.141-.005-10.282,0a3.043,3.043,0,0,0-.608.054.724.724,0,0,0-.576.762.756.756,0,0,0,.66.67,4.569,4.569,0,0,0,.469.025q2.658,0,5.315,0m.76,13.7h0c1.622,0,3.244,0,4.865,0a.789.789,0,0,0,.833-.73.773.773,0,0,0-.737-.781,6.042,6.042,0,0,0-.734-.029q-4.314,0-8.627,0a2.844,2.844,0,0,0-.876.14.627.627,0,0,0-.411.666.664.664,0,0,0,.464.656,1.559,1.559,0,0,0,.5.074c1.574.005,3.148,0,4.722,0m.406-6.09h0q-2.207,0-4.414,0a1.507,1.507,0,0,0-.283.027.737.737,0,0,0-.189,1.391,1.36,1.36,0,0,0,.528.127q4.363.012,8.725.006a.954.954,0,0,0,.652-.249.722.722,0,0,0-.031-1.137.952.952,0,0,0-.636-.17q-2.176,0-4.352,0m0-4.544v0q-2.136,0-4.272,0a2.928,2.928,0,0,0-.467.038.719.719,0,0,0-.087,1.383,3.119,3.119,0,0,0,.726.086q4.159.009,8.318,0a2.468,2.468,0,0,0,.466-.044.751.751,0,0,0,.6-.729.716.716,0,0,0-.627-.714c-.136,0-.271-.024-.407-.025q-2.126,0-4.251,0M89.916,50.2v.014c.388,0,.776,0,1.165,0A2.333,2.333,0,0,0,93.6,47.968c.065-1.011.026-2.029.007-3.044a.768.768,0,0,0-.532-.733.673.673,0,0,0-.763.193A.842.842,0,0,0,92.1,45c0,.94-.008,1.88.006,2.82a.806.806,0,0,1-.835.862c-.946-.033-1.893-.013-2.84-.008a.8.8,0,0,0-.864.741c-.013.462.268.756.8.779.516.023,1.035,0,1.552,0m-2-9.134v.012c1.056,0,2.113,0,3.169,0A1.9,1.9,0,0,0,91.623,41a.71.71,0,0,0,.362-1.011.855.855,0,0,0-.823-.426q-3.22,0-6.44,0a1.748,1.748,0,0,0-.5.081.721.721,0,0,0-.432.9.771.771,0,0,0,.813.525c1.1.006,2.208,0,3.311,0M79.134,18.26v0q1.379,0,2.759,0a2.555,2.555,0,0,0,.367-.018.758.758,0,0,0,.666-.692.722.722,0,0,0-.551-.761,2,2,0,0,0-.506-.049q-2.769-.006-5.538,0a1.418,1.418,0,0,0-.324.031.722.722,0,0,0-.6.591.707.707,0,0,0,.309.744.936.936,0,0,0,.6.156h2.82" transform="translate(-51.543 -7.6)" fill="#fff"/>
        <path id="Trazado_606190" data-name="Trazado 606190" d="M22.245,84.854A12.937,12.937,0,1,1,35.165,71.94a12.887,12.887,0,0,1-12.92,12.914m.093-24.322A11.392,11.392,0,1,0,33.605,71.609,11.365,11.365,0,0,0,22.338,60.532" transform="translate(-7.77 -49.305)" fill="#fff"/>
        <path id="Trazado_606191" data-name="Trazado 606191" d="M139.648,192.629a14.565,14.565,0,0,0,3.232-3.226c.073.064.15.124.219.193q2.7,2.717,5.4,5.435c.312.314.642.61.947.932a2.287,2.287,0,0,1-.132,3.261,2.346,2.346,0,0,1-3.252-.161c-.861-.863-1.712-1.737-2.571-2.6q-1.347-1.356-2.7-2.7c-.353-.351-.714-.692-1.071-1.039a1.044,1.044,0,0,1-.074-.09" transform="translate(-116.739 -158.332)" fill="#fff"/>
        <path id="Trazado_606192" data-name="Trazado 606192" d="M219.573,16.471l6.433,6.44h-.535q-2.145,0-4.29,0c-.259,0-.517.018-.776.02a.8.8,0,0,1-.637-.219.7.7,0,0,1-.194-.4c-.013-1.934-.01-3.869-.011-5.8a.1.1,0,0,1,.009-.031" transform="translate(-183.545 -13.769)" fill="#fff"/>
        <path id="Trazado_606193" data-name="Trazado 606193" d="M89.426,27.975h8.24a.725.725,0,0,1,.813.636.685.685,0,0,1-.629.834c-.414.026-.83.012-1.246.013H84.826c-1.186,0-2.371,0-3.557.006a2.04,2.04,0,0,1-.326-.021.744.744,0,0,1-.669-.736.777.777,0,0,1,.727-.73c.074-.006.15,0,.225,0h8.2" transform="translate(-67.105 -23.385)"/>
        <path id="Trazado_606194" data-name="Trazado 606194" d="M174.925,85.053q-2.658,0-5.315,0a4.566,4.566,0,0,1-.469-.025.756.756,0,0,1-.66-.67.724.724,0,0,1,.576-.762,3.057,3.057,0,0,1,.608-.054q5.141,0,10.282,0a5.306,5.306,0,0,1,.873.053.7.7,0,0,1,.553.734.788.788,0,0,1-.645.694c-.25.024-.5.029-.755.029q-2.525,0-5.049,0" transform="translate(-140.842 -69.835)"/>
        <path id="Trazado_606195" data-name="Trazado 606195" d="M183.425,168.445c-1.574,0-3.148,0-4.722,0a1.563,1.563,0,0,1-.5-.074.663.663,0,0,1-.464-.655.627.627,0,0,1,.411-.666,2.838,2.838,0,0,1,.875-.14q4.314-.014,8.627,0a6.042,6.042,0,0,1,.734.029.774.774,0,0,1,.737.781.789.789,0,0,1-.833.73c-1.622.005-3.244,0-4.865,0Z" transform="translate(-148.581 -139.521)"/>
        <path id="Trazado_606196" data-name="Trazado 606196" d="M187.841,139.188q2.176,0,4.352,0a.952.952,0,0,1,.636.17.722.722,0,0,1,.031,1.137.956.956,0,0,1-.652.249q-4.363,0-8.725-.006a1.361,1.361,0,0,1-.529-.127.681.681,0,0,1-.407-.806.688.688,0,0,1,.6-.586,1.506,1.506,0,0,1,.283-.027q2.207,0,4.414,0Z" transform="translate(-152.592 -116.354)"/>
        <path id="Trazado_606197" data-name="Trazado 606197" d="M187.826,111.493q2.126,0,4.251,0c.136,0,.271.021.407.025a.715.715,0,0,1,.627.714.75.75,0,0,1-.6.728,2.458,2.458,0,0,1-.466.045q-4.159,0-8.318,0a3.1,3.1,0,0,1-.726-.086.719.719,0,0,1,.087-1.383,2.929,2.929,0,0,1,.467-.038q2.136,0,4.271,0Z" transform="translate(-152.575 -93.203)"/>
        <path id="Trazado_606198" data-name="Trazado 606198" d="M221.923,228.829c-.517,0-1.036.018-1.552,0-.533-.024-.814-.317-.8-.779a.8.8,0,0,1,.864-.741c.947,0,1.894-.025,2.84.008a.805.805,0,0,0,.835-.862c-.014-.94,0-1.88-.006-2.82a.843.843,0,0,1,.216-.618.673.673,0,0,1,.763-.193.768.768,0,0,1,.532.733c.019,1.015.058,2.033-.007,3.044a2.333,2.333,0,0,1-2.519,2.248c-.388,0-.776,0-1.165,0v-.014" transform="translate(-183.55 -186.227)"/>
        <path id="Trazado_606199" data-name="Trazado 606199" d="M200.5,196.33c-1.1,0-2.208,0-3.312,0a.772.772,0,0,1-.813-.525.721.721,0,0,1,.432-.9,1.747,1.747,0,0,1,.5-.081q3.22-.008,6.44,0a.855.855,0,0,1,.824.427.71.71,0,0,1-.362,1.011,1.9,1.9,0,0,1-.542.078c-1.056.007-2.112,0-3.169,0v-.012" transform="translate(-164.134 -162.861)"/>
        <path id="Trazado_606200" data-name="Trazado 606200" d="M149.114,57.227h-2.82a.936.936,0,0,1-.6-.156.707.707,0,0,1-.309-.744.722.722,0,0,1,.6-.591,1.418,1.418,0,0,1,.324-.031q2.769,0,5.538,0a2,2,0,0,1,.506.049.722.722,0,0,1,.551.761.758.758,0,0,1-.666.692,2.555,2.555,0,0,1-.367.018q-1.379,0-2.759,0v0" transform="translate(-121.523 -46.567)"/>
        <path id="Trazado_606201" data-name="Trazado 606201" d="M30.241,68.439a11.392,11.392,0,1,1-11.492,11.5,11.377,11.377,0,0,1,11.492-11.5M39.986,79.4a9.627,9.627,0,0,0-3.394-7.075,9.732,9.732,0,0,0-7.53-2.307,9.877,9.877,0,1,0,2.319,19.615,9.737,9.737,0,0,0,8.6-10.234" transform="translate(-15.673 -57.212)"/>
        <path id="Trazado_606202" data-name="Trazado 606202" d="M47.615,87.2a9.877,9.877,0,0,1-19.731.96A9.847,9.847,0,0,1,36.69,77.816a9.732,9.732,0,0,1,7.53,2.307A9.627,9.627,0,0,1,47.615,87.2M37.587,88.6v-.006h4.764c.341,0,.682.009,1.021-.014a.772.772,0,0,0,.683-.725.791.791,0,0,0-.662-.748,3.913,3.913,0,0,0-.51-.027q-5.377,0-10.755,0a1.551,1.551,0,0,0-.365.032.764.764,0,0,0-.572.531.691.691,0,0,0,.187.713.983.983,0,0,0,.811.247h5.4m.028,4.56q1.236,0,2.472,0a1.916,1.916,0,0,0,.325-.024A.7.7,0,0,0,41,92.452a.678.678,0,0,0-.5-.727,2.011,2.011,0,0,0-.523-.069q-2.38-.009-4.759,0a2.212,2.212,0,0,0-.5.072.639.639,0,0,0-.494.585.615.615,0,0,0,.305.681,1.577,1.577,0,0,0,.657.16c.81.018,1.62.007,2.431.007m.019-10.635h0c-.837,0-1.675,0-2.512,0a1.491,1.491,0,0,0-.383.044.737.737,0,0,0-.527.7.668.668,0,0,0,.5.685,2.525,2.525,0,0,0,.624.066q2.267.009,4.533,0a2.958,2.958,0,0,0,.488-.034.737.737,0,0,0-.154-1.466c-.858,0-1.716,0-2.573,0" transform="translate(-23.302 -65.009)" fill="#fff"/>
        <path id="Trazado_606203" data-name="Trazado 606203" d="M54.313,136.049h-5.4a.984.984,0,0,1-.811-.247.692.692,0,0,1-.187-.713.765.765,0,0,1,.572-.531,1.562,1.562,0,0,1,.365-.032q5.377,0,10.755,0a3.908,3.908,0,0,1,.51.027.792.792,0,0,1,.662.748.772.772,0,0,1-.683.725c-.339.024-.681.014-1.021.015H54.313v.006" transform="translate(-40.028 -112.459)"/>
        <path id="Trazado_606204" data-name="Trazado 606204" d="M69.912,163.915c-.81,0-1.621.011-2.431-.007a1.578,1.578,0,0,1-.657-.16.615.615,0,0,1-.306-.682.639.639,0,0,1,.494-.585,2.214,2.214,0,0,1,.5-.072q2.38-.007,4.759,0a2.013,2.013,0,0,1,.523.069.678.678,0,0,1,.5.727.7.7,0,0,1-.589.683,1.884,1.884,0,0,1-.325.024q-1.236,0-2.472,0" transform="translate(-55.599 -135.764)"/>
        <path id="Trazado_606205" data-name="Trazado 606205" d="M69.933,106.769c.858,0,1.716,0,2.573,0a.737.737,0,0,1,.154,1.466,2.96,2.96,0,0,1-.488.034q-2.267,0-4.533,0a2.525,2.525,0,0,1-.624-.066.668.668,0,0,1-.5-.685.737.737,0,0,1,.527-.7,1.491,1.491,0,0,1,.383-.044c.837,0,1.675,0,2.512,0Z" transform="translate(-55.6 -89.253)"/>
      </g>
    </g>
  </g>
</svg>
