<svg xmlns="http://www.w3.org/2000/svg" xmlns:xlink="http://www.w3.org/1999/xlink" width="125.072" height="125.072" viewBox="0 0 125.072 125.072">
  <defs>
    <clipPath id="clip-path">
      <rect id="Rectángulo_345803" data-name="Rectángulo 345803" width="89.609" height="89.372" fill="none"/>
    </clipPath>
  </defs>
  <g id="Grupo_1015786" data-name="Grupo 1015786" transform="translate(-1089 -2146)">
    <circle id="Elipse_4840" data-name="Elipse 4840" cx="62.5" cy="62.5" r="62.5" transform="translate(1089 2146)" fill="#304c8e"/>
    <g id="Group_43_" data-name="Group (43)" transform="translate(1182 2239)">
      <path id="Trazado_598926" data-name="Trazado 598926" d="M36.549,16.055,16.055,36.549a15.864,15.864,0,0,0,.655,1.582l21.422-21.42a15.863,15.863,0,0,0-1.582-.655Z" transform="translate(-15.17 -15.17)" fill="#4ca220"/>
      <path id="Trazado_598927" data-name="Trazado 598927" d="M18.367.8.8,18.367a16.022,16.022,0,0,0,.26,1.7L20.065,1.058A16.022,16.022,0,0,0,18.367.8Z" transform="translate(-0.754 -0.754)" fill="#4ca220"/>
      <path id="Trazado_598928" data-name="Trazado 598928" d="M299.7,283.668c0-.137-.008-.274-.01-.41l-16.454,16.453c.137,0,.273.01.41.01a16.091,16.091,0,0,0,1.678-.088l14.289-14.289a16.09,16.09,0,0,0,.088-1.678Z" transform="translate(-267.627 -267.648)" fill="#4ca220"/>
      <path id="Trazado_598929" data-name="Trazado 598929" d="M68.634,46.122q-.611-.481-1.267-.9L45.2,67.389q.42.656.9,1.267Z" transform="translate(-42.708 -42.73)" fill="#4ca220"/>
      <path id="Trazado_598930" data-name="Trazado 598930" d="M0,15.009,15.009,0c-.434.026-.863.07-1.287.131L.131,13.722C.07,14.145.026,14.575,0,15.009Z" fill="#4ca220"/>
      <path id="Trazado_598931" data-name="Trazado 598931" d="M106.76,84.058l-22.7,22.7a16.114,16.114,0,0,0,1.365,1.222l22.559-22.559A16.123,16.123,0,0,0,106.76,84.058Z" transform="translate(-79.426 -79.426)" fill="#4ca220"/>
      <path id="Trazado_598932" data-name="Trazado 598932" d="M159.927,138.548a16.093,16.093,0,0,0-.877-1.6l-22.108,22.108a15.959,15.959,0,0,0,1.6.877Z" transform="translate(-129.396 -129.396)" fill="#4ca220"/>
      <path id="Trazado_598933" data-name="Trazado 598933" d="M28.816,19.794a16.1,16.1,0,0,0-9.022,9.022Z" transform="translate(-18.704 -18.704)" fill="#4ca220"/>
      <path id="Trazado_598934" data-name="Trazado 598934" d="M382.436,392.617a16.085,16.085,0,0,0,10.18-10.18Z" transform="translate(-361.361 -361.361)" fill="#4ca220"/>
      <path id="Trazado_598935" data-name="Trazado 598935" d="M220.714,200.477l-20.237,20.237a15.962,15.962,0,0,0,2.154.537l18.619-18.619A16.154,16.154,0,0,0,220.714,200.477Z" transform="translate(-189.429 -189.429)" fill="#4ca220"/>
    </g>
    <g id="Grupo_1015794" data-name="Grupo 1015794" transform="translate(1117.333 2163.814)">
      <g id="Grupo_1015793" data-name="Grupo 1015793" clip-path="url(#clip-path)">
        <path id="Trazado_606053" data-name="Trazado 606053" d="M2.965,44.73q0,19.483,0,38.967c0,.378,0,.757.022,1.134A1.5,1.5,0,0,0,4.5,86.382c.348.033.7.029,1.049.029q28.664,0,57.327,0a10.507,10.507,0,0,0,1.526-.063,1.4,1.4,0,0,0,1.3-1.361,5.432,5.432,0,0,0,.027-.7q.006-6.785.014-13.57a4.883,4.883,0,0,1,.091-1.039,1.382,1.382,0,0,1,1.52-1.093,1.356,1.356,0,0,1,1.271,1.273,9.847,9.847,0,0,1,.028,1q0,6.611,0,13.221a8.813,8.813,0,0,1-.114,1.735,4.348,4.348,0,0,1-3.931,3.475c-.551.049-1.105.079-1.658.079q-28.86.006-57.72,0a8.938,8.938,0,0,1-1.654-.128A4.4,4.4,0,0,1,.088,85.32C.035,84.684,0,84.044,0,83.406Q0,44.222,0,5.038A4.981,4.981,0,0,1,1.127,1.55,4.605,4.605,0,0,1,4.527,0c.117,0,.233,0,.35,0H63.866a4.452,4.452,0,0,1,4.7,3.7,8.478,8.478,0,0,1,.082,1.608q0,12.937,0,25.875c0,.465.02.933-.022,1.394a1.413,1.413,0,0,1-1.4,1.3,1.37,1.37,0,0,1-1.419-1.266c-.073-1.189-.084-2.382-.085-3.574q-.008-11.781,0-23.563a10.121,10.121,0,0,0-.075-1.347,1.261,1.261,0,0,0-1.1-1.083,5.986,5.986,0,0,0-.871-.057q-29.341,0-58.683,0a4.683,4.683,0,0,0-.481.019A1.5,1.5,0,0,0,2.991,4.587c-.032.566-.027,1.134-.027,1.7q0,19.221,0,38.442" transform="translate(0 0)" fill="#fff"/>
        <path id="Trazado_606054" data-name="Trazado 606054" d="M139.831,64.226c-.433-.262-.87-.517-1.3-.785a1.461,1.461,0,0,1-.7-1,1.311,1.311,0,0,1,.482-1.321,1.245,1.245,0,0,1,1.38-.264c.527.243,1.032.532,1.582.819a1.932,1.932,0,0,0,.19-.24c1.075-1.846,2.143-3.7,3.222-5.541a5.972,5.972,0,0,1,.628-.888,1.325,1.325,0,0,1,1.467-.417c.316.1.43.012.57-.25a6.3,6.3,0,0,1,1.917-2.394,4.423,4.423,0,0,1,6.795,2.627,4.28,4.28,0,0,1-.369,3.162c-.243.479-.534.933-.808,1.407,0,.013,0,.049.023.065a1.762,1.762,0,0,1,.206,2.5c-1.1,1.846-2.164,3.719-3.266,5.566-.191.32-.167.471.161.637a10.364,10.364,0,0,1,1.049.627,4.324,4.324,0,0,1,1.558,5.871c-.717,1.394-1.522,2.744-2.3,4.106-1.134,1.98-2.282,3.953-3.425,5.928a5,5,0,0,1-.325.516,1.432,1.432,0,0,1-1.871.413,1.347,1.347,0,0,1-.606-1.831c.6-1.176,1.255-2.328,1.917-3.472,1.3-2.253,2.632-4.49,3.938-6.74a1.642,1.642,0,0,0-.7-2.617c-.31-.186-.631-.355-.982-.552-.337.586-.659,1.15-.984,1.712-3.416,5.917-6.849,11.823-10.239,17.754a43.844,43.844,0,0,1-4.581,6.364,40.469,40.469,0,0,0-4.24,5.7,4.209,4.209,0,0,1-2.875,2.1,6.819,6.819,0,0,1-1.733.057.78.78,0,0,0-.773.325c-.878,1.141-1.779,2.266-2.683,3.388a8.307,8.307,0,0,1-.878.97,2.8,2.8,0,0,1-4.41-.677,22.186,22.186,0,0,1-.992-2.271l-.218-.51c-.183.284-.324.5-.458.712a3.123,3.123,0,0,1-2.059,1.566,2.939,2.939,0,0,1-3.55-2.71c-.185-1.763-.311-3.532-.465-5.3a1.427,1.427,0,0,0-.147-.575c-.23.7-.457,1.391-.689,2.086q-1.42,4.255-2.843,8.508a3.829,3.829,0,0,1-.161.4,1.357,1.357,0,0,1-1.718.8,1.41,1.41,0,0,1-1.021-1.732c.266-.964.6-1.912.916-2.861.9-2.668,1.8-5.337,2.714-8a2.972,2.972,0,0,1,5.852.618c.185,1.822.3,3.65.45,5.475.005.068.017.136.039.306.125-.164.2-.256.269-.353.2-.287.372-.593.592-.862a2.845,2.845,0,0,1,4.794.425c.368.671.616,1.408.922,2.114.073.169.158.333.265.56.16-.184.284-.319.4-.46.912-1.116,1.817-2.237,2.737-3.346a.465.465,0,0,0,.059-.64,4.613,4.613,0,0,1,.189-5.022,25.23,25.23,0,0,0,1.654-3.351c.887-2.208,1.61-4.484,2.543-6.671a40.586,40.586,0,0,1,2.26-4.223c2.2-3.818,4.419-7.621,6.632-11.429l4-6.89m-4.155,25.143c.168-.317.314-.613.479-.9q2.071-3.585,4.15-7.167,3.588-6.157,7.194-12.3c.193-.328-.005-.4-.21-.521q-2.126-1.205-4.254-2.409c-.6-.341-.606-.34-.944.242q-3.139,5.409-6.276,10.82-2.489,4.3-4.964,8.609c-.113.2-.205.4-.319.63l5.144,3M149.1,66.1c.966-1.632,1.885-3.2,2.819-4.753.154-.256.2-.409-.113-.586-1.523-.853-3.034-1.728-4.551-2.592-.12-.068-.251-.118-.369-.173-.952,1.657-1.876,3.271-2.808,4.879-.129.222-.072.315.14.435,1.392.79,2.775,1.6,4.162,2.394.235.135.476.262.719.4m-19.8,23c-.054.048-.086.062-.095.085-.674,1.763-1.351,3.525-2.005,5.3a.453.453,0,0,0,.177.391c.785.473,1.593.909,2.379,1.382.277.166.43.111.611-.132.3-.408.641-.792.967-1.183.866-1.036,1.733-2.07,2.637-3.149L129.3,89.1m-2.839,11.914.06.108a4.157,4.157,0,0,0,1.051-.607,6.442,6.442,0,0,0,.845-1.313.4.4,0,0,0-.121-.366q-1.061-.649-2.155-1.243a.393.393,0,0,0-.372.094,8,8,0,0,0-.69,1.257,1.467,1.467,0,0,0,1.382,2.07m25.109-46.9a1.263,1.263,0,0,0-.978.525c-.277.389-.509.809-.775,1.205-.151.225-.1.364.124.491.693.4,1.375.812,2.077,1.192a.435.435,0,0,0,.414-.081,7.1,7.1,0,0,0,.693-1.251,1.526,1.526,0,0,0-1.556-2.082" transform="translate(-66.606 -33.25)" fill="#fff"/>
        <path id="Trazado_606055" data-name="Trazado 606055" d="M41.414,28.529v2.987h.506l35.141.008c.511,0,1.022-.012,1.532.009a1.551,1.551,0,0,1,1.44.9,1.35,1.35,0,0,1-1.093,1.974c-.826.063-1.66.03-2.491.03q-10.35,0-20.7,0-7.724.005-15.448.028c-1.288,0-1.864-.473-1.9-1.741-.046-1.86-.037-3.723,0-5.584a1.446,1.446,0,0,1,1.56-1.567c.436-.029.875-.017,1.312-.018l36.849,0a1.859,1.859,0,0,1,1.839.75,1.419,1.419,0,0,1-1,2.171,6.178,6.178,0,0,1-.959.063q-17.768,0-35.536-.008h-1.06" transform="translate(-24.939 -16.606)" fill="#fff"/>
        <path id="Trazado_606056" data-name="Trazado 606056" d="M29.395,166.014a13.311,13.311,0,0,1,7.826,2.444,1.5,1.5,0,0,1,.728,1.483,1.27,1.27,0,0,1-.992,1.147,2.035,2.035,0,0,1-.968-.056,2.7,2.7,0,0,1-.758-.426,9.45,9.45,0,0,0-6.658-1.546,8.981,8.981,0,0,0-6.045,3.162,9.324,9.324,0,0,0-2.193,8.657,9.734,9.734,0,0,0,19.107-.944c.066-.474.069-.957.134-1.431a1.446,1.446,0,0,1,2.885.2,12.4,12.4,0,0,1-5.553,10.344,12.106,12.106,0,0,1-8.966,2.1,12.9,12.9,0,0,1-10.606-10.2,12.681,12.681,0,0,1,9.634-14.57c.931-.217,1.9-.287,2.425-.364" transform="translate(-11.126 -107.89)" fill="#fff"/>
        <path id="Trazado_606057" data-name="Trazado 606057" d="M86.3,92.331q-7.854,0-15.709,0a6.153,6.153,0,0,1-.872-.054,1.451,1.451,0,0,1-1.3-1.5,1.405,1.405,0,0,1,1.31-1.387,5.817,5.817,0,0,1,.785-.045q15.819,0,31.638,0a1.786,1.786,0,0,1,1.915,1,1.392,1.392,0,0,1-1.136,1.941,8.537,8.537,0,0,1-.96.052q-7.833,0-15.666,0Z" transform="translate(-44.461 -58.064)" fill="#fff"/>
        <path id="Trazado_606058" data-name="Trazado 606058" d="M46.408,114.913H61.021a1.529,1.529,0,0,1,1.729,1.2,1.4,1.4,0,0,1-1.041,1.665,4.491,4.491,0,0,1-.955.09q-14.372.007-28.744,0a5.185,5.185,0,0,1-.783-.06,1.32,1.32,0,0,1-1.239-1.335,1.377,1.377,0,0,1,1.2-1.516,3.526,3.526,0,0,1,.652-.046q7.284,0,14.569,0Z" transform="translate(-19.489 -74.679)" fill="#fff"/>
        <path id="Trazado_606059" data-name="Trazado 606059" d="M67.721,62.573q-7.13,0-14.26,0a4.944,4.944,0,0,1-.953-.091,1.418,1.418,0,0,1,0-2.788,4.088,4.088,0,0,1,.824-.081q14.436-.006,28.872,0a1.876,1.876,0,0,1,1.429.41,1.326,1.326,0,0,1,.443,1.451,1.568,1.568,0,0,1-1.391,1.094,4.447,4.447,0,0,1-.568.019H67.721Z" transform="translate(-33.369 -38.736)" fill="#fff"/>
        <path id="Trazado_606060" data-name="Trazado 606060" d="M38.949,139.1q-3.566,0-7.131,0a3.562,3.562,0,0,1-.778-.086A1.429,1.429,0,0,1,30.9,136.3a3.138,3.138,0,0,1,.942-.15q7.066-.013,14.131,0a2.815,2.815,0,0,1,1.1.217,1.4,1.4,0,0,1,.739,1.573A1.559,1.559,0,0,1,46.3,139.1q-3.675.006-7.35,0" transform="translate(-19.491 -88.477)" fill="#fff"/>
        <path id="Trazado_606061" data-name="Trazado 606061" d="M41.708,195.306c.13-.119.26-.232.382-.353,1.518-1.508,3.025-3.026,4.559-4.517a2.875,2.875,0,0,1,1.013-.635,1.376,1.376,0,0,1,1.553,1.969,2.736,2.736,0,0,1-.436.594c-1.653,1.661-3.3,3.323-4.978,4.963a2.839,2.839,0,0,1-3.554.584,4.224,4.224,0,0,1-.856-.669q-1.4-1.374-2.777-2.779a1.74,1.74,0,0,1-.633-1.288,1.453,1.453,0,0,1,2.169-1.231,4.528,4.528,0,0,1,.806.663c.91.88,1.808,1.772,2.752,2.7" transform="translate(-23.383 -123.303)" fill="#fff"/>
        <path id="Trazado_606062" data-name="Trazado 606062" d="M139.027,114.911c1.691,0,3.382-.007,5.073,0a1.476,1.476,0,0,1,1.592,1.4,1.374,1.374,0,0,1-1.142,1.478,4.122,4.122,0,0,1-.781.075q-4.745.008-9.49,0a4.194,4.194,0,0,1-.653-.049,1.443,1.443,0,0,1-1.327-1.47,1.482,1.482,0,0,1,1.48-1.429c.669-.027,1.341,0,2.011,0h3.236Z" transform="translate(-85.979 -74.676)" fill="#fff"/>
        <path id="Trazado_606063" data-name="Trazado 606063" d="M96.481,139.1c-1.675,0-3.351.017-5.026-.013a2.277,2.277,0,0,1-1.067-.293,1.267,1.267,0,0,1-.616-1.424,1.386,1.386,0,0,1,1.131-1.136,4.012,4.012,0,0,1,.823-.086q4.786-.009,9.571-.005a1.651,1.651,0,0,1,1.726,1,1.437,1.437,0,0,1-1.385,1.956c-1.719.013-3.438,0-5.157,0" transform="translate(-58.32 -88.475)" fill="#fff"/>
      </g>
    </g>
  </g>
</svg>
