<svg xmlns="http://www.w3.org/2000/svg" xmlns:xlink="http://www.w3.org/1999/xlink" width="125.072" height="125.072" viewBox="0 0 125.072 125.072">
  <defs>
    <clipPath id="clip-path">
      <rect id="Rectángulo_345800" data-name="Rectángulo 345800" width="85" height="78.699" fill="none"/>
    </clipPath>
  </defs>
  <g id="Grupo_1013381" data-name="Grupo 1013381" transform="translate(-386 -2146)">
    <circle id="Elipse_4838" data-name="Elipse 4838" cx="62.5" cy="62.5" r="62.5" transform="translate(386 2146)" fill="#304c8e"/>
    <g id="Group_43_" data-name="Group (43)" transform="translate(479 2239)">
      <path id="Trazado_598926" data-name="Trazado 598926" d="M36.549,16.055,16.055,36.549a15.864,15.864,0,0,0,.655,1.582l21.422-21.42a15.863,15.863,0,0,0-1.582-.655Z" transform="translate(-15.17 -15.17)" fill="#4ca220"/>
      <path id="Trazado_598927" data-name="Trazado 598927" d="M18.367.8.8,18.367a16.022,16.022,0,0,0,.26,1.7L20.065,1.058A16.022,16.022,0,0,0,18.367.8Z" transform="translate(-0.754 -0.754)" fill="#4ca220"/>
      <path id="Trazado_598928" data-name="Trazado 598928" d="M299.7,283.668c0-.137-.008-.274-.01-.41l-16.454,16.453c.137,0,.273.01.41.01a16.091,16.091,0,0,0,1.678-.088l14.289-14.289a16.09,16.09,0,0,0,.088-1.678Z" transform="translate(-267.627 -267.648)" fill="#4ca220"/>
      <path id="Trazado_598929" data-name="Trazado 598929" d="M68.634,46.122q-.611-.481-1.267-.9L45.2,67.389q.42.656.9,1.267Z" transform="translate(-42.708 -42.73)" fill="#4ca220"/>
      <path id="Trazado_598930" data-name="Trazado 598930" d="M0,15.009,15.009,0c-.434.026-.863.07-1.287.131L.131,13.722C.07,14.145.026,14.575,0,15.009Z" fill="#4ca220"/>
      <path id="Trazado_598931" data-name="Trazado 598931" d="M106.76,84.058l-22.7,22.7a16.114,16.114,0,0,0,1.365,1.222l22.559-22.559A16.123,16.123,0,0,0,106.76,84.058Z" transform="translate(-79.426 -79.426)" fill="#4ca220"/>
      <path id="Trazado_598932" data-name="Trazado 598932" d="M159.927,138.548a16.093,16.093,0,0,0-.877-1.6l-22.108,22.108a15.959,15.959,0,0,0,1.6.877Z" transform="translate(-129.396 -129.396)" fill="#4ca220"/>
      <path id="Trazado_598933" data-name="Trazado 598933" d="M28.816,19.794a16.1,16.1,0,0,0-9.022,9.022Z" transform="translate(-18.704 -18.704)" fill="#4ca220"/>
      <path id="Trazado_598934" data-name="Trazado 598934" d="M382.436,392.617a16.085,16.085,0,0,0,10.18-10.18Z" transform="translate(-361.361 -361.361)" fill="#4ca220"/>
      <path id="Trazado_598935" data-name="Trazado 598935" d="M220.714,200.477l-20.237,20.237a15.962,15.962,0,0,0,2.154.537l18.619-18.619A16.154,16.154,0,0,0,220.714,200.477Z" transform="translate(-189.429 -189.429)" fill="#4ca220"/>
    </g>
    <g id="Grupo_1015788" data-name="Grupo 1015788" transform="translate(404 2171)">
      <g id="Grupo_1015787" data-name="Grupo 1015787" clip-path="url(#clip-path)">
        <path id="Trazado_606004" data-name="Trazado 606004" d="M85.667,71.226v.538c0,2.131-.008,4.262.01,6.392,0,.407-.1.544-.531.543q-14.047-.017-28.094,0c-.278,0-.4-.063-.4-.366.016-.689.005-1.379.005-2.107H83.189c0-.514,0-.991,0-1.468-.007-1.041-.008-1.044-1.055-1.046-1.508,0-3.016-.009-4.523,0a.6.6,0,0,1-.635-.4c-1.512-3.422-3.056-6.831-4.534-10.268a.9.9,0,0,0-1.013-.655c-5.312.018-10.623.009-15.935.009-.218,0-.415-.018-.534.265q-1.037,2.462-2.115,4.905c-.489,1.112-1,2.215-1.5,3.323-.038.085-.061.177-.112.326H62.789c0,.794.009,1.536-.015,2.277,0,.075-.207.2-.321.2-.553.022-1.106.01-1.659.01l-16.267,0h-.44v2.478h10.1c0,.8.01,1.55-.017,2.3,0,.07-.238.188-.365.188q-5.167.016-10.333.01c-.526,0-1.052,0-1.577.007-.207,0-.3-.065-.3-.285q.011-3.548.015-7.1c0-.012.014-.023.057-.09h.4c1.992,0,3.984-.011,5.976.009a.638.638,0,0,0,.69-.48c1.095-2.535,2.216-5.059,3.329-7.586.1-.236.205-.474.331-.766H42.417V59.924h.5q11.681-.013,23.362-.025,16.682-.007,33.363,0a3.756,3.756,0,0,0,4-3.925c.029-2.836,0-5.673.009-8.509,0-.358-.136-.4-.439-.4q-13.694.009-27.388,0H33.7c-.512,0-1.025-.015-1.535.016-.356.021-.5-.07-.475-.454a13.237,13.237,0,0,0-.007-1.576c-.021-.363.09-.476.462-.476q9.4.018,18.8.012h52.677c.012-.129.03-.235.03-.34q0-18.7-.007-37.4a6.018,6.018,0,0,0-.172-1.72,3.832,3.832,0,0,0-3.807-2.643q-5.913-.008-11.827,0h-.531c0-.772-.009-1.5.012-2.23,0-.086.154-.222.254-.241a3.435,3.435,0,0,1,.62-.009l11.495,0a6.19,6.19,0,0,1,6.3,5.112,8.145,8.145,0,0,1,.133,1.609q.01,24.489.009,48.979a6.38,6.38,0,0,1-2.369,5.327A6.473,6.473,0,0,1,99.588,62.4q-11.412,0-22.824,0H74.888c.067.177.113.315.171.449,1.15,2.646,2.307,5.29,3.447,7.941a.632.632,0,0,0,.683.444c1.979-.018,3.957-.009,5.936-.009h.541" transform="translate(-21.129 0)" fill="#fff"/>
        <path id="Trazado_606005" data-name="Trazado 606005" d="M134.295,16.787c0,.463,0,.89,0,1.317q.006,6.787.006,13.573c0,.333.071.468.436.448.565-.031,1.134-.011,1.7.006.3.009.4-.073.4-.4-.027-1.965-.022-3.929-.039-5.893,0-.268.1-.381.357-.38q3.382.011,6.764.016c.286,0,.374.109.373.4,0,1.951.017,3.9,0,5.852,0,.352.114.415.43.4.566-.025,1.134-.012,1.7,0,.256.005.365-.065.364-.352-.011-3.057,0-6.115-.017-9.173,0-.329.067-.476.429-.473q3.32.025,6.64.014c.356,0,.476.106.474.475-.015,3.03,0,6.06-.02,9.09,0,.367.1.438.441.418.538-.032,1.079-.019,1.618,0,.317.012.428-.081.427-.42-.012-4.7-.005-9.408-.016-14.112,0-.342.093-.456.444-.453,2.171.017,4.343.013,6.515.019.546,0,.546.007.547.573v14.4c.8,0,1.554.02,2.31-.009.375-.014.434.126.413.46a13.138,13.138,0,0,0,0,1.575c.02.348-.089.454-.437.452-2.822-.009-5.644,0-8.466,0q-12.47,0-24.94,0c-.318,0-.637-.031-.954-.02-.3.011-.357-.12-.357-.4q0-8.509-.022-17.017c0-.358.117-.461.451-.45.511.017,1.024,0,1.535,0a4.957,4.957,0,0,1,.5.054m25.023,2.838V32.117c.693,0,1.354-.016,2.015.007.34.011.444-.092.442-.443-.015-3.678-.011-7.356-.012-11.034a5,5,0,0,0-.014-.745c-.016-.1-.161-.262-.25-.265-.716-.022-1.434-.012-2.18-.012m-9.985,12.494c.711,0,1.387-.012,2.062,0,.309.008.394-.1.391-.409-.018-2.183-.014-4.366-.018-6.549,0-.173,0-.345,0-.529h-2.435Zm-7.542-4.172c-.768,0-1.471.009-2.174,0-.278-.005-.316.137-.315.361,0,1.146.013,2.291-.006,3.436-.005.327.117.4.413.383.343-.023.69-.007,1.035,0,1.047.009,1.047.009,1.047-1.054V27.947" transform="translate(-87.907 -11.156)" fill="#fff"/>
        <path id="Trazado_606006" data-name="Trazado 606006" d="M14.982,87.993a19.283,19.283,0,0,1,.347-4.6,17.774,17.774,0,0,1,6.633-10.731,17.075,17.075,0,0,1,8.285-3.539,17.683,17.683,0,0,1,10.372,1.6,17.31,17.31,0,0,1,7.857,7.48,18.28,18.28,0,0,1,2.26,9.433c-.005.34-.14.41-.45.41q-17.217-.031-34.433-.047h-.87M31.567,71.45A15.408,15.408,0,0,0,20.2,78.045l2.584,1.518c-.361.628-.7,1.2-1.017,1.774-.153.279-.311.32-.589.155-.711-.422-1.439-.817-2.2-1.245a12.539,12.539,0,0,0-1.434,5.293c.18.009.315.021.45.021,2.794,0,5.588,0,8.382.011.3,0,.394-.09.461-.37a6.111,6.111,0,0,1,5.239-4.542,22.879,22.879,0,0,1,2.817.11l2.963-5.06L40,76.953c-.972,1.657-1.907,3.27-2.868,4.868a.382.382,0,0,0,.065.563,6.6,6.6,0,0,1,1.544,2.479c.249.721.252.72,1.037.737.083,0,.166,0,.249,0l7.013-.021h1.149a14.218,14.218,0,0,0-1.4-5.387l-2.623,1.488-1.217-2.1L45.5,78.05c-.1-.142-.167-.258-.248-.367-.233-.309-.449-.635-.709-.918a15.585,15.585,0,0,0-10.076-5.29c-.363-.038-.42.076-.406.4.032.746.025,1.494.042,2.241.006.3-.1.41-.419.394a14.815,14.815,0,0,0-1.659,0c-.376.023-.476-.108-.467-.468.022-.854.007-1.71.007-2.591m4.787,14.108a3.737,3.737,0,0,0-3.8-2.483,3.5,3.5,0,0,0-3.192,2.483Z" transform="translate(-9.977 -45.96)" fill="#fff"/>
        <path id="Trazado_606007" data-name="Trazado 606007" d="M63.7,2.5h-.664Q34.866,2.5,6.693,2.5A4.087,4.087,0,0,0,3.21,4.068a3.244,3.244,0,0,0-.7,1.869C2.48,6.49,2.489,7.044,2.489,7.6Q2.5,15.69,2.5,23.782c0,.094-.009.188-.016.308H.015v-.45q0-8.715,0-17.43A6.247,6.247,0,0,1,6.081.029c.968-.018,1.936,0,2.9,0H62.51c1.212,0,1.211,0,1.193,1.2-.006.4,0,.8,0,1.272" transform="translate(-0.009 -0.014)" fill="#fff"/>
        <path id="Trazado_606008" data-name="Trazado 606008" d="M147.635,86.942a7.891,7.891,0,1,1-7.847-7.9,7.875,7.875,0,0,1,7.847,7.9m-5.014,4.485a2.333,2.333,0,0,0-.177-.217c-1.14-1.107-2.266-2.229-3.432-3.308a1.422,1.422,0,0,1-.529-1.175c.03-1.534.01-3.068.008-4.6,0-.143-.017-.285-.026-.432a5.451,5.451,0,0,0-4.1,4.439,5.547,5.547,0,0,0,2.825,5.562,5.287,5.287,0,0,0,5.43-.267m1.787-1.73a5.3,5.3,0,0,0,.19-5.164,5.125,5.125,0,0,0-3.6-2.9c-.009.163-.021.284-.02.405,0,.913.075,1.833-.011,2.737a2.786,2.786,0,0,0,1.1,2.661c.822.665,1.532,1.469,2.342,2.26" transform="translate(-87.934 -52.71)" fill="#fff"/>
        <path id="Trazado_606009" data-name="Trazado 606009" d="M2.479,94.94q0,6.974,0,13.947a4.357,4.357,0,0,0,1.031,3.106,3.292,3.292,0,0,0,2.407,1.144c2.115.05,4.231.035,6.347.043,2.033.008,4.066.018,6.1.01.305,0,.419.071.406.39-.022.566-.013,1.135,0,1.7.007.29-.066.409-.4.408q-5.872-.017-11.744,0a6.489,6.489,0,0,1-4.75-1.806,6.271,6.271,0,0,1-1.861-4.69C-.007,99.562.007,89.932,0,80.3c0-.284.078-.4.372-.39.553.013,1.108.019,1.659-.015.378-.023.466.117.464.473-.016,2.338-.013,4.677-.015,7.015q0,3.777,0,7.554" transform="translate(0 -53.282)" fill="#fff"/>
        <path id="Trazado_606010" data-name="Trazado 606010" d="M90.485,29.567c0-.845-.012-1.619.006-2.392.007-.293-.084-.375-.378-.371q-1.7.022-3.4-.008c-.322-.006-.4.1-.391.406.024.635.007,1.272.018,1.908.005.327-.051.506-.465.47a16.232,16.232,0,0,0-1.741,0c-.218,0-.329-.046-.329-.3,0-2.392-.012-4.785,0-7.177a5.324,5.324,0,0,1,.623-2.756,4.564,4.564,0,0,1,8.545,2.126c.039,2.572.01,5.145.019,7.718,0,.31-.107.4-.421.385-.673-.029-1.347-.009-2.081-.009M88.4,24.327v0c.593,0,1.187-.011,1.78.005.238.007.315-.067.312-.3-.012-.8,0-1.6-.01-2.4a2.084,2.084,0,0,0-.724-1.652,2.034,2.034,0,0,0-2.174-.325,1.829,1.829,0,0,0-1.241,1.661c-.049.88,0,1.765-.022,2.647-.009.315.114.374.383.368.566-.012,1.132,0,1.7,0" transform="translate(-55.885 -11.352)" fill="#fff"/>
        <path id="Trazado_606011" data-name="Trazado 606011" d="M25.524,19.482c-1.421,0-2.816,0-4.21,0a4.234,4.234,0,0,0-.9.084,1.212,1.212,0,0,0-.942,1.33,1.145,1.145,0,0,0,1.148,1.086c.758.036,1.525-.014,2.277.069A3.661,3.661,0,0,1,26.1,25.692a3.712,3.712,0,0,1-3.071,3.731,8.716,8.716,0,0,1-1.283.058c-1.272.006-2.545,0-3.818,0-.107,0-.214-.012-.378-.023,0-.764-.011-1.506.016-2.246,0-.082.224-.222.344-.223,1.341-.011,2.683,0,4.025,0,.193,0,.388.005.58-.014a1.12,1.12,0,0,0,1.095-1.04,1.264,1.264,0,0,0-1-1.38,13.64,13.64,0,0,0-1.736-.073A3.73,3.73,0,0,1,17.026,21.4a3.679,3.679,0,0,1,3.133-4.317c1.679-.121,3.372-.049,5.058-.063.224,0,.314.1.31.329-.012.69,0,1.381,0,2.13" transform="translate(-11.31 -11.347)" fill="#fff"/>
        <path id="Trazado_606012" data-name="Trazado 606012" d="M51.919,16.742c.774,0,1.517-.01,2.259.014.084,0,.218.189.232.3a6.663,6.663,0,0,1,.012.828v8.88c.18.01.354.028.528.029,1.493.01,2.987.025,4.48.017.35,0,.452.118.439.459-.025.647-.007,1.3-.007,1.983H51.919Z" transform="translate(-34.625 -11.164)" fill="#fff"/>
        <path id="Trazado_606013" data-name="Trazado 606013" d="M120.1,156.812a3.742,3.742,0,1,1,3.754-3.681,3.729,3.729,0,0,1-3.754,3.681m-.006-2.5a1.229,1.229,0,1,0-1.22-1.232,1.2,1.2,0,0,0,1.22,1.232" transform="translate(-77.62 -99.588)" fill="#fff"/>
        <path id="Trazado_606014" data-name="Trazado 606014" d="M212.341,93.9c-1.521,0-3.042-.008-4.564.007-.322,0-.437-.069-.414-.417a9.613,9.613,0,0,0-.01-1.615c-.044-.425.127-.486.482-.481,1.175.017,2.351.015,3.526.016,1.867,0,3.734.009,5.6-.007.332,0,.435.092.419.421-.027.552-.03,1.107-.009,1.659.013.331-.1.428-.426.425-1.535-.015-3.07-.007-4.605-.008" transform="translate(-138.28 -60.948)" fill="#fff"/>
        <path id="Trazado_606015" data-name="Trazado 606015" d="M195.706,106.416v2.464h-8.3c0-.77-.008-1.524.013-2.277,0-.067.184-.181.286-.185.441-.018.883,0,1.325,0l6.255,0h.425" transform="translate(-124.979 -70.966)" fill="#fff"/>
        <path id="Trazado_606016" data-name="Trazado 606016" d="M218.455,164.972h6.652c0,.757.011,1.5-.016,2.237,0,.075-.23.2-.354.2q-2.737.018-5.473,0c-.818,0-.816-.014-.809-.827,0-.522,0-1.045,0-1.618" transform="translate(-145.688 -110.021)" fill="#fff"/>
        <path id="Trazado_606017" data-name="Trazado 606017" d="M187.4,91.407c1.374,0,2.685,0,4,.009a.283.283,0,0,1,.193.2c.015.677.02,1.355,0,2.031a.389.389,0,0,1-.283.251q-1.824.026-3.649,0a.343.343,0,0,1-.242-.231c-.019-.729-.011-1.459-.011-2.259" transform="translate(-124.978 -60.96)" fill="#fff"/>
        <path id="Trazado_606018" data-name="Trazado 606018" d="M203.369,164.835c.78,0,1.524-.01,2.266.012a.384.384,0,0,1,.262.269c.023.633.014,1.268.008,1.9,0,.2-.057.328-.318.318-.619-.023-1.24-.014-1.86-.005-.223,0-.368-.022-.362-.306.015-.7.005-1.4.005-2.19" transform="translate(-135.624 -109.928)" fill="#fff"/>
        <path id="Trazado_606019" data-name="Trazado 606019" d="M135.117,213.909c0,.753.007,1.482-.01,2.209,0,.083-.134.233-.209.234-.741.018-1.483.011-2.248.011v-2.454Z" transform="translate(-88.465 -142.657)" fill="#fff"/>
        <path id="Trazado_606020" data-name="Trazado 606020" d="M219.991,106.413c.786,0,1.49.005,2.194,0,.212,0,.3.073.3.288-.01.636,0,1.272-.028,1.907a.382.382,0,0,1-.255.271c-.649.024-1.3.023-1.949,0a.347.347,0,0,1-.249-.226c-.019-.729-.011-1.458-.011-2.24" transform="translate(-146.712 -70.965)" fill="#fff"/>
        <path id="Trazado_606021" data-name="Trazado 606021" d="M19.225,133.878c0,.781.012,1.483-.013,2.184a.409.409,0,0,1-.285.279c-.619.029-1.24.012-1.861.024-.229,0-.323-.073-.32-.309.007-.621-.014-1.242,0-1.862,0-.107.141-.3.222-.3.727-.024,1.455-.014,2.253-.014" transform="translate(-11.165 -89.283)" fill="#fff"/>
      </g>
    </g>
  </g>
</svg>
