<svg xmlns="http://www.w3.org/2000/svg" xmlns:xlink="http://www.w3.org/1999/xlink" width="125.072" height="125.072" viewBox="0 0 125.072 125.072">
  <defs>
    <clipPath id="clip-path">
      <rect id="Rectángulo_345801" data-name="Rectángulo 345801" width="85.703" height="85.4" fill="none"/>
    </clipPath>
  </defs>
  <g id="Grupo_1013380" data-name="Grupo 1013380" transform="translate(-738 -2146)">
    <circle id="Elipse_4839" data-name="Elipse 4839" cx="62.5" cy="62.5" r="62.5" transform="translate(738 2146)" fill="#304c8e"/>
    <g id="Group_43_" data-name="Group (43)" transform="translate(831 2239)">
      <path id="Trazado_598926" data-name="Trazado 598926" d="M36.549,16.055,16.055,36.549a15.864,15.864,0,0,0,.655,1.582l21.422-21.42a15.863,15.863,0,0,0-1.582-.655Z" transform="translate(-15.17 -15.17)" fill="#4ca220"/>
      <path id="Trazado_598927" data-name="Trazado 598927" d="M18.367.8.8,18.367a16.022,16.022,0,0,0,.26,1.7L20.065,1.058A16.022,16.022,0,0,0,18.367.8Z" transform="translate(-0.754 -0.754)" fill="#4ca220"/>
      <path id="Trazado_598928" data-name="Trazado 598928" d="M299.7,283.668c0-.137-.008-.274-.01-.41l-16.454,16.453c.137,0,.273.01.41.01a16.091,16.091,0,0,0,1.678-.088l14.289-14.289a16.09,16.09,0,0,0,.088-1.678Z" transform="translate(-267.627 -267.648)" fill="#4ca220"/>
      <path id="Trazado_598929" data-name="Trazado 598929" d="M68.634,46.122q-.611-.481-1.267-.9L45.2,67.389q.42.656.9,1.267Z" transform="translate(-42.708 -42.73)" fill="#4ca220"/>
      <path id="Trazado_598930" data-name="Trazado 598930" d="M0,15.009,15.009,0c-.434.026-.863.07-1.287.131L.131,13.722C.07,14.145.026,14.575,0,15.009Z" fill="#4ca220"/>
      <path id="Trazado_598931" data-name="Trazado 598931" d="M106.76,84.058l-22.7,22.7a16.114,16.114,0,0,0,1.365,1.222l22.559-22.559A16.123,16.123,0,0,0,106.76,84.058Z" transform="translate(-79.426 -79.426)" fill="#4ca220"/>
      <path id="Trazado_598932" data-name="Trazado 598932" d="M159.927,138.548a16.093,16.093,0,0,0-.877-1.6l-22.108,22.108a15.959,15.959,0,0,0,1.6.877Z" transform="translate(-129.396 -129.396)" fill="#4ca220"/>
      <path id="Trazado_598933" data-name="Trazado 598933" d="M28.816,19.794a16.1,16.1,0,0,0-9.022,9.022Z" transform="translate(-18.704 -18.704)" fill="#4ca220"/>
      <path id="Trazado_598934" data-name="Trazado 598934" d="M382.436,392.617a16.085,16.085,0,0,0,10.18-10.18Z" transform="translate(-361.361 -361.361)" fill="#4ca220"/>
      <path id="Trazado_598935" data-name="Trazado 598935" d="M220.714,200.477l-20.237,20.237a15.962,15.962,0,0,0,2.154.537l18.619-18.619A16.154,16.154,0,0,0,220.714,200.477Z" transform="translate(-189.429 -189.429)" fill="#4ca220"/>
    </g>
    <g id="Grupo_1015790" data-name="Grupo 1015790" transform="translate(758.333 2161.933)">
      <g id="Grupo_1015789" data-name="Grupo 1015789" clip-path="url(#clip-path)">
        <path id="Trazado_606022" data-name="Trazado 606022" d="M111.606,44.017H78.468V43.15c0-2.1-.013-4.2.006-6.3a6.868,6.868,0,0,1,4.521-6.447q3.026-1.139,6.073-2.223a.621.621,0,0,0,.5-.683,1.477,1.477,0,0,0-.482-1.2,7.6,7.6,0,0,1-1.759-2.756.835.835,0,0,0-.534-.356,5.193,5.193,0,0,1-3.738-3.22,6.192,6.192,0,0,1-.419-2.1c-.051-1.972-.029-3.946,0-5.919a11.653,11.653,0,0,1,2.526-7.012,12.4,12.4,0,0,1,19.163-.773,12.282,12.282,0,0,1,3.083,7.064c.033.345.046.694.047,1.041.005,1.932.054,3.865-.007,5.8a5.243,5.243,0,0,1-4.091,5.1.885.885,0,0,0-.689.6,7.76,7.76,0,0,1-1.849,2.748,1.794,1.794,0,0,0-.229,1.4.892.892,0,0,0,.417.245c1.983.733,3.969,1.456,5.952,2.189a6.9,6.9,0,0,1,4.528,5.3,7.438,7.438,0,0,1,.129,1.574c.017,2.2.014,4.392.017,6.588,0,.067-.012.134-.02.219m-6.854-30.969a9.414,9.414,0,0,0-4.714-8.93,9.352,9.352,0,0,0-10.53.332A9.561,9.561,0,0,0,85.4,13.177a6.9,6.9,0,0,1,3.452-.845,7.4,7.4,0,0,0,4.464-1.659c.6-.474,1.145-1.006,1.776-1.565.24.255.481.522.733.777a7.705,7.705,0,0,0,4.666,2.386c.719.086,1.457.042,2.166.169a19.707,19.707,0,0,1,2.093.608m4.078,28.259a1.512,1.512,0,0,0,.03-.2c0-1.5.024-3-.022-4.5a4.294,4.294,0,0,0-.35-1.4c-.77-1.948-2.593-2.392-4.367-3.009l-2.762,8.248c-.136-.056-.239-.092-.336-.14-1.857-.921-3.715-1.839-5.566-2.772a.777.777,0,0,0-.777-.016c-1.826.921-3.659,1.828-5.488,2.742-.466.233-.484.235-.658-.279q-.681-2.01-1.348-4.024c-.409-1.236-.81-2.474-1.229-3.757-.6.223-1.187.431-1.767.656a4.342,4.342,0,0,0-2.977,4.366c.007,1.181.009,2.362.013,3.544,0,.175,0,.35,0,.542Zm-8.2-23.08-.032,0c0-.945,0-1.89,0-2.835,0-.236-.036-.363-.329-.405A10.778,10.778,0,0,1,95.241,13a.452.452,0,0,0-.417-.011,11.187,11.187,0,0,1-5.038,1.985c-.242.033-.3.142-.3.352.01,1.793-.033,3.587.033,5.378a5.522,5.522,0,0,0,10.964.847c.125-1.1.1-2.218.147-3.327M93.118,35.252c-.9-1.522-1.795-3.024-2.693-4.521a.28.28,0,0,0-.237-.114c-.555.2-1.1.425-1.663.645L90.333,36.6l2.785-1.349M99.757,36.6l1.852-5.348-1.8-.656c-.9,1.489-1.8,2.957-2.681,4.432a.307.307,0,0,0,.067.293c.825.425,1.66.832,2.563,1.278M92.32,28.392l-.092.12,2.81,4.665c.973-1.587,1.929-3.107,2.765-4.721a7.946,7.946,0,0,1-5.483-.065M86.738,20.28V15.474a2.764,2.764,0,0,0-1.369,2.407,2.816,2.816,0,0,0,1.369,2.4m16.609.024a2.832,2.832,0,0,0,1.363-2.611,2.91,2.91,0,0,0-1.363-2.223Z" transform="translate(-52.197 0)" fill="#fff"/>
        <path id="Trazado_606023" data-name="Trazado 606023" d="M174.884,165.455c.208.357.385.665.565.971.48.813.969,1.622,1.434,2.444a.448.448,0,0,1-.017.414c-2.375,2.388-4.763,4.764-7.184,7.175L166,174.313c-.088.252-.173.451-.227.659-.269,1.048-.536,2.1-.788,3.148-.058.241-.154.343-.418.343q-4.874-.012-9.747,0c-.243,0-.331-.088-.387-.321-.266-1.091-.555-2.177-.835-3.265-.148-.572-.212-.593-.7-.3-.968.577-1.947,1.137-2.914,1.716a.35.35,0,0,1-.5-.081q-3.443-3.438-6.9-6.86a.358.358,0,0,1-.061-.532c.545-.872,1.076-1.752,1.605-2.633.128-.213.233-.439.375-.709-.191-.07-.349-.144-.515-.186-1.119-.284-2.242-.553-3.356-.853a.483.483,0,0,1-.276-.36c-.017-3.238-.01-6.476-.025-9.714,0-.327.134-.437.413-.5,1.015-.244,2.027-.5,3.038-.753.239-.061.471-.146.76-.236-.335-.571-.635-1.095-.946-1.612-.359-.595-.718-1.189-1.1-1.772a.3.3,0,0,1,.046-.456q3.489-3.449,6.959-6.918a.329.329,0,0,1,.492-.056c1.007.593,2.023,1.171,3.037,1.753.094.054.193.1.345.178.081-.229.168-.428.223-.636q.408-1.549.8-3.1c.057-.228.136-.356.412-.355q4.811.015,9.622,0c.374,0,.513.122.6.5.255,1.107.578,2.2.877,3.3a2.6,2.6,0,0,0,.116.273c.185-.09.359-.16.52-.254.95-.553,1.9-1.1,2.841-1.675a.357.357,0,0,1,.531.053q3.445,3.464,6.909,6.908c.209.208.129.352.019.541q-.85,1.458-1.694,2.92c-.232.4-.216.468.25.595,1.1.3,2.2.593,3.309.867.249.062.345.16.344.418q-.01,4.837,0,9.673c0,.241-.062.363-.328.426-1.11.261-2.213.553-3.318.838-.155.04-.3.1-.521.18M150.177,145.3a1.948,1.948,0,0,0-.238.174q-2,1.987-4,3.975c-.16.159-.148.279-.034.465.48.781.953,1.567,1.4,2.369a.821.821,0,0,1,.041.6c-.237.665-.5,1.324-.8,1.964a.948.948,0,0,1-.511.464c-.838.255-1.688.474-2.542.668a.453.453,0,0,0-.422.536q.028,2.689.017,5.378c0,.287.108.386.363.448.878.214,1.757.429,2.624.683a.833.833,0,0,1,.448.417c.3.652.549,1.334.855,1.985a.591.591,0,0,1-.033.646c-.458.745-.887,1.509-1.342,2.256a.436.436,0,0,0,.074.64c1.287,1.271,2.558,2.56,3.827,3.85a.353.353,0,0,0,.529.048q1.171-.725,2.376-1.393a.709.709,0,0,1,.527-.03c.689.259,1.36.566,2.048.83a.666.666,0,0,1,.467.52c.2.864.438,1.721.648,2.584a.371.371,0,0,0,.424.341q2.782-.022,5.564-.012c.221,0,.322-.064.376-.28.225-.9.477-1.8.692-2.7a.574.574,0,0,1,.42-.447c.675-.257,1.347-.526,2.006-.821a.618.618,0,0,1,.656.025c.745.461,1.51.891,2.253,1.355a.475.475,0,0,0,.709-.084q1.869-1.91,3.784-3.776a.38.38,0,0,0,.07-.587q-.741-1.158-1.411-2.36a.814.814,0,0,1-.014-.606c.254-.674.536-1.339.843-1.99a.824.824,0,0,1,.447-.406c.867-.254,1.747-.467,2.623-.691.216-.056.363-.12.363-.406-.008-1.806,0-3.613.023-5.419.005-.358-.14-.484-.453-.559-.812-.193-1.617-.415-2.429-.609a.793.793,0,0,1-.631-.574c-.223-.641-.528-1.253-.761-1.891a.807.807,0,0,1,.035-.6c.453-.813.951-1.6,1.409-2.41a.442.442,0,0,0-.048-.412c-1.3-1.317-2.619-2.616-3.925-3.928a.4.4,0,0,0-.6-.067c-.774.494-1.566.96-2.365,1.412a.647.647,0,0,1-.487.019c-.675-.258-1.332-.561-2.008-.819a.732.732,0,0,1-.528-.568c-.19-.824-.441-1.634-.625-2.459-.082-.368-.251-.436-.6-.432-1.8.015-3.6,0-5.4-.012-.254,0-.339.1-.394.32-.218.875-.433,1.751-.687,2.616a.876.876,0,0,1-.411.5c-.653.307-1.326.576-2,.827a.756.756,0,0,1-.559-.019c-.816-.45-1.614-.934-2.418-1.406-.082-.048-.168-.091-.264-.143" transform="translate(-93.35 -93.063)" fill="#fff"/>
        <path id="Trazado_606024" data-name="Trazado 606024" d="M0,183.912V148.675c0-.546,0-.556.535-.557q11.191-.017,22.382-.027c1.423,0,2.845.013,4.267,0,.345,0,.447.112.447.457q-.014,17.241-.011,34.483c0,.88-.011.88-.916.88H0Zm2.715-33.018c0,.453,0,.868,0,1.283q.01,14.28.012,28.56c0,.358.109.44.449.439,3.1-.009,6.192,0,9.287,0q5.982,0,11.964-.009c.281,0,.455-.013.455-.392q-.019-14.656-.013-29.312c0-.187,0-.374,0-.567Z" transform="translate(0 -98.517)" fill="#fff"/>
        <path id="Trazado_606025" data-name="Trazado 606025" d="M47.561,43.3l-3.134-2.9,1.915-1.937,6.366,6.39-6.48,6.408c-.495-.521-1.073-1.116-1.624-1.734-.046-.052.05-.3.143-.4.85-.862,1.714-1.711,2.573-2.565.074-.073.136-.158.245-.285-.182-.01-.3-.022-.421-.022q-2.907,0-5.815,0a1.329,1.329,0,0,0-1.476,1.353c-.04.734-.01,1.472-.01,2.208q0,10.278,0,20.555c0,.528-.01,1.057.017,1.584.019.371-.117.484-.484.469-.654-.026-1.311-.016-1.965,0-.281.007-.354-.1-.354-.366q0-11.569-.015-23.137a11.979,11.979,0,0,1,.15-2.156,4.038,4.038,0,0,1,3.86-3.272c2.007-.039,4.015-.007,6.023-.006h.359l.126-.19" transform="translate(-24.643 -25.583)" fill="#fff"/>
        <path id="Trazado_606026" data-name="Trazado 606026" d="M178.658,71.72l2.939,3.137.119-.069v-.9q0-7.776.007-15.552a5.5,5.5,0,0,0-.04-.831,1.4,1.4,0,0,0-1.516-1.294c-2.064,0-4.128,0-6.192,0h-.547c0-.877-.01-1.719.016-2.559,0-.077.231-.207.357-.209.976-.018,1.952-.014,2.928-.012,1.255,0,2.511-.018,3.765.024a4.025,4.025,0,0,1,3.928,3.718c.033.359.049.721.049,1.082q0,8.172,0,16.344a2.75,2.75,0,0,0,.032.294l3.142-3.116c.614.623,1.21,1.217,1.786,1.83.039.042-.036.253-.113.33q-2.816,2.824-5.647,5.635c-.559.557-.558.555-1.113,0q-2.81-2.8-5.625-5.6c-.215-.213-.248-.341-.006-.564.552-.508,1.074-1.049,1.734-1.7" transform="translate(-115.371 -35.546)" fill="#fff"/>
        <path id="Trazado_606027" data-name="Trazado 606027" d="M90.48,183.495h10.447c0,.641,0,1.248,0,1.854.005.923.007.918-.9.916q-4.623-.011-9.245-.015c-.076,0-.152.017-.3.035l3.2,3.087-2.017,1.847-6.4-6.333c.071-.079.137-.161.212-.235q2.973-2.963,5.942-5.93c.206-.207.322-.237.529-.016.457.487.929.96,1.411,1.423.184.177.19.283,0,.467-.854.839-1.693,1.693-2.537,2.542-.085.086-.167.177-.335.357" transform="translate(-56.717 -118.781)" fill="#fff"/>
        <path id="Trazado_606028" data-name="Trazado 606028" d="M187.243,175.474a10.948,10.948,0,0,1-10.968,11.1,11.008,11.008,0,1,1,10.968-11.1m-19.323.164a8.3,8.3,0,1,0,8.341-8.342,8.289,8.289,0,0,0-8.341,8.342" transform="translate(-109.867 -109.472)" fill="#fff"/>
        <path id="Trazado_606029" data-name="Trazado 606029" d="M33.085,164.41c0,.884.007,1.716-.011,2.547a.354.354,0,0,1-.24.241,5.147,5.147,0,0,1-.751.019l-14.929.007c-.632,0-.628,0-.625-.61s0-1.223-.009-1.834c0-.24.06-.328.335-.327q7.778.012,15.556,0c.207,0,.413-.024.674-.04" transform="translate(-10.99 -109.373)" fill="#fff"/>
        <path id="Trazado_606030" data-name="Trazado 606030" d="M33.086,197.508c0,.835,0,1.639,0,2.444,0,.22-.092.292-.3.291-.585,0-1.171.008-1.757.008H17.061c-.531,0-.534-.009-.532-.535,0-.612.005-1.223-.007-1.834-.006-.272.055-.386.373-.385q7.822.019,15.645.011h.546" transform="translate(-10.991 -131.384)" fill="#fff"/>
        <path id="Trazado_606031" data-name="Trazado 606031" d="M16.547,216.7c0-.577,0-1.143,0-1.708-.007-1.024-.009-1.024,1.019-1.023l14.595.015h.924V216.7Z" transform="translate(-11.006 -142.342)" fill="#fff"/>
        <path id="Trazado_606032" data-name="Trazado 606032" d="M33,183.788c0-.836-.01-1.64.013-2.443a.413.413,0,0,1,.292-.271c.444-.035.891-.027,1.337-.026q4.451.007,8.9.017c.15,0,.3.015.475.024v2.7Z" transform="translate(-21.95 -120.44)" fill="#fff"/>
        <path id="Trazado_606033" data-name="Trazado 606033" d="M16.573,230.425h1.082c3.164,0,6.329,0,9.494-.012.329,0,.445.08.433.416-.023.652-.017,1.306-.006,1.959,0,.285-.092.381-.39.381q-5.1-.015-10.2,0c-.341,0-.471-.1-.457-.45.024-.6,0-1.195.007-1.792,0-.161.027-.322.043-.5" transform="translate(-10.992 -153.281)" fill="#fff"/>
        <path id="Trazado_606034" data-name="Trazado 606034" d="M19.275,183.81c-.866,0-1.66,0-2.453,0-.22,0-.292-.089-.291-.3,0-.722-.015-1.445.006-2.167a.413.413,0,0,1,.276-.294c.724-.024,1.449-.018,2.174,0,.1,0,.274.134.276.209.02.829.012,1.659.012,2.545" transform="translate(-10.994 -120.435)" fill="#fff"/>
        <path id="Trazado_606035" data-name="Trazado 606035" d="M60.539,230.415c0,.871.007,1.686-.011,2.5,0,.08-.161.222-.251.225-.736.024-1.473.031-2.21.015a.378.378,0,0,1-.258-.264c-.023-.733-.012-1.468-.018-2.2,0-.217.093-.281.306-.278.791.011,1.582,0,2.443,0" transform="translate(-38.444 -153.28)" fill="#fff"/>
        <path id="Trazado_606036" data-name="Trazado 606036" d="M187.221,181.1a5.491,5.491,0,1,1,.142,10.981,5.491,5.491,0,1,1-.142-10.981m.094,2.734a2.751,2.751,0,1,0-.009,5.5,2.772,2.772,0,0,0,2.738-2.786,2.683,2.683,0,0,0-2.729-2.716" transform="translate(-120.934 -120.475)" fill="#fff"/>
      </g>
    </g>
  </g>
</svg>
