<svg xmlns="http://www.w3.org/2000/svg" xmlns:xlink="http://www.w3.org/1999/xlink" width="107" height="107" viewBox="0 0 107 107">
  <defs>
    <clipPath id="clip-path">
      <rect id="Rectángulo_347478" data-name="Rectángulo 347478" width="59.88" height="60.333" fill="none"/>
    </clipPath>
  </defs>
  <g id="Grupo_156312" data-name="Grupo 156312" transform="translate(-288.668 -4448)">
    <path id="Elipse_5845" data-name="Elipse 5845" d="M53.5,0A53.5,53.5,0,1,1,0,53.5,53.5,53.5,0,0,1,53.5,0Z" transform="translate(288.668 4448)" fill="#ffae7e"/>
    <g id="Grupo_1015799" data-name="Grupo 1015799" transform="translate(313.788 4471.333)">
      <g id="Grupo_1015798" data-name="Grupo 1015798" clip-path="url(#clip-path)">
        <path id="Trazado_606066" data-name="Trazado 606066" d="M7.647,71.642a7.781,7.781,0,0,1,7.506,6.571A12.557,12.557,0,0,1,15.07,81.5c-.129,1.15-.263,2.3-.395,3.45-.21,1.832-.423,3.665-.628,5.5-.192,1.717-.372,3.434-.565,5.15-.2,1.774-.414,3.547-.615,5.32-.191,1.687-.367,3.375-.561,5.062-.21,1.822-.411,3.646-.658,5.463a4.107,4.107,0,0,1-1.329,2.47,3.894,3.894,0,0,1-6.09-.819,5.553,5.553,0,0,1-.763-2.388q-.345-3.028-.69-6.055c-.205-1.824-.4-3.649-.608-5.473-.186-1.648-.383-3.295-.569-4.942-.188-1.668-.368-3.336-.554-5-.164-1.473-.338-2.945-.5-4.418C.354,83.017.064,81.224,0,79.425a7.654,7.654,0,0,1,6.734-7.709c.3-.035.606-.05.909-.074" transform="translate(0 -54.692)"/>
        <path id="Trazado_606067" data-name="Trazado 606067" d="M188.694,80.117a7.954,7.954,0,0,1,6.3-8.3,7.723,7.723,0,0,1,8.786,6.1,9.328,9.328,0,0,1,.064,2.874c-.2,1.706-.38,3.414-.575,5.12-.2,1.765-.415,3.528-.614,5.293-.194,1.716-.372,3.435-.565,5.151-.2,1.765-.413,3.527-.613,5.292-.192,1.7-.364,3.4-.566,5.092-.2,1.675-.341,3.364-.662,5.016a3.987,3.987,0,0,1-7.521,1.055,5.875,5.875,0,0,1-.594-2.261c-.189-1.677-.383-3.355-.571-5.032s-.368-3.356-.557-5.033c-.2-1.795-.413-3.588-.616-5.383q-.4-3.555-.8-7.111-.305-2.706-.618-5.412c-.11-.965-.218-1.931-.278-2.463" transform="translate(-144.04 -54.742)"/>
        <path id="Trazado_606068" data-name="Trazado 606068" d="M7.994,15.007A7.5,7.5,0,0,1,8.148,0a7.5,7.5,0,0,1-.154,15.006" transform="translate(-0.438 -0.001)"/>
        <path id="Trazado_606069" data-name="Trazado 606069" d="M196.688,15.028a7.5,7.5,0,1,1,.1-15,7.4,7.4,0,0,1,7.4,7.64,7.49,7.49,0,0,1-7.5,7.357" transform="translate(-144.458 -0.022)"/>
        <path id="Trazado_606070" data-name="Trazado 606070" d="M96.972,140.449c0-.872,0-1.7,0-2.538a5.663,5.663,0,0,1,.044-.763,1.468,1.468,0,0,1,1.006-1.263,1.449,1.449,0,0,1,1.575.354c.565.531,1.106,1.089,1.654,1.637q2.218,2.22,4.432,4.443l.124.126a1.678,1.678,0,0,1-.008,2.676c-.789.808-1.595,1.6-2.393,2.4-1.173,1.174-2.343,2.352-3.525,3.518a2.963,2.963,0,0,1-.746.563,1.472,1.472,0,0,1-2.1-1.111,18.538,18.538,0,0,1-.073-1.911q-.015-.619,0-1.238c0-.181-.034-.256-.244-.256-2.327,0-4.655-.007-6.982-.012a3.141,3.141,0,0,1-2.9-2.242A3.5,3.5,0,0,1,88.1,141.01a2.892,2.892,0,0,1,1.847-.556q3.344-.007,6.688-.006h.337" transform="translate(-66.16 -103.659)"/>
        <path id="Trazado_606071" data-name="Trazado 606071" d="M96.054,56.5h7.269a2.8,2.8,0,0,1,2.246,1.1,3.384,3.384,0,0,1-1.091,5.257,3.51,3.51,0,0,1-1.4.272c-2.22.027-4.44.012-6.661.012h-.366v.323c0,.894.007,1.788,0,2.682a1.549,1.549,0,0,1-1.1,1.6,1.387,1.387,0,0,1-1.283-.225,4.478,4.478,0,0,1-.444-.387q-2.982-2.978-5.961-5.96a1.7,1.7,0,0,1-.575-1.8,2.2,2.2,0,0,1,.523-.835c2.031-2.054,4.078-4.091,6.121-6.133a1.542,1.542,0,0,1,1.474-.547,1.565,1.565,0,0,1,1.241,1.7c.009.874,0,1.749,0,2.623V56.5" transform="translate(-66.121 -39.559)"/>
      </g>
    </g>
  </g>
</svg>
