<svg xmlns="http://www.w3.org/2000/svg" xmlns:xlink="http://www.w3.org/1999/xlink" width="107" height="107" viewBox="0 0 107 107">
  <defs>
    <clipPath id="clip-path">
      <rect id="Rectángulo_347490" data-name="Rectángulo 347490" width="76.142" height="75.846" fill="none"/>
    </clipPath>
  </defs>
  <g id="Grupo_156312" data-name="Grupo 156312" transform="translate(-288.668 -4448)">
    <circle id="Elipse_5845" data-name="Elipse 5845" cx="53.5" cy="53.5" r="53.5" transform="translate(288.668 4448)" fill="#ffae7e"/>
    <g id="Grupo_1015803" data-name="Grupo 1015803" transform="translate(390.668 4488.357)">
      <g id="Grupo_1015802" data-name="Grupo 1015802" transform="translate(-86 -26)" clip-path="url(#clip-path)">
        <path id="Trazado_606082" data-name="Trazado 606082" d="M67.538,24.843v.38c0,2.764,0,5.528.008,8.293a.422.422,0,0,1-.365.495c-.807.237-1.6.522-2.4.775a.56.56,0,0,0-.415.438c-.28,1.034-.282,1.021.676,1.511a20.37,20.37,0,0,1,7.348,6.5,20.664,20.664,0,0,1,3.565,9.119,20.919,20.919,0,0,1-4.7,16.02,20.643,20.643,0,0,1-4.941,4.249,20.186,20.186,0,0,1-11.8,3.182,20.849,20.849,0,0,1-12.866-5.072,22.162,22.162,0,0,1-3.569-3.982c-.191.252-.372.492-.554.731A20.776,20.776,0,0,1,24.2,75.537a18.967,18.967,0,0,1-6.524.048,21.921,21.921,0,0,1-7.414-2.672A18.877,18.877,0,0,1,5.021,68.5,20.888,20.888,0,0,1,.028,54.086,20.478,20.478,0,0,1,3.621,43.448a20.929,20.929,0,0,1,7.66-6.831c.734-.382.715-.376.558-1.195a.783.783,0,0,0-.624-.691c-.783-.23-1.546-.523-2.327-.762A.328.328,0,0,1,8.61,33.6q.006-4.242,0-8.484c0-.216.08-.3.288-.368.815-.255,1.62-.542,2.435-.8a.581.581,0,0,0,.454-.488,26.441,26.441,0,0,1,3.538-8.52.576.576,0,0,0,.018-.472c-.38-.805-.782-1.6-1.19-2.392a.333.333,0,0,1,.069-.463q3.029-2.981,6.043-5.977a.358.358,0,0,1,.495-.072c.795.406,1.6.8,2.408,1.17a.6.6,0,0,0,.475-.063,26.021,26.021,0,0,1,8.042-3.376,1.231,1.231,0,0,0,1.1-1.025c.153-.653.43-1.276.637-1.917A.424.424,0,0,1,33.879,0Q38.1.011,42.318,0a.356.356,0,0,1,.4.308c.23.74.51,1.465.725,2.21a.9.9,0,0,0,.779.7,22.439,22.439,0,0,1,5.524,1.889c.942.479,1.851,1.025,2.76,1.564a.523.523,0,0,0,.591.021c.756-.4,1.527-.766,2.285-1.161a.382.382,0,0,1,.53.083q3,3.01,6.016,6a.34.34,0,0,1,.082.465c-.406.779-.792,1.568-1.2,2.346a.479.479,0,0,0,.027.552,25.785,25.785,0,0,1,3.472,8.261.881.881,0,0,0,.671.76c.843.248,1.67.546,2.56.843m-15.569-.408a2.007,2.007,0,0,0-.053-.2A14.761,14.761,0,0,0,24.029,33.89a1.072,1.072,0,0,0,.951.838,20.294,20.294,0,0,1,11.37,6.4c.611.678,1.166,1.407,1.759,2.126.032-.041.072-.087.106-.136a20.442,20.442,0,0,1,7.679-6.635,19.843,19.843,0,0,1,4.123-1.512c.171-.044.342-.058.339-.32-.013-1.031-.005-2.062-.005-3.083a3.753,3.753,0,0,1-2.431-3.878c.248-1.947,1.578-3,4.049-3.254M41.8,56.278A13.332,13.332,0,0,0,44.9,63.706l1.642-1.587,1.777,1.655-1.763,1.6a14.4,14.4,0,0,0,7.482,3.1v-2.4H56.5v2.392a14.331,14.331,0,0,0,7.461-3.095l-1.7-1.711,1.709-1.69,1.673,1.712a13.314,13.314,0,0,0,3.081-7.426H66.339V53.794H68.75a13.821,13.821,0,0,0-3.116-7.4c-.125.114-.221.194-.309.283-.395.4-.779.809-1.187,1.194a.386.386,0,0,1-.363.049c-.52-.467-1.018-.959-1.6-1.515l1.79-1.67a13.48,13.48,0,0,0-7.484-3.111v2.391h-2.45V41.622A13.66,13.66,0,0,0,46.584,44.7l1.7,1.6-1.753,1.736-1.583-1.651c-1.55,1.486-3.209,5.463-3.1,7.432h2.345v2.453ZM11.069,29.359c0,.841.008,1.682-.006,2.523a.351.351,0,0,0,.291.406c.707.217,1.4.463,2.11.685a.48.48,0,0,1,.391.437c.089.564.238,1.119.352,1.679.042.207.12.277.342.209.609-.186,1.224-.356,1.84-.518.235-.062.288-.152.227-.4a21.082,21.082,0,0,1-.241-9.161,21.428,21.428,0,0,1,5.6-10.844,21.808,21.808,0,0,1,14.109-6.94A22.51,22.51,0,0,1,47.222,9.317a20.229,20.229,0,0,1,5.915,3.974,21.3,21.3,0,0,1,6.347,10.854.606.606,0,0,0,.493.523,3.633,3.633,0,0,1,2.643,3.176,3.671,3.671,0,0,1-2.2,3.579.335.335,0,0,0-.249.358c.011.943.01,1.885,0,2.828,0,.2.055.3.258.345a11.294,11.294,0,0,1,1.178.334c.267.095.335,0,.377-.24.094-.526.226-1.045.306-1.573a.582.582,0,0,1,.469-.522c.694-.216,1.378-.462,2.071-.681a.311.311,0,0,0,.257-.351c-.007-1.707,0-3.414-.015-5.121a.46.46,0,0,0-.244-.34c-.632-.238-1.269-.47-1.92-.649a.865.865,0,0,1-.669-.758c-.323-1.346-.638-2.7-1.067-4.012a23.465,23.465,0,0,0-3.064-5.916.611.611,0,0,1-.064-.5c.307-.684.637-1.36,1-2.018a.378.378,0,0,0-.071-.55Q57.181,10.3,55.419,8.511a.338.338,0,0,0-.466-.081c-.665.352-1.343.679-2,1.043a.557.557,0,0,1-.652-.034c-1.309-.791-2.6-1.619-3.963-2.311a21.45,21.45,0,0,0-6.16-1.9.515.515,0,0,1-.463-.416c-.219-.691-.468-1.372-.691-2.062-.067-.207-.152-.311-.4-.309-1.7.011-3.4.009-5.1,0a.329.329,0,0,0-.38.272c-.164.548-.415,1.074-.532,1.63a1.139,1.139,0,0,1-1.11.985,24.019,24.019,0,0,0-9.757,4.119.517.517,0,0,1-.436.029Q22.285,9,21.289,8.471a.408.408,0,0,0-.584.079q-1.76,1.787-3.553,3.54a.33.33,0,0,0-.082.458c.348.68.672,1.372,1.027,2.047a.482.482,0,0,1-.038.552c-.7,1.154-1.431,2.292-2.056,3.486a22.372,22.372,0,0,0-2.158,6.731.376.376,0,0,1-.317.351c-.719.222-1.422.493-2.144.7-.272.079-.325.2-.32.456.014.828.005,1.656.005,2.484M39.3,54.531A18.432,18.432,0,1,0,21.382,73.4,18.474,18.474,0,0,0,39.3,54.531m1.447,6.961c-.1.2-.167.329-.224.465-.293.691-.552,1.4-.886,2.068a.744.744,0,0,0,.057.86,19.092,19.092,0,0,0,3.143,3.679,18.264,18.264,0,0,0,9.7,4.616,18.739,18.739,0,0,0,6.822-.232,18.164,18.164,0,0,0,10.75-7.042,18.287,18.287,0,0,0-1.376-23.34,17.84,17.84,0,0,0-10.87-5.689,20.077,20.077,0,0,0-5.427.023,17.57,17.57,0,0,0-6.871,2.555,18.133,18.133,0,0,0-5.978,5.927.471.471,0,0,0-.028.518c.338.74.646,1.493.969,2.24.057.131.131.254.216.416A16.021,16.021,0,0,1,58.009,39.39a15.888,15.888,0,1,1-17.263,22.1M57.128,24.464c-1.918-6.639-6.013-11.352-12.509-13.541C36.716,8.26,29.543,9.951,23.773,16c-4.9,5.139-6.351,11.385-4.733,18.277h2.6c-.021-.106-.025-.155-.04-.2a15.494,15.494,0,0,1-.653-6.143A17.291,17.291,0,0,1,35.714,12.4a16.742,16.742,0,0,1,6.763.412,16.427,16.427,0,0,1,9.346,6.326A15.467,15.467,0,0,1,54.4,24.132c.048.173.077.34.331.336.778-.012,1.558,0,2.4,0m-1.879,4.894c1.264,0,2.528.012,3.791,0a1.131,1.131,0,0,0,1.133-1.26,1.144,1.144,0,0,0-1.18-1.18q-3.715,0-7.43,0a1.377,1.377,0,0,0-.484.083,1.232,1.232,0,0,0-.72,1.408,1.154,1.154,0,0,0,1.137.947c1.251.01,2.5,0,3.753,0m2.443,5.019V31.831H52.835V34.4c.815-.05,1.6-.134,2.39-.137s1.6.074,2.466.119" transform="translate(0 0.001)"/>
        <path id="Trazado_606083" data-name="Trazado 606083" d="M90.95,60.08c.333.662.655,1.31.983,1.954.133.26-.091.307-.233.386a9.817,9.817,0,0,0-5.088,8.38c0,.05-.008.1-.014.176H84.2a12.047,12.047,0,0,1,6.747-10.9" transform="translate(-58.358 -41.645)"/>
        <path id="Trazado_606084" data-name="Trazado 606084" d="M115.347,56.025l2.659-.317v2.42c-.661.089-1.311.184-1.965.254-.073.007-.214-.119-.234-.2-.158-.678-.294-1.361-.46-2.153" transform="translate(-79.953 -38.614)"/>
        <path id="Trazado_606085" data-name="Trazado 606085" d="M165.791,167.23v2.682h-2.446v-2.661a3.66,3.66,0,0,1-2.405-3.156,4.74,4.74,0,0,1,.219-1.529.536.536,0,0,0-.141-.622c-1.128-1.126-2.234-2.273-3.332-3.4l1.608-1.617,1.959,1.937c.435.43.89.844,1.3,1.3a.679.679,0,0,0,.861.2,3.631,3.631,0,1,1,2.378,6.861m0-3.391a1.183,1.183,0,0,0-1.19-1.258,1.237,1.237,0,0,0-.079,2.473,1.174,1.174,0,0,0,1.269-1.215" transform="translate(-109.302 -108.778)"/>
        <path id="Trazado_606086" data-name="Trazado 606086" d="M48.024,143.551a15.953,15.953,0,1,1-15.93-15.921,15.883,15.883,0,0,1,15.93,15.921m-29.462-.078a13.5,13.5,0,1,0,13.57-13.429,13.481,13.481,0,0,0-13.57,13.429" transform="translate(-11.175 -88.467)"/>
        <path id="Trazado_606087" data-name="Trazado 606087" d="M58.19,165.552H55.733c0-.761-.01-1.508.006-2.254a.38.38,0,0,0-.322-.447,4.7,4.7,0,0,1-3.366-4.675c0-.379,0-.758,0-1.153h2.457c0,.426,0,.854,0,1.281a2.449,2.449,0,1,0,3.463-2.133c-.732-.295-1.491-.524-2.242-.769a5.127,5.127,0,0,1-2.737-1.786,4.689,4.689,0,0,1,2.348-7.307.5.5,0,0,0,.4-.591c-.025-.709-.008-1.42-.008-2.149H58.19v1.811c0,.742,0,.736.667,1.009a4.647,4.647,0,0,1,2.986,3.849,2.66,2.66,0,0,1,.021.343,1.145,1.145,0,0,1-.027.178l-2.3.1a8.042,8.042,0,0,0-.46-1.32,2.549,2.549,0,0,0-3.307-.859,2.31,2.31,0,0,0-1.036,3.1,2.417,2.417,0,0,0,1.453,1.226c.769.271,1.536.554,2.319.782a4.908,4.908,0,0,1,3.367,4.466A4.682,4.682,0,0,1,58.5,162.85a.379.379,0,0,0-.319.45c.015.737.006,1.474.006,2.251" transform="translate(-36.073 -99.516)"/>
      </g>
    </g>
  </g>
</svg>
