<svg xmlns="http://www.w3.org/2000/svg" width="107" height="107" viewBox="0 0 107 107">
  <g id="Grupo_156312" data-name="Grupo 156312" transform="translate(-288.668 -4448)">
    <circle id="Elipse_5845" data-name="Elipse 5845" cx="53.5" cy="53.5" r="53.5" transform="translate(288.668 4448)" fill="#ffae7e"/>
    <g id="Grupo_1015807" data-name="Grupo 1015807" transform="translate(53 97)">
      <path id="Trazado_606091" data-name="Trazado 606091" d="M89.443,216.441a15.334,15.334,0,0,0-.937-5.536,29.594,29.594,0,0,0-1.69-3.338,11.273,11.273,0,0,1-.658-10.822,11.536,11.536,0,0,1,10.068-7.085,11.81,11.81,0,0,1,12.158,8.248,11.506,11.506,0,0,1-1.234,9.843,15.45,15.45,0,0,0-2.106,4.909,20.258,20.258,0,0,0-.385,4.576,3.008,3.008,0,0,1-.726,2.255c-.087.094-.162.22-.271.272a1.359,1.359,0,0,0-.725,1.437,2.807,2.807,0,0,1-1.511,2.49.564.564,0,0,0-.22.391,4.285,4.285,0,0,1-.386,1.876,2.629,2.629,0,0,1-2.2,1.507,21.953,21.953,0,0,1-3.165-.025,2.751,2.751,0,0,1-2.436-2.79,1.2,1.2,0,0,0-.591-1.221,2.648,2.648,0,0,1-1.2-2.458.869.869,0,0,0-.466-.9,2.69,2.69,0,0,1-1.324-2.275c-.022-.45,0-.9,0-1.354m12.865-1.854a18.167,18.167,0,0,1,2.779-8.222,8.83,8.83,0,0,0,1.3-6.412,9.436,9.436,0,0,0-12.415-7.366c-5.763,1.923-8.113,8.859-5.084,13.573a18.052,18.052,0,0,1,2.452,5.687c.209.9.32,1.819.475,2.731h2.113v-9.27c-.52,0-1.024.025-1.524,0a3.721,3.721,0,0,1-3.4-4.108,3.821,3.821,0,0,1,3.7-3.319,3.67,3.67,0,0,1,3.645,3.155c.085.583.08,1.179.117,1.783h1.2c0-.448-.008-.848,0-1.247a3.549,3.549,0,0,1,2.145-3.316,3.482,3.482,0,0,1,3.911.49,3.7,3.7,0,0,1-2.219,6.572c-.445-.016-.891,0-1.34,0v9.276Zm-4.681-9.257H96.443V214.6h1.183Zm-.574,11.781V217.1h-.116c-1.573,0-3.146.009-4.718,0-.3,0-.39.092-.349.382.075.525.143.607.687.608q4.448.005,8.895,0a1.764,1.764,0,0,0,.384-.031.659.659,0,0,0,.356-.761c-.035-.1-.275-.176-.422-.178-1.572-.013-3.145-.008-4.717-.008m.026,3.468v-.021c-1.018,0-2.035.011-3.052-.007-.321-.006-.409.105-.371.406.066.52.158.625.72.625q2.724,0,5.449-.012a.994.994,0,0,0,.376-.063c.352-.148.3-.483.284-.764,0-.064-.278-.156-.429-.158-.992-.014-1.984-.007-2.976-.007m-3.146-17.763c0-.486.03-.937-.007-1.383a1.239,1.239,0,0,0-2.459,0,1.178,1.178,0,0,0,.955,1.371c.483.047.975.009,1.511.009m6.22.027c.362,0,.683,0,1,0a3.576,3.576,0,0,0,.424-.024,1.235,1.235,0,0,0,1.032-1.29,1.192,1.192,0,0,0-1.115-1.167,1.209,1.209,0,0,0-1.332.927,13.27,13.27,0,0,0-.012,1.556m-4.66,21.209a4.176,4.176,0,0,0,.009.642c.017.1.13.273.2.274.919.018,1.841.035,2.756-.024.107-.007.2-.465.255-.722a.889.889,0,0,0-.423-.162c-.913-.016-1.826-.008-2.8-.008" transform="translate(192.028 4176.984)"/>
      <path id="Trazado_606092" data-name="Trazado 606092" d="M81.283,343.356c-3.056-2.484-4.477-5.574-3.673-9.445a8.882,8.882,0,0,1,3.864-5.638,9.089,9.089,0,0,1,10.242,15.015c.168.078.307.152.453.209a16.825,16.825,0,0,1,10.043,10,14.935,14.935,0,0,1,.933,3.937,1.241,1.241,0,0,1-1.234,1.453c-.205.015-.413.007-.619.007q-14.941,0-29.882-.007a2.822,2.822,0,0,1-.981-.157,1.173,1.173,0,0,1-.652-1.32c1.089-6.75,4.726-11.459,11.162-13.921l.345-.13m-8.859,13.013h28.058a14.153,14.153,0,0,0-12.6-11.319,14.364,14.364,0,0,0-15.459,11.319m14.1-13.842a6.651,6.651,0,1,0-.476-13.287,6.65,6.65,0,0,0,.476,13.287" transform="translate(202.585 4082.465)"/>
      <path id="Trazado_606093" data-name="Trazado 606093" d="M5.763,258.673c.545.23,1.016.4,1.46.625a.811.811,0,0,0,.8.007c.486-.235,1-.41,1.492-.633a.717.717,0,0,0,.332-.318c.174-.372.3-.767.465-1.145a1.118,1.118,0,0,1,1.037-.748c1.12-.018,2.241-.027,3.361,0a1.061,1.061,0,0,1,1.073.895,2.2,2.2,0,0,0,1.589,1.7,2.161,2.161,0,0,0,2.044-.04c.87-.474,1.223-.361,1.918.337.592.594,1.17,1.2,1.777,1.782a1.348,1.348,0,0,1,.338,1.836,2.2,2.2,0,0,0-.018,2.221,2.174,2.174,0,0,0,1.481,1.426c.879.276,1.1.674,1.1,1.59,0,.852,0,1.7,0,2.555a1.29,1.29,0,0,1-.953,1.421,2.359,2.359,0,0,0-1.688,1.65,2.163,2.163,0,0,0,.048,2.037c.433.819.33,1.156-.328,1.824q-.937.951-1.89,1.887a1.2,1.2,0,0,1-1.7.279,2.275,2.275,0,0,0-2.215-.031,2.179,2.179,0,0,0-1.48,1.576,1.319,1.319,0,0,1-1.414,1.025c-.954,0-1.909,0-2.864,0a1.182,1.182,0,0,1-1.293-.941,2.244,2.244,0,0,0-1.624-1.714,2.084,2.084,0,0,0-1.965.032c-.87.481-1.246.366-1.953-.343-.62-.621-1.23-1.251-1.854-1.868a1.226,1.226,0,0,1-.279-1.643,2.32,2.32,0,0,0,.011-2.327,2.088,2.088,0,0,0-1.478-1.389A1.362,1.362,0,0,1,0,270.676q0-1.277,0-2.555a1.3,1.3,0,0,1,1.03-1.485,1.888,1.888,0,0,0,1.562-1.56.265.265,0,0,1,.044-.107,1.641,1.641,0,0,0-.011-1.913c-.5-.966-.4-1.246.367-2,.617-.606,1.21-1.237,1.848-1.819a5.425,5.425,0,0,1,.922-.561m14.151,18.76c.171-.154.364-.316.543-.491.568-.557.584-.569.239-1.28a1.917,1.917,0,0,1,.062-1.937,12.332,12.332,0,0,0,.836-2.068,1.515,1.515,0,0,1,.928-1.056c.194-.069.38-.166.579-.215.335-.082.517-.248.437-.616a.935.935,0,0,1,0-.194c0-.912,0-.918-.862-1.253a1.606,1.606,0,0,1-1.013-.934q-.521-1.347-1.1-2.671a1.407,1.407,0,0,1,0-1.263,4.714,4.714,0,0,1,.253-.521c.2-.3.139-.5-.112-.759-.741-.751-.739-.786-1.683-.34a1.618,1.618,0,0,1-1.606-.088,7.82,7.82,0,0,0-1.907-.818,1.912,1.912,0,0,1-1.5-1.377c-.28-.807-.089-.657-.927-.664-1-.008-.789-.188-1.144.8a1.818,1.818,0,0,1-1.259,1.185,13.852,13.852,0,0,0-2.053.87,1.716,1.716,0,0,1-1.649.075c-.916-.427-.914-.39-1.63.311a.579.579,0,0,0-.135.853,1.955,1.955,0,0,1-.038,2.3,4.968,4.968,0,0,0-.658,1.6,1.917,1.917,0,0,1-1.4,1.529c-.643.21-.635.236-.635.932,0,.844-.007.863.783,1.151a1.773,1.773,0,0,1,1.2,1.289,8.728,8.728,0,0,0,.809,1.954,1.757,1.757,0,0,1,.06,1.889,1.774,1.774,0,0,1-.1.209c-.291.381-.142.649.172.943.659.617.658.658,1.477.256a1.73,1.73,0,0,1,1.783.082,8.533,8.533,0,0,0,1.941.833,1.907,1.907,0,0,1,1.425,1.365c.2.633.227.625.878.63.852.006.874.013,1.159-.782a1.8,1.8,0,0,1,1.261-1.181,11.174,11.174,0,0,0,2.086-.892,1.581,1.581,0,0,1,1.707-.027c.234.133.49.227.794.365" transform="translate(250.668 4130.924)"/>
      <path id="Trazado_606094" data-name="Trazado 606094" d="M176.373,282.414a13,13,0,1,1,13.082-12.572,13.021,13.021,0,0,1-13.082,12.572m.1-23.533A10.55,10.55,0,1,0,187,269.6a10.546,10.546,0,0,0-10.52-10.714" transform="translate(138 4130.941)"/>
      <path id="Trazado_606095" data-name="Trazado 606095" d="M173.956,349.619c-.178-.058-.3-.1-.422-.138a1.192,1.192,0,0,1-.88-1.067,1.12,1.12,0,0,1,.648-1.139c.824-.451,1.658-.885,2.491-1.318a7.489,7.489,0,0,1,.839-.39,1.161,1.161,0,0,1,1.559.786c.174.763.258,1.548.38,2.323.068.432.132.865.2,1.3a1.272,1.272,0,0,1-.783,1.466,1.241,1.241,0,0,1-1.549-.674l-.145-.273c-.253.358-.48.7-.725,1.022a25.88,25.88,0,0,1-7.432,6.619c-.221.132-.434.277-.656.408a1.225,1.225,0,0,1-1.76-.346,1.175,1.175,0,0,1,.474-1.717,32.339,32.339,0,0,0,4.288-3.026,23.11,23.11,0,0,0,3.471-3.831" transform="translate(136.575 4069.547)"/>
      <path id="Trazado_606096" data-name="Trazado 606096" d="M41.534,216.589c.418-.573.795-1.142,1.225-1.668a24.871,24.871,0,0,1,7.709-6.408,1.177,1.177,0,0,1,1.668.427,1.134,1.134,0,0,1-.44,1.6c-1.048.7-2.144,1.34-3.153,2.094a23.4,23.4,0,0,0-4.58,4.69.542.542,0,0,0-.033.127l.368.136a1.228,1.228,0,0,1,.883,1.113,1.16,1.16,0,0,1-.685,1.126c-1.038.543-2.074,1.094-3.134,1.591a1.18,1.18,0,0,1-1.772-.927c-.205-1.167-.362-2.343-.5-3.52a1.106,1.106,0,0,1,.816-1.346,1.2,1.2,0,0,1,1.459.642c.057.1.106.2.173.321" transform="translate(223.736 4164.086)"/>
      <path id="Trazado_606097" data-name="Trazado 606097" d="M169.973,213.459a1.379,1.379,0,0,1-.592,1.112,1.13,1.13,0,0,1-1.53-.218,2.332,2.332,0,0,1-.3-.449c-.482-.94-.971-1.875-1.426-2.827a1.2,1.2,0,0,1,.965-1.909c1.178-.212,2.364-.381,3.554-.514a1.211,1.211,0,0,1,.636,2.274c-.118.07-.239.135-.359.2.728.551,1.448,1.062,2.13,1.62a24.6,24.6,0,0,1,5.887,7.25,1.235,1.235,0,0,1,.152,1.105,1.163,1.163,0,0,1-1.978.391,5.1,5.1,0,0,1-.574-.868,23.052,23.052,0,0,0-6.109-6.853c-.131-.1-.27-.187-.458-.317" transform="translate(136.299 4163.871)"/>
      <path id="Trazado_606098" data-name="Trazado 606098" d="M46.9,355.963c-1.084-.92-2.191-1.8-3.235-2.757a24.745,24.745,0,0,1-4.61-5.886,3.6,3.6,0,0,1-.267-.557,1.174,1.174,0,0,1,.6-1.525,1.153,1.153,0,0,1,1.533.488c.708,1.091,1.377,2.211,2.151,3.253a21.6,21.6,0,0,0,4.385,4.286c.112.085.221.175.366.29.053-.17.1-.323.15-.473a1.151,1.151,0,0,1,.982-.819,1.049,1.049,0,0,1,1.157.526c.607,1.163,1.2,2.334,1.743,3.529a1.063,1.063,0,0,1-.795,1.467c-.736.176-1.5.26-2.245.377-.458.071-.918.138-1.378.193a1.208,1.208,0,0,1-.7-2.307c.067-.035.133-.073.154-.085" transform="translate(223.99 4069.805)"/>
      <path id="Trazado_606099" data-name="Trazado 606099" d="M25.765,289.377a7.266,7.266,0,1,1,7.261-7.236,7.168,7.168,0,0,1-7.261,7.236M30.6,282.09a4.814,4.814,0,1,0-4.691,4.823A4.809,4.809,0,0,0,30.6,282.09" transform="translate(237.887 4118.241)"/>
      <path id="Trazado_606100" data-name="Trazado 606100" d="M192.967,272.1a6.133,6.133,0,0,1,.052-.618,1.244,1.244,0,0,1,1.243-1.144,1.225,1.225,0,0,1,1.177,1.252c0,.473.17.615.585.747a4.2,4.2,0,0,1,2.686,2.443,1.237,1.237,0,0,1-.523,1.744,1.163,1.163,0,0,1-1.655-.652,2.6,2.6,0,0,0-3.5-1.133,2.1,2.1,0,0,0-.6.421,1.293,1.293,0,0,0,.271,2.049,7.313,7.313,0,0,0,2.4.683,5.287,5.287,0,0,1,3.281,1.8,3.652,3.652,0,0,1-1.428,5.716c-.471.2-.968.344-1.463.518.036,1.046-.365,1.715-1.327,1.729-.747.01-1.106-.543-1.2-1.728-.544-.232-1.1-.419-1.6-.693a4,4,0,0,1-2.128-2.926,1.151,1.151,0,0,1,.764-1.283,1.217,1.217,0,0,1,1.481.5,1.768,1.768,0,0,1,.178.385,2.217,2.217,0,0,0,1.971,1.615,3.949,3.949,0,0,0,2.13-.224,1.319,1.319,0,0,0,.99-1.123,1.453,1.453,0,0,0-.786-1.407,7.522,7.522,0,0,0-2.475-.706,5.24,5.24,0,0,1-2.927-1.457,3.785,3.785,0,0,1,.867-5.778c.475-.275.994-.473,1.537-.727" transform="translate(120.241 4121.35)"/>
    </g>
  </g>
</svg>
