<svg xmlns="http://www.w3.org/2000/svg" xmlns:xlink="http://www.w3.org/1999/xlink" width="505" height="836.833" viewBox="0 0 505 836.833">
  <defs>
    <linearGradient id="linear-gradient" x1="0.732" y1="0.938" x2="0.086" y2="0.097" gradientUnits="objectBoundingBox">
      <stop offset="0" stop-color="#d8e0f2"/>
      <stop offset="1" stop-color="#ecf0f9"/>
    </linearGradient>
    <clipPath id="clip-path">
      <rect id="Rectángulo_347562" data-name="Rectángulo 347562" width="14.907" height="18.022" fill="none"/>
    </clipPath>
  </defs>
  <g id="Grupo_1017224" data-name="Grupo 1017224" transform="translate(3032.933 8575.5)">
    <path id="Trazado_601291" data-name="Trazado 601291" d="M0,0H505V836.833H0Z" transform="translate(-3032.933 -8575.5)" fill="url(#linear-gradient)"/>
    <g id="Grupo_1015858" data-name="Grupo 1015858">
      <g id="Grupo_1015849" data-name="Grupo 1015849" transform="translate(885.174 -77)">
        <path id="Trazado_606155" data-name="Trazado 606155" d="M131.787,167.62l-67.3-1.239a20.639,20.639,0,0,1-17.617-10.534l-32.942-58.7a20.636,20.636,0,0,1,.284-20.691L48.438,19.224A20.64,20.64,0,0,1,66.531,9.18l67.3,1.239a20.639,20.639,0,0,1,17.617,10.534l32.942,58.7a20.643,20.643,0,0,1-.284,20.693L149.88,157.576a20.637,20.637,0,0,1-18.093,10.043" transform="translate(-3841.992 -8460.259)" fill="#3c4d8a"/>
        <path id="Trazado_606156" data-name="Trazado 606156" d="M149.724,188.363c-.1,0-.209,0-.313,0l-84.293-1.177A22.411,22.411,0,0,1,46.3,176.32L3.137,103.909a22.284,22.284,0,0,1-.156-22.535l40.551-70.24A22.288,22.288,0,0,1,63.13,0l84.291,1.177a22.412,22.412,0,0,1,18.817,10.865L209.4,84.453a22.291,22.291,0,0,1,.156,22.536l-40.553,70.24a22.292,22.292,0,0,1-19.283,11.134M62.819,3.259a19.027,19.027,0,0,0-16.462,9.505L5.8,83a19.027,19.027,0,0,0,.134,19.238L49.1,174.652a19.13,19.13,0,0,0,16.062,9.272l84.293,1.177a18.979,18.979,0,0,0,16.727-9.5l40.553-70.24A19.034,19.034,0,0,0,206.6,86.12L163.438,13.711a19.13,19.13,0,0,0-16.063-9.274L63.084,3.26c-.088,0-.178,0-.266,0" transform="translate(-3849.104 -8466.04)" fill="#3c4d8a"/>
        <path id="Trazado_606157" data-name="Trazado 606157" d="M142.172,176.631c-.135,0-.271,0-.406,0L65.956,175.2a21.343,21.343,0,0,1-17.968-10.374L8.843,99.884a21.457,21.457,0,0,1-.205-21.8l35.89-62.165A21.47,21.47,0,0,1,63.511,5.2l75.811,1.431A21.342,21.342,0,0,1,157.291,17l39.143,64.938a21.453,21.453,0,0,1,.207,21.8l-35.89,62.165a21.461,21.461,0,0,1-18.579,10.726M141.8,175a19.808,19.808,0,0,0,17.542-9.908l35.89-62.165a19.824,19.824,0,0,0-.191-20.145L155.894,17.842a19.713,19.713,0,0,0-16.6-9.585L63.481,6.825a19.836,19.836,0,0,0-17.542,9.906L10.049,78.9a19.832,19.832,0,0,0,.189,20.145l39.145,64.939a19.722,19.722,0,0,0,16.6,9.585Z" transform="translate(-3845.473 -8462.769)" fill="#3c4d8a"/>
      </g>
      <g id="Grupo_1015853" data-name="Grupo 1015853" transform="translate(544.385 209.921)">
        <path id="Trazado_606160" data-name="Trazado 606160" d="M347.49,167.62l-67.3-1.239a20.639,20.639,0,0,1-17.617-10.534l-32.942-58.7a20.636,20.636,0,0,1,.284-20.691l34.223-57.237A20.64,20.64,0,0,1,282.234,9.18l67.3,1.239a20.639,20.639,0,0,1,17.617,10.534l32.942,58.7a20.639,20.639,0,0,1-.284,20.693l-34.223,57.235A20.637,20.637,0,0,1,347.49,167.62" transform="translate(-3706.125 -8460.259)" fill="#88c93e"/>
        <path id="Trazado_606161" data-name="Trazado 606161" d="M365.427,188.363c-.1,0-.207,0-.313,0l-84.293-1.177a22.411,22.411,0,0,1-18.815-10.865L218.84,103.909a22.284,22.284,0,0,1-.157-22.535l40.551-70.24A22.288,22.288,0,0,1,278.833,0l84.291,1.177a22.412,22.412,0,0,1,18.817,10.865l43.166,72.411a22.291,22.291,0,0,1,.156,22.536l-40.553,70.24a22.292,22.292,0,0,1-19.283,11.134M278.522,3.259a19.027,19.027,0,0,0-16.462,9.505L221.507,83a19.027,19.027,0,0,0,.134,19.238L264.8,174.652a19.13,19.13,0,0,0,16.063,9.272L365.16,185.1a18.979,18.979,0,0,0,16.728-9.5l40.555-70.24a19.041,19.041,0,0,0-.134-19.239L379.141,13.711a19.13,19.13,0,0,0-16.063-9.274L278.787,3.26c-.088,0-.178,0-.266,0" transform="translate(-3713.236 -8466.04)" fill="#88c93e"/>
        <path id="Trazado_606162" data-name="Trazado 606162" d="M357.876,176.631c-.135,0-.271,0-.406,0L281.66,175.2a21.343,21.343,0,0,1-17.968-10.374L224.547,99.884a21.457,21.457,0,0,1-.205-21.8l35.89-62.165A21.47,21.47,0,0,1,279.215,5.2l75.811,1.431A21.342,21.342,0,0,1,372.995,17l39.143,64.938a21.453,21.453,0,0,1,.207,21.8l-35.89,62.165a21.461,21.461,0,0,1-18.579,10.726M357.5,175a19.808,19.808,0,0,0,17.542-9.908l35.89-62.165a19.824,19.824,0,0,0-.191-20.145L371.6,17.842A19.713,19.713,0,0,0,355,8.256L279.185,6.825a19.836,19.836,0,0,0-17.542,9.906L225.753,78.9a19.832,19.832,0,0,0,.189,20.145l39.145,64.939a19.722,19.722,0,0,0,16.6,9.585Z" transform="translate(-3709.605 -8462.769)" fill="#88c93e"/>
      </g>
      <g id="Grupo_1015856" data-name="Grupo 1015856" transform="translate(184.612 500)">
        <path id="Trazado_606165" data-name="Trazado 606165" d="M573.268,167.62l-67.3-1.239a20.639,20.639,0,0,1-17.617-10.534l-32.942-58.7A20.636,20.636,0,0,1,455.7,76.46l34.223-57.237A20.64,20.64,0,0,1,508.012,9.18l67.3,1.239a20.639,20.639,0,0,1,17.617,10.534l32.942,58.7a20.64,20.64,0,0,1-.284,20.693l-34.223,57.235a20.637,20.637,0,0,1-18.093,10.043" transform="translate(-3563.911 -8460.259)" fill="#fcfce2"/>
        <path id="Trazado_606166" data-name="Trazado 606166" d="M591.205,188.363c-.1,0-.209,0-.313,0L506.6,187.185a22.411,22.411,0,0,1-18.815-10.865l-43.166-72.411a22.284,22.284,0,0,1-.156-22.535l40.552-70.24A22.288,22.288,0,0,1,504.611,0L588.9,1.177a22.412,22.412,0,0,1,18.817,10.865l43.166,72.411a22.291,22.291,0,0,1,.156,22.536l-40.553,70.24a22.292,22.292,0,0,1-19.283,11.134M504.3,3.259a19.027,19.027,0,0,0-16.462,9.505L447.285,83a19.027,19.027,0,0,0,.134,19.238l43.164,72.411a19.13,19.13,0,0,0,16.062,9.272l84.293,1.177a18.979,18.979,0,0,0,16.727-9.5l40.553-70.24a19.033,19.033,0,0,0-.134-19.239L604.919,13.711a19.13,19.13,0,0,0-16.062-9.274L504.566,3.26c-.088,0-.178,0-.266,0" transform="translate(-3571.022 -8466.04)" fill="#fcfce2"/>
        <path id="Trazado_606167" data-name="Trazado 606167" d="M583.654,176.631c-.135,0-.271,0-.406,0L507.438,175.2a21.343,21.343,0,0,1-17.968-10.374L450.325,99.884a21.457,21.457,0,0,1-.205-21.8l35.89-62.165A21.47,21.47,0,0,1,504.993,5.2L580.8,6.627A21.342,21.342,0,0,1,598.773,17l39.143,64.938a21.453,21.453,0,0,1,.207,21.8l-35.89,62.165a21.461,21.461,0,0,1-18.579,10.726M583.279,175a19.808,19.808,0,0,0,17.542-9.908l35.89-62.165a19.825,19.825,0,0,0-.191-20.145L597.376,17.842a19.713,19.713,0,0,0-16.6-9.585L504.963,6.825a19.836,19.836,0,0,0-17.542,9.906L451.531,78.9a19.831,19.831,0,0,0,.189,20.145l39.145,64.939a19.722,19.722,0,0,0,16.6,9.585Z" transform="translate(-3567.391 -8462.769)" fill="#fcfce2"/>
      </g>
      <g id="Grupo_1015851" data-name="Grupo 1015851" transform="translate(885.174 -77)">
        <path id="Trazado_606168" data-name="Trazado 606168" d="M240.824,247.62l-67.3-1.239a20.639,20.639,0,0,1-17.617-10.534l-32.942-58.7a20.636,20.636,0,0,1,.284-20.691l34.223-57.237A20.64,20.64,0,0,1,175.568,89.18l67.3,1.239a20.639,20.639,0,0,1,17.617,10.534l32.942,58.7a20.643,20.643,0,0,1-.284,20.693l-34.223,57.235a20.636,20.636,0,0,1-18.093,10.043" transform="translate(-3773.312 -8409.868)" fill="#455b99"/>
        <path id="Trazado_606169" data-name="Trazado 606169" d="M258.761,268.363c-.1,0-.209,0-.313,0l-84.293-1.177A22.411,22.411,0,0,1,155.34,256.32l-43.166-72.411a22.284,22.284,0,0,1-.156-22.535l40.551-70.24A22.288,22.288,0,0,1,172.167,80l84.291,1.177a22.412,22.412,0,0,1,18.817,10.865l43.166,72.411a22.291,22.291,0,0,1,.156,22.536l-40.553,70.24a22.292,22.292,0,0,1-19.283,11.134m-86.905-185.1a19.027,19.027,0,0,0-16.462,9.505L114.841,163a19.027,19.027,0,0,0,.134,19.238l43.164,72.411a19.13,19.13,0,0,0,16.063,9.272l84.293,1.177a18.979,18.979,0,0,0,16.727-9.5l40.553-70.24a19.034,19.034,0,0,0-.134-19.239L272.475,93.711a19.13,19.13,0,0,0-16.063-9.274L172.122,83.26c-.088,0-.178,0-.266,0" transform="translate(-3780.423 -8415.649)" fill="#455b99"/>
        <path id="Trazado_606170" data-name="Trazado 606170" d="M251.209,256.631c-.135,0-.271,0-.406,0L174.993,255.2a21.343,21.343,0,0,1-17.968-10.374L117.88,179.884a21.457,21.457,0,0,1-.205-21.8l35.89-62.165A21.47,21.47,0,0,1,172.548,85.2l75.811,1.431A21.342,21.342,0,0,1,266.328,97l39.143,64.938a21.453,21.453,0,0,1,.207,21.8l-35.89,62.165a21.461,21.461,0,0,1-18.579,10.726M250.834,255a19.808,19.808,0,0,0,17.542-9.908l35.89-62.165a19.824,19.824,0,0,0-.191-20.145L264.931,97.842a19.713,19.713,0,0,0-16.6-9.585l-75.811-1.431a19.836,19.836,0,0,0-17.542,9.906L119.086,158.9a19.832,19.832,0,0,0,.189,20.145l39.145,64.939a19.722,19.722,0,0,0,16.6,9.585Z" transform="translate(-3776.793 -8412.378)" fill="#455b99"/>
      </g>
      <g id="Grupo_1015855" data-name="Grupo 1015855" transform="translate(530.706 228)">
        <path id="Trazado_606173" data-name="Trazado 606173" d="M458.3,247.62l-67.3-1.239a20.639,20.639,0,0,1-17.617-10.534l-32.942-58.7a20.636,20.636,0,0,1,.284-20.691l34.223-57.237A20.64,20.64,0,0,1,393.049,89.18l67.3,1.239a20.64,20.64,0,0,1,17.617,10.534l32.941,58.7a20.639,20.639,0,0,1-.284,20.693L476.4,237.576A20.637,20.637,0,0,1,458.3,247.62" transform="translate(-3636.324 -8409.868)" fill="#f6df41"/>
        <path id="Trazado_606174" data-name="Trazado 606174" d="M476.242,268.363c-.1,0-.209,0-.313,0l-84.293-1.177a22.411,22.411,0,0,1-18.815-10.865l-43.166-72.411a22.284,22.284,0,0,1-.156-22.535l40.551-70.24A22.288,22.288,0,0,1,389.648,80l84.291,1.177a22.412,22.412,0,0,1,18.817,10.865l43.166,72.411a22.291,22.291,0,0,1,.157,22.536l-40.553,70.24a22.292,22.292,0,0,1-19.283,11.134m-86.905-185.1a19.027,19.027,0,0,0-16.462,9.505L332.322,163a19.027,19.027,0,0,0,.134,19.238l43.164,72.411a19.13,19.13,0,0,0,16.063,9.272l84.293,1.177a18.979,18.979,0,0,0,16.728-9.5l40.553-70.24a19.034,19.034,0,0,0-.134-19.239L489.956,93.711a19.13,19.13,0,0,0-16.062-9.274L389.6,83.26c-.088,0-.178,0-.266,0" transform="translate(-3643.436 -8415.649)" fill="#f6df41"/>
        <path id="Trazado_606175" data-name="Trazado 606175" d="M468.691,256.631c-.135,0-.271,0-.406,0L392.475,255.2a21.343,21.343,0,0,1-17.968-10.374l-39.145-64.939a21.457,21.457,0,0,1-.205-21.8l35.89-62.165A21.47,21.47,0,0,1,390.03,85.2l75.811,1.431A21.342,21.342,0,0,1,483.81,97l39.143,64.938a21.453,21.453,0,0,1,.207,21.8l-35.89,62.165a21.461,21.461,0,0,1-18.579,10.726M468.316,255a19.808,19.808,0,0,0,17.542-9.908l35.89-62.165a19.824,19.824,0,0,0-.191-20.145L482.413,97.842a19.713,19.713,0,0,0-16.6-9.585L390,86.825a19.836,19.836,0,0,0-17.542,9.906L336.568,158.9a19.832,19.832,0,0,0,.189,20.145L375.9,243.982a19.722,19.722,0,0,0,16.6,9.585Z" transform="translate(-3639.805 -8412.378)" fill="#f6df41"/>
      </g>
      <g id="Grupo_1015850" data-name="Grupo 1015850" transform="translate(885.174 -77)">
        <path id="Trazado_606158" data-name="Trazado 606158" d="M184.382,108.231a1.63,1.63,0,0,1-1.31-2.6c.849-1.154,20.563-28.539-1.79-51.229-22.75-23.094-52.59-7.62-53.851-6.95a1.63,1.63,0,0,1-1.534-2.877c.329-.174,33.23-17.308,57.706,7.537,24.323,24.693,2.316,55.15,2.091,55.455a1.628,1.628,0,0,1-1.312.662" transform="matrix(0.998, -0.07, 0.07, 0.998, -3775.727, -8436.514)" fill="#3c4d8a"/>
        <path id="Trazado_606159" data-name="Trazado 606159" d="M179.9,102.1a.792.792,0,0,1-.44-.13.815.815,0,0,1-.244-1.126c.163-.253,16.113-25.592-1.014-45.017-19.277-21.87-50.508-6.846-50.821-6.691a.815.815,0,0,1-.722-1.462c.324-.158,32.66-15.733,52.766,7.072,17.948,20.359,1.332,46.716,1.162,46.981a.815.815,0,0,1-.686.373" transform="matrix(0.998, -0.07, 0.07, 0.998, -3774.833, -8434.253)" fill="#3c4d8a"/>
        <g id="Grupo_1015843" data-name="Grupo 1015843" transform="translate(-3591.375 -8354.673)">
          <g id="Grupo_1015842" data-name="Grupo 1015842" transform="translate(0 0)" clip-path="url(#clip-path)">
            <path id="Trazado_606178" data-name="Trazado 606178" d="M8.7,2.883l5.216,2.69c1.364.7,1.311,2.9-.091,3.946L8.445,13.544,3.067,17.568A1.849,1.849,0,0,1,0,15.987L.16,9.273.32,2.558C.362.8,2.117-.509,3.48.193Z" transform="translate(0 0.001)" fill="#3c4d8a"/>
          </g>
        </g>
      </g>
      <g id="Grupo_1015852" data-name="Grupo 1015852" transform="translate(-6250.711 -16250.369) rotate(180)">
        <path id="Trazado_606171" data-name="Trazado 606171" d="M234.2,177.874a1.63,1.63,0,0,1,2.6-1.31c1.154.849,28.539,20.563,51.229-1.79,23.094-22.75,7.62-52.59,6.95-53.851a1.63,1.63,0,0,1,2.877-1.534c.174.329,17.308,33.23-7.537,57.706-24.693,24.323-55.15,2.316-55.455,2.091a1.628,1.628,0,0,1-.662-1.312" transform="matrix(0.995, 0.105, -0.105, 0.995, -3682.775, -8416.286)" fill="#3c4d8a"/>
        <path id="Trazado_606172" data-name="Trazado 606172" d="M236.542,173.388a.792.792,0,0,1,.13-.44.815.815,0,0,1,1.126-.244c.253.163,25.594,16.113,45.019-1.014,21.868-19.277,6.844-50.508,6.689-50.821a.815.815,0,0,1,1.462-.722c.158.324,15.735,32.66-7.072,52.766-20.359,17.948-46.716,1.332-46.981,1.162a.815.815,0,0,1-.373-.686" transform="matrix(0.995, 0.105, -0.105, 0.995, -3681.387, -8415.402)" fill="#3c4d8a"/>
        <g id="Grupo_1015844" data-name="Grupo 1015844" transform="translate(-3393.187 -8264.882) rotate(135)">
          <g id="Grupo_1015842-2" data-name="Grupo 1015842" transform="translate(0 0)" clip-path="url(#clip-path)">
            <path id="Trazado_606178-2" data-name="Trazado 606178" d="M8.7,2.883l5.216,2.69c1.364.7,1.311,2.9-.091,3.946L8.445,13.544,3.067,17.568A1.849,1.849,0,0,1,0,15.987L.16,9.273.32,2.558C.362.8,2.117-.509,3.48.193Z" transform="translate(0 0.001)" fill="#3c4d8a"/>
          </g>
        </g>
      </g>
      <g id="Grupo_1015854" data-name="Grupo 1015854" transform="translate(547.617 220.117)">
        <path id="Trazado_606179" data-name="Trazado 606179" d="M184.382,108.231a1.63,1.63,0,0,1-1.31-2.6c.849-1.154,20.563-28.539-1.79-51.229-22.75-23.094-52.59-7.62-53.851-6.95a1.63,1.63,0,0,1-1.534-2.877c.329-.174,33.23-17.308,57.706,7.537,24.323,24.693,2.316,55.15,2.091,55.455a1.628,1.628,0,0,1-1.312.662" transform="matrix(0.998, -0.07, 0.07, 0.998, -3419.727, -8436.514)" fill="#3c4d8a"/>
        <path id="Trazado_606180" data-name="Trazado 606180" d="M179.9,102.1a.792.792,0,0,1-.44-.13.815.815,0,0,1-.244-1.126c.163-.253,16.113-25.592-1.014-45.017-19.277-21.87-50.508-6.846-50.821-6.691a.815.815,0,0,1-.722-1.462c.324-.158,32.66-15.733,52.766,7.072,17.948,20.359,1.332,46.716,1.162,46.981a.815.815,0,0,1-.686.373" transform="matrix(0.998, -0.07, 0.07, 0.998, -3418.833, -8434.253)" fill="#3c4d8a"/>
        <g id="Grupo_1015845" data-name="Grupo 1015845" transform="translate(-3235.374 -8354.672)">
          <g id="Grupo_1015842-3" data-name="Grupo 1015842" transform="translate(0 0)" clip-path="url(#clip-path)">
            <path id="Trazado_606178-3" data-name="Trazado 606178" d="M8.7,2.883l5.216,2.69c1.364.7,1.311,2.9-.091,3.946L8.445,13.544,3.067,17.568A1.849,1.849,0,0,1,0,15.987L.16,9.273.32,2.558C.362.8,2.117-.509,3.48.193Z" transform="translate(0 0.001)" fill="#3c4d8a"/>
          </g>
        </g>
      </g>
      <g id="Grupo_1015857" data-name="Grupo 1015857" transform="matrix(-0.961, 0.276, -0.276, -0.961, -8040.688, -15375.959)">
        <path id="Trazado_606181" data-name="Trazado 606181" d="M234.2,177.874a1.63,1.63,0,0,1,2.6-1.31c1.154.849,28.539,20.563,51.229-1.79,23.094-22.75,7.62-52.59,6.95-53.851a1.63,1.63,0,0,1,2.877-1.534c.174.329,17.308,33.23-7.537,57.706-24.693,24.323-55.15,2.316-55.455,2.091a1.628,1.628,0,0,1-.662-1.312" transform="matrix(0.995, 0.105, -0.105, 0.995, -3326.775, -8416.286)" fill="#3c4d8a"/>
        <path id="Trazado_606182" data-name="Trazado 606182" d="M236.542,173.388a.792.792,0,0,1,.13-.44.815.815,0,0,1,1.126-.244c.253.163,25.594,16.113,45.019-1.014,21.868-19.277,6.844-50.508,6.689-50.821a.815.815,0,0,1,1.462-.722c.158.324,15.735,32.66-7.072,52.766-20.359,17.948-46.716,1.332-46.981,1.162a.815.815,0,0,1-.373-.686" transform="matrix(0.995, 0.105, -0.105, 0.995, -3325.387, -8415.402)" fill="#3c4d8a"/>
        <g id="Grupo_1015846" data-name="Grupo 1015846" transform="translate(-3037.187 -8264.882) rotate(135)">
          <g id="Grupo_1015842-4" data-name="Grupo 1015842" transform="translate(0 0)" clip-path="url(#clip-path)">
            <path id="Trazado_606178-4" data-name="Trazado 606178" d="M8.7,2.883l5.216,2.69c1.364.7,1.311,2.9-.091,3.946L8.445,13.544,3.067,17.568A1.849,1.849,0,0,1,0,15.987L.16,9.273.32,2.558C.362.8,2.117-.509,3.48.193Z" transform="translate(0 0.001)" fill="#3c4d8a"/>
          </g>
        </g>
      </g>
      <path id="Trazado_609097" data-name="Trazado 609097" d="M-37.969-2.125h-3.758L-42.383,0h-2.93l4.172-11.375h2.578L-34.359,0H-37.3Zm-3.1-2.117h2.445l-1.227-3.945ZM-28.539-6.07l-.867-.062A1.558,1.558,0,0,0-31-5.352V0h-2.633V-8.453h2.469l.086,1.086a2.039,2.039,0,0,1,1.852-1.242,2.567,2.567,0,0,1,.734.094Zm.469,1.758A5.074,5.074,0,0,1-27.2-7.469a2.874,2.874,0,0,1,2.414-1.141A2.454,2.454,0,0,1-22.7-7.547l.188-.906h2.281V3.25h-2.641V-.7A2.451,2.451,0,0,1-24.8.156,2.849,2.849,0,0,1-27.184-1,5.357,5.357,0,0,1-28.07-4.312Zm2.633.164q0,2.273,1.313,2.273a1.271,1.271,0,0,0,1.25-.687V-5.906a1.244,1.244,0,0,0-1.234-.672q-1.227,0-1.32,1.961ZM-13.711-.914A2.714,2.714,0,0,1-15.969.156a2.662,2.662,0,0,1-2.105-.809,3.4,3.4,0,0,1-.715-2.324V-8.453h2.633v5.492A.946.946,0,0,0-15.1-1.875a1.376,1.376,0,0,0,1.289-.648v-5.93h2.648V0h-2.469ZM-6.945,0H-9.586V-8.453h2.641Zm-2.8-10.633a1.175,1.175,0,0,1,.406-.922,1.533,1.533,0,0,1,1.055-.359,1.533,1.533,0,0,1,1.055.359,1.175,1.175,0,0,1,.406.922,1.175,1.175,0,0,1-.406.922,1.533,1.533,0,0,1-1.055.359,1.533,1.533,0,0,1-1.055-.359A1.175,1.175,0,0,1-9.742-10.633Zm7.484.078v2.1H-.867v1.828H-2.258v3.867a.987.987,0,0,0,.172.664.922.922,0,0,0,.68.188A3.862,3.862,0,0,0-.75-1.953V-.07A4.859,4.859,0,0,1-2.234.156,2.758,2.758,0,0,1-4.242-.484,2.626,2.626,0,0,1-4.891-2.43v-4.2H-5.969V-8.453h1.078v-2.1ZM4.258.156A4.345,4.345,0,0,1,1.109-1a4.006,4.006,0,0,1-1.2-3.02v-.219a5.191,5.191,0,0,1,.48-2.289,3.516,3.516,0,0,1,1.4-1.535,4.233,4.233,0,0,1,2.188-.543A3.659,3.659,0,0,1,6.789-7.5,4.344,4.344,0,0,1,7.82-4.422V-3.4H2.586A1.9,1.9,0,0,0,3.2-2.281a1.836,1.836,0,0,0,1.234.406A2.366,2.366,0,0,0,6.391-2.75l1.2,1.422A3.363,3.363,0,0,1,6.2-.246,4.713,4.713,0,0,1,4.258.156Zm-.3-6.734q-1.156,0-1.375,1.531H5.242v-.2a1.3,1.3,0,0,0-.32-.98A1.275,1.275,0,0,0,3.961-6.578Zm8.492,4.7a1.171,1.171,0,0,0,.859-.3,1.1,1.1,0,0,0,.3-.84h2.469a2.922,2.922,0,0,1-1,2.281,3.705,3.705,0,0,1-2.566.891A3.751,3.751,0,0,1,9.609-1,4.556,4.556,0,0,1,8.547-4.2v-.109A5.149,5.149,0,0,1,9.02-6.574a3.441,3.441,0,0,1,1.363-1.508,4.065,4.065,0,0,1,2.109-.527,3.658,3.658,0,0,1,2.617.914,3.242,3.242,0,0,1,.969,2.477H13.609a1.445,1.445,0,0,0-.32-1.008,1.106,1.106,0,0,0-.859-.352q-1.023,0-1.2,1.3a9.206,9.206,0,0,0-.055,1.141,3.616,3.616,0,0,0,.3,1.766A1.055,1.055,0,0,0,12.453-1.875Zm7.8-8.68v2.1h1.391v1.828H20.258v3.867a.987.987,0,0,0,.172.664.922.922,0,0,0,.68.188,3.862,3.862,0,0,0,.656-.047V-.07a4.859,4.859,0,0,1-1.484.227,2.758,2.758,0,0,1-2.008-.641,2.626,2.626,0,0,1-.648-1.945v-4.2H16.547V-8.453h1.078v-2.1ZM27.719-.914A2.714,2.714,0,0,1,25.461.156a2.662,2.662,0,0,1-2.105-.809,3.4,3.4,0,0,1-.715-2.324V-8.453h2.633v5.492a.946.946,0,0,0,1.055,1.086,1.376,1.376,0,0,0,1.289-.648v-5.93h2.648V0H27.8Zm9.1-5.156-.867-.062a1.558,1.558,0,0,0-1.594.781V0H31.727V-8.453H34.2l.086,1.086a2.039,2.039,0,0,1,1.852-1.242,2.567,2.567,0,0,1,.734.094ZM42.3,0a2.973,2.973,0,0,1-.25-.758,2.448,2.448,0,0,1-2.031.914,3,3,0,0,1-2.031-.723,2.3,2.3,0,0,1-.836-1.816,2.364,2.364,0,0,1,1.016-2.078,5.174,5.174,0,0,1,2.953-.7h.813v-.448q0-1.17-1.008-1.17a.824.824,0,0,0-.937.926H37.352a2.36,2.36,0,0,1,1.043-1.99,4.383,4.383,0,0,1,2.66-.765,3.843,3.843,0,0,1,2.555.789,2.743,2.743,0,0,1,.961,2.164v3.742A3.832,3.832,0,0,0,44.93-.133V0ZM40.648-1.719a1.469,1.469,0,0,0,.816-.211,1.322,1.322,0,0,0,.465-.477V-3.758h-.766q-1.375,0-1.375,1.234a.754.754,0,0,0,.242.582A.876.876,0,0,0,40.648-1.719ZM-16.605,20a2.973,2.973,0,0,1-.25-.758,2.448,2.448,0,0,1-2.031.914,3,3,0,0,1-2.031-.723,2.3,2.3,0,0,1-.836-1.816,2.364,2.364,0,0,1,1.016-2.078,5.174,5.174,0,0,1,2.953-.7h.813v-.448q0-1.17-1.008-1.17a.824.824,0,0,0-.937.926h-2.633a2.36,2.36,0,0,1,1.043-1.99,4.383,4.383,0,0,1,2.66-.765,3.843,3.843,0,0,1,2.555.789,2.743,2.743,0,0,1,.961,2.164v3.742a3.832,3.832,0,0,0,.359,1.781V20Zm-1.648-1.719a1.469,1.469,0,0,0,.816-.211,1.322,1.322,0,0,0,.465-.477V16.242h-.766q-1.375,0-1.375,1.234a.754.754,0,0,0,.242.582A.876.876,0,0,0-18.254,18.281Zm8.953-.156a1.171,1.171,0,0,0,.859-.3,1.1,1.1,0,0,0,.3-.84h2.469a2.922,2.922,0,0,1-1,2.281,3.705,3.705,0,0,1-2.566.891A3.751,3.751,0,0,1-12.145,19a4.556,4.556,0,0,1-1.062-3.2v-.109a5.149,5.149,0,0,1,.473-2.262,3.441,3.441,0,0,1,1.363-1.508,4.065,4.065,0,0,1,2.109-.527,3.658,3.658,0,0,1,2.617.914,3.242,3.242,0,0,1,.969,2.477H-8.145a1.445,1.445,0,0,0-.32-1.008,1.106,1.106,0,0,0-.859-.352q-1.023,0-1.2,1.3a9.206,9.206,0,0,0-.055,1.141,3.616,3.616,0,0,0,.3,1.766A1.055,1.055,0,0,0-9.3,18.125Zm7.8-8.68v2.1H-.105v1.828H-1.5v3.867a.987.987,0,0,0,.172.664.922.922,0,0,0,.68.188,3.862,3.862,0,0,0,.656-.047V19.93a4.859,4.859,0,0,1-1.484.227,2.758,2.758,0,0,1-2.008-.641,2.626,2.626,0,0,1-.648-1.945v-4.2H-5.207V11.547h1.078v-2.1Zm7.461,9.641a2.714,2.714,0,0,1-2.258,1.07A2.662,2.662,0,0,1,1.6,19.348a3.4,3.4,0,0,1-.715-2.324V11.547H3.52v5.492a.946.946,0,0,0,1.055,1.086,1.376,1.376,0,0,0,1.289-.648v-5.93H8.512V20H6.043Zm8.75.914a2.973,2.973,0,0,1-.25-.758,2.448,2.448,0,0,1-2.031.914,3,3,0,0,1-2.031-.723,2.3,2.3,0,0,1-.836-1.816,2.364,2.364,0,0,1,1.016-2.078,5.174,5.174,0,0,1,2.953-.7h.813v-.448q0-1.17-1.008-1.17a.824.824,0,0,0-.937.926H9.77a2.36,2.36,0,0,1,1.043-1.99,4.383,4.383,0,0,1,2.66-.765,3.843,3.843,0,0,1,2.555.789,2.743,2.743,0,0,1,.961,2.164v3.742a3.832,3.832,0,0,0,.359,1.781V20Zm-1.648-1.719a1.469,1.469,0,0,0,.816-.211,1.322,1.322,0,0,0,.465-.477V16.242h-.766q-1.375,0-1.375,1.234a.754.754,0,0,0,.242.582A.876.876,0,0,0,13.066,18.281ZM21.223,20H18.582V8h2.641Z" transform="translate(-2861.878 -8453.039)" fill="#fff"/>
      <path id="Trazado_609098" data-name="Trazado 609098" d="M-37.969-2.125h-3.758L-42.383,0h-2.93l4.172-11.375h2.578L-34.359,0H-37.3Zm-3.1-2.117h2.445l-1.227-3.945ZM-28.539-6.07l-.867-.062A1.558,1.558,0,0,0-31-5.352V0h-2.633V-8.453h2.469l.086,1.086a2.039,2.039,0,0,1,1.852-1.242,2.567,2.567,0,0,1,.734.094Zm.469,1.758A5.074,5.074,0,0,1-27.2-7.469a2.874,2.874,0,0,1,2.414-1.141A2.454,2.454,0,0,1-22.7-7.547l.188-.906h2.281V3.25h-2.641V-.7A2.451,2.451,0,0,1-24.8.156,2.849,2.849,0,0,1-27.184-1,5.357,5.357,0,0,1-28.07-4.312Zm2.633.164q0,2.273,1.313,2.273a1.271,1.271,0,0,0,1.25-.687V-5.906a1.244,1.244,0,0,0-1.234-.672q-1.227,0-1.32,1.961ZM-13.711-.914A2.714,2.714,0,0,1-15.969.156a2.662,2.662,0,0,1-2.105-.809,3.4,3.4,0,0,1-.715-2.324V-8.453h2.633v5.492A.946.946,0,0,0-15.1-1.875a1.376,1.376,0,0,0,1.289-.648v-5.93h2.648V0h-2.469ZM-6.945,0H-9.586V-8.453h2.641Zm-2.8-10.633a1.175,1.175,0,0,1,.406-.922,1.533,1.533,0,0,1,1.055-.359,1.533,1.533,0,0,1,1.055.359,1.175,1.175,0,0,1,.406.922,1.175,1.175,0,0,1-.406.922,1.533,1.533,0,0,1-1.055.359,1.533,1.533,0,0,1-1.055-.359A1.175,1.175,0,0,1-9.742-10.633Zm7.484.078v2.1H-.867v1.828H-2.258v3.867a.987.987,0,0,0,.172.664.922.922,0,0,0,.68.188A3.862,3.862,0,0,0-.75-1.953V-.07A4.859,4.859,0,0,1-2.234.156,2.758,2.758,0,0,1-4.242-.484,2.626,2.626,0,0,1-4.891-2.43v-4.2H-5.969V-8.453h1.078v-2.1ZM4.258.156A4.345,4.345,0,0,1,1.109-1a4.006,4.006,0,0,1-1.2-3.02v-.219a5.191,5.191,0,0,1,.48-2.289,3.516,3.516,0,0,1,1.4-1.535,4.233,4.233,0,0,1,2.188-.543A3.659,3.659,0,0,1,6.789-7.5,4.344,4.344,0,0,1,7.82-4.422V-3.4H2.586A1.9,1.9,0,0,0,3.2-2.281a1.836,1.836,0,0,0,1.234.406A2.366,2.366,0,0,0,6.391-2.75l1.2,1.422A3.363,3.363,0,0,1,6.2-.246,4.713,4.713,0,0,1,4.258.156Zm-.3-6.734q-1.156,0-1.375,1.531H5.242v-.2a1.3,1.3,0,0,0-.32-.98A1.275,1.275,0,0,0,3.961-6.578Zm8.492,4.7a1.171,1.171,0,0,0,.859-.3,1.1,1.1,0,0,0,.3-.84h2.469a2.922,2.922,0,0,1-1,2.281,3.705,3.705,0,0,1-2.566.891A3.751,3.751,0,0,1,9.609-1,4.556,4.556,0,0,1,8.547-4.2v-.109A5.149,5.149,0,0,1,9.02-6.574a3.441,3.441,0,0,1,1.363-1.508,4.065,4.065,0,0,1,2.109-.527,3.658,3.658,0,0,1,2.617.914,3.242,3.242,0,0,1,.969,2.477H13.609a1.445,1.445,0,0,0-.32-1.008,1.106,1.106,0,0,0-.859-.352q-1.023,0-1.2,1.3a9.206,9.206,0,0,0-.055,1.141,3.616,3.616,0,0,0,.3,1.766A1.055,1.055,0,0,0,12.453-1.875Zm7.8-8.68v2.1h1.391v1.828H20.258v3.867a.987.987,0,0,0,.172.664.922.922,0,0,0,.68.188,3.862,3.862,0,0,0,.656-.047V-.07a4.859,4.859,0,0,1-1.484.227,2.758,2.758,0,0,1-2.008-.641,2.626,2.626,0,0,1-.648-1.945v-4.2H16.547V-8.453h1.078v-2.1ZM27.719-.914A2.714,2.714,0,0,1,25.461.156a2.662,2.662,0,0,1-2.105-.809,3.4,3.4,0,0,1-.715-2.324V-8.453h2.633v5.492a.946.946,0,0,0,1.055,1.086,1.376,1.376,0,0,0,1.289-.648v-5.93h2.648V0H27.8Zm9.1-5.156-.867-.062a1.558,1.558,0,0,0-1.594.781V0H31.727V-8.453H34.2l.086,1.086a2.039,2.039,0,0,1,1.852-1.242,2.567,2.567,0,0,1,.734.094ZM42.3,0a2.973,2.973,0,0,1-.25-.758,2.448,2.448,0,0,1-2.031.914,3,3,0,0,1-2.031-.723,2.3,2.3,0,0,1-.836-1.816,2.364,2.364,0,0,1,1.016-2.078,5.174,5.174,0,0,1,2.953-.7h.813v-.448q0-1.17-1.008-1.17a.824.824,0,0,0-.937.926H37.352a2.36,2.36,0,0,1,1.043-1.99,4.383,4.383,0,0,1,2.66-.765,3.843,3.843,0,0,1,2.555.789,2.743,2.743,0,0,1,.961,2.164v3.742A3.832,3.832,0,0,0,44.93-.133V0ZM40.648-1.719a1.469,1.469,0,0,0,.816-.211,1.322,1.322,0,0,0,.465-.477V-3.758h-.766q-1.375,0-1.375,1.234a.754.754,0,0,0,.242.582A.876.876,0,0,0,40.648-1.719ZM-28.617,15.7a4.989,4.989,0,0,1,.492-2.254,3.52,3.52,0,0,1,1.414-1.52,4.259,4.259,0,0,1,2.164-.531,3.887,3.887,0,0,1,2.992,1.176,4.512,4.512,0,0,1,1.094,3.2v.094A4.378,4.378,0,0,1-21.559,19a3.9,3.9,0,0,1-2.973,1.16,3.942,3.942,0,0,1-2.9-1.082,4.232,4.232,0,0,1-1.18-2.934Zm2.633.164a3.145,3.145,0,0,0,.367,1.719,1.223,1.223,0,0,0,1.086.547q1.406,0,1.438-2.164V15.7q0-2.273-1.453-2.273-1.32,0-1.43,1.961Zm14.531-.016a5.152,5.152,0,0,1-.859,3.2,2.878,2.878,0,0,1-2.422,1.117,2.5,2.5,0,0,1-2.078-1.023l-.109.867h-2.359V8h2.633v4.227a2.41,2.41,0,0,1,1.9-.836,2.879,2.879,0,0,1,2.438,1.133,5.179,5.179,0,0,1,.859,3.188Zm-2.641-.168a3.437,3.437,0,0,0-.324-1.735,1.093,1.093,0,0,0-1-.519,1.261,1.261,0,0,0-1.234.679v3.354a1.268,1.268,0,0,0,1.25.671,1.118,1.118,0,0,0,1.18-.9A6.5,6.5,0,0,0-14.094,15.676Zm6.633-4.129v8.742A3.068,3.068,0,0,1-8.32,22.6a3.3,3.3,0,0,1-2.375.813,5.607,5.607,0,0,1-1.242-.133V21.289a5.037,5.037,0,0,0,.742.07A.963.963,0,0,0-10.1,20.273V11.547ZM-10.3,9.367a1.175,1.175,0,0,1,.406-.922,1.533,1.533,0,0,1,1.055-.359,1.533,1.533,0,0,1,1.055.359,1.175,1.175,0,0,1,.406.922,1.175,1.175,0,0,1-.406.922,1.533,1.533,0,0,1-1.055.359,1.533,1.533,0,0,1-1.055-.359A1.175,1.175,0,0,1-10.3,9.367Zm8.414,10.789A4.345,4.345,0,0,1-5.031,19a4.006,4.006,0,0,1-1.2-3.02v-.219a5.191,5.191,0,0,1,.48-2.289,3.516,3.516,0,0,1,1.4-1.535,4.233,4.233,0,0,1,2.188-.543A3.659,3.659,0,0,1,.648,12.5,4.344,4.344,0,0,1,1.68,15.578V16.6H-3.555a1.9,1.9,0,0,0,.617,1.117,1.836,1.836,0,0,0,1.234.406A2.366,2.366,0,0,0,.25,17.25l1.2,1.422A3.363,3.363,0,0,1,.059,19.754,4.713,4.713,0,0,1-1.883,20.156Zm-.3-6.734q-1.156,0-1.375,1.531H-.9v-.2a1.3,1.3,0,0,0-.32-.98A1.275,1.275,0,0,0-2.18,13.422ZM5.8,9.445v2.1H7.2v1.828H5.8v3.867a.987.987,0,0,0,.172.664.922.922,0,0,0,.68.188,3.862,3.862,0,0,0,.656-.047V19.93a4.859,4.859,0,0,1-1.484.227,2.758,2.758,0,0,1-2.008-.641,2.626,2.626,0,0,1-.648-1.945v-4.2H2.094V11.547H3.172v-2.1ZM11.008,20H8.367V11.547h2.641ZM8.211,9.367a1.175,1.175,0,0,1,.406-.922,1.533,1.533,0,0,1,1.055-.359,1.533,1.533,0,0,1,1.055.359,1.249,1.249,0,0,1,0,1.844,1.533,1.533,0,0,1-1.055.359,1.533,1.533,0,0,1-1.055-.359A1.175,1.175,0,0,1,8.211,9.367ZM16,16.867l1.336-5.32h2.773L17.352,20H14.664l-2.758-8.453h2.781ZM20.445,15.7a4.989,4.989,0,0,1,.492-2.254,3.52,3.52,0,0,1,1.414-1.52,4.259,4.259,0,0,1,2.164-.531,3.887,3.887,0,0,1,2.992,1.176,4.512,4.512,0,0,1,1.094,3.2v.094A4.378,4.378,0,0,1,27.5,19a3.9,3.9,0,0,1-2.973,1.16,3.942,3.942,0,0,1-2.9-1.082,4.232,4.232,0,0,1-1.18-2.934Zm2.633.164a3.145,3.145,0,0,0,.367,1.719,1.223,1.223,0,0,0,1.086.547q1.406,0,1.438-2.164V15.7q0-2.273-1.453-2.273-1.32,0-1.43,1.961Z" transform="translate(-2672.878 -8324.039)" fill="#fff"/>
      <path id="Trazado_609099" data-name="Trazado 609099" d="M-34.332-2.125H-38.09L-38.746,0h-2.93L-37.5-11.375h2.578L-30.723,0h-2.945Zm-3.1-2.117h2.445l-1.227-3.945Zm9.461-4.211.086.992a2.867,2.867,0,0,1,2.414-1.148A2.412,2.412,0,0,1-23.5-7.82a3.757,3.757,0,0,1,.676,2.375V0h-2.641V-5.336a1.426,1.426,0,0,0-.258-.941,1.193,1.193,0,0,0-.937-.3,1.256,1.256,0,0,0-1.148.609V0h-2.633V-8.453ZM-16.605,0a2.973,2.973,0,0,1-.25-.758,2.448,2.448,0,0,1-2.031.914,3,3,0,0,1-2.031-.723,2.3,2.3,0,0,1-.836-1.816,2.364,2.364,0,0,1,1.016-2.078,5.174,5.174,0,0,1,2.953-.7h.813v-.448q0-1.17-1.008-1.17a.824.824,0,0,0-.937.926h-2.633a2.36,2.36,0,0,1,1.043-1.99,4.383,4.383,0,0,1,2.66-.765,3.843,3.843,0,0,1,2.555.789,2.743,2.743,0,0,1,.961,2.164v3.742a3.832,3.832,0,0,0,.359,1.781V0Zm-1.648-1.719a1.469,1.469,0,0,0,.816-.211,1.322,1.322,0,0,0,.465-.477V-3.758h-.766q-1.375,0-1.375,1.234a.754.754,0,0,0,.242.582A.876.876,0,0,0-18.254-1.719ZM-17.6-12h2.781l-2.172,2.453-2.148,0Zm7.5,12h-2.641V-12H-10.1Zm4.4,0H-8.34V-8.453H-5.7ZM-8.5-10.633a1.175,1.175,0,0,1,.406-.922,1.533,1.533,0,0,1,1.055-.359,1.533,1.533,0,0,1,1.055.359,1.175,1.175,0,0,1,.406.922,1.175,1.175,0,0,1-.406.922,1.533,1.533,0,0,1-1.055.359A1.533,1.533,0,0,1-8.09-9.711,1.175,1.175,0,0,1-8.5-10.633ZM.348-2.375A.608.608,0,0,0,0-2.914,5.348,5.348,0,0,0-1.34-3.336,6.092,6.092,0,0,1-2.965-3.91a2.722,2.722,0,0,1-.977-.863,2.061,2.061,0,0,1-.336-1.164,2.336,2.336,0,0,1,.961-1.918A3.958,3.958,0,0,1-.8-8.609a4.386,4.386,0,0,1,2.688.758A2.37,2.37,0,0,1,2.9-5.859H.262q0-1.016-1.07-1.016a1.061,1.061,0,0,0-.7.23.714.714,0,0,0-.281.574.655.655,0,0,0,.344.57,3.248,3.248,0,0,0,1.1.359A9.485,9.485,0,0,1,.98-4.8,2.406,2.406,0,0,1,2.887-2.453,2.214,2.214,0,0,1,1.859-.57,4.505,4.505,0,0,1-.8.156,4.6,4.6,0,0,1-2.738-.234,3.24,3.24,0,0,1-4.066-1.3a2.406,2.406,0,0,1-.477-1.414h2.461a1.017,1.017,0,0,0,.391.855,1.607,1.607,0,0,0,.961.27A1.264,1.264,0,0,0,.078-1.8.7.7,0,0,0,.348-2.375ZM6.895,0H4.254V-8.453H6.895ZM4.1-10.633a1.175,1.175,0,0,1,.406-.922,1.533,1.533,0,0,1,1.055-.359,1.533,1.533,0,0,1,1.055.359,1.175,1.175,0,0,1,.406.922,1.175,1.175,0,0,1-.406.922,1.533,1.533,0,0,1-1.055.359A1.533,1.533,0,0,1,4.5-9.711,1.175,1.175,0,0,1,4.1-10.633Zm8.844,8.258a.608.608,0,0,0-.352-.539,5.348,5.348,0,0,0-1.336-.422A6.092,6.092,0,0,1,9.629-3.91a2.722,2.722,0,0,1-.977-.863,2.061,2.061,0,0,1-.336-1.164,2.336,2.336,0,0,1,.961-1.918,3.958,3.958,0,0,1,2.516-.754,4.386,4.386,0,0,1,2.688.758A2.37,2.37,0,0,1,15.5-5.859H12.855q0-1.016-1.07-1.016a1.061,1.061,0,0,0-.7.23.714.714,0,0,0-.281.574.655.655,0,0,0,.344.57,3.248,3.248,0,0,0,1.1.359,9.485,9.485,0,0,1,1.324.336A2.406,2.406,0,0,1,15.48-2.453,2.214,2.214,0,0,1,14.453-.57a4.505,4.505,0,0,1-2.66.727A4.6,4.6,0,0,1,9.855-.234,3.24,3.24,0,0,1,8.527-1.3a2.406,2.406,0,0,1-.477-1.414h2.461a1.017,1.017,0,0,0,.391.855,1.607,1.607,0,0,0,.961.27,1.264,1.264,0,0,0,.809-.219A.7.7,0,0,0,12.941-2.375Zm7.422-1.914a5.164,5.164,0,0,1,.867-3.164,2.854,2.854,0,0,1,2.422-1.156,2.428,2.428,0,0,1,1.906.891V-12H28.2V0H25.832L25.7-.906A2.493,2.493,0,0,1,23.637.156,2.849,2.849,0,0,1,21.246-1,5.327,5.327,0,0,1,20.363-4.289ZM23-4.125q0,2.25,1.313,2.25a1.3,1.3,0,0,0,1.25-.734V-5.828a1.261,1.261,0,0,0-1.234-.75q-1.219,0-1.32,1.969ZM33.785.156A4.345,4.345,0,0,1,30.637-1a4.006,4.006,0,0,1-1.2-3.02v-.219a5.191,5.191,0,0,1,.48-2.289,3.516,3.516,0,0,1,1.4-1.535A4.233,4.233,0,0,1,33.5-8.609,3.659,3.659,0,0,1,36.316-7.5a4.344,4.344,0,0,1,1.031,3.082V-3.4H32.113a1.9,1.9,0,0,0,.617,1.117,1.836,1.836,0,0,0,1.234.406,2.366,2.366,0,0,0,1.953-.875l1.2,1.422A3.363,3.363,0,0,1,35.727-.246,4.713,4.713,0,0,1,33.785.156Zm-.3-6.734q-1.156,0-1.375,1.531H34.77v-.2a1.3,1.3,0,0,0-.32-.98A1.275,1.275,0,0,0,33.488-6.578ZM-16.148,15.844a5.152,5.152,0,0,1-.859,3.2,2.878,2.878,0,0,1-2.422,1.117,2.5,2.5,0,0,1-2.078-1.023l-.109.867h-2.359V8h2.633v4.227a2.41,2.41,0,0,1,1.9-.836,2.879,2.879,0,0,1,2.438,1.133,5.179,5.179,0,0,1,.859,3.188Zm-2.641-.168a3.437,3.437,0,0,0-.324-1.735,1.093,1.093,0,0,0-1-.519,1.261,1.261,0,0,0-1.234.679v3.354a1.268,1.268,0,0,0,1.25.671,1.118,1.118,0,0,0,1.18-.9A6.5,6.5,0,0,0-18.789,15.676Zm8.914-1.746-.867-.062a1.558,1.558,0,0,0-1.594.781V20h-2.633V11.547H-12.5l.086,1.086a2.039,2.039,0,0,1,1.852-1.242,2.567,2.567,0,0,1,.734.094Zm4.891,6.227A4.345,4.345,0,0,1-8.133,19a4.006,4.006,0,0,1-1.2-3.02v-.219a5.191,5.191,0,0,1,.48-2.289,3.516,3.516,0,0,1,1.4-1.535,4.233,4.233,0,0,1,2.188-.543A3.659,3.659,0,0,1-2.453,12.5a4.344,4.344,0,0,1,1.031,3.082V16.6H-6.656a1.9,1.9,0,0,0,.617,1.117,1.836,1.836,0,0,0,1.234.406,2.366,2.366,0,0,0,1.953-.875l1.2,1.422a3.363,3.363,0,0,1-1.395,1.082A4.713,4.713,0,0,1-4.984,20.156Zm-.3-6.734q-1.156,0-1.375,1.531H-4v-.2a1.3,1.3,0,0,0-.32-.98A1.275,1.275,0,0,0-5.281,13.422Zm8.492,4.7a1.171,1.171,0,0,0,.859-.3,1.1,1.1,0,0,0,.3-.84H6.836a2.922,2.922,0,0,1-1,2.281,3.705,3.705,0,0,1-2.566.891A3.751,3.751,0,0,1,.367,19,4.556,4.556,0,0,1-.7,15.8v-.109a5.149,5.149,0,0,1,.473-2.262,3.441,3.441,0,0,1,1.363-1.508,4.065,4.065,0,0,1,2.109-.527,3.658,3.658,0,0,1,2.617.914,3.242,3.242,0,0,1,.969,2.477H4.367a1.445,1.445,0,0,0-.32-1.008,1.106,1.106,0,0,0-.859-.352q-1.023,0-1.2,1.3a9.206,9.206,0,0,0-.055,1.141,3.616,3.616,0,0,0,.3,1.766A1.055,1.055,0,0,0,3.211,18.125Zm7.313-5.672a2.635,2.635,0,0,1,2.156-1.062,2.627,2.627,0,0,1,2.109.828,3.721,3.721,0,0,1,.727,2.445V20H12.875V14.727a1.488,1.488,0,0,0-.273-.988,1.175,1.175,0,0,0-.93-.316,1.266,1.266,0,0,0-1.148.516V20H7.891V8h2.633ZM21.742,20a2.973,2.973,0,0,1-.25-.758,2.448,2.448,0,0,1-2.031.914,3,3,0,0,1-2.031-.723,2.3,2.3,0,0,1-.836-1.816,2.364,2.364,0,0,1,1.016-2.078,5.174,5.174,0,0,1,2.953-.7h.813v-.448q0-1.17-1.008-1.17a.824.824,0,0,0-.937.926H16.8a2.36,2.36,0,0,1,1.043-1.99,4.383,4.383,0,0,1,2.66-.765,3.843,3.843,0,0,1,2.555.789,2.743,2.743,0,0,1,.961,2.164v3.742a3.832,3.832,0,0,0,.359,1.781V20Zm-1.648-1.719a1.469,1.469,0,0,0,.816-.211,1.322,1.322,0,0,0,.465-.477V16.242h-.766q-1.375,0-1.375,1.234a.754.754,0,0,0,.242.582A.876.876,0,0,0,20.094,18.281Z" transform="translate(-2846.878 -8176.438)" fill="#fff"/>
      <path id="Trazado_609100" data-name="Trazado 609100" d="M-42.922-11.375l2.539,7.914,2.531-7.914h3.609V0h-2.75V-2.656l.266-5.437L-39.477,0h-1.812l-2.758-8.1.266,5.445V0h-2.742V-11.375ZM-27.859,0a2.973,2.973,0,0,1-.25-.758,2.448,2.448,0,0,1-2.031.914,3,3,0,0,1-2.031-.723,2.3,2.3,0,0,1-.836-1.816,2.364,2.364,0,0,1,1.016-2.078,5.174,5.174,0,0,1,2.953-.7h.813v-.448q0-1.17-1.008-1.17a.824.824,0,0,0-.937.926H-32.8a2.36,2.36,0,0,1,1.043-1.99,4.383,4.383,0,0,1,2.66-.765,3.843,3.843,0,0,1,2.555.789,2.743,2.743,0,0,1,.961,2.164v3.742a3.832,3.832,0,0,0,.359,1.781V0Zm-1.648-1.719a1.469,1.469,0,0,0,.816-.211,1.322,1.322,0,0,0,.465-.477V-3.758h-.766q-1.375,0-1.375,1.234a.754.754,0,0,0,.242.582A.876.876,0,0,0-29.508-1.719Zm13.227-2.445a5.1,5.1,0,0,1-.887,3.145A2.843,2.843,0,0,1-19.562.156,2.437,2.437,0,0,1-21.477-.7V3.25h-2.633v-11.7h2.461l.078.781a2.437,2.437,0,0,1,1.992-.937,2.866,2.866,0,0,1,2.43,1.152,5.16,5.16,0,0,1,.867,3.168Zm-2.633-.164q0-2.25-1.312-2.25a1.239,1.239,0,0,0-1.25.672v3.328a1.279,1.279,0,0,0,1.266.7q1.258,0,1.3-2.172ZM-10.359,0a2.973,2.973,0,0,1-.25-.758,2.448,2.448,0,0,1-2.031.914,3,3,0,0,1-2.031-.723,2.3,2.3,0,0,1-.836-1.816,2.364,2.364,0,0,1,1.016-2.078,5.174,5.174,0,0,1,2.953-.7h.813v-.448q0-1.17-1.008-1.17a.824.824,0,0,0-.937.926H-15.3a2.36,2.36,0,0,1,1.043-1.99,4.383,4.383,0,0,1,2.66-.765,3.843,3.843,0,0,1,2.555.789,2.743,2.743,0,0,1,.961,2.164v3.742A3.832,3.832,0,0,0-7.727-.133V0Zm-1.648-1.719a1.469,1.469,0,0,0,.816-.211,1.322,1.322,0,0,0,.465-.477V-3.758h-.766q-1.375,0-1.375,1.234a.754.754,0,0,0,.242.582A.876.876,0,0,0-12.008-1.719Zm9.031-2.57a5.164,5.164,0,0,1,.867-3.164A2.854,2.854,0,0,1,.313-8.609a2.428,2.428,0,0,1,1.906.891V-12H4.859V0H2.492L2.359-.906A2.493,2.493,0,0,1,.3.156,2.849,2.849,0,0,1-2.094-1,5.327,5.327,0,0,1-2.977-4.289Zm2.633.164q0,2.25,1.313,2.25a1.3,1.3,0,0,0,1.25-.734V-5.828a1.261,1.261,0,0,0-1.234-.75q-1.219,0-1.32,1.969ZM10.445.156A4.345,4.345,0,0,1,7.3-1a4.006,4.006,0,0,1-1.2-3.02v-.219a5.191,5.191,0,0,1,.48-2.289,3.516,3.516,0,0,1,1.4-1.535,4.233,4.233,0,0,1,2.188-.543A3.659,3.659,0,0,1,12.977-7.5a4.344,4.344,0,0,1,1.031,3.082V-3.4H8.773a1.9,1.9,0,0,0,.617,1.117,1.836,1.836,0,0,0,1.234.406,2.366,2.366,0,0,0,1.953-.875l1.2,1.422A3.363,3.363,0,0,1,12.387-.246,4.713,4.713,0,0,1,10.445.156Zm-.3-6.734q-1.156,0-1.375,1.531H11.43v-.2a1.3,1.3,0,0,0-.32-.98A1.275,1.275,0,0,0,10.148-6.578Zm14.016.508L23.3-6.133a1.558,1.558,0,0,0-1.594.781V0H19.07V-8.453h2.469l.086,1.086a2.039,2.039,0,0,1,1.852-1.242,2.567,2.567,0,0,1,.734.094ZM30.148-.914A2.714,2.714,0,0,1,27.891.156a2.662,2.662,0,0,1-2.105-.809,3.4,3.4,0,0,1-.715-2.324V-8.453H27.7v5.492a.946.946,0,0,0,1.055,1.086,1.376,1.376,0,0,0,1.289-.648v-5.93H32.7V0H30.227ZM37.2-10.555v2.1h1.391v1.828H37.2v3.867a.987.987,0,0,0,.172.664.922.922,0,0,0,.68.188,3.862,3.862,0,0,0,.656-.047V-.07a4.859,4.859,0,0,1-1.484.227,2.758,2.758,0,0,1-2.008-.641A2.626,2.626,0,0,1,34.57-2.43v-4.2H33.492V-8.453H34.57v-2.1ZM44.391,0a2.973,2.973,0,0,1-.25-.758,2.448,2.448,0,0,1-2.031.914,3,3,0,0,1-2.031-.723,2.3,2.3,0,0,1-.836-1.816,2.364,2.364,0,0,1,1.016-2.078,5.174,5.174,0,0,1,2.953-.7h.813v-.448q0-1.17-1.008-1.17a.824.824,0,0,0-.937.926H39.445a2.36,2.36,0,0,1,1.043-1.99,4.383,4.383,0,0,1,2.66-.765A3.843,3.843,0,0,1,45.7-7.82a2.743,2.743,0,0,1,.961,2.164v3.742a3.832,3.832,0,0,0,.359,1.781V0ZM42.742-1.719a1.469,1.469,0,0,0,.816-.211,1.322,1.322,0,0,0,.465-.477V-3.758h-.766q-1.375,0-1.375,1.234a.754.754,0,0,0,.242.582A.876.876,0,0,0,42.742-1.719Z" transform="translate(-2677.346 -8017.039)" fill="#12263f"/>
      <path id="Trazado_609101" data-name="Trazado 609101" d="M18.9,10.172H14.59v2.719h5.094V15H11.848V3.625H19.7V5.742H14.59v2.4H18.9Zm4.945,1.7,1.336-5.32h2.773L25.2,15H22.512L19.754,6.547h2.781ZM33.387,15a2.973,2.973,0,0,1-.25-.758,2.448,2.448,0,0,1-2.031.914,3,3,0,0,1-2.031-.723,2.3,2.3,0,0,1-.836-1.816,2.364,2.364,0,0,1,1.016-2.078,5.174,5.174,0,0,1,2.953-.7h.813V9.388q0-1.17-1.008-1.17a.824.824,0,0,0-.937.926H28.441a2.36,2.36,0,0,1,1.043-1.99,4.383,4.383,0,0,1,2.66-.765A3.843,3.843,0,0,1,34.7,7.18a2.743,2.743,0,0,1,.961,2.164v3.742a3.832,3.832,0,0,0,.359,1.781V15Zm-1.648-1.719a1.469,1.469,0,0,0,.816-.211,1.322,1.322,0,0,0,.465-.477V11.242h-.766q-1.375,0-1.375,1.234a.754.754,0,0,0,.242.582A.876.876,0,0,0,31.738,13.281ZM39.895,15H37.254V3h2.641Zm6.656-.914a2.714,2.714,0,0,1-2.258,1.07,2.662,2.662,0,0,1-2.105-.809,3.4,3.4,0,0,1-.715-2.324V6.547h2.633v5.492a.946.946,0,0,0,1.055,1.086,1.376,1.376,0,0,0,1.289-.648V6.547H49.1V15H46.629ZM55.3,15a2.973,2.973,0,0,1-.25-.758,2.448,2.448,0,0,1-2.031.914,3,3,0,0,1-2.031-.723,2.3,2.3,0,0,1-.836-1.816,2.364,2.364,0,0,1,1.016-2.078,5.174,5.174,0,0,1,2.953-.7h.813V9.388q0-1.17-1.008-1.17a.824.824,0,0,0-.937.926H50.355A2.36,2.36,0,0,1,51.4,7.155a4.383,4.383,0,0,1,2.66-.765,3.843,3.843,0,0,1,2.555.789,2.743,2.743,0,0,1,.961,2.164v3.742a3.832,3.832,0,0,0,.359,1.781V15Zm-1.648-1.719a1.469,1.469,0,0,0,.816-.211,1.322,1.322,0,0,0,.465-.477V11.242h-.766q-1.375,0-1.375,1.234a.754.754,0,0,0,.242.582A.876.876,0,0,0,53.652,13.281Zm8.953-.156a1.171,1.171,0,0,0,.859-.3,1.1,1.1,0,0,0,.3-.84H66.23a2.922,2.922,0,0,1-1,2.281,3.705,3.705,0,0,1-2.566.891A3.751,3.751,0,0,1,59.762,14,4.556,4.556,0,0,1,58.7,10.8v-.109a5.149,5.149,0,0,1,.473-2.262,3.441,3.441,0,0,1,1.363-1.508,4.065,4.065,0,0,1,2.109-.527,3.658,3.658,0,0,1,2.617.914,3.242,3.242,0,0,1,.969,2.477H63.762a1.445,1.445,0,0,0-.32-1.008,1.106,1.106,0,0,0-.859-.352q-1.023,0-1.2,1.3a9.206,9.206,0,0,0-.055,1.141,3.616,3.616,0,0,0,.3,1.766A1.055,1.055,0,0,0,62.605,13.125ZM70.121,15H67.48V6.547h2.641Zm-2.8-10.633a1.175,1.175,0,0,1,.406-.922,1.727,1.727,0,0,1,2.109,0,1.175,1.175,0,0,1,.406.922,1.175,1.175,0,0,1-.406.922,1.727,1.727,0,0,1-2.109,0A1.175,1.175,0,0,1,67.324,4.367ZM71.41,10.7A4.989,4.989,0,0,1,71.9,8.441a3.52,3.52,0,0,1,1.414-1.52,4.259,4.259,0,0,1,2.164-.531,3.887,3.887,0,0,1,2.992,1.176,4.512,4.512,0,0,1,1.094,3.2v.094A4.378,4.378,0,0,1,78.469,14a3.9,3.9,0,0,1-2.973,1.16,3.942,3.942,0,0,1-2.9-1.082,4.232,4.232,0,0,1-1.18-2.934Zm2.633.164a3.145,3.145,0,0,0,.367,1.719,1.223,1.223,0,0,0,1.086.547q1.406,0,1.438-2.164V10.7q0-2.273-1.453-2.273-1.32,0-1.43,1.961ZM75.84,3h2.781L76.449,5.453l-2.148,0Zm7.3,3.547.086.992a2.867,2.867,0,0,1,2.414-1.148,2.412,2.412,0,0,1,1.973.789,3.757,3.757,0,0,1,.676,2.375V15H85.652V9.664a1.426,1.426,0,0,0-.258-.941,1.193,1.193,0,0,0-.937-.3,1.256,1.256,0,0,0-1.148.609V15H80.676V6.547ZM6.328,30.711A5.164,5.164,0,0,1,7.2,27.547a2.854,2.854,0,0,1,2.422-1.156,2.428,2.428,0,0,1,1.906.891V23h2.641V35H11.8l-.133-.906A2.493,2.493,0,0,1,9.6,35.156,2.849,2.849,0,0,1,7.211,34,5.327,5.327,0,0,1,6.328,30.711Zm2.633.164q0,2.25,1.313,2.25a1.3,1.3,0,0,0,1.25-.734V29.172a1.261,1.261,0,0,0-1.234-.75q-1.219,0-1.32,1.969ZM19.75,35.156A4.345,4.345,0,0,1,16.6,34a4.006,4.006,0,0,1-1.2-3.02v-.219a5.191,5.191,0,0,1,.48-2.289,3.516,3.516,0,0,1,1.4-1.535,4.233,4.233,0,0,1,2.188-.543A3.659,3.659,0,0,1,22.281,27.5a4.344,4.344,0,0,1,1.031,3.082V31.6H18.078a1.9,1.9,0,0,0,.617,1.117,1.836,1.836,0,0,0,1.234.406,2.366,2.366,0,0,0,1.953-.875l1.2,1.422a3.363,3.363,0,0,1-1.395,1.082A4.713,4.713,0,0,1,19.75,35.156Zm-.3-6.734q-1.156,0-1.375,1.531h2.656v-.2a1.3,1.3,0,0,0-.32-.98A1.275,1.275,0,0,0,19.453,28.422ZM27.148,35H24.508V23h2.641Zm9.7.156A4.345,4.345,0,0,1,33.7,34a4.006,4.006,0,0,1-1.2-3.02v-.219a5.191,5.191,0,0,1,.48-2.289,3.516,3.516,0,0,1,1.4-1.535,4.233,4.233,0,0,1,2.188-.543A3.659,3.659,0,0,1,39.375,27.5a4.344,4.344,0,0,1,1.031,3.082V31.6H35.172a1.9,1.9,0,0,0,.617,1.117,1.836,1.836,0,0,0,1.234.406,2.366,2.366,0,0,0,1.953-.875l1.2,1.422a3.363,3.363,0,0,1-1.395,1.082A4.713,4.713,0,0,1,36.844,35.156Zm-.3-6.734q-1.156,0-1.375,1.531h2.656v-.2a1.3,1.3,0,0,0-.32-.98A1.275,1.275,0,0,0,36.547,28.422Zm7.75-1.875v8.742a3.068,3.068,0,0,1-.859,2.313,3.3,3.3,0,0,1-2.375.813,5.607,5.607,0,0,1-1.242-.133V36.289a5.037,5.037,0,0,0,.742.07.963.963,0,0,0,1.094-1.086V26.547Zm-2.836-2.18a1.175,1.175,0,0,1,.406-.922,1.727,1.727,0,0,1,2.109,0,1.249,1.249,0,0,1,0,1.844,1.727,1.727,0,0,1-2.109,0A1.175,1.175,0,0,1,41.461,24.367Zm8.414,10.789A4.345,4.345,0,0,1,46.727,34a4.006,4.006,0,0,1-1.2-3.02v-.219A5.191,5.191,0,0,1,46,28.469a3.516,3.516,0,0,1,1.4-1.535,4.233,4.233,0,0,1,2.188-.543A3.659,3.659,0,0,1,52.406,27.5a4.344,4.344,0,0,1,1.031,3.082V31.6H48.2a1.9,1.9,0,0,0,.617,1.117,1.836,1.836,0,0,0,1.234.406,2.366,2.366,0,0,0,1.953-.875l1.2,1.422a3.363,3.363,0,0,1-1.395,1.082A4.713,4.713,0,0,1,49.875,35.156Zm-.3-6.734q-1.156,0-1.375,1.531h2.656v-.2a1.3,1.3,0,0,0-.32-.98A1.275,1.275,0,0,0,49.578,28.422Zm10.031.508-.867-.062a1.558,1.558,0,0,0-1.594.781V35H54.516V26.547h2.469l.086,1.086a2.039,2.039,0,0,1,1.852-1.242,2.567,2.567,0,0,1,.734.094Zm4.375,4.2a1.171,1.171,0,0,0,.859-.3,1.1,1.1,0,0,0,.3-.84h2.469a2.923,2.923,0,0,1-1,2.281,3.705,3.705,0,0,1-2.566.891A3.751,3.751,0,0,1,61.141,34a4.556,4.556,0,0,1-1.062-3.2v-.109a5.149,5.149,0,0,1,.473-2.262,3.441,3.441,0,0,1,1.363-1.508,4.065,4.065,0,0,1,2.109-.527,3.658,3.658,0,0,1,2.617.914,3.242,3.242,0,0,1,.969,2.477H65.141a1.445,1.445,0,0,0-.32-1.008,1.106,1.106,0,0,0-.859-.352q-1.023,0-1.2,1.3a9.206,9.206,0,0,0-.055,1.141,3.616,3.616,0,0,0,.3,1.766A1.055,1.055,0,0,0,63.984,33.125ZM71.5,35H68.859V26.547H71.5ZM68.7,24.367a1.175,1.175,0,0,1,.406-.922,1.727,1.727,0,0,1,2.109,0,1.249,1.249,0,0,1,0,1.844,1.727,1.727,0,0,1-2.109,0A1.175,1.175,0,0,1,68.7,24.367ZM76.7,33.125a1.171,1.171,0,0,0,.859-.3,1.1,1.1,0,0,0,.3-.84H80.32a2.923,2.923,0,0,1-1,2.281,3.705,3.705,0,0,1-2.566.891A3.751,3.751,0,0,1,73.852,34a4.556,4.556,0,0,1-1.062-3.2v-.109a5.149,5.149,0,0,1,.473-2.262,3.441,3.441,0,0,1,1.363-1.508,4.065,4.065,0,0,1,2.109-.527,3.658,3.658,0,0,1,2.617.914,3.242,3.242,0,0,1,.969,2.477H77.852a1.445,1.445,0,0,0-.32-1.008,1.106,1.106,0,0,0-.859-.352q-1.023,0-1.2,1.3a9.206,9.206,0,0,0-.055,1.141,3.616,3.616,0,0,0,.3,1.766A1.055,1.055,0,0,0,76.7,33.125ZM84.211,35H81.57V26.547h2.641Zm-2.8-10.633a1.175,1.175,0,0,1,.406-.922,1.727,1.727,0,0,1,2.109,0,1.249,1.249,0,0,1,0,1.844,1.727,1.727,0,0,1-2.109,0A1.175,1.175,0,0,1,81.414,24.367ZM85.5,30.7a4.989,4.989,0,0,1,.492-2.254,3.52,3.52,0,0,1,1.414-1.52,4.259,4.259,0,0,1,2.164-.531,3.887,3.887,0,0,1,2.992,1.176,4.512,4.512,0,0,1,1.094,3.2v.094A4.378,4.378,0,0,1,92.559,34a3.9,3.9,0,0,1-2.973,1.16,3.942,3.942,0,0,1-2.9-1.082,4.232,4.232,0,0,1-1.18-2.934Zm2.633.164a3.145,3.145,0,0,0,.367,1.719,1.223,1.223,0,0,0,1.086.547q1.406,0,1.438-2.164V30.7q0-2.273-1.453-2.273-1.32,0-1.43,1.961Z" transform="translate(-2888.44 -7891.039)" fill="#12263f"/>
    </g>
  </g>
</svg>
