<svg xmlns="http://www.w3.org/2000/svg" xmlns:xlink="http://www.w3.org/1999/xlink" width="62" height="62" viewBox="0 0 62 62">
  <defs>
    <clipPath id="clip-path">
      <rect id="Rect치ngulo_375571" data-name="Rect치ngulo 375571" width="43.484" height="43.5" fill="none"/>
    </clipPath>
  </defs>
  <g id="Grupo_1015239" data-name="Grupo 1015239" transform="translate(-521 -12906)">
    <g id="Grupo_1014855" data-name="Grupo 1014855" transform="translate(136.001 10848)">
      <path id="Uni칩n_12" data-name="Uni칩n 12" d="M31,0A31,31,0,1,1,0,31,31,31,0,0,1,31,0Z" transform="translate(384.999 2058)" fill="#c1e29a"/>
    </g>
    <g id="Grupo_1015869" data-name="Grupo 1015869" transform="translate(529.009 12914)">
      <g id="Grupo_1015868" data-name="Grupo 1015868" clip-path="url(#clip-path)">
        <path id="Trazado_606206" data-name="Trazado 606206" d="M30.54,26.181l.57-.522c.038-.035.079-.068.121-.1.426-.317.645-.31,1.02.061.858.851,1.709,1.709,2.565,2.562.837.835,1.679,1.665,2.515,2.5.56.561,1.11,1.132,1.669,1.694.962.967,1.941,1.917,2.887,2.9a5.332,5.332,0,0,1,1.589,4.055,4.182,4.182,0,0,1-3.81,4.135,5.112,5.112,0,0,1-4.01-1.312c-.723-.621-1.379-1.321-2.056-1.995q-2.937-2.923-5.867-5.853-.966-.964-1.936-1.925-.069-.069-.136-.14c-.393-.418-.411-.635-.053-1.087.18-.227.392-.429.609-.663-.291-.285-.588-.574-.881-.866-.373-.371-.748-.741-1.114-1.12-.106-.11-.178-.139-.322-.045a15.459,15.459,0,0,1-9.456,2.481A15.7,15.7,0,0,1,3.6,25.382,15.065,15.065,0,0,1,.684,19.969,15.551,15.551,0,0,1,0,15.306,14.956,14.956,0,0,1,.421,11.99a15.813,15.813,0,0,1,.955-2.854,15.376,15.376,0,0,1,3.1-4.523A15.213,15.213,0,0,1,10.94.7a14.949,14.949,0,0,1,6.1-.608A15.3,15.3,0,0,1,27.33,5.5a15.139,15.139,0,0,1,3.159,6.211,15.39,15.39,0,0,1,.418,5,15.167,15.167,0,0,1-2.418,7.15.223.223,0,0,0,.038.341c.651.636,1.293,1.28,1.939,1.92a.781.781,0,0,0,.074.055M15.642,1.349a13.58,13.58,0,0,0-10,3.978A13.692,13.692,0,0,0,1.383,15.464a13.651,13.651,0,0,0,4.16,10.059,13.737,13.737,0,0,0,9.946,4.088,14.131,14.131,0,0,0,.154-28.261m23.947,33.46a1.845,1.845,0,0,1-.14.192c-.438.444-.868.9-1.32,1.324-.38.36-.688.331-1.063-.041-.539-.535-1.087-1.063-1.628-1.6-.384-.379-.771-.755-1.141-1.146a.708.708,0,0,1,.019-1.072c.15-.153.309-.3.457-.453.321-.337.637-.677.921-.98l-1.105-1.154c-.052.049-.1.091-.146.137l-4.294,4.307c-.269.27-.268.272,0,.542.3.3.6.589.907.9.067-.074.118-.133.173-.188.438-.444.871-.894,1.319-1.327a.657.657,0,0,1,.947-.03,2.565,2.565,0,0,1,.214.2q1.251,1.27,2.5,2.543a1.92,1.92,0,0,1,.257.316.57.57,0,0,1-.082.793c-.308.317-.626.623-.938.936-.187.188-.369.381-.561.578l1.158,1.138,4.736-4.681-1.192-1.231M31.7,26.975l-4.676,4.683L28.99,33.62l4.667-4.67L31.7,26.975M37.088,41.6c.15.07.295.139.442.2a3.743,3.743,0,0,0,2.765.136,2.764,2.764,0,0,0,1.826-2.615c-.01-.188,0-.377.009-.565a3.85,3.85,0,0,0-.531-1.713L37.088,41.6m-9.9-12.042c.03-.026.072-.056.107-.092q1.1-1.1,2.21-2.2c.087-.086.083-.143,0-.223-.264-.26-.528-.519-.785-.787-.359-.374-.712-.755-1.1-1.165A14.149,14.149,0,0,1,25.16,27.56l2.025,2M32,36.707c.133.14.272.292.417.438.453.456.91.909,1.362,1.366.117.118.207.144.331,0,.15-.178.33-.331.494-.5.117-.12.321-.247.319-.368s-.189-.268-.31-.388c-.529-.526-1.063-1.046-1.615-1.588l-1,1.042m4.663-4.728-.954.986c.627.646,1.224,1.26,1.821,1.876.061.063.115.133.2.038l.878-.932-1.95-1.968" transform="translate(0 0)"/>
        <path id="Trazado_606207" data-name="Trazado 606207" d="M23.1,8.607a14.131,14.131,0,0,1-.154,28.261A13.737,13.737,0,0,1,13,32.78,13.65,13.65,0,0,1,8.84,22.722,13.691,13.691,0,0,1,13.1,12.585a13.58,13.58,0,0,1,10-3.978m-.142,1.406A12.718,12.718,0,1,0,35.668,22.532,12.751,12.751,0,0,0,22.957,10.013" transform="translate(-7.457 -7.258)" fill="#fff"/>
        <path id="Trazado_606208" data-name="Trazado 606208" d="M201.049,195.91l1.192,1.231-4.736,4.681-1.158-1.138c.191-.2.374-.39.561-.578.312-.313.63-.619.938-.936a.57.57,0,0,0,.082-.793,1.918,1.918,0,0,0-.257-.316q-1.247-1.274-2.5-2.543a2.55,2.55,0,0,0-.214-.2.657.657,0,0,0-.947.03c-.448.434-.88.884-1.318,1.327-.055.055-.105.115-.173.188-.31-.306-.61-.6-.907-.9-.272-.27-.272-.272,0-.542l4.294-4.307c.045-.045.093-.088.146-.137l1.105,1.154c-.284.3-.6.643-.921.98-.148.155-.307.3-.457.453a.708.708,0,0,0-.019,1.072c.371.391.758.768,1.141,1.146.541.534,1.088,1.061,1.628,1.6.375.372.683.4,1.063.041.452-.428.883-.88,1.321-1.324a1.848,1.848,0,0,0,.14-.192" transform="translate(-161.459 -161.101)" fill="#fff"/>
        <path id="Trazado_606209" data-name="Trazado 606209" d="M177.431,172.4l1.952,1.976-4.667,4.67-1.961-1.963,4.676-4.683" transform="translate(-145.725 -145.43)" fill="#fff"/>
        <path id="Trazado_606210" data-name="Trazado 606210" d="M237.043,241.343l4.511-4.553a3.848,3.848,0,0,1,.531,1.713c-.006.188-.019.378-.009.565a2.764,2.764,0,0,1-1.826,2.615,3.742,3.742,0,0,1-2.765-.136c-.147-.065-.291-.135-.442-.2" transform="translate(-199.955 -199.741)" fill="#fff"/>
        <path id="Trazado_606211" data-name="Trazado 606211" d="M162.834,164.835l-2.025-2a14.133,14.133,0,0,0,2.461-2.469c.385.41.738.791,1.1,1.165.256.267.521.527.785.787.082.08.086.137,0,.223q-1.109,1.1-2.21,2.2c-.036.036-.077.066-.107.092" transform="translate(-135.649 -135.275)" fill="#fff"/>
        <path id="Trazado_606212" data-name="Trazado 606212" d="M204.507,228.991l1-1.042c.552.542,1.086,1.063,1.615,1.588.121.12.308.257.31.388s-.2.248-.319.368c-.163.167-.343.32-.494.5-.125.148-.214.122-.331,0-.452-.457-.909-.909-1.362-1.365-.145-.146-.284-.3-.417-.438" transform="translate(-172.509 -192.284)" fill="#fff"/>
        <path id="Trazado_606213" data-name="Trazado 606213" d="M229.168,204.389l1.95,1.968-.878.932c-.09.1-.143.025-.2-.038-.6-.616-1.193-1.23-1.821-1.876l.954-.986" transform="translate(-192.507 -172.41)" fill="#fff"/>
        <path id="Trazado_606214" data-name="Trazado 606214" d="M30.539,17.607a12.718,12.718,0,1,1-12.711,12.73,12.753,12.753,0,0,1,12.711-12.73m11.33,12.735A11.356,11.356,0,1,0,30.549,41.71,11.343,11.343,0,0,0,41.868,30.342" transform="translate(-15.039 -14.852)"/>
        <path id="Trazado_606215" data-name="Trazado 606215" d="M49.036,37.616A11.356,11.356,0,1,1,37.68,26.23,11.353,11.353,0,0,1,49.036,37.616M32.1,29.437a2.019,2.019,0,0,0-.4.246q-.962.94-1.9,1.9a.59.59,0,0,0-.1.829c.248.471.486.948.76,1.4a.831.831,0,0,1,.074.963.576.576,0,0,1-.359.308q-.918.256-1.827.543a.645.645,0,0,0-.521.705q-.01,1.267,0,2.535a.657.657,0,0,0,.525.706c.55.176,1.1.356,1.656.5.3.078.534.174.584.512a.262.262,0,0,0,.048.106.323.323,0,0,1-.008.379c-.319.58-.632,1.163-.946,1.746a.545.545,0,0,0,.073.732q.96,1,1.944,1.971a.628.628,0,0,0,.839.091c.451-.243.91-.475,1.347-.741a.856.856,0,0,1,1.028-.084c.02.014.058.007.073.023.06.065.142.127.165.205.194.646.365,1.3.567,1.942a.667.667,0,0,0,.673.5c.656.007,1.313.016,1.969.019a6.544,6.544,0,0,0,.7-.021.645.645,0,0,0,.624-.493c.146-.524.339-1.037.466-1.565.088-.368.215-.654.628-.717a.08.08,0,0,0,.035-.017.246.246,0,0,1,.3,0c.581.317,1.166.626,1.752.935a.637.637,0,0,0,.854-.095q.958-.93,1.888-1.888a.616.616,0,0,0,.1-.852c-.239-.446-.463-.9-.741-1.325a.9.9,0,0,1-.066-1.086.387.387,0,0,1,.231-.2q.971-.283,1.936-.586a.612.612,0,0,0,.489-.66c.008-.871,0-1.742,0-2.612a.64.64,0,0,0-.494-.663c-.514-.16-1.02-.356-1.545-.466a.855.855,0,0,1-.756-.666.452.452,0,0,1,.017-.382q.479-.847.941-1.7a.633.633,0,0,0-.1-.823q-.958-.985-1.938-1.949a.558.558,0,0,0-.731-.088c-.543.292-1.092.573-1.627.879-.229.131-.433.215-.672.04a.411.411,0,0,0-.183-.062c-.133-.018-.176-.1-.209-.218-.193-.659-.392-1.317-.59-1.975a.628.628,0,0,0-.547-.461,1.837,1.837,0,0,0-.272-.023c-.773-.007-1.547-.017-2.32-.017a.758.758,0,0,0-.873.659c-.175.611-.336,1.226-.506,1.838a.222.222,0,0,1-.086.136,4.992,4.992,0,0,1-.578.23.323.323,0,0,1-.213-.049c-.6-.317-1.187-.643-1.783-.959a2.982,2.982,0,0,0-.394-.137" transform="translate(-22.206 -22.126)" fill="#fff"/>
        <path id="Trazado_606216" data-name="Trazado 606216" d="M40.136,37.467a2.973,2.973,0,0,1,.394.137c.6.316,1.188.641,1.783.959a.322.322,0,0,0,.213.049,4.936,4.936,0,0,0,.578-.23.223.223,0,0,0,.086-.136c.17-.612.331-1.227.506-1.838a.758.758,0,0,1,.873-.659c.773,0,1.547.009,2.32.017a1.837,1.837,0,0,1,.272.023.627.627,0,0,1,.547.461c.2.658.4,1.316.59,1.975.034.115.077.2.209.218a.408.408,0,0,1,.183.062c.239.174.443.09.672-.041.535-.306,1.084-.587,1.627-.879a.559.559,0,0,1,.731.088q.978.966,1.938,1.949a.633.633,0,0,1,.1.823q-.463.857-.941,1.7a.452.452,0,0,0-.017.382.855.855,0,0,0,.756.666c.524.11,1.031.306,1.545.466a.64.64,0,0,1,.494.663c0,.871.007,1.742,0,2.613a.612.612,0,0,1-.489.66q-.965.3-1.936.586a.387.387,0,0,0-.232.2A.9.9,0,0,0,53,49.475c.278.421.5.879.741,1.325a.616.616,0,0,1-.1.852q-.929.959-1.888,1.888a.637.637,0,0,1-.854.095c-.585-.309-1.17-.619-1.752-.936a.246.246,0,0,0-.3,0,.083.083,0,0,1-.035.017c-.412.062-.539.349-.628.717-.127.529-.32,1.041-.466,1.565a.644.644,0,0,1-.624.493,6.583,6.583,0,0,1-.7.022c-.656,0-1.312-.012-1.969-.019a.667.667,0,0,1-.673-.5c-.2-.643-.373-1.3-.567-1.942a.64.64,0,0,0-.165-.205c-.015-.016-.053-.009-.073-.023a.856.856,0,0,0-1.028.084c-.437.266-.9.5-1.347.741a.628.628,0,0,1-.839-.092q-.985-.972-1.944-1.971a.545.545,0,0,1-.073-.732c.314-.583.627-1.166.946-1.746a.323.323,0,0,0,.008-.379.26.26,0,0,1-.047-.106c-.05-.338-.289-.434-.584-.512-.558-.147-1.107-.327-1.656-.5a.657.657,0,0,1-.525-.706q-.011-1.267,0-2.535a.645.645,0,0,1,.52-.705c.605-.193,1.215-.372,1.827-.543a.576.576,0,0,0,.359-.308.83.83,0,0,0-.074-.963c-.274-.455-.511-.933-.76-1.4a.59.59,0,0,1,.1-.829q.94-.962,1.9-1.9a2.02,2.02,0,0,1,.4-.246M39.124,51.009c.352.381.7.748,1.037,1.127a.192.192,0,0,0,.291.051c.542-.307,1.093-.6,1.637-.9a.6.6,0,0,1,.592-.015,8.282,8.282,0,0,0,1,.419.933.933,0,0,1,.675.7c.148.537.321,1.068.482,1.6a.212.212,0,0,0,.241.168c.442-.009.884-.007,1.326,0a.2.2,0,0,0,.231-.168c.156-.568.329-1.132.491-1.7a.743.743,0,0,1,.46-.516c.366-.149.733-.3,1.086-.475a.737.737,0,0,1,.737.019c.542.295,1.089.578,1.63.873a.161.161,0,0,0,.232-.033q.49-.5.993-.992a.152.152,0,0,0,.035-.217c-.131-.231-.257-.466-.383-.7-.188-.348-.377-.7-.56-1.046a.541.541,0,0,1,.01-.5,10.233,10.233,0,0,0,.429-1.042.88.88,0,0,1,.659-.64c.551-.146,1.093-.325,1.641-.481.133-.038.166-.108.163-.238-.008-.4,0-.793,0-1.19,0-.324,0-.332-.309-.427-.508-.155-1.019-.306-1.532-.444a.817.817,0,0,1-.571-.534c-.138-.343-.278-.686-.438-1.018a.72.72,0,0,1,0-.7c.257-.473.51-.949.763-1.424.195-.365.2-.372-.1-.654-.32-.3-.652-.593-.975-.885-.555.3-1.172.627-1.787.962a.526.526,0,0,1-.5.007,11.137,11.137,0,0,0-1.05-.411.9.9,0,0,1-.642-.684c-.15-.544-.332-1.078-.492-1.619a.207.207,0,0,0-.242-.165c-.442.006-.884.008-1.325,0a.179.179,0,0,0-.21.144c-.168.565-.346,1.128-.509,1.695a.786.786,0,0,1-.5.55c-.373.149-.743.308-1.1.484a.605.605,0,0,1-.607-.008c-.6-.332-1.206-.657-1.819-.99L39.1,40.207c.351.665.7,1.31,1.027,1.963a.442.442,0,0,1-.013.31c-.133.366-.315.716-.417,1.089a.9.9,0,0,1-.693.681c-.548.158-1.09.337-1.637.5-.128.038-.151.111-.149.23.006.428.012.857,0,1.286a.234.234,0,0,0,.2.276c.561.159,1.119.33,1.679.49a.75.75,0,0,1,.516.486,11.127,11.127,0,0,0,.475,1.107.616.616,0,0,1-.015.64l-.948,1.744" transform="translate(-30.243 -30.156)"/>
        <path id="Trazado_606217" data-name="Trazado 606217" d="M46.488,58.355l.948-1.744a.616.616,0,0,0,.015-.64,11.079,11.079,0,0,1-.475-1.107.75.75,0,0,0-.516-.486c-.561-.161-1.119-.331-1.679-.49a.234.234,0,0,1-.2-.276c.013-.428.007-.857,0-1.286,0-.119.021-.192.149-.23.547-.162,1.089-.341,1.637-.5a.9.9,0,0,0,.692-.681c.1-.373.284-.723.417-1.089a.442.442,0,0,0,.013-.31c-.33-.653-.676-1.3-1.027-1.963l1.218-1.219c.613.333,1.218.657,1.819.99a.6.6,0,0,0,.607.008c.361-.176.731-.335,1.1-.484a.786.786,0,0,0,.5-.55c.163-.567.342-1.129.509-1.695a.179.179,0,0,1,.21-.144c.442.007.884.006,1.325,0a.207.207,0,0,1,.242.165c.16.541.342,1.075.492,1.618a.9.9,0,0,0,.642.685,11.181,11.181,0,0,1,1.05.411.526.526,0,0,0,.5-.007c.614-.335,1.232-.664,1.787-.962.322.292.655.582.975.885.3.282.293.289.1.654-.253.475-.506.951-.763,1.424a.72.72,0,0,0,0,.7c.16.333.3.675.438,1.018a.817.817,0,0,0,.571.534c.513.138,1.024.289,1.532.444.312.1.309.1.309.427,0,.4,0,.793,0,1.189,0,.13-.03.2-.163.238-.548.156-1.091.335-1.641.481a.881.881,0,0,0-.659.641,10.235,10.235,0,0,1-.429,1.042.541.541,0,0,0-.01.5c.183.35.372.7.56,1.046.126.234.251.469.383.7a.152.152,0,0,1-.035.217q-.5.489-.993.992a.161.161,0,0,1-.232.033c-.541-.3-1.089-.578-1.63-.873a.737.737,0,0,0-.737-.019c-.354.176-.721.326-1.086.475a.743.743,0,0,0-.46.516c-.162.567-.335,1.13-.491,1.7a.2.2,0,0,1-.231.168c-.442-.006-.884-.008-1.326,0a.212.212,0,0,1-.241-.168c-.161-.534-.335-1.064-.482-1.6a.933.933,0,0,0-.675-.7,8.293,8.293,0,0,1-1-.419.6.6,0,0,0-.592.015c-.544.3-1.095.595-1.637.9a.192.192,0,0,1-.291-.051c-.335-.38-.685-.747-1.038-1.127M58.57,52.988a5.487,5.487,0,1,0-5.451,5.468,5.514,5.514,0,0,0,5.451-5.468" transform="translate(-37.607 -37.503)" fill="#fff"/>
        <path id="Trazado_606218" data-name="Trazado 606218" d="M74.818,69.25a5.487,5.487,0,0,1-10.974-.032,5.487,5.487,0,1,1,10.974.032m-9.587-.021a4.121,4.121,0,1,0,4.093-4.1,4.093,4.093,0,0,0-4.093,4.1" transform="translate(-53.855 -53.764)"/>
        <path id="Trazado_606219" data-name="Trazado 606219" d="M72.7,76.746a4.121,4.121,0,1,1,4.1,4.13,4.084,4.084,0,0,1-4.1-4.13" transform="translate(-61.322 -61.281)" fill="#fff"/>
      </g>
    </g>
  </g>
</svg>
