<svg xmlns="http://www.w3.org/2000/svg" xmlns:xlink="http://www.w3.org/1999/xlink" width="62" height="62" viewBox="0 0 62 62">
  <defs>
    <clipPath id="clip-path">
      <rect id="Rectángulo_375575" data-name="Rectángulo 375575" width="46.488" height="35.822" fill="none"/>
    </clipPath>
  </defs>
  <g id="Grupo_1015241" data-name="Grupo 1015241" transform="translate(-1265 -12906)">
    <g id="Grupo_1014859" data-name="Grupo 1014859" transform="translate(880.001 10848)">
      <path id="Unión_12" data-name="Unión 12" d="M31,0A31,31,0,1,1,0,31,31,31,0,0,1,31,0Z" transform="translate(384.999 2058)" fill="#c1e29a"/>
    </g>
    <g id="Grupo_1015875" data-name="Grupo 1015875" transform="translate(1273.413 12917.201)">
      <g id="Grupo_1015874" data-name="Grupo 1015874" clip-path="url(#clip-path)">
        <path id="Trazado_606239" data-name="Trazado 606239" d="M8.483,3.01h.21c1.4,0,2.8,0,4.207.011.157,0,.178-.088.217-.193a2.77,2.77,0,0,1,5.15-.248.627.627,0,0,0,.692.44q12.486-.02,24.971,0a3.9,3.9,0,0,1,1.206.188,1.884,1.884,0,0,1,1.308,1.669,4.515,4.515,0,0,1,.042.6q0,13.874,0,27.749a3.974,3.974,0,0,1-.1.968,1.947,1.947,0,0,1-1.758,1.536,7.356,7.356,0,0,1-1.014.086q-13.683.007-27.366,0a1.063,1.063,0,0,1-.685-.2.629.629,0,0,1-.243-.7.6.6,0,0,1,.592-.465c.242-.012.486,0,.729,0l8.518,0h.87a1.221,1.221,0,0,0-.077-.129q-3.2-4.156-6.4-8.31-2.342-3.043-4.685-6.084a.342.342,0,0,0-.242-.1c-1.972-.005-3.943,0-5.914-.009-.187,0-.228.053-.228.233.006,2.262,0,4.524,0,6.786A2.006,2.006,0,0,1,7.7,28.512a1.536,1.536,0,0,1-.937.355c-.861.013-1.722.038-2.582.019a2.776,2.776,0,0,0-.544,5.508,4.686,4.686,0,0,0,.807.061q4.144,0,8.289,0c.09,0,.181,0,.271.005a.652.652,0,0,1,.175,1.285,1.311,1.311,0,0,1-.406.071c-2.77,0-5.54.012-8.31,0A4.327,4.327,0,0,1,.848,34.124,4.176,4.176,0,0,1,0,31.5Q0,17.876,0,4.252A4.125,4.125,0,0,1,2.9.256,6.869,6.869,0,0,1,4.538.021C5.16-.018,5.787.006,6.412.013A1.94,1.94,0,0,1,8.425,1.6a8.189,8.189,0,0,1,.058,1.223c0,.054,0,.108,0,.19m27.84,1.359c-.82,0-1.617,0-2.413,0-.129,0-.141.067-.141.172q0,4.7,0,9.409a6.8,6.8,0,0,1-.03.727,1.2,1.2,0,0,1-.681,1.048,2.1,2.1,0,0,1-.82.178q-7.122.016-14.245.006a5.449,5.449,0,0,1-.6-.028.64.64,0,0,1-.6-.669.7.7,0,0,1,.648-.667c.159-.011.319-.012.479-.013l7.455,0c.28,0,.272,0,.271-.294,0-1.131,0-2.262,0-3.393a.946.946,0,0,1,.229-.629,1.2,1.2,0,0,1,1-.412q2.666,0,5.331,0c.127,0,.207-.006.206-.171q-.008-2.55,0-5.1c0-.116-.034-.163-.154-.161-.2,0-.4-.011-.6-.011q-6.477,0-12.953-.007a.257.257,0,0,0-.293.208,2.84,2.84,0,0,1-1.6,1.734c-.115.051-.29.06-.339.146-.06.1-.017.268-.018.406,0,.014,0,.028,0,.042-.007.555,0,1.111-.028,1.664a.673.673,0,0,1-1.343-.04c-.009-.131-.01-.264-.009-.4q.006-.77.017-1.54c0-.107-.013-.182-.136-.219a2.721,2.721,0,0,1-1.86-1.86.177.177,0,0,0-.2-.145c-1.4.008-2.79.014-4.186.011-.168,0-.211.045-.211.209q0,4.9,0,9.8a1.3,1.3,0,0,0,.018.148c.051,0,.091.007.131.007h5.06c.153,0,.306,0,.458.013a.78.78,0,0,1,.676.687.789.789,0,0,1-.66.655,3.2,3.2,0,0,1-.353.018l-5.165.008c-.053,0-.105.008-.149.012V18.5h.25c1.958,0,3.915.013,5.873-.009a1.479,1.479,0,0,1,1.293.635q4.642,6.052,9.3,12.09c.762.989,1.533,1.972,2.278,2.973a.635.635,0,0,0,.6.294c.846-.018,1.693-.009,2.54-.011h.38c-.1-.144-.184-.262-.272-.375Q29.2,32.1,27.658,30.109,24.49,26,21.324,21.881c-.512-.665-1.038-1.321-1.52-2.007a.848.848,0,0,1,.57-1.365,1.955,1.955,0,0,1,.312-.012H45.135V15.915c-.052,0-.087-.01-.121-.009q-3.624,0-7.247,0a1.307,1.307,0,0,1-1.444-1.448q0-4.923,0-9.846ZM21.412,19.837c.04.059.058.087.078.113q.885,1.144,1.771,2.287,4.66,6.051,9.323,12.1a.419.419,0,0,0,.276.13c.207.015.416-.011.624-.011q5.248,0,10.5,0a3.317,3.317,0,0,0,.733-.122.422.422,0,0,0,.338-.357,6.285,6.285,0,0,0,.1-.9q.009-6.505,0-13.011v-.226ZM1.334,28.632c.075-.052.121-.079.161-.113a4.779,4.779,0,0,1,3.115-1.027c.652-.009,1.305,0,1.958,0,.385,0,.521-.128.532-.522.008-.263,0-.527,0-.791q0-11.656,0-23.313c0-.284-.011-.569,0-.853a.562.562,0,0,0-.631-.647c-.846,0-1.7-.036-2.538.029A2.732,2.732,0,0,0,1.341,4.213Q1.32,16.3,1.334,28.379v.253M37.672,4.362V14.508h7.482v-.149q0-4.526,0-9.053a2.075,2.075,0,0,0-.042-.371.566.566,0,0,0-.479-.506,3.5,3.5,0,0,0-.6-.076q-3.071-.007-6.142,0c-.068,0-.136.006-.222.01m-5.285,6.812H27.005v3.347h5.382Zm-16.83-6a1.488,1.488,0,0,0,1.635-1.309,1.453,1.453,0,0,0-2.726-.816.527.527,0,0,0,0,.367.762.762,0,0,1,.017.578.6.6,0,0,0,.007.447,1.385,1.385,0,0,0,1.07.732" transform="translate(0 0.001)"/>
        <path id="Trazado_606240" data-name="Trazado 606240" d="M63,147.686c0-.291-.017-.584.006-.873.015-.194-.059-.262-.229-.32a2.777,2.777,0,0,1,.416-5.365,2.772,2.772,0,0,1,1.45,5.327.347.347,0,0,0-.275.413c.021.561.008,1.123.006,1.685A.691.691,0,1,1,63,148.56c0-.291,0-.582,0-.874h0m.686-5.266a1.449,1.449,0,1,0,1.432,1.489,1.443,1.443,0,0,0-1.432-1.489" transform="translate(-50.708 -117.507)"/>
        <path id="Trazado_606241" data-name="Trazado 606241" d="M78.6,26.049V26.3q0,4.923,0,9.846a1.307,1.307,0,0,0,1.444,1.448q3.624,0,7.247,0c.034,0,.069.005.121.01v2.583H62.961a1.955,1.955,0,0,0-.312.012.848.848,0,0,0-.57,1.365c.482.686,1.008,1.341,1.52,2.007q3.166,4.115,6.334,8.228,1.537,1.994,3.078,3.985c.087.113.168.231.272.375H72.9c-.847,0-1.694-.007-2.54.011a.636.636,0,0,1-.6-.294c-.745-1-1.516-1.984-2.278-2.973q-4.653-6.043-9.3-12.09a1.479,1.479,0,0,0-1.293-.635c-1.957.022-3.915.009-5.873.009h-.25V37.6c.044,0,.1-.012.149-.012l5.165-.008a3.237,3.237,0,0,0,.353-.018.789.789,0,0,0,.66-.655.78.78,0,0,0-.676-.687c-.152-.013-.305-.013-.458-.013H50.9c-.04,0-.08,0-.131-.007a1.3,1.3,0,0,1-.018-.148q0-4.9,0-9.8c0-.164.043-.209.211-.209,1.4,0,2.79,0,4.186-.011a.177.177,0,0,1,.2.146,2.721,2.721,0,0,0,1.86,1.86c.123.037.138.112.136.219q-.012.77-.017,1.54c0,.132,0,.264.009.4a.673.673,0,0,0,1.343.04c.033-.553.021-1.109.028-1.664,0-.014,0-.028,0-.042,0-.138-.042-.3.018-.406.049-.085.223-.095.339-.146a2.841,2.841,0,0,0,1.6-1.734.257.257,0,0,1,.293-.208q6.476.009,12.953.007c.2,0,.4.014.6.011.12,0,.154.045.154.161q0,2.55,0,5.1c0,.165-.079.171-.206.171q-2.666,0-5.331,0a1.2,1.2,0,0,0-1,.412.945.945,0,0,0-.229.629c0,1.131,0,2.262,0,3.392,0,.292.009.294-.271.294l-7.455,0c-.16,0-.319,0-.479.013a.7.7,0,0,0-.648.667.64.64,0,0,0,.6.669,5.45,5.45,0,0,0,.6.028q7.122,0,14.245-.006a2.1,2.1,0,0,0,.82-.178,1.2,1.2,0,0,0,.681-1.048,6.81,6.81,0,0,0,.03-.727q0-4.7,0-9.408c0-.106.012-.172.141-.172.8,0,1.593,0,2.413,0" transform="translate(-42.274 -21.68)" fill="#fff"/>
        <path id="Trazado_606242" data-name="Trazado 606242" d="M128.143,118.724h23.742v.226q0,6.505,0,13.01a6.233,6.233,0,0,1-.1.9.422.422,0,0,1-.338.357,3.308,3.308,0,0,1-.733.122q-5.248.009-10.5,0c-.208,0-.417.026-.624.011a.419.419,0,0,1-.276-.13q-4.667-6.046-9.323-12.1-.883-1.146-1.771-2.287c-.02-.026-.037-.054-.078-.113m10,7.818c0,.333-.007.666,0,1a.65.65,0,0,0,1.227.3,1.332,1.332,0,0,0,.119-.518c.015-.527.017-1.055,0-1.581-.009-.232.014-.39.288-.4a.486.486,0,0,0,.172-.07,2.774,2.774,0,0,0-.749-5.277,2.78,2.78,0,0,0-3.052,3.548,2.7,2.7,0,0,0,1.87,1.852.254.254,0,0,1,.12.2c.013.318.006.638.005.957" transform="translate(-106.731 -98.886)" fill="#fff"/>
        <path id="Trazado_606243" data-name="Trazado 606243" d="M7.979,35.388v-.253q0-12.083.007-24.166A2.732,2.732,0,0,1,10.574,8.15c.842-.065,1.692-.029,2.538-.029a.562.562,0,0,1,.631.647c-.012.284,0,.569,0,.853q0,11.656,0,23.313c0,.264.01.528,0,.791-.012.394-.147.521-.532.522-.653,0-1.305-.007-1.958,0A4.78,4.78,0,0,0,8.14,35.275c-.04.034-.086.061-.161.113" transform="translate(-6.644 -6.755)" fill="#fff"/>
        <path id="Trazado_606244" data-name="Trazado 606244" d="M225.454,26.05c.086,0,.154-.01.222-.01q3.071,0,6.142,0a3.508,3.508,0,0,1,.6.076.566.566,0,0,1,.478.506,2.074,2.074,0,0,1,.042.371q0,4.526,0,9.053V36.2h-7.482Z" transform="translate(-187.782 -21.687)" fill="#fff"/>
        <rect id="Rectángulo_375574" data-name="Rectángulo 375574" width="5.382" height="3.347" transform="translate(27.006 11.175)" fill="#fff"/>
        <path id="Trazado_606245" data-name="Trazado 606245" d="M87.493,16.6a1.385,1.385,0,0,1-1.07-.732.6.6,0,0,1-.007-.447.762.762,0,0,0-.017-.578.527.527,0,0,1,0-.367,1.453,1.453,0,0,1,2.726.816A1.488,1.488,0,0,1,87.493,16.6" transform="translate(-71.935 -11.424)" fill="#fff"/>
        <path id="Trazado_606246" data-name="Trazado 606246" d="M70.221,149.091a1.449,1.449,0,0,1-.021,2.9,1.449,1.449,0,1,1,.021-2.9" transform="translate(-57.244 -124.179)" fill="#fff"/>
        <path id="Trazado_606247" data-name="Trazado 606247" d="M177.409,132.7c0-.319.007-.639-.006-.957a.254.254,0,0,0-.12-.2,2.7,2.7,0,0,1-1.87-1.852,2.778,2.778,0,1,1,5.381-1.357,2.741,2.741,0,0,1-1.579,3.086.493.493,0,0,1-.172.07c-.274.013-.3.171-.288.4.02.527.017,1.055,0,1.581a1.333,1.333,0,0,1-.119.518.65.65,0,0,1-1.227-.3c-.009-.333,0-.666,0-1m2.091-3.81a1.386,1.386,0,0,0-1.431-1.429,1.437,1.437,0,0,0-1.456,1.462,1.5,1.5,0,0,0,1.5,1.441,1.439,1.439,0,0,0,1.386-1.474" transform="translate(-145.995 -105.04)"/>
        <path id="Trazado_606248" data-name="Trazado 606248" d="M186.125,135.587a1.439,1.439,0,0,1-1.386,1.474,1.5,1.5,0,0,1-1.5-1.441,1.437,1.437,0,0,1,1.456-1.462,1.386,1.386,0,0,1,1.431,1.429" transform="translate(-152.62 -111.741)" fill="#fff"/>
      </g>
    </g>
  </g>
</svg>
