<svg xmlns="http://www.w3.org/2000/svg" xmlns:xlink="http://www.w3.org/1999/xlink" width="62" height="62" viewBox="0 0 62 62">
  <defs>
    <clipPath id="clip-path">
      <rect id="Rect치ngulo_375573" data-name="Rect치ngulo 375573" width="39.5" height="44.331" fill="none"/>
    </clipPath>
  </defs>
  <g id="Grupo_1015242" data-name="Grupo 1015242" transform="translate(-1017 -12906)">
    <g id="Grupo_1014858" data-name="Grupo 1014858" transform="translate(632.001 10848)">
      <path id="Uni칩n_12" data-name="Uni칩n 12" d="M31,0A31,31,0,1,1,0,31,31,31,0,0,1,31,0Z" transform="translate(384.999 2058)" fill="#c1e29a"/>
    </g>
    <g id="Grupo_1015873" data-name="Grupo 1015873" transform="translate(1027 12914.133)">
      <g id="Grupo_1015872" data-name="Grupo 1015872" clip-path="url(#clip-path)">
        <path id="Trazado_606231" data-name="Trazado 606231" d="M56.139,2.346v.23c0,1.873.009,3.747-.005,5.62a.776.776,0,0,0,.84.856c.271.007.542-.017.813-.018q1.528,0,3.057,0a.733.733,0,0,1,.646.224.666.666,0,0,1-.44,1.11c-.165.011-.331.008-.5.008-1.251,0-2.5-.022-3.751-.005a2.087,2.087,0,0,1-2.012-1.838A5.854,5.854,0,0,1,54.76,7.8q0-3.058,0-6.116V1.425H33.249c-.232,0-.463,0-.695.006a.624.624,0,0,0-.631.6c-.012.138-.012.278-.012.417q0,14.327,0,28.655c0,.252.008.5.005.755a.658.658,0,0,1-.463.647.65.65,0,0,1-.745-.222.937.937,0,0,1-.134-.34,1.09,1.09,0,0,1,0-.257q0-14.754-.012-29.509A2.108,2.108,0,0,1,32.508.03c.192-.005.383-.024.575-.024Q44.1,0,55.115,0a1.351,1.351,0,0,1,1.04.423c1.257,1.279,2.53,2.542,3.8,3.811q2.349,2.353,4.7,4.707c.112.112.22.229.322.351a.909.909,0,0,1,.22.622c0,.086,0,.172,0,.258q0,15.866,0,31.733a2.339,2.339,0,0,1-.9,2,2.262,2.262,0,0,1-1.278.423c-.059,0-.119,0-.179,0H33.611a2.088,2.088,0,0,1-.374-.029.687.687,0,0,1-.044-1.357,1.624,1.624,0,0,1,.393-.039q14.787,0,29.575,0a.579.579,0,0,0,.6-.573c0-.086,0-.172,0-.258q0-15.936,0-31.872a.548.548,0,0,0-.181-.428Q59.9,6.092,56.217,2.4a.835.835,0,0,0-.078-.055" transform="translate(-25.691 0)"/>
        <path id="Trazado_606232" data-name="Trazado 606232" d="M14.352,85.779c-.738.723-1.463,1.436-2.191,2.146a.2.2,0,0,0-.038.262,5.765,5.765,0,0,1,.225.611,2.5,2.5,0,0,1-.577,2.436c-.443.524-.943,1-1.429,1.488q-2.36,2.37-4.729,4.731c-.332.332-.667.663-1.019.973A2.724,2.724,0,0,1,.3,97.584a2.617,2.617,0,0,1,.448-3.051c.938-.988,1.919-1.936,2.882-2.9,1.286-1.288,2.566-2.581,3.862-3.859A4.4,4.4,0,0,1,8.465,87a2.524,2.524,0,0,1,2.568.056c.5-.475.99-.939,1.477-1.406.239-.229.463-.473.71-.693.142-.126.123-.212.012-.342a11.773,11.773,0,0,1-1.471-2.16,12.391,12.391,0,0,1-.987-2.543,10.993,10.993,0,0,1-.318-4.169,11.552,11.552,0,0,1,2.14-5.582,11.776,11.776,0,0,1,6.8-4.611,10.731,10.731,0,0,1,4.346-.228A11.765,11.765,0,0,1,31.75,70.22a11.387,11.387,0,0,1,1.811,3.939,11.231,11.231,0,0,1,.368,2.922,11.907,11.907,0,0,1-.312,2.473,11.76,11.76,0,0,1-2.38,4.871,11.633,11.633,0,0,1-5.454,3.738,10.918,10.918,0,0,1-4.473.571,11.993,11.993,0,0,1-6.883-2.895c-.034-.029-.07-.055-.075-.059M32.511,77.17A10.38,10.38,0,1,0,22.243,87.382,10.313,10.313,0,0,0,32.511,77.17M2.856,97.729a1.1,1.1,0,0,0,.924-.379c.129-.114.251-.236.372-.357q1.283-1.285,2.566-2.572,1.936-1.938,3.874-3.874a1.457,1.457,0,0,0-.135-2.269,1.309,1.309,0,0,0-1.508-.009,1.935,1.935,0,0,0-.336.276C8,89.154,7.4,89.769,6.8,90.378Q5.039,92.143,3.277,93.9c-.51.51-1.031,1.009-1.529,1.529A1.393,1.393,0,0,0,1.51,97a1.268,1.268,0,0,0,1.346.728" transform="translate(0 -54.817)"/>
        <path id="Trazado_606233" data-name="Trazado 606233" d="M94.544,84.469A10.38,10.38,0,1,1,84.249,73.884,10.3,10.3,0,0,1,94.544,84.469M82.791,85c2.216,0,4.433,0,6.649,0A1.561,1.561,0,0,0,90,84.883a.634.634,0,0,0,.356-.819.814.814,0,0,0-.847-.495q-6.689,0-13.377,0a1.628,1.628,0,0,0-.554.122.657.657,0,0,0,0,1.174,1.654,1.654,0,0,0,.572.125C78.358,85,80.574,85,82.791,85m1.725,3.452h0c2.117,0,4.234,0,6.351-.006a1.308,1.308,0,0,0,.6-.151.6.6,0,0,0,.224-.867c-.18-.34-.5-.361-.821-.361q-6.321,0-12.642,0a2.273,2.273,0,0,0-.453.045.646.646,0,0,0-.433.9.834.834,0,0,0,.842.442q3.165,0,6.331,0m-1.351-8.337v0c-1.661,0-3.321,0-4.982.006a1.432,1.432,0,0,0-.567.134.651.651,0,0,0-.341.644.67.67,0,0,0,.559.566,2.158,2.158,0,0,0,.354.036q4.972,0,9.944,0a1.67,1.67,0,0,0,.295-.029.616.616,0,0,0,.56-.528.659.659,0,0,0-.489-.791,1.314,1.314,0,0,0-.352-.039q-2.491,0-4.982,0m9.878,2.751c0-.036-.009-.1-.019-.167a8.21,8.21,0,0,0-.866-2.538,8.938,8.938,0,0,0-5.729-4.58.667.667,0,0,0-.377,1.278c.15.052.3.105.45.154A7.451,7.451,0,0,1,90.506,80a7.221,7.221,0,0,1,1.182,2.937.686.686,0,0,0,.729.612.638.638,0,0,0,.624-.687" transform="translate(-62.033 -62.116)" fill="#fff"/>
        <path id="Trazado_606234" data-name="Trazado 606234" d="M10.075,218.241a1.268,1.268,0,0,1-1.346-.728,1.393,1.393,0,0,1,.238-1.568c.5-.521,1.02-1.019,1.529-1.529q1.761-1.762,3.519-3.525c.607-.609,1.208-1.224,1.815-1.833a1.936,1.936,0,0,1,.336-.276,1.309,1.309,0,0,1,1.508.009,1.457,1.457,0,0,1,.135,2.269q-1.938,1.936-3.874,3.874-1.284,1.285-2.566,2.572c-.122.122-.244.243-.372.357a1.1,1.1,0,0,1-.924.379" transform="translate(-7.22 -175.329)" fill="#fff"/>
        <path id="Trazado_606235" data-name="Trazado 606235" d="M90.305,136.113c-2.216,0-4.433,0-6.649-.005a1.658,1.658,0,0,1-.573-.125.657.657,0,0,1,0-1.174,1.63,1.63,0,0,1,.554-.122q6.689-.01,13.377,0a.813.813,0,0,1,.846.494.634.634,0,0,1-.356.819,1.566,1.566,0,0,1-.556.111c-2.216.007-4.433,0-6.649,0" transform="translate(-69.547 -113.23)"/>
        <path id="Trazado_606236" data-name="Trazado 606236" d="M102.961,158.013q-3.165,0-6.331,0a.834.834,0,0,1-.841-.442.646.646,0,0,1,.433-.9,2.274,2.274,0,0,1,.453-.045q6.321,0,12.642,0c.32,0,.64.021.821.361a.6.6,0,0,1-.224.867,1.308,1.308,0,0,1-.6.151c-2.117.011-4.234.007-6.351.007Z" transform="translate(-80.479 -131.678)"/>
        <path id="Trazado_606237" data-name="Trazado 606237" d="M101.548,113q2.491,0,4.982,0a1.314,1.314,0,0,1,.352.039.659.659,0,0,1,.489.791.616.616,0,0,1-.56.528,1.672,1.672,0,0,1-.295.029q-4.972,0-9.944,0a2.172,2.172,0,0,1-.354-.036.67.67,0,0,1-.559-.566A.651.651,0,0,1,96,113.14a1.432,1.432,0,0,1,.567-.134c1.661-.01,3.321-.006,4.982-.006Z" transform="translate(-80.417 -94.999)"/>
        <path id="Trazado_606238" data-name="Trazado 606238" d="M155.342,91.7a.638.638,0,0,1-.624.687.686.686,0,0,1-.729-.612,7.221,7.221,0,0,0-1.182-2.937,7.451,7.451,0,0,0-4.005-2.992c-.151-.048-.3-.1-.45-.154a.667.667,0,0,1,.377-1.278,8.939,8.939,0,0,1,5.729,4.58,8.212,8.212,0,0,1,.866,2.538c.011.065.015.131.019.167" transform="translate(-124.333 -70.946)"/>
      </g>
    </g>
  </g>
</svg>
