<svg id="Grupo_1016982" data-name="Grupo 1016982" xmlns="http://www.w3.org/2000/svg" xmlns:xlink="http://www.w3.org/1999/xlink" width="64.019" height="75.732" viewBox="0 0 64.019 75.732">
  <defs>
    <clipPath id="clip-path">
      <rect id="Rectángulo_375647" data-name="Rectángulo 375647" width="64.019" height="75.733" fill="none"/>
    </clipPath>
  </defs>
  <g id="Grupo_1016981" data-name="Grupo 1016981" clip-path="url(#clip-path)">
    <path id="Trazado_608349" data-name="Trazado 608349" d="M8.5,33.054c0-.25.009-.5.009-.75q0-12.383,0-24.766c0-.095-.007-.19-.01-.285q0-.182,0-.364c0-.214.02-.429.012-.642-.026-.694.2-.991,1.025-1,1.108-.007,2.216,0,3.324,0,1.477,0,2.954,0,4.431.022a.363.363,0,0,0,.4-.308c.386-1.232.771-2.465,1.142-3.7.06-.2.143-.39.2-.588.178-.6.482-.79,1.094-.6,1.165.352,2.318.748,3.482,1.1,2.436.743,4.849,1.554,7.275,2.329,1.314.42,2.655.766,3.935,1.271a8.662,8.662,0,0,0,3.308.49c5.277-.019,10.554-.009,15.831,0a2.672,2.672,0,0,1,.627.081c.292.072.471.434.473.921q.007,2.394.01,4.788c0,.008-.014.018-.012.024a.318.318,0,0,0,.024.047c.079.215.3.217.461.268,2.3.736,4.6,1.444,6.892,2.188.419.136.928.221,1.067.781.019.076.086.141.046.228a27.131,27.131,0,0,0-1.009,3.087c-.528,1.674-1.063,3.345-1.582,5.021-.622,2.011-1.213,4.032-1.857,6.036-.175.544-.364,1.086-.537,1.631-.423,1.335-.819,2.679-1.238,4.015-.527,1.681-1.066,3.357-1.6,5.036-.178.56-.346,1.123-.535,1.679a2.761,2.761,0,0,0-.131.911q.015,5.326.023,10.651c0,.429-.013.858-.032,1.286-.008.185.059.239.243.307.507.186,1.044.247,1.553.433.537.2,1.117.272,1.665.441.64.2,1.29.372,1.935.531A4.776,4.776,0,0,1,63.074,57.3a4.356,4.356,0,0,1,.876,3.614,4.061,4.061,0,0,1-2.7,3.386,4.456,4.456,0,0,1-3.279-.018c-.786-.3-1.53-.709-2.291-1.073a1.093,1.093,0,0,0-.434-.148c-.052-.037-.109-.095-.136.023a1.82,1.82,0,0,0-.03.6c.026,1.9.033,3.8,0,5.693a.039.039,0,0,0,0,.054.808.808,0,0,1-.772.724c-.338.029-.679.022-1.018.03l-.078.005H53c-.025-.028-.048-.026-.069,0a7.448,7.448,0,0,1-1.376-.019l-.059.006-.213.007-.068,0q-1.84.005-3.68.011c-.428,0-.857.022-1.285.02-.171,0-.221.091-.263.228-.284.931-.569,1.861-.862,2.79-.2.633-.4,1.269-.625,1.892a.744.744,0,0,1-1.094.517c-1.421-.459-2.839-.929-4.26-1.388-1-.322-2-.627-3-.949-1.083-.35-2.158-.728-3.245-1.066q-1.344-.417-2.676-.867c-1-.34-2.021-.644-3.025-.983a6.27,6.27,0,0,0-1.942-.215l-.063,0c-2.105.008-4.21.02-6.315.022a11.612,11.612,0,0,1-1.638-.03l-.059.006-.214.007-.068,0q-3.18,0-6.36,0c-.393,0-.787,0-1.178-.028a.823.823,0,0,1-.847-.789q-.007-.253-.015-.506c.007-1.416.011-2.833.022-4.249,0-.249-.156-.316-.346-.376-1.225-.387-2.45-.777-3.676-1.163s-2.456-.806-3.7-1.17a1.342,1.342,0,0,1-.7-.5.508.508,0,0,1-.066-.5c.3-.671.452-1.392.692-2.084.284-.821.505-1.662.786-2.486.35-1.029.635-2.08.958-3.118.232-.746.484-1.487.722-2.231.4-1.246.81-2.489,1.182-3.743.153-.517.334-1.024.491-1.539.362-1.186.736-2.369,1.1-3.557.4-1.334.835-2.661,1.252-3.991.273-.87.517-1.753.839-2.609.165-.439.281-.9.419-1.345a.212.212,0,0,0,.034-.222q0-.426-.006-.851c0-.026,0-.053,0-.079M44.426,70.227l.02-.013c0-.006-.008-.017-.013-.018s-.015.007-.022.01a3.266,3.266,0,0,0-.853-.011l-.075,0H31.975a.235.235,0,0,0,.149.146q3.62,1.189,7.24,2.375c1.151.375,2.308.731,3.459,1.105.508.165.5.175.61-.373.037-.185.119-.36.174-.541q.411-1.342.82-2.685M55.089,35.855c-.021.048-.036.1.008.141l.064-.1c.246-.287.172-.684.331-.993a13.062,13.062,0,0,0,.578-1.721c.251-.712.4-1.461.664-2.168.249-.666.461-1.347.673-2.02.294-.936.558-1.883.864-2.818.395-1.205.766-2.419,1.146-3.629.039-.124.074-.25.1-.377.079-.379.228-.737.319-1.115.1-.432.322-.843.45-1.277s.22-.875.382-1.293c.408-1.051.673-2.148,1.034-3.213.067-.2.031-.339-.224-.416-1.155-.348-2.3-.722-3.452-1.086-.971-.307-1.943-.613-2.935-.925-.028.42-.028.832-.026,1.248q.034,8.45.028,16.9,0,2.429-.005,4.859M53.473,68.235c0-1.8-.015-3.6.024-5.4a.9.9,0,0,0-.585-.985c-2.94-1.4-5.867-2.82-8.791-4.247-.239-.117-.315-.038-.393.156a10.306,10.306,0,0,1-.414,1.093c-.2.369-.011.559.184.75a3.3,3.3,0,0,1,.931,3.13,3.181,3.181,0,0,1-.924,1.656,3.913,3.913,0,0,1-1.868.913,2.587,2.587,0,0,1-1.375-.046c-1.082-.28-2.1-.732-3.154-1.108Q34.05,63.055,31,61.936a3.515,3.515,0,0,1-2.16-3.892,3.3,3.3,0,0,1,3.12-2.814A.445.445,0,0,0,32.4,54.9c.225-.641.457-1.279.7-1.913.567-1.462,1.092-2.94,1.612-4.419.272-.774.557-1.543.877-2.3a.393.393,0,0,0-.13-.5,2.564,2.564,0,0,1-.521-.623,3.692,3.692,0,0,1-.549-2,3.255,3.255,0,0,1,1.537-2.893,3.747,3.747,0,0,1,3.263-.283c1.008.307,2,.686,2.977,1.063,1.332.511,2.7.925,4.015,1.477a16.658,16.658,0,0,1,2.122.816,3.354,3.354,0,0,1,1.768,3.452,3.3,3.3,0,0,1-3.227,3.075c-.21.009-.277.094-.338.274-.165.482-.345.96-.544,1.43-.075.178-.029.239.131.275.822.186,1.63.426,2.443.646,1.536.416,3.084.784,4.618,1.206.325.09.353-.006.347-.265-.013-.56-.028-1.12-.028-1.679q0-9.006,0-18.013,0-13.349-.008-26.7c.028-.05.037-.095-.03-.121a.478.478,0,0,0-.368-.084q-1.429,0-2.858-.006l-39.627,0c-.475,0-.474,0-.474.478q0,23.62,0,47.24c0,.107-.005.214-.008.321l-.051.054.051.03a.117.117,0,0,1,0,.06l-.051.054.052.029q.005,6.514.013,13.026c0,.138-.047.285.048.414.01.046.037.065.083.05q3.66,0,7.321,0,13.733,0,27.466,0c2.655,0,5.309-.011,7.964-.017l.069,0h.215a.042.042,0,0,0,.073-.011l.115-.1a.208.208,0,0,0,0-.213m6.059-5.147a2.933,2.933,0,0,0,2.812-3.9,2.678,2.678,0,0,0-1.818-1.853c-1.007-.32-2.034-.578-3.041-.9s-2.057-.449-3.066-.765c-.913-.287-1.847-.51-2.77-.763-.96-.264-1.911-.568-2.892-.773a20.309,20.309,0,0,1-3.026-.8c-.237-.089-.378-.041-.462.212-.2.6-.394,1.2-.624,1.79-.3.765-.279.723.4,1.04,1.964.91,3.9,1.872,5.853,2.814,2.334,1.129,4.665,2.266,7,3.385a4.874,4.874,0,0,0,1.626.514M33.854,55.273c-.033.223,0,.325.132.382.164.07.321.157.488.218,2.2.808,4.39,1.625,6.594,2.413.8.286.623.419,1.008-.518.127-.309.109-.682.254-.951a18.824,18.824,0,0,0,.757-1.879c.341-.835.617-1.7.928-2.543q.492-1.339,1-2.673c.059-.157.085-.268-.128-.315a7.591,7.591,0,0,1-1.03-.342c-.915-.348-1.838-.677-2.757-1.017-1.22-.452-2.44-.9-3.657-1.364-.265-.1-.382-.024-.475.235q-.706,1.982-1.44,3.953C35.1,52.03,34.7,53.2,34.24,54.347c-.137.336-.268.678-.386.926M8.517,39.579a1.4,1.4,0,0,0-.3.573c-.51,1.655-1.017,3.312-1.533,4.966q-.853,2.736-1.72,5.468c-.588,1.845-1.194,3.684-1.779,5.529-.434,1.365-.847,2.737-1.271,4.105-.075.243-.011.43.239.5,1.357.375,2.677.863,4.02,1.277.775.239,1.546.49,2.343.743ZM40.933,63.75a1.794,1.794,0,0,0,1.975-1.519,2.069,2.069,0,0,0-1.337-2.122c-.8-.29-1.607-.58-2.409-.877-2.18-.808-4.35-1.64-6.576-2.315a1.687,1.687,0,0,0-2.1,1.142,1.97,1.97,0,0,0,1.287,2.518c2.825,1.042,5.661,2.055,8.492,3.082a2.093,2.093,0,0,0,.665.091m7.636-17.272a1.86,1.86,0,0,0-1.382-1.97c-1.3-.481-2.628-.9-3.927-1.386q-2.319-.866-4.66-1.667a1.883,1.883,0,0,0-2.609,2.006,1.532,1.532,0,0,0,.959,1.429q1.26.449,2.517.9c1.24.449,2.487.882,3.717,1.358a32.566,32.566,0,0,0,3.172,1.067,1.725,1.725,0,0,0,2.212-1.74M31,5.245c-.126-.208-.316-.22-.472-.27-1.683-.539-3.371-1.061-5.051-1.609-1.555-.507-3.128-.961-4.67-1.511-.456-.163-.55-.107-.662.331-.232.908-.583,1.781-.791,2.7-.065.286-.053.381.294.382,3.353.012,6.707-.058,10.06.015A9.819,9.819,0,0,0,31,5.245" transform="translate(0 0)" fill="#5c332e"/>
    <path id="Trazado_608350" data-name="Trazado 608350" d="M29.3,240.144q.007.253.015.506c-.216-.162-.2-.332-.015-.506" transform="translate(-20.792 -171.272)" fill="#e3e3e3"/>
    <path id="Trazado_608351" data-name="Trazado 608351" d="M29.324,24.024q0,.182,0,.364c-.178-.124-.178-.245,0-.364" transform="translate(-20.816 -17.134)" fill="#e3e3e3"/>
    <path id="Trazado_608352" data-name="Trazado 608352" d="M29.357,118.5a.213.213,0,0,1-.034.222c-.136-.1-.119-.17.034-.222" transform="translate(-20.848 -84.515)" fill="#e3e3e3"/>
    <path id="Trazado_608353" data-name="Trazado 608353" d="M192.163,219.809c.027-.118.083-.059.136-.023l-.136.023" transform="translate(-137.052 -156.719)" fill="#e3e3e3"/>
    <path id="Trazado_608354" data-name="Trazado 608354" d="M29.447,115.256c0,.026,0,.052,0,.079l-.081-.038.079-.041" transform="translate(-20.945 -82.201)" fill="#e3e3e3"/>
    <path id="Trazado_608355" data-name="Trazado 608355" d="M185.528,244.75l.078-.005c-.024.036-.05.036-.078.005" transform="translate(-132.32 -174.554)" fill="#e48a81"/>
    <path id="Trazado_608356" data-name="Trazado 608356" d="M192.019,241.98a.038.038,0,0,1,0-.054.262.262,0,0,1,.015.04s-.011.009-.017.014" transform="translate(-136.942 -172.543)" fill="#e48a81"/>
    <path id="Trazado_608357" data-name="Trazado 608357" d="M58.938,244.76l.068,0-.068,0" transform="translate(-42.035 -174.561)" fill="#d86760"/>
    <path id="Trazado_608358" data-name="Trazado 608358" d="M59.919,244.719l.059-.006-.059.006" transform="translate(-42.735 -174.531)" fill="#d86760"/>
    <path id="Trazado_608359" data-name="Trazado 608359" d="M87.855,244.735l.063,0c-.02.029-.041.031-.063,0" transform="translate(-62.659 -174.544)" fill="#d86760"/>
    <path id="Trazado_608360" data-name="Trazado 608360" d="M192.051,38.586a.318.318,0,0,1-.024-.047c0-.006.008-.016.012-.024a.317.317,0,0,1,.026.048c0,.005-.009.015-.015.024" transform="translate(-136.955 -27.468)" fill="#e48a81"/>
    <path id="Trazado_608361" data-name="Trazado 608361" d="M178.585,244.76l.068,0-.068,0" transform="translate(-127.368 -174.561)" fill="#d86760"/>
    <path id="Trazado_608362" data-name="Trazado 608362" d="M179.566,244.719l.059-.006-.059.006" transform="translate(-128.067 -174.531)" fill="#d86760"/>
    <path id="Trazado_608363" data-name="Trazado 608363" d="M184.568,244.721c.022-.03.045-.032.069,0l-.069,0" transform="translate(-131.635 -174.519)" fill="#d86760"/>
    <path id="Trazado_608364" data-name="Trazado 608364" d="M78.585,23.983q0,13.349.008,26.7,0,9.006,0,18.013c0,.56.014,1.12.028,1.679.006.259-.022.354-.347.265-1.533-.423-3.082-.79-4.618-1.206-.813-.22-1.621-.459-2.443-.646-.16-.036-.206-.1-.131-.275.2-.469.379-.947.544-1.429.062-.18.128-.266.338-.274a3.3,3.3,0,0,0,3.227-3.075,3.354,3.354,0,0,0-1.768-3.452,16.63,16.63,0,0,0-2.122-.815c-1.314-.553-2.683-.966-4.015-1.477-.982-.377-1.969-.756-2.977-1.063a3.747,3.747,0,0,0-3.263.283A3.255,3.255,0,0,0,59.511,60.1a3.693,3.693,0,0,0,.549,2,2.551,2.551,0,0,0,.521.623.392.392,0,0,1,.13.5c-.32.755-.6,1.524-.877,2.3-.52,1.479-1.045,2.957-1.612,4.419-.246.634-.478,1.272-.7,1.913a.445.445,0,0,1-.437.326A3.3,3.3,0,0,0,53.962,75a3.515,3.515,0,0,0,2.16,3.892q3.051,1.117,6.109,2.215c1.049.376,2.071.828,3.154,1.108a2.584,2.584,0,0,0,1.375.045,3.91,3.91,0,0,0,1.868-.913,3.184,3.184,0,0,0,.924-1.656,3.3,3.3,0,0,0-.931-3.131c-.2-.191-.386-.38-.184-.749a10.393,10.393,0,0,0,.414-1.093c.078-.194.154-.273.393-.156,2.925,1.428,5.852,2.851,8.791,4.247a.9.9,0,0,1,.586.985c-.039,1.8-.021,3.6-.024,5.4a.187.187,0,0,0,0,.213l-.115.1-.073.011h-.215c-.022-.033-.045-.033-.069,0-2.655.006-5.309.016-7.964.017q-13.733,0-27.466,0-3.66,0-7.321,0l-.084-.05c-.1-.128-.048-.276-.048-.414q-.01-6.513-.013-13.026v-.083a.12.12,0,0,0,0-.06V71.81c0-.107.007-.214.007-.321q0-23.62,0-47.24c0-.478,0-.478.474-.478H75.329c.952,0,1.905,0,2.858.006a.477.477,0,0,1,.367.084l.031.121M48.887,77.72l.072,0,.212-.013c.023.029.042.024.058-.006l.607-.012c.762-.017.975-.23.975-.985q0-3.75,0-7.5a.6.6,0,0,1,.217-.481c.74-.716,1.468-1.446,2.174-2.2a.64.64,0,0,0-.028-.98.731.731,0,0,0-1.019-.075,17.483,17.483,0,0,0-1.269,1.269.576.576,0,0,1-.679.217,2.933,2.933,0,0,0-.985-.085q-3.839-.015-7.677-.017c-.178,0-.357.012-.535.028-.533.047-.678.179-.8.715-.182.092-.256.187-.009.293.008.13.022.26.022.39q-.006,4.344-.013,8.688c-.007.008-.02.018-.018.023a.3.3,0,0,0,.028.047.718.718,0,0,0,.758.645c2.638.1,5.278.043,7.916.04m-8.7-17.632c.116.685.223.8.846.81q4.448.07,8.9.009c.773-.009.763-.263.876-.88a1.21,1.21,0,0,0,0-.214c0-2.442,0-4.884,0-7.326a.7.7,0,0,1,.239-.557c.687-.66,1.359-1.335,2.033-2.009a.825.825,0,0,0,.323-.574.727.727,0,0,0-.442-.716.787.787,0,0,0-.9.144q-.685.647-1.355,1.311c-.108.107-.2.2-.361.13a2.089,2.089,0,0,0-.874-.12c-2.168,0-4.336-.006-6.5,0a15.248,15.248,0,0,0-1.963.038c-.675.09-.8.245-.8.923q.008,3.162.011,6.325c0,.881-.02,1.762-.03,2.643-.005.007-.016.014-.015.019a.243.243,0,0,0,.018.043m.017-21.331H40.2q0,2.233,0,4.465c0,.644.292.96.929.964,2.869.015,5.737.035,8.606.029.93,0,1.086-.361,1.083-1.082-.009-2.465,0-4.93-.009-7.394a.736.736,0,0,1,.254-.587c.7-.665,1.392-1.335,2.065-2.025a.763.763,0,1,0-1.081-1.07c-.441.417-.868.849-1.3,1.277-.094.094-.176.186-.334.154a7.224,7.224,0,0,0-1.448-.118q-3.7,0-7.394,0a4.388,4.388,0,0,0-.569.034c-.6.079-.793.308-.793.922q0,2.215,0,4.429m25.041,4.68h5.789c.643,0,1.286.009,1.929,0a.9.9,0,0,0,.849-.78.878.878,0,0,0-.681-.844,3.8,3.8,0,0,0-.774-.1q-6.342.009-12.685,0c-.678,0-1.352.056-2.028.079a1.012,1.012,0,0,0-.829.53.877.877,0,0,0,.891,1.115h7.539m0-5.651q-3.538,0-7.076,0a2.68,2.68,0,0,0-.912.119c-.354.124-.46.259-.45.741a.7.7,0,0,0,.534.708,5.775,5.775,0,0,0,.848.077q7.237.007,14.474,0a2.029,2.029,0,0,0,.529-.057.882.882,0,0,0,.624-.763.822.822,0,0,0-.645-.757,3.969,3.969,0,0,0-.813-.071q-3.556,0-7.112,0m-3.862,12.8c-1.3,0-2.593,0-3.89,0a.626.626,0,0,0-.66.529c-.1.418,0,.77.277.9a1.915,1.915,0,0,0,.819.216q3.568-.007,7.137,0a1.54,1.54,0,0,0,.178,0c.75-.089,1.147-.75.776-1.3a.9.9,0,0,0-.819-.339q-1.909,0-3.818,0m.1-16.722v0c-1.275,0-2.55-.007-3.825,0a.761.761,0,0,0-.756,1.114.814.814,0,0,0,.8.444q3.771,0,7.542,0a.637.637,0,0,0,.143-.005.933.933,0,0,0,.716-.528.693.693,0,0,0-.153-.758.845.845,0,0,0-.709-.267H61.485M46.762,27.278c.833,0,1.666.007,2.5,0a.743.743,0,0,0,.651-1.137.93.93,0,0,0-.812-.433c-.583,0-1.166,0-1.749,0-1,0-2,0-3,0a1.021,1.021,0,0,0-.974.641.941.941,0,0,0,.64.893.967.967,0,0,0,.352.037h2.392m-7.608-1.573c-.166,0-.333,0-.5,0a.859.859,0,0,0-.855.7.916.916,0,0,0,.8.867,9.046,9.046,0,0,0,1.176,0,.717.717,0,0,0,.652-.575.7.7,0,0,0-.306-.834,1.69,1.69,0,0,0-.967-.157" transform="translate(-25.122 -16.954)" fill="#f4f3f4"/>
    <path id="Trazado_608365" data-name="Trazado 608365" d="M170.1,195.614a4.879,4.879,0,0,1-1.626-.514c-2.339-1.119-4.669-2.256-7-3.385-1.949-.943-3.889-1.9-5.853-2.814-.683-.316-.7-.274-.4-1.04.231-.588.426-1.19.625-1.79.084-.253.225-.3.462-.212a20.332,20.332,0,0,0,3.026.8c.981.206,1.932.51,2.892.773.923.254,1.857.477,2.77.763,1.008.317,2.059.443,3.066.765s2.033.58,3.041.9a2.676,2.676,0,0,1,1.818,1.853,2.933,2.933,0,0,1-2.812,3.9" transform="translate(-110.565 -132.526)" fill="#ffe126"/>
    <path id="Trazado_608366" data-name="Trazado 608366" d="M118.012,171.261c.117-.248.249-.59.385-.926.465-1.146.859-2.317,1.288-3.475q.731-1.972,1.44-3.953c.093-.26.21-.336.475-.235,1.217.461,2.437.912,3.657,1.364.919.34,1.841.669,2.757,1.017a7.587,7.587,0,0,0,1.03.342c.212.047.187.159.128.315q-.505,1.334-1,2.673c-.311.847-.587,1.708-.928,2.543a18.887,18.887,0,0,1-.757,1.879c-.145.269-.127.642-.254.951-.385.938-.209.8-1.008.518-2.2-.788-4.4-1.6-6.594-2.413-.167-.062-.324-.148-.488-.218-.133-.057-.165-.159-.132-.382" transform="translate(-84.158 -115.987)" fill="#ffe126"/>
    <path id="Trazado_608367" data-name="Trazado 608367" d="M13.205,138.008v23.16c-.8-.253-1.568-.5-2.343-.743-1.344-.415-2.663-.9-4.02-1.277-.25-.069-.314-.256-.239-.5.424-1.369.837-2.74,1.271-4.105.586-1.845,1.192-3.684,1.78-5.529q.87-2.731,1.72-5.468c.516-1.654,1.022-3.31,1.533-4.966a1.391,1.391,0,0,1,.3-.573" transform="translate(-4.689 -98.428)" fill="#e3e3e3"/>
    <path id="Trazado_608368" data-name="Trazado 608368" d="M192.026,67.81c0-1.62.006-3.239.005-4.859q-.006-8.449-.028-16.9c0-.416,0-.828.026-1.248.992.313,1.964.618,2.935.925,1.15.364,2.3.738,3.452,1.086.256.077.291.219.225.416-.361,1.066-.626,2.162-1.034,3.213-.162.418-.255.862-.382,1.293s-.346.846-.451,1.277c-.091.378-.24.736-.319,1.115-.027.127-.062.253-.1.377-.38,1.21-.751,2.423-1.146,3.629-.306.934-.57,1.881-.864,2.817-.211.674-.424,1.355-.673,2.021-.264.706-.413,1.455-.664,2.168a13.065,13.065,0,0,1-.578,1.721c-.16.309-.085.706-.331.993l-.071-.045" transform="translate(-136.937 -31.954)" fill="#e3e3e3"/>
    <path id="Trazado_608369" data-name="Trazado 608369" d="M116.523,205.119a2.1,2.1,0,0,1-.665-.091c-2.831-1.026-5.666-2.04-8.492-3.082a1.97,1.97,0,0,1-1.287-2.518,1.687,1.687,0,0,1,2.1-1.142c2.226.675,4.4,1.508,6.576,2.315.8.3,1.605.587,2.409.877A2.069,2.069,0,0,1,118.5,203.6a1.8,1.8,0,0,1-1.975,1.519" transform="translate(-75.59 -141.368)" fill="#ffe126"/>
    <path id="Trazado_608370" data-name="Trazado 608370" d="M138.035,149.261a1.725,1.725,0,0,1-2.212,1.74,32.567,32.567,0,0,1-3.172-1.067c-1.23-.476-2.477-.909-3.717-1.358q-1.257-.455-2.517-.9a1.532,1.532,0,0,1-.959-1.429,1.883,1.883,0,0,1,2.609-2.006q2.343.8,4.66,1.667c1.3.485,2.624.905,3.927,1.386a1.859,1.859,0,0,1,1.382,1.97m-5.115-1.114a.6.6,0,0,0,.657-.283.781.781,0,0,0-.358-1.162,16.612,16.612,0,0,0-2.089-.791.8.8,0,1,0-.518,1.512c.287.113.571.235.863.332a4.043,4.043,0,0,0,1.446.392m-4.36-1.433c.742.01,1.057-.378.94-.93a1.5,1.5,0,0,0-1.621-.83.78.78,0,0,0-.364,1.18,1.9,1.9,0,0,0,1.045.58" transform="translate(-89.466 -102.783)" fill="#ffe126"/>
    <path id="Trazado_608371" data-name="Trazado 608371" d="M123.074,244.7a3.291,3.291,0,0,1,.853.011l.015.021q-.41,1.343-.82,2.685c-.056.181-.137.356-.174.541-.111.548-.1.539-.61.373-1.151-.374-2.308-.73-3.459-1.105q-3.622-1.181-7.24-2.375a.234.234,0,0,1-.149-.146H123l.075,0" transform="translate(-79.516 -174.502)" fill="#e3e3e3"/>
    <path id="Trazado_608372" data-name="Trazado 608372" d="M79.069,9.65a9.819,9.819,0,0,1-1.291.034c-3.354-.073-6.707,0-10.06-.015-.347,0-.359-.1-.294-.382.207-.916.559-1.789.791-2.7.112-.438.206-.494.662-.331,1.542.551,3.114,1,4.67,1.511,1.68.548,3.368,1.07,5.051,1.609.156.05.346.062.472.27" transform="translate(-48.065 -4.404)" fill="#e3e3e3"/>
    <path id="Trazado_608373" data-name="Trazado 608373" d="M186.361,238.136a.188.188,0,0,1,0-.214.208.208,0,0,1,0,.214" transform="translate(-132.891 -169.687)" fill="#e48a81"/>
    <path id="Trazado_608374" data-name="Trazado 608374" d="M192.033,125.023l.071.045-.064.1c-.044-.045-.029-.093-.008-.141" transform="translate(-136.944 -89.167)" fill="#e48a81"/>
    <path id="Trazado_608375" data-name="Trazado 608375" d="M186.339,24.212l-.031-.121c.068.026.059.071.031.121" transform="translate(-132.876 -17.182)" fill="#e48a81"/>
    <path id="Trazado_608376" data-name="Trazado 608376" d="M35.1,191.277v.084l-.052-.03.052-.054" transform="translate(-24.994 -136.42)" fill="#e3e3e3"/>
    <path id="Trazado_608377" data-name="Trazado 608377" d="M35.1,191.777v.083l-.051-.029.051-.054" transform="translate(-24.995 -136.776)" fill="#e3e3e3"/>
    <path id="Trazado_608378" data-name="Trazado 608378" d="M35.438,238.929l.083.05c-.047.016-.073,0-.083-.05" transform="translate(-25.275 -170.406)" fill="#e3e3e3"/>
    <path id="Trazado_608379" data-name="Trazado 608379" d="M184.8,238.979c.024-.03.047-.03.069,0l-.069,0" transform="translate(-131.798 -170.426)" fill="#e48a81"/>
    <path id="Trazado_608380" data-name="Trazado 608380" d="M185.786,239.017l.073-.011a.042.042,0,0,1-.073.011" transform="translate(-132.504 -170.46)" fill="#e48a81"/>
    <path id="Trazado_608381" data-name="Trazado 608381" d="M151.692,244.759l-.075,0,.075,0" transform="translate(-108.134 -174.564)" fill="#e48a81"/>
    <path id="Trazado_608382" data-name="Trazado 608382" d="M154.869,244.79l-.015-.021c.007,0,.015-.011.022-.011s.009.011.013.018l-.02.014" transform="translate(-110.443 -174.563)" fill="#e48a81"/>
    <path id="Trazado_608383" data-name="Trazado 608383" d="M52.533,121.654c.011-.881.03-1.762.03-2.643q0-3.162-.011-6.325c0-.678.124-.833.8-.923a15.2,15.2,0,0,1,1.963-.037c2.168-.008,4.335,0,6.5,0a2.085,2.085,0,0,1,.874.12c.161.071.254-.023.361-.13q.669-.665,1.355-1.311a.786.786,0,0,1,.9-.144.727.727,0,0,1,.442.716.825.825,0,0,1-.323.574c-.674.674-1.346,1.349-2.033,2.009a.7.7,0,0,0-.239.557c.008,2.442,0,4.884,0,7.326a1.183,1.183,0,0,1,0,.214c-.113.617-.1.87-.876.88q-4.448.053-8.9-.009c-.623-.01-.729-.124-.846-.81a.038.038,0,0,0,0-.062m5.332-.644v0c1.143,0,2.287-.007,3.43.005.273,0,.384-.064.369-.36-.026-.511-.014-1.024-.015-1.536,0-1.143,0-2.287,0-3.43,0-.078.046-.181-.048-.227s-.144.056-.2.109c-.087.081-.169.168-.247.258a29.749,29.749,0,0,1-2.344,2.35.892.892,0,0,1-1.451-.02c-.3-.293-.6-.584-.882-.886a2.315,2.315,0,0,1-.342-.454.649.649,0,0,1,.214-.88.6.6,0,0,1,.864-.073,5.427,5.427,0,0,1,.708.652c.122.118.236.2.387.025a36.84,36.84,0,0,1,2.854-2.9c.072-.067.217-.127.157-.245s-.195-.044-.3-.044q-3.144-.006-6.288,0c-.623,0-.579-.118-.589.592-.031,2.238.079,4.476-.062,6.713-.017.267.088.357.349.355,1.143-.009,2.287,0,3.43,0" transform="translate(-37.467 -78.581)" fill="#5c332e"/>
    <path id="Trazado_608384" data-name="Trazado 608384" d="M52.562,170.86c.125-.537.27-.668.8-.716.178-.016.356-.028.534-.028q3.839,0,7.677.017a2.933,2.933,0,0,1,.985.085.577.577,0,0,0,.679-.217,17.484,17.484,0,0,1,1.269-1.269.732.732,0,0,1,1.019.075.64.64,0,0,1,.028.98c-.706.749-1.435,1.479-2.174,2.2a.6.6,0,0,0-.217.481q.008,3.75,0,7.5c0,.755-.213.968-.975.985l-.607.012a.042.042,0,0,0-.059.006l-.212.013c-.026-.028-.05-.026-.072,0-2.639,0-5.278.06-7.916-.04a.717.717,0,0,1-.758-.645l-.01-.069q.007-4.344.013-8.688c0-.13-.014-.26-.022-.39,0-.1.006-.2.009-.293m8.973,8.457c.2-.061.13-.233.131-.36,0-.881,0-1.762,0-2.643,0-.667.007-1.334.006-2,0-.113.048-.25-.074-.33-.15-.1-.213.068-.283.132-.515.476-1.02.964-1.524,1.452a12.626,12.626,0,0,1-1.207,1.211.7.7,0,0,1-.952-.007,20.253,20.253,0,0,1-1.442-1.481c-.27-.308-.183-.649.156-.972a.721.721,0,0,1,.905-.023,3.2,3.2,0,0,1,.681.617c.151.176.254.168.4.02q1.437-1.465,2.876-2.928c.067-.069.211-.127.142-.253-.051-.093-.174-.041-.265-.041q-2.983,0-5.965,0a4.239,4.239,0,0,0-.961.026c-.035,0-.051.009-.042.046q0,3.474,0,6.948a.048.048,0,0,0,0,.056c-.01.077-.02.154-.03.231l-.03.012.03.04.03.092c-.017.07-.044.143.055.177a2.071,2.071,0,0,0,.715.007h.031l.028-.015c.166,0,.332.014.5.014l6.022-.011.074-.022" transform="translate(-37.481 -120.217)" fill="#5c332e"/>
    <path id="Trazado_608385" data-name="Trazado 608385" d="M52.576,58.658q0-2.215,0-4.429c0-.614.19-.842.792-.922a4.337,4.337,0,0,1,.569-.034q3.7,0,7.394,0a7.182,7.182,0,0,1,1.448.118c.158.032.24-.06.334-.154.43-.428.856-.861,1.3-1.277a.763.763,0,1,1,1.081,1.07c-.673.69-1.367,1.36-2.065,2.025a.735.735,0,0,0-.254.587c.009,2.465,0,4.929.009,7.394,0,.721-.153,1.08-1.083,1.082-2.869.006-5.737-.014-8.606-.029-.637,0-.93-.32-.929-.964q0-2.232,0-4.465h.011m8.846-1.62a8.24,8.24,0,0,0-.8.757c-.7.619-1.277,1.366-2.029,1.929-.071,0-.1.034-.109.1a.793.793,0,0,1-.88-.073,10.576,10.576,0,0,1-1.217-1.182,1.194,1.194,0,0,1-.366-.588c-.067-.359.207-.526.375-.755h.026l0-.026.324-.039h.125a.851.851,0,0,1,.529.189l.009.027h.028c.155.147.323.282.462.443a.22.22,0,0,0,.36.024c.18-.153.368-.3.538-.464q1.182-1.14,2.356-2.289c.074-.072.209-.134.166-.25s-.188-.069-.289-.069q-3.108,0-6.216,0a4.979,4.979,0,0,0-.5.033c-.153.015-.213.092-.213.261q.01,3.555,0,7.109c0,.319.155.414.422.352a3.734,3.734,0,0,1,.852-.055q2.965,0,5.93.006c.23,0,.358-.045.356-.311-.012-1.619-.015-3.238-.021-4.858a1.173,1.173,0,0,0,.02-.211c-.006-.084.115-.205-.027-.243-.112-.03-.187.074-.223.183" transform="translate(-37.489 -36.854)" fill="#5c332e"/>
    <path id="Trazado_608386" data-name="Trazado 608386" d="M118.88,88.055h-7.539a.877.877,0,0,1-.891-1.115,1.013,1.013,0,0,1,.829-.53c.676-.023,1.349-.081,2.028-.079q6.342.016,12.685,0a3.8,3.8,0,0,1,.774.1.879.879,0,0,1,.681.844.9.9,0,0,1-.849.78c-.643.012-1.286,0-1.93,0H118.88" transform="translate(-78.751 -61.571)" fill="#e3e3e3"/>
    <path id="Trazado_608387" data-name="Trazado 608387" d="M118.94,72.637q3.556,0,7.112,0a3.949,3.949,0,0,1,.813.071.821.821,0,0,1,.645.757.882.882,0,0,1-.624.763,2.041,2.041,0,0,1-.529.057q-7.237,0-14.474,0a5.772,5.772,0,0,1-.848-.077.7.7,0,0,1-.534-.708c-.011-.482.1-.617.45-.741a2.665,2.665,0,0,1,.912-.119q3.538,0,7.076,0" transform="translate(-78.81 -51.804)" fill="#e3e3e3"/>
    <path id="Trazado_608388" data-name="Trazado 608388" d="M115.052,117.26q1.909,0,3.818,0a.9.9,0,0,1,.819.34c.371.552-.026,1.212-.776,1.3a1.541,1.541,0,0,1-.178,0q-3.568,0-7.137,0a1.917,1.917,0,0,1-.819-.215c-.278-.13-.374-.482-.277-.9a.626.626,0,0,1,.66-.529c1.3,0,2.593,0,3.89,0" transform="translate(-78.784 -83.63)" fill="#e3e3e3"/>
    <path id="Trazado_608389" data-name="Trazado 608389" d="M115.174,58.943h3.753a.844.844,0,0,1,.709.267.693.693,0,0,1,.153.758.933.933,0,0,1-.715.528.637.637,0,0,1-.143.005q-3.771,0-7.542,0a.815.815,0,0,1-.8-.444.761.761,0,0,1,.756-1.114c1.275-.01,2.55,0,3.825,0Z" transform="translate(-78.81 -42.035)" fill="#ffe126"/>
    <path id="Trazado_608390" data-name="Trazado 608390" d="M67.027,32.086H64.635a.969.969,0,0,1-.352-.037.942.942,0,0,1-.64-.893,1.021,1.021,0,0,1,.974-.641c1-.006,2,0,3,0,.583,0,1.166,0,1.75,0a.931.931,0,0,1,.812.433.743.743,0,0,1-.651,1.137c-.833.009-1.666,0-2.5,0" transform="translate(-45.386 -21.761)" fill="#f8f9fb"/>
    <path id="Trazado_608391" data-name="Trazado 608391" d="M45.562,30.512a1.69,1.69,0,0,1,.967.157.7.7,0,0,1,.306.834.717.717,0,0,1-.652.575,9.046,9.046,0,0,1-1.176,0,.916.916,0,0,1-.8-.867.859.859,0,0,1,.855-.7c.166,0,.333,0,.5,0" transform="translate(-31.529 -21.761)" fill="#f8f9fb"/>
    <path id="Trazado_608392" data-name="Trazado 608392" d="M52.171,176.582c0,.1-.006.2-.009.293-.246-.106-.173-.2.009-.293" transform="translate(-37.09 -125.939)" fill="#e3e3e3"/>
    <path id="Trazado_608393" data-name="Trazado 608393" d="M52.538,209.253c0,.023.007.046.01.069a.292.292,0,0,1-.028-.047s.012-.015.018-.022" transform="translate(-37.457 -149.24)" fill="#e3e3e3"/>
    <path id="Trazado_608394" data-name="Trazado 608394" d="M82.864,211.824c.022-.03.046-.033.072,0l-.072,0" transform="translate(-59.099 -151.057)" fill="#d86760"/>
    <path id="Trazado_608395" data-name="Trazado 608395" d="M83.855,211.784a.042.042,0,0,1,.059-.006c-.017.03-.036.036-.059.006" transform="translate(-59.806 -151.035)" fill="#d86760"/>
    <path id="Trazado_608396" data-name="Trazado 608396" d="M52.5,150.187a.038.038,0,0,1,0,.062.241.241,0,0,1-.018-.043s.009-.013.015-.019" transform="translate(-37.43 -107.114)" fill="#e3e3e3"/>
    <path id="Trazado_608397" data-name="Trazado 608397" d="M144.378,152.489a4.05,4.05,0,0,1-1.446-.392c-.292-.1-.576-.219-.863-.332a.8.8,0,1,1,.518-1.512,16.609,16.609,0,0,1,2.089.791.78.78,0,0,1,.358,1.162.6.6,0,0,1-.657.283" transform="translate(-100.924 -107.125)" fill="#f8f9fb"/>
    <path id="Trazado_608398" data-name="Trazado 608398" d="M133.332,148.718a1.9,1.9,0,0,1-1.045-.58.78.78,0,0,1,.364-1.18,1.5,1.5,0,0,1,1.621.83c.117.553-.2.94-.94.93" transform="translate(-94.238 -104.787)" fill="#f8f9fb"/>
    <path id="Trazado_608399" data-name="Trazado 608399" d="M61.723,128.869c-1.143,0-2.287,0-3.43,0-.261,0-.366-.088-.349-.355.141-2.236.031-4.475.062-6.713.01-.711-.034-.591.589-.592q3.144-.006,6.288,0c.1,0,.242-.062.3.044s-.085.179-.157.245a36.842,36.842,0,0,0-2.854,2.9c-.15.173-.264.093-.387-.025a5.427,5.427,0,0,0-.708-.652.6.6,0,0,0-.864.073.649.649,0,0,0-.214.88,2.315,2.315,0,0,0,.342.454c.286.3.586.593.882.886a.892.892,0,0,0,1.451.02,29.749,29.749,0,0,0,2.344-2.35c.078-.089.16-.176.247-.258.056-.053.1-.156.2-.109s.048.149.048.227c0,1.143,0,2.287,0,3.43,0,.512-.012,1.025.015,1.536.015.3-.1.363-.369.36-1.143-.012-2.287-.005-3.43-.005Z" transform="translate(-41.324 -86.44)" fill="#ffe126"/>
    <path id="Trazado_608400" data-name="Trazado 608400" d="M57.955,179.54a4.273,4.273,0,0,1,.961-.026q2.982,0,5.965,0c.091,0,.214-.052.265.041.069.126-.074.184-.142.253q-1.435,1.467-2.876,2.928c-.145.148-.248.155-.4-.02a3.2,3.2,0,0,0-.681-.618.72.72,0,0,0-.905.024c-.339.323-.426.664-.156.972a20.306,20.306,0,0,0,1.442,1.481.7.7,0,0,0,.952.007,12.694,12.694,0,0,0,1.207-1.211c.5-.488,1.009-.976,1.524-1.452.07-.064.133-.231.283-.132.122.08.073.217.074.33,0,.667-.006,1.334-.006,2,0,.881.007,1.762,0,2.643,0,.127.072.3-.131.36l-.074.022-6.022.011c-.166,0-.332-.009-.5-.014l-.059.013a2.086,2.086,0,0,1-.715-.007c0-.063.009-.132-.055-.177l-.03-.091a.056.056,0,0,0,0-.053q.015-.116.03-.231c.007-.005.021-.012.02-.015a.262.262,0,0,0-.02-.042q0-3.474,0-6.948a.058.058,0,0,0,.042-.046" transform="translate(-41.28 -128.016)" fill="#fdfde3"/>
    <path id="Trazado_608401" data-name="Trazado 608401" d="M57.945,205.544c.064.045.051.113.055.177-.1-.034-.072-.107-.055-.177" transform="translate(-41.315 -146.595)" fill="#d86760"/>
    <path id="Trazado_608402" data-name="Trazado 608402" d="M57.963,204.039a.3.3,0,0,1,.02.041s-.013.01-.02.015a.049.049,0,0,1,0-.057" transform="translate(-41.333 -145.522)" fill="#d86760"/>
    <path id="Trazado_608403" data-name="Trazado 608403" d="M60.671,206.152l.059-.013-.028.014Z" transform="translate(-43.271 -147.02)" fill="#d86760"/>
    <path id="Trazado_608404" data-name="Trazado 608404" d="M83.613,206.091l.075-.022-.075.022" transform="translate(-59.633 -146.97)" fill="#d86760"/>
    <path id="Trazado_608405" data-name="Trazado 608405" d="M58.033,179.651a.058.058,0,0,1-.042.046c-.01-.037.007-.05.042-.046" transform="translate(-41.358 -128.128)" fill="#d86760"/>
    <path id="Trazado_608406" data-name="Trazado 608406" d="M57.8,205.04a.056.056,0,0,1,0,.053l-.03-.04.03-.012" transform="translate(-41.205 -146.236)" fill="#d86760"/>
    <path id="Trazado_608407" data-name="Trazado 608407" d="M62.444,67.4c.753-.563,1.33-1.31,2.029-1.929a8.234,8.234,0,0,1,.8-.757c.211-.024.15.184.231.271.006,1.619.009,3.238.021,4.858,0,.265-.126.311-.356.311q-2.965-.011-5.93-.006a3.715,3.715,0,0,0-.851.054c-.267.062-.423-.033-.422-.352q.01-3.555,0-7.109c0-.169.06-.245.213-.261a4.979,4.979,0,0,1,.5-.033q3.108,0,6.216,0c.1,0,.245-.051.289.069s-.093.178-.167.25q-1.176,1.146-2.356,2.29c-.17.164-.357.31-.537.463a.22.22,0,0,1-.36-.024c-.139-.16-.307-.3-.462-.443a.028.028,0,0,0-.037-.028.852.852,0,0,0-.529-.189c0-.045-.01-.089-.063-.089s-.064.044-.063.089l-.324.039a.026.026,0,0,0-.029.027c-.169.229-.443.4-.375.755a1.191,1.191,0,0,0,.366.588,10.6,10.6,0,0,0,1.217,1.182.793.793,0,0,0,.88.073c.072.006.112-.024.109-.1" transform="translate(-41.337 -44.533)" fill="#fdfde3"/>
    <path id="Trazado_608408" data-name="Trazado 608408" d="M83.681,70.181c-.081-.087-.019-.3-.23-.271.037-.109.111-.213.224-.183.142.038.02.16.027.243a1.176,1.176,0,0,1-.02.211" transform="translate(-59.518 -49.726)" fill="#d86760"/>
    <path id="Trazado_608409" data-name="Trazado 608409" d="M67.171,70.587c0-.045.01-.089.063-.089s.063.044.063.089h-.125" transform="translate(-47.907 -50.28)" fill="#d86760"/>
    <path id="Trazado_608410" data-name="Trazado 608410" d="M73.326,79.742c0,.076-.037.106-.109.1.006-.066.038-.1.109-.1" transform="translate(-52.219 -56.872)" fill="#d86760"/>
    <path id="Trazado_608411" data-name="Trazado 608411" d="M69.453,71.465a.028.028,0,0,1,.037.028h-.028Z" transform="translate(-49.534 -50.969)" fill="#d86760"/>
    <path id="Trazado_608412" data-name="Trazado 608412" d="M65.94,70.971a.026.026,0,0,1,.029-.027l0,.026Z" transform="translate(-47.029 -50.598)" fill="#d86760"/>
  </g>
</svg>
