<svg xmlns="http://www.w3.org/2000/svg" xmlns:xlink="http://www.w3.org/1999/xlink" width="1030" height="508.868" viewBox="0 0 1030 508.868">
  <defs>
    <clipPath id="clip-path">
      <rect id="Rectángulo_375669" data-name="Rectángulo 375669" width="708" height="462.844" fill="none"/>
    </clipPath>
  </defs>
  <g id="Grupo_1017051" data-name="Grupo 1017051" transform="translate(-285 -836.98)">
    <path id="Trazado_606154" data-name="Trazado 606154" d="M0,0H1030V508.868H0Z" transform="translate(285 836.98)" fill="#fefef1"/>
    <g id="Grupo_1017046" data-name="Grupo 1017046" transform="translate(440.5 861)">
      <g id="Grupo_1017045" data-name="Grupo 1017045" clip-path="url(#clip-path)">
        <path id="Trazado_608611" data-name="Trazado 608611" d="M41.788,303.785a36.934,36.934,0,0,1,36.825,36.825A67.39,67.39,0,0,0,145.8,407.8H620.715a87.284,87.284,0,1,0,0-174.568h-2.294a17.518,17.518,0,0,1,0-35.036h9.635a42.581,42.581,0,0,0,.081-85.162H586.587a36.935,36.935,0,0,1-36.825-36.826,67.388,67.388,0,0,0-67.191-67.19H139.215a87.285,87.285,0,0,0,0,174.57A17.568,17.568,0,0,1,156.733,201.1v0a17.569,17.569,0,0,1-17.517,17.516H41.788c-55.717,0-55.718,85.163,0,85.163" transform="translate(0 0.686)" fill="#dee9f0" fill-rule="evenodd"/>
        <path id="Trazado_608612" data-name="Trazado 608612" d="M632.849,376.48H26.706a12.833,12.833,0,0,0,0,25.666h43.3a7.151,7.151,0,0,1,7.129,7.129v0a7.152,7.152,0,0,1-7.129,7.129H54.163a8.939,8.939,0,0,0-8.91,8.912h0a8.939,8.939,0,0,0,8.91,8.91H603.976a8.936,8.936,0,0,0,8.909-8.91h0a8.937,8.937,0,0,0-8.909-8.912H591.5a7.152,7.152,0,0,1-7.13-7.129v0a7.151,7.151,0,0,1,7.13-7.129h41.352a12.833,12.833,0,1,0,0-25.666m-6.682,57.748a8.581,8.581,0,0,1-8.557-8.553v-.713a8.555,8.555,0,1,1,17.111,0v.713a8.578,8.578,0,0,1-8.553,8.553" transform="translate(1.055 28.616)" fill="#000614" fill-rule="evenodd"/>
        <path id="Trazado_608613" data-name="Trazado 608613" d="M550.47,50.287a16.932,16.932,0,1,1-3.678,5.5,17,17,0,0,1,3.678-5.5m6.1-2.232a15.454,15.454,0,1,0,5.881-1.162,15.4,15.4,0,0,0-5.881,1.162m-1.873-12.464a27.572,27.572,0,0,0-6.119,2.609,28.24,28.24,0,0,0-2.826,1.873,27.529,27.529,0,0,0-2.58,2.2,1.767,1.767,0,0,1-2.119.255c-2.489-1.435-5.1-2.858-7.542-4.355a1.03,1.03,0,0,0-.366-.112,1.137,1.137,0,0,0-.8.217,1.069,1.069,0,0,0-.273.313c-1.813,2.744-3.635,6.289-5.313,9.2a1.045,1.045,0,0,0-.132.391,1.083,1.083,0,0,0,.032.429,1.067,1.067,0,0,0,.5.655c2.239,1.478,5.121,2.961,7.493,4.33a1.757,1.757,0,0,1,.747.839,1.682,1.682,0,0,1,.113.369l.155.051-.173.7c-.136.551-.255,1.1-.356,1.647-.1.533-.183,1.09-.252,1.67s-.122,1.13-.156,1.686-.048,1.11-.048,1.7.016,1.159.048,1.7.087,1.119.156,1.687.155,1.138.253,1.67q.15.822.355,1.647a1.767,1.767,0,0,1-.915,2l-6.637,3.833h0l-.786.455a1.057,1.057,0,0,0-.313.274,1.106,1.106,0,0,0-.185.382,1.072,1.072,0,0,0-.032.427,1.032,1.032,0,0,0,.132.391l4.914,8.514h0l.4.688a1.083,1.083,0,0,0,.273.313,1.137,1.137,0,0,0,.383.184,1.053,1.053,0,0,0,.816-.1c2.376-1.5,5.057-2.92,7.512-4.335a1.768,1.768,0,0,1,2.11.253l0,0a27.645,27.645,0,0,0,11.6,6.706,1.756,1.756,0,0,1,.93.637,1.778,1.778,0,0,1,.358,1.072l0,8.661a1.088,1.088,0,0,0,.079.406,1.114,1.114,0,0,0,.236.349,1.083,1.083,0,0,0,.351.238,1.069,1.069,0,0,0,.406.079h10.629a1.051,1.051,0,0,0,.758-.314,1.127,1.127,0,0,0,.235-.351,1.03,1.03,0,0,0,.081-.406V90.673a1.792,1.792,0,0,1,1.368-1.73,27.275,27.275,0,0,0,3.121-1.113,27.622,27.622,0,0,0,3-1.5,28.11,28.11,0,0,0,5.407-4.074,1.751,1.751,0,0,1,1.066-.486,1.776,1.776,0,0,1,1.14.283l7.414,4.281a1.048,1.048,0,0,0,.393.131,1.14,1.14,0,0,0,.809-.216,1.075,1.075,0,0,0,.275-.313c1.763-3.072,3.551-6.131,5.314-9.2a1.079,1.079,0,0,0,.13-.392,1.147,1.147,0,0,0-.214-.809,1.027,1.027,0,0,0-.308-.273l-7.5-4.33a1.769,1.769,0,0,1-.845-1.124l-.195-.04.2-.794c.136-.551.256-1.1.355-1.647s.182-1.091.255-1.672c.069-.566.12-1.131.152-1.687s.051-1.11.051-1.7-.017-1.16-.051-1.7-.083-1.118-.152-1.683q-.11-.886-.255-1.677c-.1-.548-.219-1.1-.355-1.644a1.77,1.77,0,0,1,.91-2l7.428-4.288a1.016,1.016,0,0,0,.312-.273,1.1,1.1,0,0,0,.183-.382,1.132,1.132,0,0,0,.031-.427,1.091,1.091,0,0,0-.13-.393c-1.814-2.7-3.632-6.3-5.314-9.2a1.062,1.062,0,0,0-.275-.313,1.1,1.1,0,0,0-.38-.185,1.11,1.11,0,0,0-.427-.032,1.06,1.06,0,0,0-.393.135l-7.506,4.332a1.739,1.739,0,0,1-1.124.223,1.783,1.783,0,0,1-1.015-.5,27.527,27.527,0,0,0-2.569-2.192,27.653,27.653,0,0,0-5.832-3.368,27.363,27.363,0,0,0-3.18-1.124,1.78,1.78,0,0,1-1.286-1.709l0-8.661a1.048,1.048,0,0,0-.08-.407,1.076,1.076,0,0,0-.237-.35,1.028,1.028,0,0,0-.35-.237,1.083,1.083,0,0,0-.407-.08H557.133a1.069,1.069,0,0,0-.406.08,1.076,1.076,0,0,0-.665.993v8.661a1.761,1.761,0,0,1-.384,1.1,1.788,1.788,0,0,1-.985.631m-3.736-.328a28.725,28.725,0,0,0-3.169,1.584,29.421,29.421,0,0,0-5.707,4.3.2.2,0,0,1-.118.056.207.207,0,0,1-.129-.026q-3.785-2.185-7.57-4.371a2.624,2.624,0,0,0-.947-.3,2.683,2.683,0,0,0-.994.075,2.637,2.637,0,0,0-.927.455,2.581,2.581,0,0,0-.68.774c-1.829,2.961-3.564,6.17-5.314,9.2a2.618,2.618,0,0,0-.328.979,2.641,2.641,0,0,0,1.3,2.635c2.413,1.49,5.03,2.905,7.5,4.331a.2.2,0,0,1,.085.1.209.209,0,0,1,.013.132l-.173.7.01,0q-.11.51-.209,1.036c-.111.6-.2,1.191-.27,1.769s-.125,1.167-.163,1.778-.055,1.213-.055,1.8.018,1.181.055,1.792.093,1.206.163,1.78.159,1.169.27,1.768.235,1.178.374,1.741a.205.205,0,0,1-.015.137.213.213,0,0,1-.093.1c-2.756,1.472-5.554,3.2-8.278,4.777l.1.122-.083.1a2.678,2.678,0,0,0-.524,1.957,2.539,2.539,0,0,0,.331.977l5.709,9.89.1-.063c.058.051.116.1.178.147a2.637,2.637,0,0,0,.927.455,2.658,2.658,0,0,0,1.979-.244c2.5-1.327,5.068-2.927,7.533-4.351a.228.228,0,0,1,.128-.024.241.241,0,0,1,.123.058,29.825,29.825,0,0,0,2.72,2.322,29.314,29.314,0,0,0,9.534,4.761.192.192,0,0,1,.109.073.2.2,0,0,1,.042.127v8.661a2.589,2.589,0,0,0,.2,1.006,2.636,2.636,0,0,0,.578.86,2.676,2.676,0,0,0,.857.575,2.6,2.6,0,0,0,1.005.2h10.629a2.621,2.621,0,0,0,1.008-.2,2.753,2.753,0,0,0,.859-.575,2.7,2.7,0,0,0,.574-.86,2.609,2.609,0,0,0,.2-1.006V90.673a.2.2,0,0,1,.041-.13.216.216,0,0,1,.118-.074l.034-.013a28.955,28.955,0,0,0,3.339-1.186,29.439,29.439,0,0,0,3.172-1.583,29.745,29.745,0,0,0,2.982-1.977,29.25,29.25,0,0,0,2.722-2.324.207.207,0,0,1,.124-.058.217.217,0,0,1,.136.034l7.5,4.33a2.634,2.634,0,0,0,.975.327,2.706,2.706,0,0,0,1.03-.069,2.652,2.652,0,0,0,1.595-1.205c1.969-3.17,3.83-6.639,5.71-9.894l-.1-.059c.019-.083.033-.167.045-.252a2.715,2.715,0,0,0-.069-1.027,2.654,2.654,0,0,0-.456-.926,2.578,2.578,0,0,0-.772-.678l-7.5-4.332a.206.206,0,0,1-.086-.1.235.235,0,0,1-.012-.136l.195-.793-.012,0c.068-.31.13-.623.19-.94q.165-.9.272-1.771c.068-.574.123-1.167.158-1.778s.057-1.211.057-1.794-.019-1.184-.057-1.794-.09-1.205-.158-1.784-.162-1.164-.272-1.769-.236-1.174-.374-1.736a.234.234,0,0,1,.014-.14.23.23,0,0,1,.1-.1l7.491-4.323a2.57,2.57,0,0,0,.769-.68,2.686,2.686,0,0,0,.456-.925,2.719,2.719,0,0,0,.069-1.028,2.69,2.69,0,0,0-.317-.957c-1.786-3.307-3.833-6.64-5.721-9.912l-.107.065a2.286,2.286,0,0,0-.177-.148,2.671,2.671,0,0,0-2.929-.2l-.555.32,0,.005-6.958,4.016a.214.214,0,0,1-.133.026.2.2,0,0,1-.119-.058l-.018-.02a29.316,29.316,0,0,0-12.235-7.064.209.209,0,0,1-.109-.072.191.191,0,0,1-.043-.127V25.2a2.62,2.62,0,0,0-.2-1.008,2.656,2.656,0,0,0-.576-.858,2.687,2.687,0,0,0-.857-.574,2.624,2.624,0,0,0-1.008-.2H557.133a2.6,2.6,0,0,0-1.005.2,2.671,2.671,0,0,0-.859.574,2.632,2.632,0,0,0-.778,1.866v8.661a.229.229,0,0,1-.042.13.214.214,0,0,1-.117.073l-.033.012a28.852,28.852,0,0,0-3.341,1.186" transform="translate(39.909 1.715)" fill="#a79ccb" fill-rule="evenodd"/>
        <path id="Trazado_608614" data-name="Trazado 608614" d="M578.723,121.188a28.944,28.944,0,1,0,28.945,28.946,28.945,28.945,0,0,0-28.945-28.946" transform="translate(41.788 9.211)" fill="#a79ccb" fill-rule="evenodd"/>
        <path id="Trazado_608615" data-name="Trazado 608615" d="M583.325,176.22a28.945,28.945,0,1,0-28.945-28.945,29,29,0,0,0,28.945,28.945" transform="translate(42.138 8.994)" fill="#fff" fill-rule="evenodd"/>
        <path id="Trazado_608616" data-name="Trazado 608616" d="M582.81,125.12a21.642,21.642,0,1,0,15.3,6.339,21.582,21.582,0,0,0-15.3-6.339m-19.3,22.794h8.831a43.014,43.014,0,0,0,.736,7.016A26.377,26.377,0,0,0,566.6,157.3a19.2,19.2,0,0,1-3.086-9.383m11.139,0h7v5.946a42.838,42.838,0,0,0-6.312.608,40.7,40.7,0,0,1-.689-6.554m9.312,0h7a40.715,40.715,0,0,1-.686,6.554,42.841,42.841,0,0,0-6.315-.608Zm9.311,0h8.833a19.209,19.209,0,0,1-3.09,9.383,26.361,26.361,0,0,0-6.479-2.367,42.541,42.541,0,0,0,.736-7.016m8.833-2.309h-8.833a43.344,43.344,0,0,0-.549-5.957,25.7,25.7,0,0,0,6.8-2.606,19.249,19.249,0,0,1,2.584,8.563m-11.64-5.484a41.8,41.8,0,0,1,.5,5.484h-7v-4.843a43.077,43.077,0,0,0,6.5-.641m-15.316,0a43.076,43.076,0,0,0,6.5.641v4.843h-7a42.191,42.191,0,0,1,.5-5.484m-2.807,5.484h-8.831a19.168,19.168,0,0,1,2.583-8.563,25.594,25.594,0,0,0,6.8,2.606,43.192,43.192,0,0,0-.549,5.957m9.309-17.967v10.816a41.669,41.669,0,0,1-6.062-.6,26.662,26.662,0,0,1,1.673-5.1c.822-1.8,2.335-4.368,4.389-5.114m0,28.531v9.712c-2.054-.745-3.567-3.31-4.389-5.114a25.526,25.526,0,0,1-1.415-4.046,41.369,41.369,0,0,1,5.8-.552m2.311,9.712v-9.712a41.385,41.385,0,0,1,5.806.552,25.318,25.318,0,0,1-1.416,4.046c-.821,1.8-2.337,4.37-4.39,5.114m0-27.427V127.638c2.053.746,3.569,3.312,4.391,5.114a26.662,26.662,0,0,1,1.673,5.1,41.683,41.683,0,0,1-6.064.6m14.279-3.338a23.492,23.492,0,0,1-5.957,2.265,29.217,29.217,0,0,0-1.835-5.586,17.2,17.2,0,0,0-2.136-3.571,19.38,19.38,0,0,1,9.927,6.892m-24.91,2.265a23.453,23.453,0,0,1-5.956-2.265,19.863,19.863,0,0,1,1.764-2.025,19.305,19.305,0,0,1,8.163-4.867,17.011,17.011,0,0,0-2.136,3.571,28.843,28.843,0,0,0-1.835,5.586m-5.344,21.793a24.3,24.3,0,0,1,5.6-1.995,27.648,27.648,0,0,0,1.581,4.543A16.889,16.889,0,0,0,577.3,165.3a19.316,19.316,0,0,1-8.163-4.866c-.4-.4-.788-.822-1.151-1.256m24.044-1.995a24.177,24.177,0,0,1,5.6,1.995q-.547.65-1.149,1.256a19.35,19.35,0,0,1-8.165,4.866,17.172,17.172,0,0,0,2.136-3.571,28.053,28.053,0,0,0,1.582-4.545" transform="translate(42.654 9.51)" fill="#60cb28" fill-rule="evenodd"/>
        <path id="Trazado_608617" data-name="Trazado 608617" d="M81.974,131.438h45.9a3.009,3.009,0,0,0,3-3V71.658L113.159,52.986H81.974a3.01,3.01,0,0,0-3,3v72.45a3.01,3.01,0,0,0,3,3" transform="translate(6.003 4.027)" fill="#60cb28" fill-rule="evenodd"/>
        <path id="Trazado_608618" data-name="Trazado 608618" d="M110.744,52.986V68.655a3.009,3.009,0,0,0,3,3h14.719Z" transform="translate(8.418 4.027)" fill="#3b7b1a" fill-rule="evenodd"/>
        <path id="Trazado_608619" data-name="Trazado 608619" d="M91.114,78.7H117.32a2.822,2.822,0,0,1,2.814,2.814v33.39a2.822,2.822,0,0,1-2.814,2.814H91.114a2.822,2.822,0,0,1-2.815-2.814V81.518A2.822,2.822,0,0,1,91.114,78.7" transform="translate(6.712 5.982)" fill="#e1f5d6" fill-rule="evenodd"/>
        <path id="Trazado_608620" data-name="Trazado 608620" d="M275.593,285.2h83.668L372.378,369.9h-109.9Z" transform="translate(19.951 21.678)" fill="#000614" fill-rule="evenodd"/>
        <path id="Trazado_608621" data-name="Trazado 608621" d="M252.411,362.774h133.5a12.758,12.758,0,0,1,12.722,12.721,3.97,3.97,0,0,1-3.961,3.96H243.648a3.97,3.97,0,0,1-3.959-3.96,12.758,12.758,0,0,1,12.722-12.721" transform="translate(18.219 27.574)" fill="#0f1630" fill-rule="evenodd"/>
        <path id="Trazado_608622" data-name="Trazado 608622" d="M152.037,101.864H498.061a13.1,13.1,0,0,1,13.057,13.057V321.63a13.1,13.1,0,0,1-13.057,13.056H152.037A13.1,13.1,0,0,1,138.98,321.63V114.921a13.1,13.1,0,0,1,13.057-13.057" transform="translate(10.564 7.743)" fill="#18233d" fill-rule="evenodd"/>
        <path id="Trazado_608623" data-name="Trazado 608623" d="M511.119,300.07V325.1a13.094,13.094,0,0,1-13.057,13.056H152.037A13.094,13.094,0,0,1,138.98,325.1V300.07Z" transform="translate(10.564 22.808)" fill="#02091f" fill-rule="evenodd"/>
        <rect id="Rectángulo_375667" data-name="Rectángulo 375667" width="347.391" height="188.522" transform="translate(161.919 121.982)" fill="#dee9f0"/>
        <rect id="Rectángulo_375668" data-name="Rectángulo 375668" width="68.599" height="188.522" transform="translate(161.919 121.982)" fill="#fff"/>
        <path id="Trazado_608624" data-name="Trazado 608624" d="M312.636,307.49A10.334,10.334,0,1,1,302.3,317.824a10.334,10.334,0,0,1,10.334-10.334" transform="translate(22.978 23.372)" fill="#fff" fill-rule="evenodd"/>
        <path id="Trazado_608625" data-name="Trazado 608625" d="M288.986,154.456H229.545c-.837,0-1.517.961-1.517,2.139s.682,2.144,1.517,2.144h59.441c.835,0,1.519-.961,1.519-2.144s-.684-2.139-1.519-2.139" transform="translate(17.332 11.74)" fill="#f7cdd9" fill-rule="evenodd"/>
        <path id="Trazado_608626" data-name="Trazado 608626" d="M288.986,171.45H229.545c-.837,0-1.517.965-1.517,2.143s.682,2.144,1.517,2.144h59.441c.835,0,1.519-.963,1.519-2.144s-.684-2.143-1.519-2.143" transform="translate(17.332 13.032)" fill="#f7cdd9" fill-rule="evenodd"/>
        <path id="Trazado_608627" data-name="Trazado 608627" d="M288.986,188.447H229.545c-.837,0-1.517.963-1.517,2.143s.682,2.142,1.517,2.142h59.441c.835,0,1.519-.963,1.519-2.142s-.684-2.143-1.519-2.143" transform="translate(17.332 14.324)" fill="#f7cdd9" fill-rule="evenodd"/>
        <path id="Trazado_608628" data-name="Trazado 608628" d="M288.986,205.445H229.545c-.837,0-1.517.963-1.517,2.143s.682,2.142,1.517,2.142h59.441c.835,0,1.519-.963,1.519-2.142s-.684-2.143-1.519-2.143" transform="translate(17.332 15.616)" fill="#f7cdd9" fill-rule="evenodd"/>
        <path id="Trazado_608629" data-name="Trazado 608629" d="M288.986,222.443H229.545c-.837,0-1.517.963-1.517,2.141s.682,2.145,1.517,2.145h59.441c.835,0,1.519-.963,1.519-2.145s-.684-2.141-1.519-2.141" transform="translate(17.332 16.908)" fill="#f7cdd9" fill-rule="evenodd"/>
        <path id="Trazado_608630" data-name="Trazado 608630" d="M288.986,239.439H229.545c-.837,0-1.517.964-1.517,2.142s.682,2.145,1.517,2.145h59.441c.835,0,1.519-.964,1.519-2.145s-.684-2.142-1.519-2.142" transform="translate(17.332 18.2)" fill="#f7cdd9" fill-rule="evenodd"/>
        <path id="Trazado_608631" data-name="Trazado 608631" d="M166.227,162.26H205.2a2.1,2.1,0,1,1,0,4.205H166.227a2.1,2.1,0,1,1,0-4.205" transform="translate(12.475 12.333)" fill="#ec7da5" fill-rule="evenodd"/>
        <path id="Trazado_608632" data-name="Trazado 608632" d="M166.227,170.857h22.079a2.1,2.1,0,0,1,0,4.205H166.227a2.1,2.1,0,1,1,0-4.205" transform="translate(12.475 12.987)" fill="#ec7da5" fill-rule="evenodd"/>
        <path id="Trazado_608633" data-name="Trazado 608633" d="M166.227,188.185H205.2a2.1,2.1,0,1,1,0,4.2H166.227a2.1,2.1,0,1,1,0-4.2" transform="translate(12.475 14.304)" fill="#ec7da5" fill-rule="evenodd"/>
        <path id="Trazado_608634" data-name="Trazado 608634" d="M166.227,196.782h22.079a2.1,2.1,0,0,1,0,4.205H166.227a2.1,2.1,0,1,1,0-4.205" transform="translate(12.475 14.957)" fill="#ec7da5" fill-rule="evenodd"/>
        <path id="Trazado_608635" data-name="Trazado 608635" d="M193.713,196.782h3.227a2.1,2.1,0,0,1,0,4.205h-3.227a2.1,2.1,0,0,1,0-4.205" transform="translate(14.564 14.957)" fill="#ec7da5" fill-rule="evenodd"/>
        <path id="Trazado_608636" data-name="Trazado 608636" d="M166.227,220.79h19.836a2.1,2.1,0,0,0,0-4.2H166.227a2.1,2.1,0,1,0,0,4.2" transform="translate(12.475 16.462)" fill="#ec7da5" fill-rule="evenodd"/>
        <path id="Trazado_608637" data-name="Trazado 608637" d="M166.227,212.193h27.4a2.1,2.1,0,1,0,0-4.205h-27.4a2.1,2.1,0,1,0,0,4.205" transform="translate(12.475 15.809)" fill="#ec7da5" fill-rule="evenodd"/>
        <path id="Trazado_608638" data-name="Trazado 608638" d="M199.285,212.193h4.731a2.1,2.1,0,1,0,0-4.205h-4.731a2.1,2.1,0,0,0,0,4.205" transform="translate(14.988 15.809)" fill="#ec7da5" fill-rule="evenodd"/>
        <path id="Trazado_608639" data-name="Trazado 608639" d="M166.227,229.779h13.106a2.1,2.1,0,0,0,0-4.206H166.227a2.1,2.1,0,0,0,0,4.206" transform="translate(12.475 17.146)" fill="#ec7da5" fill-rule="evenodd"/>
        <path id="Trazado_608640" data-name="Trazado 608640" d="M166.227,238.377h29.087a2.1,2.1,0,0,0,0-4.2H166.227a2.1,2.1,0,1,0,0,4.2" transform="translate(12.475 17.799)" fill="#ec7da5" fill-rule="evenodd"/>
        <path id="Trazado_608641" data-name="Trazado 608641" d="M185.4,155.715a17.177,17.177,0,1,0-17.178-17.176A17.211,17.211,0,0,0,185.4,155.715" transform="translate(12.786 9.224)" fill="#a79ccb" fill-rule="evenodd"/>
        <path id="Trazado_608642" data-name="Trazado 608642" d="M193.7,149.448a14.339,14.339,0,0,1-17.768,0,8.889,8.889,0,0,1,17.768,0m-8.885-23.483a6.382,6.382,0,1,1-6.382,6.382,6.383,6.383,0,0,1,6.382-6.382" transform="translate(13.372 9.574)" fill="#fff" fill-rule="evenodd"/>
        <path id="Trazado_608643" data-name="Trazado 608643" d="M462.954,258.019H236.373a9.579,9.579,0,0,0-9.551,9.552h0a9.579,9.579,0,0,0,9.551,9.552H462.954a9.581,9.581,0,0,0,9.553-9.552h0a9.579,9.579,0,0,0-9.553-9.552" transform="translate(17.241 19.612)" fill="#60cb28" fill-rule="evenodd"/>
        <path id="Trazado_608644" data-name="Trazado 608644" d="M461.646,262.612H288.131a4.623,4.623,0,0,0-4.61,4.61h0a4.624,4.624,0,0,0,4.61,4.611H461.646a4.624,4.624,0,0,0,4.61-4.611h0a4.624,4.624,0,0,0-4.61-4.61m-213.053,0h0a4.55,4.55,0,0,0-4.538,4.535v.148a4.552,4.552,0,0,0,4.538,4.538h0a4.551,4.551,0,0,0,4.538-4.538v-.148a4.549,4.549,0,0,0-4.538-4.535m24.688,0h-8.934a4.622,4.622,0,0,0-4.61,4.61h0a4.624,4.624,0,0,0,4.61,4.611h8.934a4.624,4.624,0,0,0,4.61-4.611h0a4.622,4.622,0,0,0-4.61-4.61" transform="translate(18.55 19.961)" fill="#e1f5d6" fill-rule="evenodd"/>
        <path id="Trazado_608645" data-name="Trazado 608645" d="M341.307,170.3h0a4.523,4.523,0,0,1,4.51,4.512v11.378a4.511,4.511,0,1,1-9.022,0V174.816a4.524,4.524,0,0,1,4.513-4.512" transform="translate(25.599 12.945)" fill="#304c8e" fill-rule="evenodd"/>
        <path id="Trazado_608646" data-name="Trazado 608646" d="M366.916,180.676h0a4.521,4.521,0,0,1,0,6.38l-8.045,8.047a4.528,4.528,0,0,1-6.382,0v0a4.525,4.525,0,0,1,0-6.38l8.046-8.045a4.523,4.523,0,0,1,6.381,0" transform="translate(26.692 13.633)" fill="#304c8e" fill-rule="evenodd"/>
        <path id="Trazado_608647" data-name="Trazado 608647" d="M377.524,205.718h0a4.526,4.526,0,0,1-4.51,4.513H361.634a4.512,4.512,0,0,1,0-9.024h11.381a4.525,4.525,0,0,1,4.51,4.512" transform="translate(27.145 15.293)" fill="#304c8e" fill-rule="evenodd"/>
        <path id="Trazado_608648" data-name="Trazado 608648" d="M366.916,231.327v0a4.527,4.527,0,0,1-6.381,0l-8.046-8.047a4.512,4.512,0,0,1,6.382-6.38l8.045,8.045a4.521,4.521,0,0,1,0,6.38" transform="translate(26.692 16.386)" fill="#304c8e" fill-rule="evenodd"/>
        <path id="Trazado_608649" data-name="Trazado 608649" d="M341.307,221.535h0a4.523,4.523,0,0,1,4.51,4.512v11.38a4.511,4.511,0,0,1-9.022,0v-11.38a4.524,4.524,0,0,1,4.513-4.512" transform="translate(25.599 16.839)" fill="#304c8e" fill-rule="evenodd"/>
        <path id="Trazado_608650" data-name="Trazado 608650" d="M330.69,216.9h0a4.527,4.527,0,0,1,0,6.381l-8.047,8.046a4.527,4.527,0,0,1-6.381,0v0a4.522,4.522,0,0,1,0-6.379l8.045-8.046a4.525,4.525,0,0,1,6.381,0" transform="translate(23.939 16.386)" fill="#fdfde3" fill-rule="evenodd"/>
        <path id="Trazado_608651" data-name="Trazado 608651" d="M326.294,205.718h0a4.526,4.526,0,0,1-4.512,4.513H310.4a4.512,4.512,0,0,1,0-9.024h11.38a4.525,4.525,0,0,1,4.512,4.512" transform="translate(23.251 15.293)" fill="#fdfde3" fill-rule="evenodd"/>
        <path id="Trazado_608652" data-name="Trazado 608652" d="M330.692,195.1l0,0a4.527,4.527,0,0,1-6.381,0l-8.045-8.047a4.511,4.511,0,0,1,6.381-6.38l8.047,8.045a4.525,4.525,0,0,1,0,6.38" transform="translate(23.939 13.633)" fill="#fdfde3" fill-rule="evenodd"/>
        <path id="Trazado_608653" data-name="Trazado 608653" d="M224.611,118.9H423.368a4.076,4.076,0,0,1,4.064,4.063v18.4a4.075,4.075,0,0,1-4.064,4.063H224.611a4.073,4.073,0,0,1-4.063-4.063v-18.4a4.074,4.074,0,0,1,4.063-4.063" transform="translate(16.764 9.037)" fill="#fdfde3" fill-rule="evenodd"/>
        <path id="Trazado_608654" data-name="Trazado 608654" d="M372.335,135.193a3.707,3.707,0,1,0-3.707-3.707,3.714,3.714,0,0,0,3.707,3.707" transform="translate(28.019 9.712)" fill="#fff" fill-rule="evenodd"/>
        <path id="Trazado_608655" data-name="Trazado 608655" d="M386.545,135.193a3.707,3.707,0,1,0-3.706-3.707,3.715,3.715,0,0,0,3.706,3.707" transform="translate(29.099 9.712)" fill="#fff" fill-rule="evenodd"/>
        <path id="Trazado_608656" data-name="Trazado 608656" d="M400.756,135.193a3.707,3.707,0,1,0-3.707-3.707,3.714,3.714,0,0,0,3.707,3.707" transform="translate(30.179 9.712)" fill="#fff" fill-rule="evenodd"/>
        <path id="Trazado_608657" data-name="Trazado 608657" d="M413.973,154.456h-20.75c-.837,0-1.516.961-1.516,2.139s.68,2.144,1.516,2.144h20.75c.835,0,1.519-.961,1.519-2.144s-.684-2.139-1.519-2.139" transform="translate(29.773 11.74)" fill="#f7cdd9" fill-rule="evenodd"/>
        <path id="Trazado_608658" data-name="Trazado 608658" d="M415.132,171.45H393.223c-.838,0-1.517.965-1.517,2.143s.681,2.144,1.517,2.144h21.909c.835,0,1.519-.963,1.519-2.144s-.684-2.143-1.519-2.143" transform="translate(29.773 13.032)" fill="#f7cdd9" fill-rule="evenodd"/>
        <path id="Trazado_608659" data-name="Trazado 608659" d="M416.752,188.447H393.223c-.838,0-1.516.963-1.516,2.143s.679,2.142,1.516,2.142h23.529c.836,0,1.52-.963,1.52-2.142s-.686-2.143-1.52-2.143" transform="translate(29.773 14.324)" fill="#f7cdd9" fill-rule="evenodd"/>
        <path id="Trazado_608660" data-name="Trazado 608660" d="M452.662,205.445H393.223c-.838,0-1.516.963-1.516,2.143s.679,2.142,1.516,2.142h59.439c.836,0,1.52-.963,1.52-2.142s-.684-2.143-1.52-2.143" transform="translate(29.773 15.616)" fill="#f7cdd9" fill-rule="evenodd"/>
        <path id="Trazado_608661" data-name="Trazado 608661" d="M452.662,222.443H393.223c-.838,0-1.516.963-1.516,2.141s.679,2.145,1.516,2.145h59.439c.836,0,1.52-.963,1.52-2.145s-.684-2.141-1.52-2.141" transform="translate(29.773 16.908)" fill="#f7cdd9" fill-rule="evenodd"/>
        <path id="Trazado_608662" data-name="Trazado 608662" d="M452.662,239.439H393.223c-.838,0-1.516.964-1.516,2.142s.679,2.145,1.516,2.145h59.439c.836,0,1.52-.964,1.52-2.145s-.684-2.142-1.52-2.142" transform="translate(29.773 18.2)" fill="#f7cdd9" fill-rule="evenodd"/>
        <path id="Trazado_608663" data-name="Trazado 608663" d="M290.492,29.478c10.576,0,33.259,13.982,33.259,32.351a33.258,33.258,0,0,1-33.259,33.259H166.734a13.838,13.838,0,0,1-13.725-13.722,13.6,13.6,0,0,1,12.678-13.686c-.048-.661-.073,5.877-.073-2,0-11.015,7.262-24.664,24.882-24.9,2.888-.038-2.61-.044,0-.044C193.8,17.7,215.634,0,237.552,0s36.93,12.22,44.021,29.559c5.592,0-1.658-.08,8.919-.08" transform="translate(11.63 0)" fill="#304c8e" fill-rule="evenodd"/>
        <path id="Trazado_608664" data-name="Trazado 608664" d="M210.309,91.072s1.938,9.432,10.755,9.432H239.4c7.229,0,18.338-3.7,18.338-16.223V52.856H225.825V91.072Z" transform="translate(15.985 4.018)" fill="#60cb28" fill-rule="evenodd"/>
        <path id="Trazado_608665" data-name="Trazado 608665" d="M210.7,64.78l29.661-36.854a1.823,1.823,0,0,1,2.841,0l29.66,36.854a1.822,1.822,0,0,1-1.42,2.964H212.124a1.822,1.822,0,0,1-1.42-2.964" transform="translate(15.984 2.071)" fill="#60cb28" fill-rule="evenodd"/>
        <path id="Trazado_608666" data-name="Trazado 608666" d="M361.248,23.551h60.7a8.039,8.039,0,0,1,8.017,8.016V88.113a.894.894,0,0,1-1.527.631l-13.66-13.657H361.248a8.04,8.04,0,0,1-8.016-8.017v-35.5a8.039,8.039,0,0,1,8.016-8.016" transform="translate(26.849 1.79)" fill="#60cb28" fill-rule="evenodd"/>
        <path id="Trazado_608667" data-name="Trazado 608667" d="M391.95,31.67l8.68,7.405a3.154,3.154,0,1,1-4.1,4.793l-3.633-3.1V51.916a3.163,3.163,0,0,1-6.326,0V40.769l-3.635,3.1a3.155,3.155,0,0,1-4.1-4.795l8.681-7.4a3.16,3.16,0,0,1,4.434,0" transform="translate(28.711 2.338)" fill="#fff" fill-rule="evenodd"/>
        <path id="Trazado_608668" data-name="Trazado 608668" d="M392.273,59.133a3.163,3.163,0,1,0-6.326,0v2.092a3.163,3.163,0,1,0,6.326,0Z" transform="translate(29.335 4.254)" fill="#fff" fill-rule="evenodd"/>
        <path id="Trazado_608669" data-name="Trazado 608669" d="M535.94,195.831a1.037,1.037,0,0,0-2.075,0V200.5a1.037,1.037,0,0,0,2.075,0Zm7.073,3.79a1.037,1.037,0,0,0-1.467-1.468l-3.3,3.3a1.038,1.038,0,0,0,1.467,1.469Zm2.321,7.679a1.037,1.037,0,1,0,0-2.073h-4.667a1.037,1.037,0,1,0,0,2.073Zm-3.788,7.074a1.037,1.037,0,0,0,1.467-1.468l-3.3-3.3a1.037,1.037,0,0,0-1.467,1.468Zm-7.681,2.322a1.037,1.037,0,0,0,2.075,0v-4.668a1.037,1.037,0,0,0-2.075,0Zm-7.073-3.79a1.038,1.038,0,0,0,1.468,1.468l3.3-3.3a1.037,1.037,0,0,0-1.467-1.468Zm-2.323-7.679a1.037,1.037,0,0,0,0,2.073h4.668a1.037,1.037,0,1,0,0-2.073Zm3.791-7.074a1.038,1.038,0,1,0-1.468,1.468l3.3,3.3a1.038,1.038,0,0,0,1.467-1.469Z" transform="translate(39.786 14.806)" fill="#fff" fill-rule="evenodd"/>
        <path id="Trazado_608670" data-name="Trazado 608670" d="M46.558,231.827a1.038,1.038,0,1,0-2.076,0v4.666a1.038,1.038,0,1,0,2.076,0Zm7.072,3.788a1.037,1.037,0,1,0-1.467-1.468l-3.3,3.3a1.039,1.039,0,1,0,1.469,1.469Zm2.322,7.679a1.037,1.037,0,0,0,0-2.075H51.284a1.037,1.037,0,1,0,0,2.075Zm-3.789,7.074a1.037,1.037,0,1,0,1.467-1.468l-3.3-3.3a1.038,1.038,0,1,0-1.469,1.468Zm-7.681,2.322a1.038,1.038,0,0,0,2.076,0v-4.668a1.038,1.038,0,0,0-2.076,0Zm-7.073-3.79a1.038,1.038,0,1,0,1.468,1.468l3.3-3.3a1.038,1.038,0,0,0-1.468-1.468Zm-2.322-7.681a1.037,1.037,0,0,0,0,2.075h4.668a1.037,1.037,0,0,0,0-2.075Zm3.79-7.073a1.038,1.038,0,1,0-1.468,1.468l3.3,3.3a1.038,1.038,0,0,0,1.468-1.469Z" transform="translate(2.588 17.542)" fill="#a79ccb" fill-rule="evenodd"/>
        <path id="Trazado_608671" data-name="Trazado 608671" d="M625.549,311.442a1.037,1.037,0,1,0-2.075,0v4.668a1.037,1.037,0,0,0,2.075,0Zm7.073,3.79a1.038,1.038,0,0,0-1.468-1.468l-3.3,3.3a1.037,1.037,0,0,0,1.466,1.469Zm2.32,7.681a1.037,1.037,0,1,0,0-2.075h-4.666a1.037,1.037,0,1,0,0,2.075Zm-3.787,7.073a1.038,1.038,0,0,0,1.468-1.468l-3.3-3.3a1.037,1.037,0,1,0-1.466,1.468Zm-7.68,2.322a1.037,1.037,0,1,0,2.075,0v-4.668a1.037,1.037,0,0,0-2.075,0Zm-7.074-3.79a1.038,1.038,0,0,0,1.468,1.468l3.3-3.3a1.037,1.037,0,1,0-1.466-1.468Zm-2.323-7.679a1.037,1.037,0,0,0,0,2.075h4.669a1.037,1.037,0,0,0,0-2.075Zm3.791-7.074a1.038,1.038,0,0,0-1.468,1.468l3.3,3.3a1.037,1.037,0,1,0,1.466-1.469Z" transform="translate(46.597 23.594)" fill="#a79ccb" fill-rule="evenodd"/>
        <path id="Trazado_608672" data-name="Trazado 608672" d="M138.087,27.233a1.038,1.038,0,0,0-2.076,0V31.9a1.038,1.038,0,0,0,2.076,0Zm7.072,3.79a1.037,1.037,0,0,0-1.467-1.468l-3.3,3.3a1.038,1.038,0,0,0,1.468,1.469Zm2.323,7.679a1.037,1.037,0,1,0,0-2.073h-4.668a1.037,1.037,0,1,0,0,2.073Zm-3.79,7.074a1.037,1.037,0,0,0,1.467-1.468l-3.3-3.3a1.038,1.038,0,0,0-1.468,1.468Zm-7.681,2.32a1.038,1.038,0,1,0,2.076,0V43.43a1.038,1.038,0,1,0-2.076,0Zm-7.072-3.788a1.037,1.037,0,1,0,1.467,1.468l3.3-3.3a1.037,1.037,0,0,0-1.467-1.468Zm-2.322-7.679a1.037,1.037,0,1,0,0,2.073h4.667a1.037,1.037,0,1,0,0-2.073Zm3.789-7.074a1.037,1.037,0,1,0-1.467,1.468l3.3,3.3a1.038,1.038,0,0,0,1.467-1.469Z" transform="translate(9.545 1.991)" fill="#a79ccb" fill-rule="evenodd"/>
        <path id="Trazado_608673" data-name="Trazado 608673" d="M66.847,217.906h4.494a1.97,1.97,0,0,1,1.966,1.966v4.494a1.969,1.969,0,0,1-1.966,1.965H66.847a1.97,1.97,0,0,1-1.966-1.965v-4.494a1.971,1.971,0,0,1,1.966-1.966" transform="translate(4.932 16.563)" fill="#a79ccb" fill-rule="evenodd"/>
        <path id="Trazado_608674" data-name="Trazado 608674" d="M81.334,217.906h4.494a1.969,1.969,0,0,1,1.965,1.966v4.494a1.968,1.968,0,0,1-1.965,1.965H81.334a1.969,1.969,0,0,1-1.966-1.965v-4.494a1.97,1.97,0,0,1,1.966-1.966" transform="translate(6.033 16.563)" fill="#a79ccb" fill-rule="evenodd"/>
        <path id="Trazado_608675" data-name="Trazado 608675" d="M95.82,217.906h4.494a1.97,1.97,0,0,1,1.966,1.966v4.494a1.969,1.969,0,0,1-1.966,1.965H95.82a1.969,1.969,0,0,1-1.966-1.965v-4.494a1.97,1.97,0,0,1,1.966-1.966" transform="translate(7.134 16.563)" fill="#a79ccb" fill-rule="evenodd"/>
        <path id="Trazado_608676" data-name="Trazado 608676" d="M110.306,217.906h4.5a1.972,1.972,0,0,1,1.967,1.966v4.494a1.971,1.971,0,0,1-1.967,1.965h-4.5a1.971,1.971,0,0,1-1.966-1.965v-4.494a1.971,1.971,0,0,1,1.966-1.966" transform="translate(8.235 16.563)" fill="#a79ccb" fill-rule="evenodd"/>
        <path id="Trazado_608677" data-name="Trazado 608677" d="M124.795,217.906h4.494a1.97,1.97,0,0,1,1.966,1.966v4.494a1.969,1.969,0,0,1-1.966,1.965h-4.494a1.97,1.97,0,0,1-1.966-1.965v-4.494a1.971,1.971,0,0,1,1.966-1.966" transform="translate(9.336 16.563)" fill="#a79ccb" fill-rule="evenodd"/>
        <path id="Trazado_608678" data-name="Trazado 608678" d="M389.052,343.247h4.495a1.968,1.968,0,0,1,1.965,1.965v4.495a1.969,1.969,0,0,1-1.965,1.966h-4.495a1.97,1.97,0,0,1-1.966-1.966v-4.495a1.969,1.969,0,0,1,1.966-1.965" transform="translate(29.422 26.09)" fill="#a79ccb" fill-rule="evenodd"/>
        <path id="Trazado_608679" data-name="Trazado 608679" d="M403.538,343.247h4.493A1.968,1.968,0,0,1,410,345.212v4.495a1.969,1.969,0,0,1-1.966,1.966h-4.493a1.971,1.971,0,0,1-1.966-1.966v-4.495a1.97,1.97,0,0,1,1.966-1.965" transform="translate(30.523 26.09)" fill="#fff" fill-rule="evenodd"/>
        <path id="Trazado_608680" data-name="Trazado 608680" d="M418.024,343.247h4.494a1.969,1.969,0,0,1,1.966,1.965v4.495a1.97,1.97,0,0,1-1.966,1.966h-4.494a1.969,1.969,0,0,1-1.963-1.966v-4.495a1.968,1.968,0,0,1,1.963-1.965" transform="translate(31.624 26.09)" fill="#a79ccb" fill-rule="evenodd"/>
        <path id="Trazado_608681" data-name="Trazado 608681" d="M432.512,343.247H437a1.972,1.972,0,0,1,1.969,1.965v4.495A1.973,1.973,0,0,1,437,351.672h-4.492a1.971,1.971,0,0,1-1.967-1.966v-4.495a1.97,1.97,0,0,1,1.967-1.965" transform="translate(32.725 26.09)" fill="#fff" fill-rule="evenodd"/>
        <path id="Trazado_608682" data-name="Trazado 608682" d="M447,343.247h4.5a1.968,1.968,0,0,1,1.965,1.965v4.495a1.969,1.969,0,0,1-1.965,1.966H447a1.969,1.969,0,0,1-1.965-1.966v-4.495A1.968,1.968,0,0,1,447,343.247" transform="translate(33.827 26.09)" fill="#a79ccb" fill-rule="evenodd"/>
        <path id="Trazado_608683" data-name="Trazado 608683" d="M418.549,359.04h4.5a1.969,1.969,0,0,1,1.963,1.966v4.5a1.968,1.968,0,0,1-1.963,1.964h-4.5a1.968,1.968,0,0,1-1.964-1.964v-4.5a1.97,1.97,0,0,1,1.964-1.966" transform="translate(31.664 27.29)" fill="#fff" fill-rule="evenodd"/>
        <path id="Trazado_608684" data-name="Trazado 608684" d="M433.037,359.04h4.493a1.971,1.971,0,0,1,1.966,1.966v4.5a1.97,1.97,0,0,1-1.966,1.964h-4.493a1.969,1.969,0,0,1-1.966-1.964v-4.5a1.97,1.97,0,0,1,1.966-1.966" transform="translate(32.765 27.29)" fill="#a79ccb" fill-rule="evenodd"/>
        <path id="Trazado_608685" data-name="Trazado 608685" d="M447.524,359.04h4.493a1.97,1.97,0,0,1,1.966,1.966v4.5a1.969,1.969,0,0,1-1.966,1.964h-4.493a1.969,1.969,0,0,1-1.966-1.964v-4.5a1.97,1.97,0,0,1,1.966-1.966" transform="translate(33.866 27.29)" fill="#fff" fill-rule="evenodd"/>
        <path id="Trazado_608686" data-name="Trazado 608686" d="M482.519,366.675c-2.9,5.985-4.742,4.628-7.937,7.144,0,0,6.253-.348,7.262-.348a2.105,2.105,0,0,0,2.184-1.517c.071-.26,2.867-8.4,6.981-20.343a12.869,12.869,0,0,1-2.12-.541,24.03,24.03,0,0,1,.122-3.309h-7.426c.548,11.232.933,18.914.933,18.914" transform="translate(36.073 26.433)" fill="#f4ad85" fill-rule="evenodd"/>
        <path id="Trazado_608687" data-name="Trazado 608687" d="M490.58,361.545c.721-8.12,3.31-29.2,4.187-43.271,1.081-17.336-3.583-39.343-3.244-41.033S505.65,220.734,507,202.948s-15.25-35.363-15.25-35.363l-3.135-1.165c-6.209,6.693-14.9,16.191-14.9,16.191-7.107,29.406,5.039,142.32,7.334,178.934Z" transform="translate(35.839 12.649)" fill="#212850" fill-rule="evenodd"/>
        <path id="Trazado_608688" data-name="Trazado 608688" d="M519.2,356.511l.375,3.094-1.361,17.559s-.095.834-.668.834h-.9s-.468-.031-.515-1.213.451-19.253.451-19.253Z" transform="translate(39.23 27.098)" fill="#e62952" fill-rule="evenodd"/>
        <path id="Trazado_608689" data-name="Trazado 608689" d="M499.4,372.739h-.981a10.673,10.673,0,0,0-3.587,2.9,1.072,1.072,0,0,0,.235,1.386c.718.642,1.128,1.372,3.851,1.372h11.95s2.2-.015,3.074-3.078,3.077-13.536,3.4-14.352c0,0,.175-.963,1.492-.963h2.374s.731-.088.731-1.691,1.26-6.828-6.648-7c0,0-7.146,17.384-8.784,19.253s-7.1,2.179-7.1,2.179" transform="translate(37.6 26.703)" fill="#b71170" fill-rule="evenodd"/>
        <path id="Trazado_608690" data-name="Trazado 608690" d="M515.94,361.558c.72-8.12,3.309-29.2,4.189-43.271,1.079-17.336-3.584-39.343-3.246-41.033,7.242-36.213,20.191-78.619-4.605-110.622l-4.812-.4c-6.209,6.693-24.909,6.724-24.909,6.724s10.951,9.567,10.68,17,8.867,79.289,8.4,83.948,2.917,58.1,4.77,87.653Z" transform="translate(36.679 12.636)" fill="#272b61" fill-rule="evenodd"/>
        <path id="Trazado_608691" data-name="Trazado 608691" d="M493.3,204.979c2.218,23.783,7.868,62.775,7.522,66.23-.422,4.224,2.481,50.911,4.371,81.256,2.089-.217,4.527-.565,4.982-1.026.822-.836.729-5.247,2.193-17.264s-2.741-56.432-2.559-59.321c.144-2.292,3.026-40.393,2.348-59.479-.893-13.012-16.06-14.244-17.256-13.48s-1.588,3-1.6,3.084" transform="translate(37.495 15.332)" fill="#2e346d" fill-rule="evenodd"/>
        <path id="Trazado_608692" data-name="Trazado 608692" d="M506.636,366.675s-2.247,4.317-3.622,4.492-3.751.436-4.073,2.3h6.971a2.259,2.259,0,0,0,2.342-1.517c.076-.26,3.075-8.4,7.488-20.343a14.549,14.549,0,0,1-2.27-.541,21.889,21.889,0,0,1,.128-3.309h-7.967c.589,11.232,1,18.914,1,18.914" transform="translate(37.924 26.433)" fill="#f4ad85" fill-rule="evenodd"/>
        <path id="Trazado_608693" data-name="Trazado 608693" d="M492.454,60.072l4.885,3.757s-3.217,12.782,2.821,22.246-3.132,12.838-3.132,12.838,12.754,16.266-13.873,25.206-33.636-22.72-23.64-34.055,32.939-29.993,32.939-29.993" transform="translate(34.597 4.566)" fill="#000614" fill-rule="evenodd"/>
        <path id="Trazado_608694" data-name="Trazado 608694" d="M469.586,105.821s-9.068,6.82-12.314,10.781-14.6,48.4-16.56,56.586c0,0-.774,3.23,2,4.272s6.975-.4,9.2-2.708,8.556-17.046,8.556-17.046l8.247-25.415Z" transform="translate(33.491 8.043)" fill="#cc1977" fill-rule="evenodd"/>
        <path id="Trazado_608695" data-name="Trazado 608695" d="M474.252,113.487s-9.068,6.82-12.314,10.781-14.6,48.4-16.56,56.586c0,0-.774,3.23,2,4.272s6.975-.4,9.2-2.708,8.556-17.046,8.556-17.046l8.248-25.415Z" transform="translate(33.845 8.626)" fill="#b71170" fill-rule="evenodd"/>
        <path id="Trazado_608696" data-name="Trazado 608696" d="M481.82,80.9l1.5,4.969s3.639,10.418,4.035,11.547a2.981,2.981,0,0,0,2.606,1.716c.332.034.718.416,1.072.3,6.175,3.9,3.319,10.935.311,12.539s-19.657,3.267-20.994,2.744c-.935-.366,1.718-7.544.671-9.184.3-.207-.045.022.252-.2.773-.594.555-.72,1.248-1.192,1.581-1.076-2.969-10.433-3.769-12.949C466.331,89.64,481.82,80.9,481.82,80.9" transform="translate(35.61 6.149)" fill="#e8685b" fill-rule="evenodd"/>
        <path id="Trazado_608697" data-name="Trazado 608697" d="M469.323,105.142c.929-.611,2.731-1.857,3.548-2.24,3.35,5.786,11.951,9.749,17.441-5,3.8-.637,13.124-1.328,19.853-.03.07.057,4.36,3.662,5.216,6.114s1.06,13.8,6.313,28.923c.268,1.618-2.279,31.954-2.277,32.129.085,10.941,11.541,31.039,11.739,31.973,2.083,9.915-60.5,6.154-60.4,5.07s.2-11.834.2-11.834c-4.936-8.823-12.173-76.561-1.633-85.1" transform="translate(35.261 7.383)" fill="#cc1977" fill-rule="evenodd"/>
        <path id="Trazado_608698" data-name="Trazado 608698" d="M517.369,163.68c0-.173,2.545-30.51,2.277-32.129a111.545,111.545,0,0,1-4.351-16.6c-2.133,5.511-6.241,14.241-6.241,14.241s-1.361,28.139,2.368,44.377c2.6,11.333-10.93,21.739-20.568,28.7,17.744.346,39.5-.7,38.254-6.615-.2-.933-11.654-21.031-11.739-31.973" transform="translate(37.309 8.737)" fill="#b71170" fill-rule="evenodd"/>
        <path id="Trazado_608699" data-name="Trazado 608699" d="M477.9,107.194a6.417,6.417,0,0,0,4.754-.653c.47,3.367,1.352,9.272,2.521,15.4a2.4,2.4,0,1,1-4.72.911c-1.173-6.141-2.075-12.215-2.554-15.659" transform="translate(36.325 8.098)" fill="#fff" fill-rule="evenodd"/>
        <path id="Trazado_608700" data-name="Trazado 608700" d="M511.008,185.368c4.238-3.822,6.6-6.6,7.645-10.493s-5.491-7.925-5.491-7.925L508.3,173s-.069,9.106,2.712,12.371" transform="translate(38.635 12.69)" fill="#ef8871" fill-rule="evenodd"/>
        <path id="Trazado_608701" data-name="Trazado 608701" d="M505.7,97.61c15-.4,38.6,38.828,34.8,50.809-1.46,4.61-22.256,40.553-22.256,40.553q-3.975-7.045-7.95-14.087c7.271-11.11,7.591-21.662,11.39-32.492-3.35-5.673-8.938-15.729-11.04-22.942A215.445,215.445,0,0,1,505.7,97.61" transform="translate(38.437 7.419)" fill="#cc1977" fill-rule="evenodd"/>
        <path id="Trazado_608702" data-name="Trazado 608702" d="M488.4,97.615l-7.518,10.533-8.236-5.976a7.2,7.2,0,0,0-.119-1.191l-1.407,2.721,3.5,11.1a1,1,0,0,0,1.2.454c.773-.3,5.063-7.1,5.063-7.1l8.557,4.775s.952.31,1.315-.391.111-14.692.111-14.692l-3.917-2.125s.211,1.746,1.452,1.9" transform="translate(35.81 7.275)" fill="#fff" fill-rule="evenodd"/>
        <path id="Trazado_608703" data-name="Trazado 608703" d="M417.545,136.582l87.1-4.957a7.651,7.651,0,0,1,8.05,7.179l2.051,36.065a7.648,7.648,0,0,1-7.18,8.049l-60.425,3.437-1.613,2.9c-1.582,2.848-5.126,5.308-7.876,5.466l-1.336.075-8.191.466-8.131.463a6.727,6.727,0,0,1-7.077-6.315l-.5-8.718-1.661-29.18-.392-6.883a7.65,7.65,0,0,1,7.18-8.047" transform="translate(31.191 10.004)" fill="#4a4a9e" fill-rule="evenodd"/>
        <path id="Trazado_608704" data-name="Trazado 608704" d="M497.277,136.157l-73.04,4.158a6.477,6.477,0,0,0-6.081,6.814l2.468,43.385a6.479,6.479,0,0,0,6.817,6.082l33.8-1.924,1.633,2.285c1.606,2.245,4.825,3.973,7.154,3.841l10.9-.622,13.82-.784,6.885-.393a5.7,5.7,0,0,0,5.348-5.993l-.419-7.382-2.138-37.559-.332-5.826a6.476,6.476,0,0,0-6.813-6.082" transform="translate(31.783 10.348)" fill="#fff" fill-rule="evenodd"/>
        <path id="Trazado_608705" data-name="Trazado 608705" d="M508.61,201.87l-87.1,4.955a7.647,7.647,0,0,1-8.047-7.179l-2.25-39.521a7.652,7.652,0,0,1,7.18-8.049l42-2.39,1.611-2.9c1.582-2.849,5.127-5.307,7.88-5.462l19.757-1.127,8.19-.465,8.133-.464a6.726,6.726,0,0,1,7.077,6.315l.5,8.718,1.857,32.64.393,6.882a7.652,7.652,0,0,1-7.182,8.049" transform="translate(31.255 10.585)" fill="#304c8e" fill-rule="evenodd"/>
        <path id="Trazado_608706" data-name="Trazado 608706" d="M457.276,166.628l-4.89,4.675a1.871,1.871,0,1,0,2.59,2.7l2.046-1.956.634,11.122a1.875,1.875,0,1,0,3.744-.211l-.634-11.124,2.255,1.71a1.869,1.869,0,1,0,2.266-2.973L459.9,166.48a1.875,1.875,0,0,0-2.624.148" transform="translate(34.342 12.619)" fill="#fff" fill-rule="evenodd"/>
        <path id="Trazado_608707" data-name="Trazado 608707" d="M488.851,71.68c.13-.005.26-.01.391-.005l0,0v0a5.251,5.251,0,1,1-4.123,1.824c.147,1.547.734,3.393,2.714,3.226l-.6-2.967a1.8,1.8,0,0,1,1.614-2.078" transform="translate(36.777 5.448)" fill="#eb6b5d" fill-rule="evenodd"/>
        <path id="Trazado_608708" data-name="Trazado 608708" d="M455.863,77.672c-.125.04-.245.083-.368.131l0,0h0a5.249,5.249,0,1,0,4.5.253c.409,1.5.509,3.431-1.4,3.975l-.486-2.987a1.8,1.8,0,0,0-2.242-1.375" transform="translate(34.373 5.9)" fill="#eb6b5d" fill-rule="evenodd"/>
        <path id="Trazado_608709" data-name="Trazado 608709" d="M467.852,50.879h0a18.027,18.027,0,0,1,20.9,14.462l2.928,16.081a17.973,17.973,0,0,1-35.364,6.441L453.391,71.78a18.028,18.028,0,0,1,14.462-20.9" transform="translate(34.44 3.845)" fill="#f4ad85" fill-rule="evenodd"/>
        <path id="Trazado_608710" data-name="Trazado 608710" d="M480.684,53.405a17.936,17.936,0,0,1,7.731,11.721l2.929,16.081a18.026,18.026,0,0,1-14.461,20.9c13.227-3.7,9.357-21.161,7.051-26.813s-6.016-5.374-6.016-5.374l-6.85.744-6.33-1.038s-6.256-10.274-7.153-13.507a18.232,18.232,0,0,1,1.484-1.429c4.38-.889,16.617-.782,21.615-1.287" transform="translate(34.781 4.059)" fill="#ef8871" fill-rule="evenodd"/>
        <path id="Trazado_608711" data-name="Trazado 608711" d="M456.474,80.528s.215,1.184.416,2.281.159,2.369-.68,2.522l-.455-2.492c-.085-.463-.978-1.623-2.009-.782C436.77,60.945,455.428,40.41,474.279,43.1c2.956.422,6.686,4.627,6.686,4.627s1.98-2.542,4.374-1.844S497.6,59.084,498.231,62.545s-4.82,11.542-4.82,11.542a2.52,2.52,0,0,0-2.292,2.313l.454,2.49c-.841.154-2.082-.886-2.283-1.982s-.415-2.279-.415-2.279C481.321,72.8,477.412,63.9,477.412,63.9s-9.231,16.228-20.938,16.633" transform="translate(33.983 3.258)" fill="#02091f" fill-rule="evenodd"/>
        <path id="Trazado_608712" data-name="Trazado 608712" d="M461.215,86.282a2.367,2.367,0,1,1-2.1,2.61,2.368,2.368,0,0,1,2.1-2.61" transform="translate(34.896 6.557)" fill="#e8685b" fill-rule="evenodd"/>
        <path id="Trazado_608713" data-name="Trazado 608713" d="M480.016,84.223a2.366,2.366,0,1,1-2.094,2.61,2.368,2.368,0,0,1,2.094-2.61" transform="translate(36.325 6.401)" fill="#e8685b" fill-rule="evenodd"/>
        <path id="Trazado_608714" data-name="Trazado 608714" d="M474.1,74.953a.715.715,0,1,0,.908,1.1,4.691,4.691,0,0,1,4.148-.832.718.718,0,0,0,.423-1.372,6.189,6.189,0,0,0-5.479,1.1" transform="translate(36.016 5.594)" fill="#000614" fill-rule="evenodd"/>
        <path id="Trazado_608715" data-name="Trazado 608715" d="M458.225,76.252a.715.715,0,0,0,.73,1.23,4.68,4.68,0,0,1,4.224-.187A.718.718,0,1,0,463.806,76a6.186,6.186,0,0,0-5.581.25" transform="translate(34.803 5.734)" fill-rule="evenodd"/>
        <path id="Trazado_608716" data-name="Trazado 608716" d="M475.38,87.637a4.824,4.824,0,1,1-9.557,1.314h.008a.835.835,0,0,1,.713-.937l7.891-1.086a.831.831,0,0,1,.937.712Z" transform="translate(35.407 6.607)" fill="#000614" fill-rule="evenodd"/>
        <path id="Trazado_608717" data-name="Trazado 608717" d="M473.914,91.349a4.831,4.831,0,0,1-5.479,1.1,3.007,3.007,0,0,1,2.491-2.14,3.046,3.046,0,0,1,2.988,1.043" transform="translate(35.605 6.86)" fill="#d64341" fill-rule="evenodd"/>
        <path id="Trazado_608718" data-name="Trazado 608718" d="M466.742,87.973l7.416-1.021a1.7,1.7,0,0,1-.564,1.942c-.641.311-6.027.91-6.466.539a2.893,2.893,0,0,1-.386-1.46" transform="translate(35.477 6.609)" fill="#fff" fill-rule="evenodd"/>
        <path id="Trazado_608719" data-name="Trazado 608719" d="M478.556,45.292c-1.031,7.21-4.039,17.813-12.78,22.348A26.166,26.166,0,0,1,447.6,69.728a21.057,21.057,0,0,1,.571-11.291c7.693,2.458,23.612,4.92,29.441-13.877.326.237.642.485.94.732" transform="translate(33.983 3.387)" fill="#2e3046" fill-rule="evenodd"/>
        <path id="Trazado_608720" data-name="Trazado 608720" d="M468.361,83.408a8.321,8.321,0,0,1,.4,2.939.9.9,0,0,1-1.775-.13,6.752,6.752,0,0,1,.822-2.88c.152-.221.521-.217.557.072" transform="translate(35.494 6.322)" fill="#f8cab0" fill-rule="evenodd"/>
        <path id="Trazado_608721" data-name="Trazado 608721" d="M456.374,79.227s.215,1.184.416,2.281.159,2.369-.68,2.522l-.455-2.492c-.085-.463-.978-1.623-2.009-.782a31.782,31.782,0,0,1-5.243-9.084c19.931,5.479,28.927-11.694,28.927-11.694,14.32,11.274,20.812,2.152,20.846,2.107-.195,3.774-4.866,10.7-4.866,10.7a2.52,2.52,0,0,0-2.292,2.313l.454,2.49c-.841.154-2.082-.886-2.283-1.982s-.415-2.279-.415-2.279c-7.552-1.831-11.462-10.734-11.462-10.734s-9.231,16.228-20.938,16.633" transform="translate(34.083 4.559)" fill="#000614" fill-rule="evenodd"/>
        <path id="Trazado_608722" data-name="Trazado 608722" d="M461.006,80.042h0a1.7,1.7,0,0,0-1.029.523.692.692,0,0,1-.5-.289.271.271,0,1,0-.447.308,1.175,1.175,0,0,0,.611.454l-.011.018a1.274,1.274,0,0,1-.756-.344.273.273,0,0,0-.384.01.267.267,0,0,0,.008.382,1.752,1.752,0,0,0,.864.452l0,.006a1.7,1.7,0,0,1-.845-.159.271.271,0,1,0-.23.49,2.186,2.186,0,0,0,.876.214l.383.005.254,2.045a1.713,1.713,0,0,0,1.906,1.482h0a1.709,1.709,0,0,0,1.481-1.906l-.274-2.208a1.713,1.713,0,0,0-1.906-1.483" transform="translate(34.822 6.083)" fill="#000614" fill-rule="evenodd"/>
        <path id="Trazado_608723" data-name="Trazado 608723" d="M476.737,78.087h0a1.709,1.709,0,0,1,1.127.255.7.7,0,0,0,.411-.4.276.276,0,0,1,.351-.161.272.272,0,0,1,.158.35,1.174,1.174,0,0,1-.481.591l.015.015a1.278,1.278,0,0,0,.649-.52.273.273,0,0,1,.463.288,1.792,1.792,0,0,1-.728.65l.005,0a1.7,1.7,0,0,0,.777-.36.271.271,0,1,1,.345.419,2.165,2.165,0,0,1-.8.421l-.368.1.255,2.043a1.707,1.707,0,0,1-3.388.424l-.274-2.209a1.712,1.712,0,0,1,1.482-1.906" transform="translate(36.123 5.91)" fill="#000614" fill-rule="evenodd"/>
        <path id="Trazado_608724" data-name="Trazado 608724" d="M494.178,356.511l.349,3.094-1.268,17.559s-.087.834-.624.834h-.844s-.437-.031-.481-1.213.423-19.253.423-19.253Z" transform="translate(37.344 27.098)" fill="#bd1449" fill-rule="evenodd"/>
        <path id="Trazado_608725" data-name="Trazado 608725" d="M477.291,371.7c-7.523,2.774-10.816,6.7-2.952,6.7h12.183s2.047-.015,2.867-3.08,2.868-13.535,3.169-14.352a1.279,1.279,0,0,1,1.391-.962h2.211s.682-.088.682-1.691,2.009-6.828-5.362-7c0,0-6.664,17.386-8.191,19.252s-6,1.137-6,1.137" transform="translate(35.71 26.703)" fill="#b71170" fill-rule="evenodd"/>
        <path id="Trazado_608726" data-name="Trazado 608726" d="M471.521,206.888c-.183,24.242,2.041,57.665,4.426,87.953.329,4.2.663,8.33.993,12.374.561,6.837,1.109,13.4,1.625,19.552.564,6.762,1.086,13.01,1.524,18.534q.1,1.29.2,2.522a21.181,21.181,0,0,0,2.53-2.522,9.17,9.17,0,0,0,2.461-5.653c0-1.559-.221-6.467-.556-12.881-.3-5.747-.7-12.7-1.108-19.552-.257-4.272-.521-8.5-.774-12.374-.529-8.1-1.009-14.6-1.27-16.587-.812-6.14,3.7-42.628,3.011-53.864s-6.952-16.565-8.8-17.839-4.251.337-4.251.337" transform="translate(35.839 15.662)" fill="#272b61" fill-rule="evenodd"/>
        <path id="Trazado_608727" data-name="Trazado 608727" d="M508.151,169.185c.683.613,2.529,1.243,3.089,1.894,5.806,6.755,4.28,16.194-6.633,17.452-1.339.154-3.107-.166-3.027-.74s2.018-1.412,2.018-1.412-4.2.8-5.447-.337,1.412-2.825,1.412-2.825-3.632.337-3.722-1.218c-.1-1.688,4.26-2.615,4.26-2.615a10.192,10.192,0,0,1-4.17.2c-1.7-.5-2.286-2.137.327-2.751,2.027-.477,9.943-1.628,11.392-2.146s.5-5.5.5-5.5" transform="translate(37.585 12.86)" fill="#f4ad85" fill-rule="evenodd"/>
        <path id="Trazado_608728" data-name="Trazado 608728" d="M410.3,155.428c2.78-2,6.256-2.876,5.837-.374-.126.764-1.6,1.945-1.58,2.13.045.42,1.7-1.07,2.588.9.694,1.532-1.632,2.785-2.4,3.47-.353.319,2.877-1.513,2.87.909,0,.651-1.011,1.6-2.14,2.376-.691.472,1.4.172,1.558,1.823.181,1.895-4.472,2.981-4.582,4.087l-.208,2.125s-2.642-1-2.989-2.5a3.74,3.74,0,0,1,.346-2.625s-1.944-1-1.527-2.313a2.672,2.672,0,0,1,1.6-1.689s-1.945-.937-1.737-2.188a5.731,5.731,0,0,1,1.458-2.5s-3.752-.624.9-3.625" transform="translate(31.005 11.669)" fill="#f4ad85" fill-rule="evenodd"/>
        <path id="Trazado_608729" data-name="Trazado 608729" d="M416.832,165.569c-.2.466-.827.95-2.33,1.7-1.075.537-1.859.9-2.422,1.2-.858.449-1.2.724-1.263,1.165a4.164,4.164,0,0,1-.651,1.263,8.386,8.386,0,0,0,1.9,1.061l.011-.115.2-2.01c.11-1.105,4.762-2.192,4.582-4.087a1.75,1.75,0,0,0-.027-.178" transform="translate(31.176 12.585)" fill="#ef8871" fill-rule="evenodd"/>
        <path id="Trazado_608730" data-name="Trazado 608730" d="M525.229,163.309a182.154,182.154,0,0,1-11.26,16.5l3.644,6.458s20.8-35.942,22.256-40.552c.914-2.886.227-7.358-1.532-12.469-.195,9.186-4.561,16.445-13.108,30.066" transform="translate(39.066 10.128)" fill="#b71170" fill-rule="evenodd"/>
        <path id="Trazado_608731" data-name="Trazado 608731" d="M225.533,386.625H64.607a6.756,6.756,0,0,1-6.736-6.737V284.911l39.764-41.9h127.9a6.757,6.757,0,0,1,6.737,6.735v130.14a6.759,6.759,0,0,1-6.737,6.737" transform="translate(4.399 18.471)" fill="#304c8e" fill-rule="evenodd"/>
        <path id="Trazado_608732" data-name="Trazado 608732" d="M221.019,375.373v-122.6H96.893L67.636,284.168v91.206Z" transform="translate(5.141 19.213)" fill="#fff" fill-rule="evenodd"/>
        <path id="Trazado_608733" data-name="Trazado 608733" d="M97.636,243.011v35.164A6.755,6.755,0,0,1,90.9,284.91H57.871Z" transform="translate(4.399 18.471)" fill="#212850" fill-rule="evenodd"/>
        <path id="Trazado_608734" data-name="Trazado 608734" d="M67.637,371.644V329c20.912,9.48,43.132,17.43,66.492.3,29.162-21.382,58.844-36.609,86.891-21.154v63.5Z" transform="translate(5.141 22.943)" fill="#304c8e" fill-rule="evenodd"/>
        <path id="Trazado_608735" data-name="Trazado 608735" d="M221.019,371.644V329c-20.912,9.48-43.132,17.43-66.492.3-29.163-21.382-58.844-36.609-86.891-21.154v63.5Z" transform="translate(5.141 22.943)" fill="#dee9f0" fill-rule="evenodd"/>
        <path id="Trazado_608736" data-name="Trazado 608736" d="M182.236,290.716a15.193,15.193,0,1,0-15.194-15.193,15.223,15.223,0,0,0,15.194,15.193" transform="translate(12.697 19.788)" fill="#ffe126" fill-rule="evenodd"/>
        <path id="Trazado_608737" data-name="Trazado 608737" d="M150.919,272.081c3.874,0,12.18,5.121,12.18,11.848a12.179,12.179,0,0,1-12.18,12.183H99.2a5.069,5.069,0,0,1-5.028-5.026,4.981,4.981,0,0,1,4.644-5.011c-.018-.243-.027,2.152-.027-.734a8.859,8.859,0,0,1,9.113-9.12c1.058-.014-.955-.016,0-.016,1.209-8.437,9.207-14.919,17.236-14.919a16.684,16.684,0,0,1,16.123,10.825c2.049,0,5.782-.029,9.657-.029" transform="translate(7.158 19.86)" fill="#dee9f0" fill-rule="evenodd"/>
        <path id="Trazado_608738" data-name="Trazado 608738" d="M546.644,226.675c15.334-15.613,26.743,4.221,25.15,24.128-1.511,18.876-17.78,83.641-14.764,110.889H550.8c-15.24-34.939-23.784-115.029-4.153-135.018" transform="translate(40.682 16.802)" fill="#a79ccb" fill-rule="evenodd"/>
        <path id="Trazado_608739" data-name="Trazado 608739" d="M552.23,361.091c-14.833-55.07,3.946-131.192,4.009-131.453a.88.88,0,0,1,1.71.416c-.062.259-18.865,76.469-3.916,131.036Z" transform="translate(41.541 17.404)" fill="#3a2689" fill-rule="evenodd"/>
        <path id="Trazado_608740" data-name="Trazado 608740" d="M583.209,258.41c16.16-8.563,20.233,10.117,13.932,25.574-5.219,12.807-28.286,50.693-37.006,75.033h-8.213c-.7-33.639,12.211-90.5,31.287-100.607" transform="translate(41.949 19.478)" fill="#60cb28" fill-rule="evenodd"/>
        <path id="Trazado_608741" data-name="Trazado 608741" d="M554.709,358.5c5.345-45.5,35.6-94.947,35.711-95.127a.736.736,0,0,1,1.259.764c-.108.18-30.172,49.31-35.51,94.363Z" transform="translate(42.163 19.992)" fill="#e1f5d6" fill-rule="evenodd"/>
        <path id="Trazado_608742" data-name="Trazado 608742" d="M518.572,278.433c-15.662-6.841-18.145,10.853-11.187,24.813,4.71,9.444,21.676,33.629,33.1,54.2h13.039c-4.458-31.122-18.761-71.943-34.952-79.015" transform="translate(38.286 21.048)" fill="#304c8e" fill-rule="evenodd"/>
        <path id="Trazado_608743" data-name="Trazado 608743" d="M548.369,356.962c-11.12-37.706-36.727-73.24-36.831-73.383a.688.688,0,1,0-1.12.8c.1.141,25.441,35.306,36.535,72.583Z" transform="translate(38.787 21.533)" fill="#a79ccb" fill-rule="evenodd"/>
        <path id="Trazado_608744" data-name="Trazado 608744" d="M565.873,350H534.054a1.734,1.734,0,0,0-1.731,1.728v7.856a1.735,1.735,0,0,0,1.731,1.73h31.819a1.734,1.734,0,0,0,1.728-1.73v-7.856A1.733,1.733,0,0,0,565.873,350" transform="translate(40.461 26.603)" fill="#212850" fill-rule="evenodd"/>
        <path id="Trazado_608745" data-name="Trazado 608745" d="M560.292,355.941h-20.9l-5.456,4.927,4.457,17.173h22.9l4.459-17.173Z" transform="translate(40.584 27.055)" fill="#212850" fill-rule="evenodd"/>
        <path id="Trazado_608746" data-name="Trazado 608746" d="M533.932,360.52l.915,3.529h29.986l.918-3.529Z" transform="translate(40.584 27.403)" fill="#050a26" fill-rule="evenodd"/>
      </g>
    </g>
    <path id="Trazado_609068" data-name="Trazado 609068" d="M18.5,0h153a18.5,18.5,0,0,1,0,37H18.5a18.5,18.5,0,0,1,0-37Z" transform="translate(1020 908)" fill="#e1f5d6"/>
    <path id="Trazado_609069" data-name="Trazado 609069" d="M18.5,0h153a18.5,18.5,0,0,1,0,37H18.5a18.5,18.5,0,0,1,0-37Z" transform="translate(1079 1177)" fill="#e1f5d6"/>
    <path id="Trazado_609070" data-name="Trazado 609070" d="M18.5,0h153a18.5,18.5,0,0,1,0,37H18.5a18.5,18.5,0,0,1,0-37Z" transform="translate(358 895)" fill="#e1f5d6"/>
    <path id="Trazado_609071" data-name="Trazado 609071" d="M18.5,0h153a18.5,18.5,0,0,1,0,37H18.5a18.5,18.5,0,0,1,0-37Z" transform="translate(358 1189)" fill="#e1f5d6"/>
    <path id="Trazado_609072" data-name="Trazado 609072" d="M9.945-3.789A4.025,4.025,0,0,1,8.59-.9,4.76,4.76,0,0,1,5.367.156,4.28,4.28,0,0,1,1.926-1.316,6.038,6.038,0,0,1,.672-5.359v-.7A6.819,6.819,0,0,1,1.25-8.945,4.332,4.332,0,0,1,2.9-10.863a4.629,4.629,0,0,1,2.5-.668A4.637,4.637,0,0,1,8.57-10.477,4.326,4.326,0,0,1,9.961-7.516H7.617A2.376,2.376,0,0,0,7-9.113a2.271,2.271,0,0,0-1.605-.5,1.991,1.991,0,0,0-1.754.84,4.707,4.707,0,0,0-.6,2.605V-5.3a5.038,5.038,0,0,0,.559,2.7,1.954,1.954,0,0,0,1.762.852,2.314,2.314,0,0,0,1.621-.5A2.241,2.241,0,0,0,7.6-3.789ZM10.984-4.3a5.013,5.013,0,0,1,.484-2.242A3.546,3.546,0,0,1,12.863-8.07a4.069,4.069,0,0,1,2.113-.539A3.849,3.849,0,0,1,17.77-7.562a4.2,4.2,0,0,1,1.207,2.844l.016.578A4.418,4.418,0,0,1,17.906-1.02,3.775,3.775,0,0,1,14.992.156a3.793,3.793,0,0,1-2.918-1.172A4.5,4.5,0,0,1,10.984-4.2Zm2.258.16A3.16,3.16,0,0,0,13.7-2.3a1.5,1.5,0,0,0,1.3.638,1.5,1.5,0,0,0,1.281-.63,3.457,3.457,0,0,0,.461-2.015,3.128,3.128,0,0,0-.461-1.831,1.5,1.5,0,0,0-1.3-.649,1.474,1.474,0,0,0-1.281.646A3.516,3.516,0,0,0,13.242-4.144ZM22.5-8.453l.07.945A2.971,2.971,0,0,1,25-8.609,2.255,2.255,0,0,1,27.242-7.32a2.9,2.9,0,0,1,2.539-1.289,2.521,2.521,0,0,1,2.047.8A3.681,3.681,0,0,1,32.5-5.4V0H30.234V-5.391a1.61,1.61,0,0,0-.281-1.051,1.246,1.246,0,0,0-.992-.332,1.409,1.409,0,0,0-1.406.969L27.563,0H25.3V-5.383a1.59,1.59,0,0,0-.289-1.062,1.259,1.259,0,0,0-.984-.328,1.463,1.463,0,0,0-1.391.8V0H20.383V-8.453Zm19.344,4.3a5.07,5.07,0,0,1-.887,3.129A2.843,2.843,0,0,1,38.563.156a2.633,2.633,0,0,1-2.07-.891V3.25H34.234v-11.7h2.094l.078.828a2.654,2.654,0,0,1,2.141-.984,2.862,2.862,0,0,1,2.43,1.156,5.207,5.207,0,0,1,.867,3.188Zm-2.258-.164a3.327,3.327,0,0,0-.418-1.82,1.361,1.361,0,0,0-1.215-.641,1.479,1.479,0,0,0-1.461.813V-2.5a1.5,1.5,0,0,0,1.477.836Q39.586-1.664,39.586-4.312Zm8.406-2.023A6.134,6.134,0,0,0,47.18-6.4a1.654,1.654,0,0,0-1.68.867V0H43.242V-8.453h2.133l.063,1.008A2.092,2.092,0,0,1,47.32-8.609a2.366,2.366,0,0,1,.7.1ZM52.82.156A4.15,4.15,0,0,1,49.793-.984a4.054,4.054,0,0,1-1.168-3.039v-.219a5.106,5.106,0,0,1,.492-2.277,3.612,3.612,0,0,1,1.395-1.547,3.914,3.914,0,0,1,2.059-.543A3.508,3.508,0,0,1,55.3-7.516a4.444,4.444,0,0,1,1,3.1v.922H50.914a2.1,2.1,0,0,0,.66,1.328,2,2,0,0,0,1.395.5,2.437,2.437,0,0,0,2.039-.945l1.109,1.242A3.389,3.389,0,0,1,54.742-.246,4.511,4.511,0,0,1,52.82.156Zm-.258-6.945a1.411,1.411,0,0,0-1.09.455,2.357,2.357,0,0,0-.535,1.3h3.141v-.181a1.681,1.681,0,0,0-.406-1.165A1.456,1.456,0,0,0,52.563-6.789Zm7.094-1.664.07.977a2.951,2.951,0,0,1,2.43-1.133,2.453,2.453,0,0,1,2,.789,3.682,3.682,0,0,1,.672,2.359V0H62.57V-5.406a1.465,1.465,0,0,0-.312-1.043,1.4,1.4,0,0,0-1.039-.324,1.553,1.553,0,0,0-1.43.813V0H57.531V-8.453Zm6.531,4.164a5.094,5.094,0,0,1,.887-3.148A2.877,2.877,0,0,1,69.5-8.609a2.589,2.589,0,0,1,2.039.922V-12H73.8V0H71.766l-.109-.9A2.657,2.657,0,0,1,69.484.156,2.869,2.869,0,0,1,67.09-1.02,5.258,5.258,0,0,1,66.188-4.289Zm2.258.168A3.337,3.337,0,0,0,68.859-2.3a1.349,1.349,0,0,0,1.2.634,1.511,1.511,0,0,0,1.477-.884V-5.889a1.489,1.489,0,0,0-1.461-.884Q68.445-6.773,68.445-4.121Zm11,4.277A4.15,4.15,0,0,1,76.418-.984,4.054,4.054,0,0,1,75.25-4.023v-.219a5.106,5.106,0,0,1,.492-2.277,3.612,3.612,0,0,1,1.395-1.547A3.914,3.914,0,0,1,79.2-8.609a3.508,3.508,0,0,1,2.73,1.094,4.444,4.444,0,0,1,1,3.1v.922H77.539a2.1,2.1,0,0,0,.66,1.328,2,2,0,0,0,1.395.5,2.437,2.437,0,0,0,2.039-.945l1.109,1.242A3.389,3.389,0,0,1,81.367-.246,4.511,4.511,0,0,1,79.445.156Zm-.258-6.945a1.411,1.411,0,0,0-1.09.455,2.357,2.357,0,0,0-.535,1.3H80.7v-.181A1.681,1.681,0,0,0,80.3-6.377,1.456,1.456,0,0,0,79.188-6.789Zm9.766.453a6.134,6.134,0,0,0-.812-.062,1.654,1.654,0,0,0-1.68.867V0H84.2V-8.453h2.133L86.4-7.445a2.092,2.092,0,0,1,1.883-1.164,2.366,2.366,0,0,1,.7.1Z" transform="translate(1084 932)" fill="#12263f"/>
    <path id="Trazado_609073" data-name="Trazado 609073" d="M9.945-3.789A4.025,4.025,0,0,1,8.59-.9,4.76,4.76,0,0,1,5.367.156,4.28,4.28,0,0,1,1.926-1.316,6.038,6.038,0,0,1,.672-5.359v-.7A6.819,6.819,0,0,1,1.25-8.945,4.332,4.332,0,0,1,2.9-10.863a4.629,4.629,0,0,1,2.5-.668A4.637,4.637,0,0,1,8.57-10.477,4.326,4.326,0,0,1,9.961-7.516H7.617A2.376,2.376,0,0,0,7-9.113a2.271,2.271,0,0,0-1.605-.5,1.991,1.991,0,0,0-1.754.84,4.707,4.707,0,0,0-.6,2.605V-5.3a5.038,5.038,0,0,0,.559,2.7,1.954,1.954,0,0,0,1.762.852,2.314,2.314,0,0,0,1.621-.5A2.241,2.241,0,0,0,7.6-3.789ZM10.984-4.3a5.013,5.013,0,0,1,.484-2.242A3.546,3.546,0,0,1,12.863-8.07a4.069,4.069,0,0,1,2.113-.539A3.849,3.849,0,0,1,17.77-7.562a4.2,4.2,0,0,1,1.207,2.844l.016.578A4.418,4.418,0,0,1,17.906-1.02,3.775,3.775,0,0,1,14.992.156a3.793,3.793,0,0,1-2.918-1.172A4.5,4.5,0,0,1,10.984-4.2Zm2.258.16A3.16,3.16,0,0,0,13.7-2.3a1.5,1.5,0,0,0,1.3.638,1.5,1.5,0,0,0,1.281-.63,3.457,3.457,0,0,0,.461-2.015,3.128,3.128,0,0,0-.461-1.831,1.5,1.5,0,0,0-1.3-.649,1.474,1.474,0,0,0-1.281.646A3.516,3.516,0,0,0,13.242-4.144Zm9.219-4.309.07.977a2.951,2.951,0,0,1,2.43-1.133,2.453,2.453,0,0,1,2,.789,3.682,3.682,0,0,1,.672,2.359V0H25.375V-5.406a1.465,1.465,0,0,0-.312-1.043,1.4,1.4,0,0,0-1.039-.324,1.553,1.553,0,0,0-1.43.813V0H20.336V-8.453ZM33.922-2.336a.727.727,0,0,0-.41-.652A4.659,4.659,0,0,0,32.2-3.414Q29.18-4.047,29.18-5.977a2.323,2.323,0,0,1,.934-1.879,3.766,3.766,0,0,1,2.441-.754,4.053,4.053,0,0,1,2.574.758,2.388,2.388,0,0,1,.965,1.969H33.836a1.092,1.092,0,0,0-.312-.8A1.322,1.322,0,0,0,32.547-7a1.351,1.351,0,0,0-.883.258.814.814,0,0,0-.312.656.7.7,0,0,0,.355.605,3.657,3.657,0,0,0,1.2.4,9.8,9.8,0,0,1,1.422.379A2.336,2.336,0,0,1,36.117-2.43a2.2,2.2,0,0,1-.992,1.871,4.28,4.28,0,0,1-2.562.715,4.47,4.47,0,0,1-1.887-.379,3.166,3.166,0,0,1-1.293-1.039,2.414,2.414,0,0,1-.469-1.426h2.141a1.179,1.179,0,0,0,.445.922,1.766,1.766,0,0,0,1.109.32,1.635,1.635,0,0,0,.98-.246A.766.766,0,0,0,33.922-2.336Zm6.352-8.2v2.078h1.445V-6.8H40.273v4.219a1.007,1.007,0,0,0,.18.672.9.9,0,0,0,.688.2,3.6,3.6,0,0,0,.664-.055V-.047a4.648,4.648,0,0,1-1.367.2,2.156,2.156,0,0,1-2.422-2.4V-6.8H36.781V-8.453h1.234v-2.078Zm7.453,4.2a6.134,6.134,0,0,0-.812-.062,1.654,1.654,0,0,0-1.68.867V0H42.977V-8.453h2.133l.063,1.008a2.092,2.092,0,0,1,1.883-1.164,2.366,2.366,0,0,1,.7.1ZM53.875-.859A2.831,2.831,0,0,1,51.563.156a2.67,2.67,0,0,1-2.074-.781,3.335,3.335,0,0,1-.73-2.289V-8.453h2.258v5.467q0,1.322,1.2,1.322a1.63,1.63,0,0,0,1.578-.8V-8.453h2.266V0H53.938ZM60.148,0H57.883V-8.453h2.266Zm-2.4-10.641a1.112,1.112,0,0,1,.34-.836,1.277,1.277,0,0,1,.926-.328,1.28,1.28,0,0,1,.922.328,1.105,1.105,0,0,1,.344.836,1.108,1.108,0,0,1-.348.844,1.283,1.283,0,0,1-.918.328A1.283,1.283,0,0,1,58.1-9.8,1.108,1.108,0,0,1,57.75-10.641Zm9.008,4.3a6.134,6.134,0,0,0-.812-.062,1.654,1.654,0,0,0-1.68.867V0H62.008V-8.453h2.133L64.2-7.445a2.092,2.092,0,0,1,1.883-1.164,2.366,2.366,0,0,1,.7.1Z" transform="translate(1143 1201)" fill="#12263f"/>
    <path id="Trazado_609074" data-name="Trazado 609074" d="M7.438-2.344H3.328L2.547,0H.055L4.289-11.375H6.461L10.719,0H8.227Zm-3.477-1.9H6.8L5.375-8.5Zm9.375-4.211.07.977a2.951,2.951,0,0,1,2.43-1.133,2.453,2.453,0,0,1,2,.789,3.682,3.682,0,0,1,.672,2.359V0H16.25V-5.406a1.465,1.465,0,0,0-.312-1.043A1.4,1.4,0,0,0,14.9-6.773a1.553,1.553,0,0,0-1.43.813V0H11.211V-8.453ZM25.117,0a2.507,2.507,0,0,1-.227-.758,2.732,2.732,0,0,1-2.133.914A3,3,0,0,1,20.7-.562a2.312,2.312,0,0,1-.816-1.812,2.389,2.389,0,0,1,1-2.062,4.915,4.915,0,0,1,2.879-.727H24.8v-.484a1.393,1.393,0,0,0-.3-.937,1.183,1.183,0,0,0-.949-.352,1.345,1.345,0,0,0-.895.273.929.929,0,0,0-.324.75H20.07a2.268,2.268,0,0,1,.453-1.359,3,3,0,0,1,1.281-.98,4.669,4.669,0,0,1,1.859-.355,3.689,3.689,0,0,1,2.48.785,2.747,2.747,0,0,1,.918,2.207v3.664A4.041,4.041,0,0,0,27.4-.133V0ZM23.25-1.57a1.945,1.945,0,0,0,.922-.223,1.462,1.462,0,0,0,.625-.6V-3.844h-.844q-1.7,0-1.8,1.172l-.008.133a.9.9,0,0,0,.3.7A1.153,1.153,0,0,0,23.25-1.57ZM31.18,0H28.914V-12H31.18Zm4.242,0H33.156V-8.453h2.266Zm-2.4-10.641a1.112,1.112,0,0,1,.34-.836,1.277,1.277,0,0,1,.926-.328,1.28,1.28,0,0,1,.922.328,1.105,1.105,0,0,1,.344.836,1.108,1.108,0,0,1-.348.844,1.283,1.283,0,0,1-.918.328,1.283,1.283,0,0,1-.918-.328A1.108,1.108,0,0,1,33.023-10.641Zm6.852,8.82h4.133V0H36.992V-1.375l3.977-5.258H37.109v-1.82h6.773v1.33ZM50.32,0a2.507,2.507,0,0,1-.227-.758,2.732,2.732,0,0,1-2.133.914A3,3,0,0,1,45.9-.562a2.312,2.312,0,0,1-.816-1.812,2.389,2.389,0,0,1,1-2.062,4.915,4.915,0,0,1,2.879-.727H50v-.484a1.393,1.393,0,0,0-.3-.937,1.183,1.183,0,0,0-.949-.352,1.345,1.345,0,0,0-.895.273.929.929,0,0,0-.324.75H45.273a2.268,2.268,0,0,1,.453-1.359,3,3,0,0,1,1.281-.98,4.669,4.669,0,0,1,1.859-.355,3.689,3.689,0,0,1,2.48.785,2.747,2.747,0,0,1,.918,2.207v3.664A4.041,4.041,0,0,0,52.6-.133V0ZM48.453-1.57a1.945,1.945,0,0,0,.922-.223,1.462,1.462,0,0,0,.625-.6V-3.844h-.844q-1.7,0-1.8,1.172l-.008.133a.9.9,0,0,0,.3.7A1.153,1.153,0,0,0,48.453-1.57Zm10.3-4.766a6.134,6.134,0,0,0-.812-.062,1.654,1.654,0,0,0-1.68.867V0H54V-8.453h2.133L56.2-7.445a2.092,2.092,0,0,1,1.883-1.164,2.366,2.366,0,0,1,.7.1Z" transform="translate(422 919)" fill="#12263f"/>
    <path id="Trazado_609075" data-name="Trazado 609075" d="M3.359-4.008V0H1.016V-11.375H5.453a5.134,5.134,0,0,1,2.254.469A3.454,3.454,0,0,1,9.2-9.574a3.714,3.714,0,0,1,.523,1.965A3.266,3.266,0,0,1,8.582-4.973a4.767,4.767,0,0,1-3.168.965Zm0-1.9H5.453a2.059,2.059,0,0,0,1.418-.437,1.591,1.591,0,0,0,.488-1.25,1.876,1.876,0,0,0-.492-1.352,1.839,1.839,0,0,0-1.359-.531H3.359Zm12.578-.43a6.134,6.134,0,0,0-.812-.062,1.654,1.654,0,0,0-1.68.867V0H11.188V-8.453H13.32l.063,1.008a2.092,2.092,0,0,1,1.883-1.164,2.366,2.366,0,0,1,.7.1ZM20.766.156A4.15,4.15,0,0,1,17.738-.984,4.054,4.054,0,0,1,16.57-4.023v-.219a5.106,5.106,0,0,1,.492-2.277,3.612,3.612,0,0,1,1.395-1.547,3.914,3.914,0,0,1,2.059-.543,3.508,3.508,0,0,1,2.73,1.094,4.444,4.444,0,0,1,1,3.1v.922H18.859a2.1,2.1,0,0,0,.66,1.328,2,2,0,0,0,1.395.5,2.437,2.437,0,0,0,2.039-.945l1.109,1.242A3.389,3.389,0,0,1,22.688-.246,4.511,4.511,0,0,1,20.766.156Zm-.258-6.945a1.411,1.411,0,0,0-1.09.455,2.357,2.357,0,0,0-.535,1.3h3.141v-.181a1.681,1.681,0,0,0-.406-1.165A1.456,1.456,0,0,0,20.508-6.789ZM30.1-2.336a.727.727,0,0,0-.41-.652,4.659,4.659,0,0,0-1.316-.426q-3.016-.633-3.016-2.562a2.323,2.323,0,0,1,.934-1.879,3.766,3.766,0,0,1,2.441-.754,4.053,4.053,0,0,1,2.574.758,2.388,2.388,0,0,1,.965,1.969H30.016a1.092,1.092,0,0,0-.312-.8A1.322,1.322,0,0,0,28.727-7a1.351,1.351,0,0,0-.883.258.814.814,0,0,0-.312.656.7.7,0,0,0,.355.605,3.657,3.657,0,0,0,1.2.4,9.8,9.8,0,0,1,1.422.379A2.336,2.336,0,0,1,32.3-2.43,2.2,2.2,0,0,1,31.3-.559a4.28,4.28,0,0,1-2.562.715,4.47,4.47,0,0,1-1.887-.379,3.166,3.166,0,0,1-1.293-1.039,2.414,2.414,0,0,1-.469-1.426h2.141a1.179,1.179,0,0,0,.445.922,1.766,1.766,0,0,0,1.109.32,1.635,1.635,0,0,0,.98-.246A.766.766,0,0,0,30.1-2.336ZM37.641.156A4.15,4.15,0,0,1,34.613-.984a4.054,4.054,0,0,1-1.168-3.039v-.219a5.106,5.106,0,0,1,.492-2.277,3.612,3.612,0,0,1,1.395-1.547,3.914,3.914,0,0,1,2.059-.543,3.508,3.508,0,0,1,2.73,1.094,4.444,4.444,0,0,1,1,3.1v.922H35.734a2.1,2.1,0,0,0,.66,1.328,2,2,0,0,0,1.395.5,2.437,2.437,0,0,0,2.039-.945l1.109,1.242A3.389,3.389,0,0,1,39.563-.246,4.511,4.511,0,0,1,37.641.156Zm-.258-6.945a1.411,1.411,0,0,0-1.09.455,2.357,2.357,0,0,0-.535,1.3H38.9v-.181a1.681,1.681,0,0,0-.406-1.165A1.456,1.456,0,0,0,37.383-6.789Zm7.094-1.664.07.977a2.951,2.951,0,0,1,2.43-1.133,2.453,2.453,0,0,1,2,.789,3.682,3.682,0,0,1,.672,2.359V0H47.391V-5.406a1.465,1.465,0,0,0-.312-1.043,1.4,1.4,0,0,0-1.039-.324,1.553,1.553,0,0,0-1.43.813V0H42.352V-8.453Zm9.586-2.078v2.078h1.445V-6.8H54.063v4.219a1.007,1.007,0,0,0,.18.672.9.9,0,0,0,.688.2,3.6,3.6,0,0,0,.664-.055V-.047a4.648,4.648,0,0,1-1.367.2,2.156,2.156,0,0,1-2.422-2.4V-6.8H50.57V-8.453H51.8v-2.078ZM61.664,0a2.507,2.507,0,0,1-.227-.758A2.732,2.732,0,0,1,59.3.156a3,3,0,0,1-2.059-.719,2.312,2.312,0,0,1-.816-1.812,2.389,2.389,0,0,1,1-2.062A4.915,4.915,0,0,1,60.3-5.164h1.039v-.484a1.393,1.393,0,0,0-.3-.937,1.183,1.183,0,0,0-.949-.352,1.345,1.345,0,0,0-.895.273.929.929,0,0,0-.324.75H56.617a2.268,2.268,0,0,1,.453-1.359,3,3,0,0,1,1.281-.98,4.669,4.669,0,0,1,1.859-.355,3.689,3.689,0,0,1,2.48.785,2.747,2.747,0,0,1,.918,2.207v3.664a4.041,4.041,0,0,0,.336,1.82V0ZM59.8-1.57a1.945,1.945,0,0,0,.922-.223,1.462,1.462,0,0,0,.625-.6V-3.844H60.5q-1.7,0-1.8,1.172l-.008.133a.9.9,0,0,0,.3.7A1.153,1.153,0,0,0,59.8-1.57Zm10.3-4.766a6.134,6.134,0,0,0-.812-.062,1.654,1.654,0,0,0-1.68.867V0H65.344V-8.453h2.133l.063,1.008a2.092,2.092,0,0,1,1.883-1.164,2.366,2.366,0,0,1,.7.1Z" transform="translate(420 1213)" fill="#12263f"/>
  </g>
</svg>
