<svg id="Grupo_1015769" data-name="Grupo 1015769" xmlns="http://www.w3.org/2000/svg" xmlns:xlink="http://www.w3.org/1999/xlink" width="89.333" height="89.017" viewBox="0 0 89.333 89.017">
  <defs>
    <clipPath id="clip-path">
      <rect id="Rectángulo_345775" data-name="Rectángulo 345775" width="89.333" height="89.017" fill="none"/>
    </clipPath>
  </defs>
  <g id="Grupo_1015768" data-name="Grupo 1015768" clip-path="url(#clip-path)">
    <path id="Trazado_605782" data-name="Trazado 605782" d="M.033,41.723q0-13.882,0-27.764a2.747,2.747,0,0,1,.031-1.015A1.642,1.642,0,0,1,1.6,11.89c.217-.009.434-.007.651-.007q16.484,0,32.969.012c.464,0,.544-.127.537-.556-.027-1.653-.019-3.306,0-4.959,0-.32-.039-.443-.414-.441q-6.464.025-12.927.005c-.3,0-.411.1-.553.381A4.4,4.4,0,0,1,13.584,5.6,4.307,4.307,0,0,1,16.746.135,4.537,4.537,0,0,1,21.9,2.685a.441.441,0,0,0,.5.3q7.184-.008,14.368,0a1.859,1.859,0,0,1,1.505.524,1.03,1.03,0,0,1,.315.976c-.065.265.154.514.151.812-.022,2.055,0,4.11-.02,6.164,0,.345.079.429.428.428q5.533-.021,11.068,0c.347,0,.435-.08.427-.427-.056-2.31.023-4.621-.047-6.933-.028-.916.563-1.524,1.7-1.533,3.813-.03,7.626-.014,11.439-.015,1.069,0,2.139-.008,3.208.006a.443.443,0,0,0,.5-.345A3.663,3.663,0,0,1,70.421.155a4.57,4.57,0,0,1,4.271,1.26A4.48,4.48,0,0,1,73.048,8.6a4.25,4.25,0,0,1-5.037-1.343,3.8,3.8,0,0,1-.577-1.041.355.355,0,0,0-.388-.272q-6.556.009-13.113,0c-.262,0-.335.068-.333.331.012,1.761.021,3.523-.005,5.284-.006.395.207.325.431.325H64.86q11.23,0,22.46,0a2.007,2.007,0,0,1,1.45.435.987.987,0,0,1,.381,1.113c-.079.233.184.435.183.719q-.023,27.578-.02,55.157c0,1.278-.565,1.9-1.914,1.905-1.967.012-3.935,0-5.9,0H57.926c-.835,0-1.671.01-2.506-.006-.263-.005-.334.069-.333.331.01,2.75.016,5.5-.005,8.25,0,.394.206.325.431.325q7,0,14,0a1.689,1.689,0,0,1,1.763.9,2.276,2.276,0,0,1,.191.935c0,1.73.026,3.461-.01,5.191-.025,1.217-.521,1.862-1.858,1.863q-24.9.015-49.8.006a1.685,1.685,0,0,1-1.842-1.172A1.248,1.248,0,0,1,17.9,87.4c-.006-1.854.015-3.708-.013-5.562A1.679,1.679,0,0,1,19.6,80.116c4.727.007,9.455,0,14.182.01.369,0,.491-.06.487-.464-.023-2.364-.013-4.728-.009-7.091,0-.354-.153-.7-.01-1.066.073-.186-.012-.3-.257-.294-1.13.013-2.26.006-3.391.006q-14.229,0-28.458.015A1.977,1.977,0,0,1,.3,70.47a1.571,1.571,0,0,1-.269-.937q.007-13.9,0-27.81m46.122,9.756a1.441,1.441,0,0,1,1.026-1.388c.521-.23,1.059-.421,1.576-.659a1.611,1.611,0,0,1,1.958.307c.357.343.736.663,1.093,1.005.2.192.357.245.574,0,.506-.564,1.031-1.111,1.559-1.654.2-.21.158-.364-.036-.544-.34-.316-.671-.641-1-.97a1.482,1.482,0,0,1-.371-1.9,13.315,13.315,0,0,0,.64-1.536,1.606,1.606,0,0,1,1.634-1.112c.5-.008.992-.012,1.488,0,.223.006.293-.065.289-.288-.012-.8,0-1.606-.007-2.41,0-.1.053-.244-.106-.263a5.2,5.2,0,0,0-1.066-.122c-1.329.174-1.857-.072-2.27-1.3a10.779,10.779,0,0,0-.666-1.525,1.118,1.118,0,0,1,.1-1.305A9.46,9.46,0,0,1,53.766,34.6c.269-.243.286-.451.035-.7-.463-.456-.922-.916-1.387-1.369a.534.534,0,0,0-.885.032,9.543,9.543,0,0,1-1,.97,1.38,1.38,0,0,1-1.656.231,14.7,14.7,0,0,0-1.66-.712,1.538,1.538,0,0,1-1.052-1.528c0-.525-.007-1.051,0-1.576,0-.2-.056-.269-.262-.267-.763.01-1.526.006-2.289,0-.327,0-.454.142-.436.479.025.462.017.927,0,1.39a1.521,1.521,0,0,1-1,1.482c-.619.237-1.231.487-1.831.765a1.361,1.361,0,0,1-1.658-.3c-.363-.359-.734-.711-1.076-1.089-.208-.23-.363-.219-.567-.01-.518.531-1.032,1.068-1.577,1.571-.284.262-.2.415.038.63.353.323.668.686,1.02,1.01a1.378,1.378,0,0,1,.327,1.6c-.24.69-.509,1.373-.817,2.036a1.438,1.438,0,0,1-1.354.822c-.5.016-.992,0-1.488,0-.288,0-.445.1-.436.431.02.756.018,1.514,0,2.271-.007.285.087.385.37.375a11.783,11.783,0,0,1,1.441-.006c.864.073,1.228.2,1.5.979.189.534.4,1.052.634,1.567a1.553,1.553,0,0,1-.394,2.143c-.314.32-.634.634-.964.939-.155.143-.19.229-.005.39.57.5,1.126,1.014,1.676,1.536a.358.358,0,0,0,.607-.023c.322-.355.666-.691,1.013-1.021a1.416,1.416,0,0,1,1.815-.3,14.717,14.717,0,0,0,1.583.659A1.554,1.554,0,0,1,43.1,51.169a8.615,8.615,0,0,1,.082,1.934c.006.231.052.325.307.319.775-.016,1.55-.008,2.325,0,.167,0,.309-.02.351-.214,0-.045,0-.09,0-.135q0-.246,0-.491c.159-.1.151-.2-.015-.282a2.308,2.308,0,0,1,0-.73.089.089,0,0,0,.008-.088m-5.943.973-.166-.092c-.5.528-.984,1.069-1.5,1.58a1.531,1.531,0,0,1-2.495-.022q-1.9-1.905-3.8-3.813a1.5,1.5,0,0,1-.028-2.421c.377-.388.774-.757,1.153-1.144.126-.128.363-.251.3-.434-.07-.2-.325-.1-.5-.1-.589-.012-1.178.008-1.767-.008A1.585,1.585,0,0,1,29.8,44.373a8.07,8.07,0,0,1,0-.88c.03-.343-.056-.471-.444-.47q-7.139.022-14.276,0a.586.586,0,0,0-.631.385,4.263,4.263,0,0,1-3.926,2.572,4.428,4.428,0,0,1-4.2-6.107A4.29,4.29,0,0,1,10.6,37.131,4.218,4.218,0,0,1,14.443,39.7a.535.535,0,0,0,.55.377q7.231-.013,14.462,0c.31,0,.333-.12.351-.377a5.257,5.257,0,0,1,.01-1.341c.19-.6.458-1.077,1.165-1.19a22.349,22.349,0,0,1,2.361-.067c.116-.006.272.06.34-.069.082-.157-.071-.251-.165-.344-.5-.5-1.016-1-1.517-1.5a1.107,1.107,0,0,1-.424-1.048,2.362,2.362,0,0,1,.654-1.187c1.036-1,2.038-2.032,3.074-3.031a1.4,1.4,0,0,0,.449-1.1q-.011-6.559,0-13.118c0-.722-.131-.853-.854-.853q-15.672,0-31.343-.011c-.451,0-.552.108-.552.553q.02,23.177,0,46.354c0,.45.084.584.569.584q41.132-.021,82.264,0c.437,0,.522-.125.521-.534q-.016-23.084-.009-46.168c0-.62-.157-.774-.794-.774H54.067c-.235,0-.473-.079-.472.342q.023,7,.006,14a.808.808,0,0,0,.261.611q1.614,1.6,3.222,3.21a1.477,1.477,0,0,1-.013,2.461c-.384.382-.778.754-1.157,1.14-.111.114-.321.223-.234.409.072.154.278.073.424.075.589.007,1.178,0,1.767,0a1.6,1.6,0,0,1,1.684,1.651,8.747,8.747,0,0,1,0,.927c-.021.291.059.395.377.394q7.138-.016,14.276-.006a.719.719,0,0,0,.717-.442,4.618,4.618,0,0,1,1.785-1.951,4.69,4.69,0,0,1,1.768-.513,4.046,4.046,0,0,1,3.061.8,4.473,4.473,0,0,1-3.364,8,4.088,4.088,0,0,1-3.107-2.251,1.12,1.12,0,0,0-1.13-.7c-4.417.033-8.836.023-13.254.009-.371,0-.725.2-1.123.012,0,.441,0,.826,0,1.212a1.629,1.629,0,0,1-1.787,1.758C57.2,45.971,56.623,46,56.049,46c-.12,0-.264-.04-.34.088-.1.167.082.259.156.337.444.474.916.922,1.369,1.388a1.4,1.4,0,0,1-.006,2.129c-.378.387-.752.777-1.134,1.161-1.015,1.019-2.012,2.057-3.059,3.044a1.384,1.384,0,0,1-2.042-.039c-.287-.258-.553-.541-.82-.82a3.983,3.983,0,0,0-1.033-.831c0,.763.005,1.467,0,2.172a1.65,1.65,0,0,1-1.784,1.766c-1.766-.037-3.534-.01-5.3-.011a1.631,1.631,0,0,1-1.843-1.818q0-1.057,0-2.114m4.461,15.8H85.5a4.983,4.983,0,0,1,.511,0c.27.029.346-.086.341-.343-.014-.679,0-1.36,0-2.039,0-.589,0-.589-.609-.589H3.671a3.059,3.059,0,0,1-.325,0c-.268-.029-.347.089-.342.346.015.664,0,1.329.006,1.993,0,.7-.08.628.608.628q20.528,0,41.055,0M40.212,30.738c0-.8.039-1.491-.009-2.179A1.714,1.714,0,0,1,42.068,26.7c1.61.048,3.224.012,4.836.013a3.879,3.879,0,0,1,1.055.074,1.555,1.555,0,0,1,1.166,1.359c.015.695.012,1.39.015,2.085,0,.184.076.435.255.231.495-.564,1.375-.85,1.267-1.881a12.434,12.434,0,0,1-.036-1.254c.007-4,0-8,.013-12.005,0-.38-.085-.487-.478-.485-3.41.017-6.82.01-10.231.01a7.675,7.675,0,0,0-.913.072c-.305.036-.294.174-.294.387q0,6.837,0,13.674a.614.614,0,0,0,.125.477,13.6,13.6,0,0,0,1.364,1.278M44.689,86.05H67.655a4.025,4.025,0,0,1,.464,0c.282.033.381-.069.373-.359-.019-.663-.006-1.328-.006-1.992,0-.62,0-.62-.625-.62h-46.3a2.878,2.878,0,0,1-.326,0c-.279-.033-.382.071-.374.362.02.679.041,1.361,0,2.038-.033.481.127.58.589.579q11.622-.022,23.244-.011m.066-5.933c2.294,0,4.587-.009,6.88.009.391,0,.492-.113.49-.495q-.023-3.962,0-7.924c0-.435-.15-.5-.534-.5q-6.833.018-13.667.008c-.6,0-.689.089-.69.7q0,3.776,0,7.553c0,.577.066.643.639.644h6.88M16.389,4.493c-.115.823.806,1.513,1.529,1.485a1.432,1.432,0,0,0,1.459-1.416C19.294,3.5,18.774,3.075,17.713,3a1.439,1.439,0,0,0-1.324,1.5m53.572.031c-.105.754.76,1.49,1.56,1.454a1.475,1.475,0,0,0,1.439-1.4,1.591,1.591,0,0,0-1.7-1.59,1.491,1.491,0,0,0-1.3,1.535M80.3,41.511A1.35,1.35,0,0,0,78.9,40.072a1.477,1.477,0,0,0-.017,2.955A1.375,1.375,0,0,0,80.3,41.511m-68.453-.026c.159-.726-.655-1.409-1.376-1.414a1.478,1.478,0,0,0-.055,2.956,1.375,1.375,0,0,0,1.431-1.542" transform="translate(0 0)"/>
    <path id="Trazado_605783" data-name="Trazado 605783" d="M45.27,77.492q0,1.057,0,2.114a1.631,1.631,0,0,0,1.842,1.818c1.767,0,3.535-.026,5.3.011A1.65,1.65,0,0,0,54.2,79.669c.006-.7,0-1.409,0-2.172a3.983,3.983,0,0,1,1.033.831c.267.28.533.562.82.82a1.385,1.385,0,0,0,2.043.039c1.046-.986,2.043-2.025,3.059-3.044.381-.383.756-.774,1.133-1.161a1.4,1.4,0,0,0,.006-2.129c-.453-.466-.925-.914-1.369-1.388-.074-.079-.254-.171-.156-.337.075-.128.22-.087.339-.088.573,0,1.149-.03,1.72.006a1.629,1.629,0,0,0,1.787-1.758c0-.385,0-.771,0-1.212.4.188.751-.013,1.123-.012,4.417.013,8.836.023,13.253-.01a1.12,1.12,0,0,1,1.13.7,4.088,4.088,0,0,0,3.107,2.251A4.358,4.358,0,0,0,87.4,69.4a4.484,4.484,0,0,0-.8-6.4,4.046,4.046,0,0,0-3.061-.8,4.691,4.691,0,0,0-1.768.513,4.615,4.615,0,0,0-1.785,1.951.719.719,0,0,1-.717.442q-7.138,0-14.276.006c-.318,0-.4-.1-.377-.394a8.744,8.744,0,0,0,0-.927,1.6,1.6,0,0,0-1.684-1.652c-.589-.009-1.178,0-1.767,0-.145,0-.352.079-.424-.074-.087-.186.123-.3.234-.409.379-.387.773-.758,1.157-1.14a1.477,1.477,0,0,0,.013-2.46q-1.61-1.606-3.222-3.21a.808.808,0,0,1-.261-.611q.007-7-.006-14c0-.42.237-.341.472-.341H90.608c.637,0,.794.155.794.774q0,23.084.009,46.168c0,.409-.084.534-.521.534q-41.132-.018-82.264,0c-.485,0-.569-.134-.568-.583q.018-23.177,0-46.354c0-.445.1-.554.552-.553q15.672.021,31.344.011c.724,0,.854.131.854.853q0,6.559,0,13.118a1.4,1.4,0,0,1-.449,1.1c-1.036,1-2.038,2.034-3.074,3.032a2.359,2.359,0,0,0-.654,1.187,1.107,1.107,0,0,0,.424,1.048c.5.505,1.014,1,1.517,1.5.093.093.247.187.164.344-.068.129-.224.063-.34.069a22.255,22.255,0,0,0-2.361.067c-.706.113-.974.591-1.164,1.19a5.257,5.257,0,0,0-.01,1.341c-.017.257-.04.378-.351.377q-7.231-.016-14.462,0a.533.533,0,0,1-.549-.377,4.219,4.219,0,0,0-3.841-2.565,4.289,4.289,0,0,0-4.277,2.746,4.428,4.428,0,0,0,4.2,6.107,4.263,4.263,0,0,0,3.926-2.572.586.586,0,0,1,.631-.385q7.138.013,14.276,0c.387,0,.474.126.444.47a7.888,7.888,0,0,0,0,.88,1.584,1.584,0,0,0,1.614,1.623c.589.016,1.178,0,1.767.008.172,0,.426-.1.5.1.064.184-.173.306-.3.434-.379.387-.777.755-1.153,1.144a1.5,1.5,0,0,0,.028,2.42l3.8,3.813a1.531,1.531,0,0,0,2.495.022c.515-.512,1-1.053,1.5-1.58l.166.092M79.5,51.852c0-1.869.01-3.737-.009-5.606,0-.351.093-.444.438-.43.7.028,1.394.009,2.091.008,1.612,0,3.223.009,4.834,0a1.459,1.459,0,0,0,1.482-1.755,1.416,1.416,0,0,0-1.576-1.194c-2.9-.035-5.794-.02-8.691,0a1.394,1.394,0,0,0-1.476,1.076,2.437,2.437,0,0,0-.076.909c.012,3.66,0,7.32.015,10.98,0,.31-.093.384-.391.38-1.286-.015-2.572-.007-3.857-.007-1.054,0-2.108-.019-3.161.012a1.47,1.47,0,0,0-1.527,1.574,1.612,1.612,0,0,0,1.577,1.378q4.369.009,8.738,0a1.459,1.459,0,0,0,.586-.109,1.657,1.657,0,0,0,1-1.7c.007-1.838,0-3.676,0-5.513M22.948,50.206q0-2.78,0-5.559a1.554,1.554,0,0,0-.965-1.633,3.288,3.288,0,0,0-1.037-.148c-2.89.043-5.782-.109-8.672.074a1.315,1.315,0,0,0-1.183.992,1.193,1.193,0,0,0,.24,1.243,1.72,1.72,0,0,0,1.424.657c2.153-.018,4.307-.008,6.46-.006.594,0,.757.169.757.763q0,3.451,0,6.9c0,1.405-.008,2.811.009,4.216a1.562,1.562,0,0,0,1.457,1.463c.467.022.933.017,1.4.012,1.719-.017,3.439-.006,5.159-.007.806,0,1.612.011,2.416-.008a1.514,1.514,0,0,0,1.369-1.11,1.4,1.4,0,0,0-.839-1.681A2.488,2.488,0,0,0,30,56.206c-2.215,0-4.431,0-6.646.009-.319,0-.418-.072-.415-.4.017-1.868.008-3.737.008-5.605" transform="translate(-5.058 -25.041)" fill="#5f8fbf"/>
    <path id="Trazado_605784" data-name="Trazado 605784" d="M49.741,178.4q-20.528,0-41.055,0c-.689,0-.6.076-.608-.628,0-.665.009-1.329-.006-1.993-.005-.257.074-.375.342-.346a2.959,2.959,0,0,0,.325,0H90.8c.609,0,.609,0,.609.588,0,.68-.009,1.36,0,2.039,0,.258-.071.372-.342.343a4.973,4.973,0,0,0-.511,0H49.741" transform="translate(-5.068 -110.155)" fill="#b90000"/>
    <path id="Trazado_605785" data-name="Trazado 605785" d="M101.453,103.287c-.042.194-.183.215-.351.214-.775,0-1.55-.012-2.325,0-.255.006-.3-.088-.307-.319a8.616,8.616,0,0,0-.082-1.934,1.554,1.554,0,0,0-1.057-1.162,14.717,14.717,0,0,1-1.583-.659,1.416,1.416,0,0,0-1.815.3c-.348.33-.691.667-1.013,1.021a.359.359,0,0,1-.608.023c-.55-.521-1.106-1.037-1.676-1.536-.184-.161-.15-.248.005-.39.329-.3.65-.619.964-.939A1.553,1.553,0,0,0,92,95.765c-.233-.514-.445-1.033-.634-1.567-.275-.775-.638-.906-1.5-.979a11.779,11.779,0,0,0-1.44.006c-.282.01-.377-.09-.37-.375.018-.756.02-1.514,0-2.271-.009-.333.148-.431.436-.431.5,0,.992.012,1.488,0a1.439,1.439,0,0,0,1.355-.822c.308-.663.576-1.346.816-2.036a1.377,1.377,0,0,0-.327-1.6c-.352-.324-.667-.687-1.02-1.01-.234-.215-.322-.368-.038-.63.545-.5,1.059-1.04,1.577-1.571.2-.209.359-.22.567.01.342.378.713.73,1.076,1.089a1.362,1.362,0,0,0,1.658.3c.6-.278,1.213-.528,1.832-.765a1.521,1.521,0,0,0,1-1.482c.019-.463.027-.928,0-1.39-.018-.336.108-.48.436-.479.763,0,1.526.007,2.288,0,.207,0,.266.068.262.267-.011.525,0,1.05,0,1.576a1.538,1.538,0,0,0,1.052,1.528,14.729,14.729,0,0,1,1.66.712,1.38,1.38,0,0,0,1.656-.231,9.505,9.505,0,0,0,1-.97.534.534,0,0,1,.885-.032c.465.454.925.913,1.387,1.369.251.247.234.455-.035.7a9.438,9.438,0,0,0-1.193,1.231,1.119,1.119,0,0,0-.1,1.305,10.777,10.777,0,0,1,.666,1.525c.413,1.226.941,1.472,2.27,1.3a5.2,5.2,0,0,1,1.066.122c.159.019.105.167.106.263,0,.8,0,1.607.007,2.41,0,.223-.067.294-.289.288-.5-.014-.992-.01-1.488,0a1.605,1.605,0,0,0-1.634,1.112,13.445,13.445,0,0,1-.64,1.536,1.482,1.482,0,0,0,.371,1.9c.328.329.659.654,1,.97.193.18.24.334.036.544-.528.543-1.053,1.091-1.559,1.654-.217.241-.373.189-.574,0-.358-.342-.736-.662-1.093-1.005a1.611,1.611,0,0,0-1.958-.307c-.516.238-1.055.429-1.575.659a1.44,1.44,0,0,0-1.026,1.388c-.009.008-.025.016-.025.023a.4.4,0,0,0,.016.064,2.319,2.319,0,0,0,0,.73.2.2,0,0,0,.015.282q0,.246,0,.491c0,.045,0,.09,0,.135M94.014,91.754A5.962,5.962,0,0,0,99.481,97.6a5.949,5.949,0,1,0,.462-11.882,5.937,5.937,0,0,0-5.929,6.037" transform="translate(-55.289 -50.084)" fill="#eeae21"/>
    <path id="Trazado_605786" data-name="Trazado 605786" d="M105.554,55.782A13.48,13.48,0,0,1,104.19,54.5a.612.612,0,0,1-.125-.477q0-6.837,0-13.674c0-.213-.011-.351.295-.387a7.753,7.753,0,0,1,.913-.072c3.41,0,6.82.007,10.23-.01.393,0,.48.1.478.485-.015,4-.006,8-.013,12.005A12.228,12.228,0,0,0,116,53.629c.107,1.031-.773,1.317-1.267,1.881-.179.2-.254-.048-.255-.231,0-.7,0-1.391-.015-2.086a1.555,1.555,0,0,0-1.166-1.359,3.891,3.891,0,0,0-1.054-.074c-1.612,0-3.225.036-4.836-.013a1.714,1.714,0,0,0-1.865,1.856c.048.688.009,1.382.009,2.179" transform="translate(-65.342 -25.043)" fill="#5f8fbf"/>
    <path id="Trazado_605787" data-name="Trazado 605787" d="M79.874,226.24q-11.623,0-23.245.011c-.463,0-.622-.1-.589-.58.045-.676.025-1.359,0-2.038-.009-.291.094-.395.374-.362a2.79,2.79,0,0,0,.325,0h46.3c.625,0,.625,0,.625.619,0,.664-.013,1.329.006,1.993.008.289-.092.391-.373.359a4.108,4.108,0,0,0-.464,0H79.874" transform="translate(-35.185 -140.19)" fill="#b90000"/>
    <path id="Trazado_605788" data-name="Trazado 605788" d="M107.589,200.282q-3.44,0-6.88,0c-.573,0-.639-.067-.639-.644q0-3.776,0-7.553c0-.613.091-.7.69-.7q6.834,0,13.667-.008c.384,0,.538.064.534.5q-.032,3.962,0,7.923c0,.382-.1.5-.49.495-2.293-.017-4.587-.009-6.88-.009" transform="translate(-62.834 -120.165)" fill="#323132"/>
    <path id="Trazado_605789" data-name="Trazado 605789" d="M44.028,9.548a1.439,1.439,0,0,1,1.324-1.5c1.061.078,1.581.5,1.664,1.564a1.432,1.432,0,0,1-1.459,1.416c-.722.028-1.643-.662-1.528-1.485" transform="translate(-27.64 -5.054)" fill="#5f8fbf"/>
    <path id="Trazado_605790" data-name="Trazado 605790" d="M188.005,9.567a1.491,1.491,0,0,1,1.3-1.535,1.59,1.59,0,0,1,1.7,1.59,1.475,1.475,0,0,1-1.439,1.4c-.8.037-1.665-.7-1.56-1.453" transform="translate(-118.044 -5.042)" fill="#5f8fbf"/>
    <path id="Trazado_605791" data-name="Trazado 605791" d="M210.946,109.132a1.375,1.375,0,0,1-1.411,1.516,1.477,1.477,0,0,1,.017-2.955,1.35,1.35,0,0,1,1.394,1.439" transform="translate(-130.647 -67.621)" fill="#eeae21"/>
    <path id="Trazado_605792" data-name="Trazado 605792" d="M26.974,109.1a1.375,1.375,0,0,1-1.431,1.542,1.478,1.478,0,0,1,.055-2.956c.721,0,1.535.688,1.376,1.414" transform="translate(-15.129 -67.62)" fill="#eeae21"/>
    <path id="Trazado_605793" data-name="Trazado 605793" d="M123.943,140.829a.2.2,0,0,1-.015-.282c.166.086.173.179.015.282" transform="translate(-77.784 -88.25)" fill="#323132"/>
    <path id="Trazado_605794" data-name="Trazado 605794" d="M124.061,142.757c0-.045,0-.09,0-.135,0,.045,0,.09,0,.135" transform="translate(-77.897 -89.553)" fill="#323132"/>
    <path id="Trazado_605795" data-name="Trazado 605795" d="M123.991,138.437a.359.359,0,0,1-.016-.064c0-.007.016-.016.025-.024a.09.09,0,0,1-.008.088" transform="translate(-77.845 -86.87)" fill="#323132"/>
    <path id="Trazado_605796" data-name="Trazado 605796" d="M179.963,56.864c0,1.838,0,3.676,0,5.513a1.657,1.657,0,0,1-1,1.7,1.465,1.465,0,0,1-.586.109q-4.369,0-8.738,0a1.612,1.612,0,0,1-1.577-1.378,1.47,1.47,0,0,1,1.527-1.574c1.053-.031,2.107-.011,3.161-.012,1.286,0,2.572-.009,3.857.007.3,0,.392-.07.391-.38-.011-3.66,0-7.32-.015-10.98a2.438,2.438,0,0,1,.076-.909,1.394,1.394,0,0,1,1.476-1.076c2.9-.018,5.795-.032,8.691,0a1.416,1.416,0,0,1,1.576,1.194,1.46,1.46,0,0,1-1.482,1.755c-1.611.012-3.222,0-4.834,0-.7,0-1.395.02-2.091-.008-.345-.014-.441.079-.438.43.019,1.869.009,3.737.009,5.606" transform="translate(-105.525 -30.053)"/>
    <path id="Trazado_605797" data-name="Trazado 605797" d="M27.932,55.212c0,1.869.009,3.737-.008,5.605,0,.332.1.406.415.4,2.215-.014,4.431-.006,6.646-.009a2.487,2.487,0,0,1,.942.169,1.4,1.4,0,0,1,.84,1.681,1.515,1.515,0,0,1-1.369,1.11c-.805.019-1.611.008-2.416.008-1.72,0-3.439-.01-5.159.007-.467,0-.934.01-1.4-.012a1.562,1.562,0,0,1-1.457-1.463c-.017-1.405-.009-2.81-.009-4.216q0-3.451,0-6.9c0-.595-.163-.762-.758-.763-2.153,0-4.307-.012-6.46.006a1.72,1.72,0,0,1-1.424-.657,1.192,1.192,0,0,1-.24-1.243,1.315,1.315,0,0,1,1.183-.992c2.89-.183,5.782-.031,8.672-.074a3.29,3.29,0,0,1,1.037.148,1.553,1.553,0,0,1,.964,1.633c0,1.853,0,3.706,0,5.559" transform="translate(-10.042 -30.047)"/>
    <path id="Trazado_605798" data-name="Trazado 605798" d="M104.073,101.8A5.937,5.937,0,0,1,110,95.761a5.949,5.949,0,1,1-.462,11.883,5.962,5.962,0,0,1-5.467-5.845m5.835-2.988c-1.819,0-2.915,1.159-2.822,3.264a2.753,2.753,0,0,0,2.908,2.55c1.749.039,2.928-1.337,2.914-3.344a2.754,2.754,0,0,0-3-2.47" transform="translate(-65.348 -60.129)"/>
  </g>
</svg>
